<svg width="300" height="99" id="Layer_1" data-name="Layer 1" xmlns="http://www.w3.org/2000/svg" viewBox="0 0 297.83201 99.00779">
  <defs>
    <style>
      .cls-1 {
        fill: #e74c3c;
      }

      .cls-2 {
        fill: #fff;
      }
    </style>
  </defs>
  <title>Parts Cargo Updated Final Logo_white</title>
  <polygon id="_Path_" data-name=" Path " class="cls-1" points="101.087 98.875 101.112 98.895 92.706 98.895 115.151 70.18 123.495 70.18 101.087 98.875"/>
  <polygon id="_Path_2" data-name=" Path 2" class="cls-1" points="58.305 70.18 36.907 98.895 0 98.895 0 70.18 58.305 70.18"/>
  <polygon id="_Path_3" data-name=" Path 3" class="cls-1" points="80.261 70.18 57.425 98.895 39.118 98.895 60.517 70.18 80.261 70.18"/>
  <polygon id="_Path_4" data-name=" Path 4" class="cls-1" points="98.788 70.18 76.296 98.895 59.681 98.895 82.521 70.18 98.788 70.18"/>
  <polygon id="_Path_5" data-name=" Path 5" class="cls-1" points="90.501 98.838 90.569 98.895 78.552 98.895 101.036 70.18 112.903 70.18 90.501 98.838"/>
  <polygon id="_Path_6" data-name=" Path 6" class="cls-1" points="132.152 70.18 110.145 98.895 104.064 98.895 126.492 70.18 132.152 70.18"/>
  <polygon id="_Path_7" data-name=" Path 7" class="cls-1" points="140.047 70.18 118.041 98.895 114.611 98.895 136.618 70.18 140.047 70.18"/>
  <g>
    <path class="cls-2" d="M63.78224,31.84259l4.38805-20.82375q.19486-1.212.32735-2.194a13.53076,13.53076,0,0,0,.14029-1.91344q0-3.54824-2.05373-5.22981T59.76441,0H15.42407l-2.6149,12.32628H46.51843a4.21636,4.21636,0,0,1,1.91344.32735,1.40076,1.40076,0,0,1,.60793,1.35422,7.909,7.909,0,0,1-.19485,1.30746L46.13652,27.73512a6.46292,6.46292,0,0,1-1.16911,2.89549,3.27248,3.27248,0,0,1-2.47072.74433h-14.76l3.0806-14.38H11.87583L2.069,63.21752H21.0124l4.28673-20.3561h25.4086q6.0696,0,8.96316-2.70844T63.78224,31.84259Z" transform="translate(-1.08887 0.0078)"/>
    <path class="cls-2" d="M105.25438-.0078h-18.583L53.79807,63.21752H72.27386l4.85569-9.80491H95.165l.65275,9.80491h19.037L110.00485-.0078ZM82.17815,42.95494,93.28467,21.01665l1.42241,21.93829Z" transform="translate(-1.08887 0.0078)"/>
    <path class="cls-2" d="M183.493,1.72638Q181.34963,0,176.49-.002H131.58656l-2.6149,12.32823h33.51441a4.83419,4.83419,0,0,1,2.2408.37412,1.56825,1.56825,0,0,1,.65275,1.49451,5.47708,5.47708,0,0,1-.04676.65275q-.04874.37411-.14029.83981L162.95177,25.96a5.41982,5.41982,0,0,1-1.16911,2.6149,4.11114,4.11114,0,0,1-2.74157.645H144.36685l2.6149-12.23276H128.03637l-9.803,46.2304h18.94344l4.94923-23.53218h15.70111q2.613,0,2.6149,1.49451a4.41122,4.41122,0,0,1-.04676.60793q-.04872.32735-.14029.793l-4.28673,20.6367h18.94343l4.56535-21.94414a3.40431,3.40431,0,0,0,.19485-1.07363v-.97426a4.37029,4.37029,0,0,0-2.05374-4.15618,11.67386,11.67386,0,0,0-5.05053-1.36785,12.19563,12.19563,0,0,0,5.97609-2.38108q2.70649-2.007,3.73531-6.86265l2.89549-13.72727q.19484-1.02687.32736-1.9602a11.98827,11.98827,0,0,0,.14029-1.77509A6.35641,6.35641,0,0,0,183.493,1.72638Z" transform="translate(-1.08887 0.0078)"/>
    <polygon class="cls-2" points="236.286 12.428 238.901 0.008 234.151 0.008 193.984 0.008 189.236 0.008 186.621 12.428 191.369 12.428 201.936 12.428 191.196 63.227 195.946 63.227 205.391 63.227 210.139 63.227 220.879 12.428 231.536 12.428 236.286 12.428"/>
    <path class="cls-2" d="M257.91641,23.34512l1.77509-8.31041a4.82253,4.82253,0,0,1,1.02687-2.33821,2.93,2.93,0,0,1,2.14336-.65275h33.51441L298.92088-.0078H254.84943q-6.16314,0-9.05863,2.70843t-4.10941,8.3104l-3.45471,16.34217a15.97846,15.97846,0,0,0-.28057,2.70844,6.05186,6.05186,0,0,0,1.72833,4.62186q1.72833,1.63285,5.55716,1.6348h24.941q2.42784,0,2.42784,1.68157a4.46825,4.46825,0,0,1-.09352,1.02687l-1.86667,8.7683a4.20615,4.20615,0,0,1-1.16911,2.42785,3.86378,3.86378,0,0,1-2.4746.65275H233.28723l-2.61491,12.32629H275.4881q6.06963,0,8.96316-2.70844t4.10941-8.31041l3.64176-17.27551a13.36773,13.36773,0,0,0,.28057-2.6149,6.23867,6.23867,0,0,0-1.72833-4.67643q-1.72833-1.68935-5.65068-1.68157H259.785q-2.05568,0-2.05374-1.401a3.29619,3.29619,0,0,1,.04676-.56117C257.80728,23.81081,257.854,23.59453,257.91641,23.34512Z" transform="translate(-1.08887 0.0078)"/>
  </g>
  <path class="cls-2" d="M146.6661,99a4.8938,4.8938,0,0,1-3.11762-.7794,2.95523,2.95523,0,0,1-.94113-2.39472q0-.42671.04286-.87683a7.73061,7.73061,0,0,1,.17147-1.00543l3.97886-18.8655a7.05874,7.05874,0,0,1,1.9037-3.80739,5.8695,5.8695,0,0,1,4.09188-1.2412h16.29736l-1.19834,5.77539H154.79334a2.16922,2.16922,0,0,0-1.38929.32151,2.52508,2.52508,0,0,0-.58455,1.30551l-3.03774,14.117c-.02923.14224-.05066.263-.0643.36437a2.20933,2.20933,0,0,0-.02143.32151.7794.7794,0,0,0,.30007.68393,2.03687,2.03687,0,0,0,1.1126.21433h13.17585l-1.2412,5.86113Z" transform="translate(-1.08887 0.0078)"/>
  <path class="cls-2" d="M184.60947,99l-.30008-4.49132H173.87122L171.646,99h-6.28785l15.05811-28.96074h8.513L191.15451,99ZM183.1968,75.85752l-7.01464,13.85977h7.9129Z" transform="translate(-1.08887 0.0078)"/>
  <path class="cls-2" d="M211.51454,99l1.968-9.45418q.04285-.21432.06429-.36437a2.02325,2.02325,0,0,0,.02143-.27864q0-.68394-1.19834-.68393h-9.36844L200.73535,98.998h-6.50218l4.49133-21.17448h6.50218l-1.19834,5.60587h8.89691a1.91236,1.91236,0,0,0,1.26263-.30007,2.462,2.462,0,0,0,.53389-1.19834l1.02687-4.70566q.04289-.21432.06429-.3897a2.48272,2.48272,0,0,0,.02143-.30007.7165.7165,0,0,0-.30008-.68393,2.22333,2.22333,0,0,0-1.02687-.17147H199.15706l1.19834-5.65068h18.394a5.15149,5.15149,0,0,1,3.20919.7911,2.88332,2.88332,0,0,1,.97426,2.41616,5.47673,5.47673,0,0,1-.06429.81253q-.06429.42868-.15.89826l-1.3211,6.29759a5.04387,5.04387,0,0,1-1.7108,3.1449,5.58625,5.58625,0,0,1-2.72792,1.09116,5.30972,5.30972,0,0,1,2.309.61963,2.002,2.002,0,0,1,.94112,1.9037v.45011a1.5586,1.5586,0,0,1-.08572.491l-2.0966,10.05238Z" transform="translate(-1.08887 0.0078)"/>
  <path class="cls-1" d="M227.3423,99a5.01867,5.01867,0,0,1-3.1449-.7794,2.84889,2.84889,0,0,1-.96255-2.35381,8.75153,8.75153,0,0,1,.25719-1.92513l3.97887-18.8655a7.14566,7.14566,0,0,1,1.88227-3.80739,5.84681,5.84681,0,0,1,4.10745-1.2412h17.8815L250.14379,75.803H235.08568a1.71,1.71,0,0,0-1.16911.30007,2.69188,2.69188,0,0,0-.53389,1.28407l-3.11762,14.758a3.70183,3.70183,0,0,0-.08572.55532.60988.60988,0,0,0,.25719.58455,1.91537,1.91537,0,0,0,.89826.15h9.28271l1.41267-6.58792h-5.73253l.97426-4.66279h11.806L245.53165,99Z" transform="translate(-1.08887 0.0078)"/>
  <path class="cls-1" d="M254.93322,99a5.01862,5.01862,0,0,1-3.1449-.7794,2.84882,2.84882,0,0,1-.96255-2.35381,8.75154,8.75154,0,0,1,.25719-1.92513l3.97887-18.8655a7.14549,7.14549,0,0,1,1.88227-3.80739,5.84677,5.84677,0,0,1,4.10745-1.2412h14.419a4.89371,4.89371,0,0,1,3.11762.7794,2.95521,2.95521,0,0,1,.94112,2.39472A6.64489,6.64489,0,0,1,279.465,74.1q-.06429.47154-.15.97426l-3.97107,18.8772a7.05882,7.05882,0,0,1-1.9037,3.80739A5.86954,5.86954,0,0,1,269.34831,99Zm17.41-21.65186q.04285-.21434.06429-.3897a2.49243,2.49243,0,0,0,.02143-.30007q0-.97425-1.49647-.97426h-8.08437a1.75507,1.75507,0,0,0-1.21977.34294,2.65572,2.65572,0,0,0-.58455,1.32694l-3.08061,14.419a3.70183,3.70183,0,0,0-.08572.55532q0,.89826,1.2412.89826H267.203a2.3595,2.3595,0,0,0,1.45358-.34294,1.89978,1.89978,0,0,0,.59818-1.1126Z" transform="translate(-1.08887 0.0078)"/>
</svg>
