<svg id="Layer_1" xmlns="http://www.w3.org/2000/svg" viewBox="0 0 350.8 125.5"><style>.st0{fill:#fff}.st1{fill:#34fcc1}.st2{fill:#fff}</style><path class="st0" d="M239.9 27.9v-5.5H224c-5.9-12.8-18.7-19.3-37.9-19.3-11.3 0-20.4 2.3-27.2 6.8h-17.7v5.5h11.4c-5.2 6.1-8 14.5-8.3 25.2h10.2v5.3h-21.1v5.5h10.8v32.3c0 4.2.4 8.1 1.2 11.6h-6.9v5.5h18.6v5.3h-7.5c6.5 10.8 18.7 16.4 36.4 16.4 8.4 0 15.6-1.3 21.5-3.8h-8v-5.3h12v.1H238V108h-16.7c4.4-6.2 6.6-14.3 6.6-24.3V42c0-3.1-.2-6-.6-8.7h-9.7V28h22.3zm-53.8 73.4c-10.9 0-15.9-4.8-16.5-16h-10.3V80h2.2v.1h17.1v-5.5h-9V43c0-5.2.8-9.2 2.5-12.2h-5.8v-5.3h12.2c2.1-.8 4.7-1.2 7.7-1.2 11.7 0 16.6 5.6 16.6 18.7v5.8h10.8V54h-16.4v5.5h5.6v23.2c-.1 13-5 18.6-16.7 18.6zM209.3 91h5.3v5.3h-5.3V91zM8.8 49.5h5v5h-5zM111.4 19.1v-5.5H88V8.1h6.3v-3H67.5L30.6 54.5H13.8v5h13.1L15.4 74.9v11.3h5.3v5.3H5V97h29v-.1h35.1v23.6h25.1v-9.1H81.1v-5.5h13.2v-9h11.9V76.4H94.3V19.1h17.1zM81.3 71H69.2v5.4H46v1.5h-9.4v-5.5h5.7l19.5-27.1h-4.3v-5.5h8.3l3.3-4.6v30.3h12.1V71zM335.7 76.4h-4.8v-5.3h4.8V17.9h-6v-5.3h6V5.1h-26.8l-22.5 30.1H268v5.5h22.4V46h-12.1l-14.6 19.5h8.7v4.9h-25V76h9.4v10h-12.1v5.5h12.1v5.3h53.8v5.8h-12.9v5.5h12.9v.1h9.5v5.3h-9.5v6.9h25.1V96.9h11.9v-6.6h-6.5V85h6.5v-8.6h-11.9zm-29.5-60.1h5.3v5.3h-5.3v-5.3zm9.5 48.4h-5.1v11.7h-29.7l10.9-15.1h-4.2V56h8l15-20.8v24.2h5.1v5.3z"/><path class="st1" d="M235.9 25.9v-5.5H220c-5.9-12.8-18.7-19.3-37.9-19.3-11.3 0-20.4 2.3-27.2 6.8h-17.7v5.5h11.4c-5.2 6.1-8 14.5-8.3 25.2h10.2v5.3h-21.1v5.5h10.8v32.3c0 4.2.4 8.1 1.2 11.6h-6.9v5.5h18.6v5.3h-7.5c6.5 10.8 18.7 16.4 36.4 16.4 8.4 0 15.6-1.3 21.5-3.8h-8v-5.3h12v.1H234V106h-16.7c4.4-6.2 6.6-14.3 6.6-24.3V40c0-3.1-.2-6-.6-8.7h-9.7V26h22.3zm-53.8 73.4c-10.9 0-15.9-4.8-16.5-16h-10.3V78h2.2v.1h17.1v-5.5h-9V41c0-5.2.8-9.2 2.5-12.2h-5.8v-5.3h12.2c2.1-.8 4.7-1.2 7.7-1.2 11.7 0 16.6 5.6 16.6 18.7v5.8h10.8V52h-16.4v5.5h5.6v23.2c-.1 13-5 18.6-16.7 18.6zM205.3 89h5.3v5.3h-5.3V89zM4.8 47.5h5v5h-5zM107.4 17.1v-5.5H84V6.1h6.3v-3H63.5L26.6 52.5H9.8v5h13.1L11.4 72.9v11.3h5.3v5.3H1V95h29v-.1h35.1v23.6h25.1v-9.1H77.1v-5.5h13.2v-9h11.9V74.4H90.3V17.1h17.1zM77.3 69H65.2v5.4H42v1.5h-9.4v-5.5h5.7l19.5-27.1h-4.3v-5.5h8.3l3.3-4.6v30.3h12.1V69zM331.7 74.4h-4.8v-5.3h4.8V15.9h-6v-5.3h6V3.1h-26.8l-22.5 30.1H264v5.5h22.4V44h-12.1l-14.6 19.5h8.7v4.9h-25V74h9.4v10h-12.1v5.5h12.1v5.3h53.8v5.8h-12.9v5.5h12.9v.1h9.5v5.3h-9.5v6.9h25.1V94.9h11.9v-6.6h-6.5V83h6.5v-8.6h-11.9zm-29.5-60.1h5.3v5.3h-5.3v-5.3zm9.5 48.4h-5.1v11.7h-29.7l10.9-15.1h-4.2V54h8l15-20.8v24.2h5.1v5.3z"/><path class="st2" d="M237.9 25.9v-5.5H222c-5.9-12.8-18.7-19.3-37.9-19.3-11.3 0-20.4 2.3-27.2 6.8h-17.7v5.5h11.4c-5.2 6.1-8 14.5-8.3 25.2h10.2v5.3h-21.1v5.5h10.8v32.3c0 4.2.4 8.1 1.2 11.6h-6.9v5.5h18.6v5.3h-7.5c6.5 10.8 18.7 16.4 36.4 16.4 8.4 0 15.6-1.3 21.5-3.8h-8v-5.3h12v.1H236V106h-16.7c4.4-6.2 6.6-14.3 6.6-24.3V40c0-3.1-.2-6-.6-8.7h-9.7V26h22.3zm-53.8 73.4c-10.9 0-15.9-4.8-16.5-16h-10.3V78h2.2v.1h17.1v-5.5h-9V41c0-5.2.8-9.2 2.5-12.2h-5.8v-5.3h12.2c2.1-.8 4.7-1.2 7.7-1.2 11.7 0 16.6 5.6 16.6 18.7v5.8h10.8V52h-16.4v5.5h5.6v23.2c-.1 13-5 18.6-16.7 18.6zM207.3 89h5.3v5.3h-5.3V89z"/><g><path class="st2" d="M6.8 47.5h5v5h-5zM109.4 17.1v-5.5H86V6.1h6.3v-3H65.5L28.6 52.5H11.8v5h13.1L13.4 72.9v11.3h5.3v5.3H3V95h29v-.1h35.1v23.6h25.1v-9.1H79.1v-5.5h13.2v-9h11.9V74.4H92.3V17.1h17.1zM79.3 69H67.2v5.4H44v1.5h-9.4v-5.5h5.7l19.5-27.1h-4.3v-5.5h8.3l3.3-4.6v30.3h12.1V69z"/></g><path class="st2" d="M333.7 74.4h-4.8v-5.3h4.8V15.9h-6v-5.3h6V3.1h-26.8l-22.5 30.1H266v5.5h22.4V44h-12.1l-14.6 19.5h8.7v4.9h-25V74h9.4v10h-12.1v5.5h12.1v5.3h53.8v5.8h-12.9v5.5h12.9v.1h9.5v5.3h-9.5v6.9h25.1V94.9h11.9v-6.6h-6.5V83h6.5v-8.6h-11.9zm-29.5-60.1h5.3v5.3h-5.3v-5.3zm9.5 48.4h-5.1v11.7h-29.7l10.9-15.1h-4.2V54h8l15-20.8v24.2h5.1v5.3z"/></svg>