<svg xmlns="http://www.w3.org/2000/svg" width="19" height="19" viewBox="0 0 19 19"><path fill="#5E20E4" d="M16.576 2.286h-1.143V1.43a1.429 1.429 0 1 0-2.858 0v.857h-6.86V1.43a1.429 1.429 0 1 0-2.857 0v.857H1.715A1.714 1.714 0 0 0 0 4.001v12.575c0 .947.768 1.715 1.715 1.715h14.861c.947 0 1.715-.768 1.715-1.715V4.001c0-.947-.768-1.715-1.715-1.715zm-.571 13.719H2.286V6.288h13.719v9.717zM4 9.717V8.574c0-.316.256-.572.572-.572h1.143c.316 0 .572.256.572.572v1.143a.572.572 0 0 1-.572.572H4.573A.572.572 0 0 1 4 9.717zm4.001 0V8.574c0-.316.256-.572.572-.572h1.143c.316 0 .572.256.572.572v1.143a.572.572 0 0 1-.572.572H8.574a.572.572 0 0 1-.572-.572zm4.001 0V8.574c0-.316.256-.572.572-.572h1.143c.316 0 .572.256.572.572v1.143a.572.572 0 0 1-.572.572h-1.143a.572.572 0 0 1-.572-.572zM4 13.718v-1.143c0-.316.256-.572.572-.572h1.143c.316 0 .572.256.572.572v1.143a.572.572 0 0 1-.572.572H4.573A.572.572 0 0 1 4 13.718zm4.001 0v-1.143c0-.316.256-.572.572-.572h1.143c.316 0 .572.256.572.572v1.143a.572.572 0 0 1-.572.572H8.574a.572.572 0 0 1-.572-.572z"/></svg>