<svg xmlns="http://www.w3.org/2000/svg" xmlns:xlink="http://www.w3.org/1999/xlink" width="286" height="467" viewBox="0 0 286 467"><defs><path id="a" d="M0 .11v340.756h118.725V.11z"/><path id="c" d="M.116 68.5h84.532V.302H.116z"/><path id="e" d="M.032 156h134.875V0H.032z"/></defs><g fill="none" fill-rule="evenodd"><g transform="matrix(-1 0 0 1 285 49)"><mask id="b" fill="#fff"><use xlink:href="#a"/></mask><path fill="#5F38FA" d="M118.725 243.495l-16.96-9.736v-19.475l-16.961-9.736v-19.475s-16.961-9.742-16.961-9.736v-19.935l-50.42-29.211V9.847L0 .11v272.634l16.96 9.7 101.765 58.422v-97.37z" mask="url(#b)"/></g><g transform="matrix(-1 0 0 1 216 398)"><mask id="d" fill="#fff"><use xlink:href="#c"/></mask><path fill="#4E6AF3" d="M.116 19.788V.302l84.532 48.713V68.5z" mask="url(#d)"/></g><path fill="#4E6AF3" d="M200 389.429V370l-85 48.571V438zm-16-29.5V341l-85 48.571V409zm-17-28.5V312l-85 48.571V380z"/><path fill="#3C9BED" d="M132 448l-17-9.833L199.999 389 217 398.833zm-17-29l-17-9.833L182.999 360 200 369.833zm-16-29l-17-9.834L167 331l17 9.833z"/><g transform="matrix(-1 0 0 1 135 311)"><mask id="f" fill="#fff"><use xlink:href="#e"/></mask><path fill="#5F38FA" d="M134.447 0v78.002L-.43 156v-19.5l16.86-9.75v-19.5l16.86-9.75V77.998s16.858-9.756 16.858-9.75v-19.5L134.447 0z" mask="url(#f)"/></g><path fill="#4E6AF3" d="M82 263.429V244l85 48.571V312zm17-29V215l85 48.571V283zm18-28.969V185l85 48.99V254zm17-29.415V156l85 48.955V225z"/><path fill="#3C9BED" d="M166.616 293L184 282.782 98.924 234 82 243.756zm17.908-29L202 254.166 116.013 205 99 214.833zM202 234l17-9.834L134 175l-17 9.833zM83.99 263.064l83.901 48.451s-83.9 48.44-83.9 48.447c0 .006-83.9-48.447-83.9-48.447l83.9-48.45z"/><path fill="#63B8F7" d="M268 176V59.16L183.462 10 183 127.3z"/><path fill="#EB6250" d="M82 331l43-24.333V258l-43 24.333z"/><path fill="#E74525" d="M82 282.333L39 258v48.667L82 331z"/><path fill="#F47369" d="M81.5 235l42.5 24-42.5 24L39 259z"/><path fill="#3C9BED" d="M183.653 126.666L200.5 117l67.5 38.68v19.326L217.375 204 133 155.676z"/><path fill="#77C7F7" d="M201.924 117.052V.062l-16.692 9.753v117.009z"/><path fill="#3C9BED" d="M268.616 60L286 50.243 200.924 1 184 10.756z"/><path fill="#F7BA59" d="M209 165l13-7v-14l-13 7z"/><path fill="#EAA83D" d="M210 151l-13-7v14l13 7z"/><path fill="#F7C98A" d="M209.5 137l12.5 7-12.5 7-12.5-7z"/></g></svg>