<svg xmlns="http://www.w3.org/2000/svg" width="247" height="350" viewBox="0 0 247 350"><g fill="none" fill-rule="evenodd"><path fill="#EB6250" d="M209 111l-64 37 .001-74L209 37z"/><path fill="#E74525" d="M145 74l-.001 74L81 111V37z"/><path fill="#F47369" d="M145.001 0L209 37l-64 37-64-37v-.001L144.997 0z"/><path fill="#B1B1B1" d="M144.107 335.415v14l101.973-58.98v-14.001z"/><path fill="#D9D9D9" d="M131.983 328.414l12.124 7 101.973-58.98-12.125-7z"/><path fill="#4E6AF3" d="M-43 300.052l62.383 36.017v-72.034L-43 228.017z"/><path fill="#3C9BED" d="M19.383 264.035l62.386-36.018v72.035L19.383 336.07z"/><path fill="#5F38FA" d="M19.383 192l-62.382 36.017 62.383 36.018 62.383-36.018z"/><path fill="#ECECEC" d="M42.133 290.434l101.972 58.981v-14l-101.972-58.98z"/><path fill="#B1B1B1" d="M144.105 335.415v14l12.125-7v-14z"/><path fill="#D9D9D9" d="M54.257 269.434l-12.125 7 101.973 58.98 12.125-7z"/></g></svg>