<svg id="Layer_1" xmlns="http://www.w3.org/2000/svg" viewBox="0 0 841.9 263.3"><style>.st0{fill:#545559}</style><path class="st0" d="M230.7 3H2.2v230h228.5V3zm-19 211H21.2V22h190.5v192z"/><path class="st0" d="M249.2 42.8v207.4H41.4v6.6h214.5v-214z"/><path class="st0" d="M116.4 179.6c34 0 61.6-27.6 61.6-61.6s-27.6-61.6-61.6-61.6S54.9 84 54.9 118s27.5 61.6 61.5 61.6zM101 72.6c12.5 0 22.7 10.2 22.7 22.7S113.5 118 101 118s-22.7-10.2-22.7-22.7S88.5 72.6 101 72.6zM369.5 108.8l-14.8 58.6h-19.3L311 82.1h20.3l15 61.7 16.3-61.7h14.2l16.1 61.7 14.8-61.7h20.5l-24.3 85.3h-19.3l-15.1-58.6zm92.2-4.7c18.4 0 31 13.8 31 34v3.6h-45.9c1 7.8 7.3 14.3 17.8 14.3 5.8 0 12.5-2.3 16.5-6.1l7.2 10.5c-6.1 5.6-15.9 8.6-25.5 8.6-18.8 0-33-12.7-33-32.5 0-17.9 13.1-32.4 31.9-32.4zm-15.2 26.6H477c-.4-5.9-4.5-13.7-15.2-13.7-10.2 0-14.5 7.6-15.3 13.7zm65 10.9c6 6.3 15.4 11.5 27.1 11.5 10 0 14.8-4.7 14.8-9.6 0-6.4-7.4-8.6-17.3-10.9-13.9-3.2-31.9-7-31.9-26.1 0-14.2 12.3-25.7 32.4-25.7 13.6 0 24.8 4.1 33.3 11.9l-10 13.3c-6.9-6.4-16.1-9.3-24.4-9.3-8.2 0-12.5 3.6-12.5 8.7 0 5.8 7.2 7.5 17 9.9 14.1 3.2 32 7.4 32 26.4 0 15.6-11.1 27.4-34.2 27.4-16.4 0-28.2-5.5-36.1-13.6l9.8-13.9zm103.7-37.5c12.7 0 20.3 5.5 24.4 11.1l-10.6 10c-2.9-4.4-7.4-6.7-13.1-6.7-9.9 0-16.8 7.2-16.8 17.9s6.9 18 16.8 18c5.6 0 10.1-2.6 13.1-6.7l10.6 9.9c-4.1 5.8-11.8 11.3-24.4 11.3-19.1 0-32.8-13.4-32.8-32.5 0-18.9 13.7-32.3 32.8-32.3zm33.6 32.4c0-17.5 12.3-32.4 32.6-32.4 20.5 0 32.8 14.8 32.8 32.4 0 17.7-12.3 32.5-32.8 32.5-20.3 0-32.6-14.9-32.6-32.5zm48.5 0c0-9.6-5.8-17.9-15.9-17.9s-15.7 8.3-15.7 17.9c0 9.7 5.6 18 15.7 18s15.9-8.3 15.9-18zm73.2 23.1c-4.2 4.7-11.6 9.3-21.8 9.3-13.6 0-20-7.4-20-19.4v-43.9H745v37.5c0 8.6 4.5 11.4 11.4 11.4 6.3 0 11.3-3.5 14.1-7v-41.8h16.3v61.8h-16.3v-7.9zm38.1-7.5v-32.2h-10.2v-14.2h10.2V88.8H825v16.9h12.5v14.2H825v27.9c0 3.8 2 6.8 5.6 6.8 2.4 0 4.7-.9 5.6-1.8l3.5 12.3c-2.4 2.2-6.8 4-13.6 4-11.3-.1-17.5-6-17.5-17z"/></svg>