<svg xmlns="http://www.w3.org/2000/svg" viewBox="0 0 1138.2 339.8" fill="#545559"><path d="M352.8 107.5l39.1 103.3 40.6-103.3H449v117.8h-11.2V123.5h-.3l-40.2 101.8h-10.6l-38.8-101.8h-.3v101.8h-11.2V107.5h16.4zm122.1 32.7l28 72.6 26.2-72.6h10.4l-36.9 98c-1.5 3.6-3 6.6-4.3 9-1.3 2.4-2.8 4.2-4.4 5.6-1.6 1.4-3.5 2.4-5.6 3-2.1.6-4.9.9-8.2.9-2.1-.1-3.7-.2-4.9-.2-1.2-.1-2.2-.2-3.1-.6v-8.7c1.2.2 2.4.4 3.5.6 1.2.2 2.3.2 3.5.2 2.3 0 4.2-.3 5.7-1s2.8-1.6 3.9-2.7c1.1-1.2 2-2.6 2.8-4.2.8-1.6 1.6-3.5 2.5-5.4l3.6-9.6-34-84.8h11.3zm160.8-32.7v9.6h-41.1v108.2h-11.2V117.1h-40.9v-9.6h93.2zm22.6 0v47.3h.3c2-5.2 5.5-9.3 10.6-12.5 5.1-3.1 10.6-4.7 16.7-4.7 5.9 0 10.9.8 14.9 2.3 4 1.5 7.2 3.7 9.6 6.5 2.4 2.8 4.1 6.2 5.1 10.3 1 4.1 1.5 8.6 1.5 13.7v54.8h-10.4v-53.1c0-3.6-.3-7-1-10.1-.7-3.1-1.8-5.9-3.5-8.2-1.6-2.3-3.9-4.1-6.7-5.4s-6.3-2-10.5-2-7.9.7-11.1 2.2c-3.2 1.5-6 3.5-8.2 6.1-2.3 2.6-4 5.7-5.3 9.2-1.3 3.6-2 7.5-2.1 11.6v49.7h-10.4V107.5h10.5zm89.3 89.7c1 4 2.7 7.6 5 10.8 2.3 3.2 5.2 5.8 8.7 7.9 3.5 2.1 7.8 3.1 12.7 3.1 7.6 0 13.5-2 17.8-5.9 4.3-4 7.3-9.2 8.9-15.8h10.4c-2.2 9.7-6.2 17.2-12.1 22.4-5.9 5.3-14.2 7.9-25 7.9-6.7 0-12.5-1.2-17.4-3.5-4.9-2.4-8.9-5.6-12-9.7-3.1-4.1-5.4-8.9-6.8-14.4-1.5-5.4-2.2-11.2-2.2-17.2 0-5.6.7-11.1 2.2-16.5 1.5-5.4 3.8-10.2 6.8-14.4 3.1-4.2 7.1-7.6 12-10.2 4.9-2.6 10.7-3.9 17.4-3.9 6.8 0 12.6 1.4 17.5 4.1 4.8 2.8 8.8 6.4 11.8 10.8 3 4.5 5.2 9.6 6.5 15.3 1.3 5.8 1.9 11.6 1.6 17.6h-65.5c.2 3.7.7 7.5 1.7 11.6zm51.5-31.8c-1.3-3.6-3.1-6.8-5.4-9.6-2.3-2.8-5.1-5.1-8.4-6.8-3.3-1.7-7-2.6-11.2-2.6-4.3 0-8.1.9-11.4 2.6-3.3 1.7-6.1 4-8.4 6.8-2.3 2.8-4.2 6-5.5 9.7-1.4 3.7-2.3 7.5-2.7 11.3h55.1c-.1-4-.8-7.8-2.1-11.4zm39.3-25.2v20h.3c2.6-6.9 6.7-12.3 12.3-16 5.6-3.7 12.2-5.4 19.9-5.1v10.4c-4.7-.2-9 .4-12.9 1.9-3.9 1.5-7.2 3.6-10 6.4-2.8 2.8-5 6-6.5 9.8-1.5 3.8-2.3 7.9-2.3 12.5v45.4h-10.4v-85.1h9.6zm47.9 13.2c1.8-3.6 4.1-6.6 7.2-8.9 3-2.3 6.6-4 10.6-5.1 4.1-1.1 8.6-1.6 13.5-1.6 3.7 0 7.5.4 11.2 1.1 3.7.7 7.1 2.1 10.1 4s5.4 4.8 7.3 8.3c1.9 3.6 2.8 8.2 2.8 13.9v45.2c0 4.2 2 6.3 6.1 6.3 1.2 0 2.3-.2 3.3-.7v8.7c-1.2.2-2.3.4-3.2.5-.9.1-2.1.2-3.5.2-2.6 0-4.8-.4-6.4-1.1-1.6-.7-2.8-1.7-3.7-3.1-.9-1.3-1.5-2.9-1.7-4.7-.3-1.8-.4-3.8-.4-6h-.3c-1.9 2.8-3.8 5.2-5.7 7.3-1.9 2.1-4.1 3.9-6.4 5.4-2.4 1.4-5.1 2.5-8.1 3.3-3 .8-6.6 1.2-10.8 1.2-4 0-7.7-.5-11.1-1.4-3.5-.9-6.5-2.4-9.1-4.5-2.6-2-4.6-4.6-6.1-7.8-1.5-3.1-2.2-6.8-2.2-11.1 0-5.9 1.3-10.6 4-13.9 2.6-3.4 6.1-5.9 10.5-7.7 4.3-1.8 9.2-3 14.7-3.7 5.4-.7 11-1.4 16.6-2.1 2.2-.2 4.1-.5 5.8-.8 1.6-.3 3-.9 4.1-1.7 1.1-.8 2-2 2.6-3.4.6-1.4.9-3.3.9-5.6 0-3.5-.6-6.4-1.7-8.7-1.2-2.3-2.8-4-4.8-5.4-2-1.3-4.4-2.2-7.1-2.7-2.7-.5-5.6-.7-8.7-.7-6.6 0-12 1.6-16.2 4.7-4.2 3.1-6.4 8.2-6.6 15.1h-10.4c.1-4.9 1.1-9.2 2.9-12.8zm51.9 25.4c-.7 1.2-1.9 2.1-3.8 2.6-1.9.6-3.5.9-4.9 1.2-4.4.8-8.9 1.5-13.6 2.1-4.7.6-8.9 1.5-12.8 2.7-3.9 1.2-7 2.9-9.5 5.2-2.5 2.3-3.7 5.5-3.7 9.6 0 2.6.5 5 1.6 7 1 2 2.4 3.8 4.2 5.3 1.8 1.5 3.8 2.6 6.1 3.4 2.3.8 4.7 1.2 7.1 1.2 4 0 7.8-.6 11.4-1.8 3.6-1.2 6.8-3 9.5-5.3s4.8-5.1 6.4-8.4c1.6-3.3 2.4-7 2.4-11.2v-13.5h-.4zm44.4-38.6v16.2h.3c2.4-5.9 6.4-10.5 11.8-13.8 5.4-3.2 11.6-4.9 18.6-4.9 6.5 0 12.1 1.2 16.9 3.6 4.8 2.4 8.8 5.7 12 9.8 3.2 4.1 5.6 8.9 7.1 14.4 1.5 5.4 2.3 11.2 2.3 17.2s-.8 11.8-2.3 17.2c-1.5 5.4-3.9 10.2-7.1 14.4-3.2 4.1-7.2 7.4-12 9.7-4.8 2.4-10.4 3.5-16.9 3.5-3.1 0-6.2-.4-9.2-1.2-3.1-.8-5.9-1.9-8.6-3.5-2.6-1.5-5-3.5-7-5.8s-3.6-5-4.7-8.1h-.3v47.5H973V140.2h9.6zm57 29.4c-1-4.3-2.7-8.2-4.9-11.6-2.3-3.4-5.1-6.2-8.7-8.3-3.5-2.1-7.8-3.2-12.7-3.2-5.7 0-10.5 1-14.4 3-3.9 2-6.9 4.6-9.2 7.9-2.3 3.3-3.9 7.1-4.9 11.5-.9 4.4-1.4 9-1.4 13.9 0 4.4.5 8.8 1.6 13.1 1 4.3 2.7 8.2 5.1 11.6 2.4 3.4 5.4 6.2 9.2 8.3 3.8 2.1 8.4 3.2 13.9 3.2 4.9 0 9.2-1.1 12.7-3.2s6.4-4.9 8.7-8.3c2.3-3.4 3.9-7.3 4.9-11.6 1-4.3 1.6-8.7 1.6-13.1.1-4.5-.5-8.8-1.5-13.2zm32.9-29.4l28 72.6 26.2-72.6h10.4l-36.9 98c-1.5 3.6-3 6.6-4.3 9-1.3 2.4-2.8 4.2-4.4 5.6-1.6 1.4-3.5 2.4-5.6 3-2.1.6-4.9.9-8.2.9-2.1-.1-3.7-.2-4.9-.2-1.2-.1-2.2-.2-3.1-.6v-8.7c1.2.2 2.4.4 3.5.6 1.2.2 2.3.2 3.5.2 2.3 0 4.2-.3 5.7-1s2.8-1.6 3.9-2.7c1.1-1.2 2-2.6 2.8-4.2.8-1.6 1.6-3.5 2.5-5.4l3.6-9.6-34-84.8h11.3zM42.7 126.7H6.6c-3.1 0-5.6-2.5-5.6-5.6 0-3.1 2.5-5.6 5.6-5.6h36.1c3.1 0 5.6 2.5 5.6 5.6 0 3.1-2.5 5.6-5.6 5.6zm48.4-82L73 13.4c-1.5-2.7-.6-6.1 2-7.7 2.7-1.5 6.1-.6 7.7 2L100.8 39c1.5 2.7.6 6.1-2 7.7-2.8 1.6-6.2.7-7.7-2zm64.2 0l18.1-31.3c1.5-2.7.6-6.1-2-7.7-2.7-1.5-6.1-.6-7.7 2L145.6 39c-1.5 2.7-.6 6.1 2 7.7 2.7 1.6 6.1.7 7.7-2zm84.1 82h-36.1c-3.1 0-5.6-2.5-5.6-5.6 0-3.1 2.5-5.6 5.6-5.6h36.1c3.1 0 5.6 2.5 5.6 5.6 0 3.1-2.5 5.6-5.6 5.6zm-11.8-68.6l-30.5 19.4c-2.6 1.7-6.1.9-7.7-1.7-1.7-2.6-.9-6.1 1.7-7.7l30.5-19.4c2.6-1.7 6.1-.9 7.7 1.7 1.6 2.6.9 6-1.7 7.7zM20.1 56.4l30.5 19.4c2.6 1.7 6.1.9 7.7-1.7 1.7-2.6.9-6.1-1.7-7.7L26.1 47c-2.6-1.7-6.1-.9-7.7 1.7-1.7 2.6-.9 6.1 1.7 7.7zM147 314.9l-44.4 7.4c-2.7.5-5.3-1.4-5.8-4.1-.5-2.7 1.4-5.3 4.1-5.8l44.4-7.4c2.7-.5 5.3 1.4 5.8 4.1.5 2.7-1.4 5.3-4.1 5.8zm0-14.4l-44.4 7.4c-2.7.5-5.3-1.4-5.8-4.1-.5-2.7 1.4-5.3 4.1-5.8l44.4-7.4c2.7-.5 5.3 1.4 5.8 4.1.5 2.8-1.4 5.4-4.1 5.8zm0-14.4l-44.4 7.4c-2.7.5-5.3-1.4-5.8-4.1-.5-2.7 1.4-5.3 4.1-5.8l44.4-7.4c2.7-.5 5.3 1.4 5.8 4.1.5 2.8-1.4 5.4-4.1 5.8z"/><path d="M172 209.7v-94c0-27.1-21.9-49-49-49s-49 21.9-49 49v126.1h.1c1 17 10.7 31.6 24.7 39.5.5-.2 1.1-.4 1.7-.5l44.4-7.4c2.1-.4 4.2.1 6 1.4 1 .7 1.7 1.6 2.3 2.6 10.7-8.4 17.9-21.1 18.7-35.6v-.1c.1-1 .1-2 .1-3v-11c0-1 0-1.9-.1-2.9v-12.2c.1-1 .1-1.9.1-2.9zm-11-31H85v-63c0-21 17-38 38-38s38 17 38 38v63zM110.7 326.1c2 4.8 6.8 8.2 12.3 8.2 7.1 0 12.9-5.5 13.3-12.5l-25.6 4.3z"/></svg>