<svg id="Layer_1" xmlns="http://www.w3.org/2000/svg" viewBox="0 0 232.8 100.5"><style>.st0{fill:#545559}</style><path class="st0" d="M223.9 17.9h-13.5l7.9-16.3h13.5zm-21.4 0h-13.4L197 1.6h13.4zm-21.3 0h-13.4l7.9-16.3h13.4zM54.7 25.4c-6.5 0-14 1.4-19.8 4.6-.8 3.2-1.4 6-1.9 9.3l-8.1 51.3h13.3L41 73.2c2.3.4 5 .7 7.3.7 14.4 0 21.9-5.8 24.8-24.2.5-3.1.7-5.9.7-8.3.1-12.1-6-16-19.1-16zm5.1 24.2C58.6 57.2 57.3 63 47.7 63c-1.6 0-3.6-.3-5-.7l3-18.9c.3-2.1.8-4.4 1.3-6.3 1.6-.6 3.9-.9 6-.9 5.9 0 7.4 3.2 7.4 7.4 0 1.9-.3 4-.6 6zm40.9-41.8H87.4l-8.5 53.6c-.3 1.9-.5 3.5-.5 5 0 3.9 1 6.8 2.7 9.4l12.8-5.6c-1.2-2.3-1.7-4.3-1.7-6.7 0-1 .1-2.1.3-3.4l8.2-52.3zm26.7 17.6c-6.8 0-13.9 1-18.8 1.9l-.5 10.2c4.7-.6 11.2-1.3 16.8-1.3 4.3 0 6.3 1.2 6.3 4.3 0 .4-.1 1-.1 1.5-4.5.2-8.7.3-13.4 1.1-9.8 1.6-14.2 6.8-15.6 15.3-.2 1.4-.3 2.6-.3 3.8 0 7.8 4.8 11.6 16.1 11.6 8.1 0 15.3-1.2 21.4-4.6.8-3.2 1.3-6 1.9-9.3l3-19c.2-1.2.3-2.4.3-3.5 0-9.5-7.7-12-17.1-12zm1.4 30.8c-.3 2.1-.8 4.4-1.3 6.3-2.2.8-4.6.9-6.7.9-3.6 0-5.7-.9-5.7-3.8 0-.4 0-.8.1-1.3.7-4.4 2.2-5.5 5.6-6.4 2.7-.7 6-.8 8.8-1l-.8 5.3zm56-30.2l-12.3 26.6-6.2-26.6h-14.1l11.6 43.8-10.7 20.8h13.6L198.4 26zM25.6 7.8H11.4L9.2 21.6 1 73.2h14.2"/></svg>