<svg id="Layer_1" xmlns="http://www.w3.org/2000/svg" viewBox="0 0 179.7 35.4"><style>.st0{fill:#545559}</style><path class="st0" d="M49.3 17.3v-3c0-.5-.1-.7-.6-.8h-.6c-.2 0-.2 0-.2-.1s.1-.1.3-.1H52c.2 0 .3 0 .3.1s-.1.1-.3.1h-.4c-.4.1-.5.3-.5.8V22c0 .8-.1 1.7-.3 2.5-.3.9-1.1 1.9-2.4 2.7-.2.1-.4.2-.7.4-.1.1-.2.1-.3.1-.1 0-.1 0-.1-.1s.1-.1.3-.3c.2-.1.4-.3.7-.5 1.1-1.1 1.1-2.5 1.1-5.4v-4.1zm4.9 0v-3c0-.5-.1-.7-.6-.8H53c-.2 0-.2 0-.2-.1s.1-.1.3-.1h4.3c1.8 0 4.2 0 5.8 1.6.7.7 1.4 1.9 1.4 3.6 0 1.8-.8 3.2-1.6 4-.7.7-2.2 1.7-4.8 1.7-.5 0-1.1 0-1.7-.1-.5 0-1-.1-1.4-.1h-1.8c-.2 0-.3 0-.3-.1s.1-.1.2-.1c.2 0 .4 0 .5-.1.3-.1.4-.4.4-.8.1-.6.1-1.7.1-3.1v-2.5zm1.8 1.6v2.9c0 .4 0 .9.2 1.1.2.3.7.6 1.9.6 1.5 0 2.4-.3 3.3-1 .9-.8 1.2-2.1 1.2-3.6 0-1.8-.8-3-1.4-3.6-1.3-1.3-3-1.4-4.1-1.4-.3 0-.8 0-.9.1-.2 0-.2 0-.2.2v4.7zm11.1 1.4c-.1 0-.1 0-.1.1l-.8 2c-.1.4-.2.7-.2.9 0 .3.1.4.6.4h.2c.2 0 .2 0 .2.1s-.1.1-.2.1h-3.2c-.2 0-.3 0-.3-.1s.1-.1.2-.1h.4c.7-.1.9-.6 1.2-1.3l3.6-8.9c.2-.4.3-.6.4-.6.1 0 .2.1.4.5.3.8 2.6 6.5 3.6 8.7.5 1.3 1 1.5 1.3 1.6.2 0 .4.1.6.1.1 0 .2 0 .2.1s-.1.1-.7.1h-2.7c-.3 0-.4 0-.4-.1s.1-.1.2-.1.2-.2.1-.3l-1.1-3c0-.1-.1-.1-.1-.1h-3.4zm2.9-.7c.1 0 .1 0 0 0L68.8 16c0-.1 0-.1-.1-.1l-.1.1-1.3 3.5c0 .1 0 .1.1.1H70zm10.4.2c0 1.4 0 2.5.1 3.1 0 .4.1.7.6.8.2 0 .5.1.7.1.2 0 .2 0 .2.1s-.1.1-.3.1h-4c-.2 0-.3 0-.3-.1s.1-.1.2-.1c.2 0 .4 0 .5-.1.3-.1.4-.4.4-.8.1-.6.1-1.7.1-3.1v-5.5c0-.5-.1-.7-.6-.8h-.6c-.1 0-.2 0-.2-.1s.1-.1.3-.1h5.9c.3 0 .4 0 .6-.1.1 0 .2-.1.2-.1.1 0 .1.1.1.1 0 .1-.1.3-.1.6 0 .1 0 1-.1 1.2 0 .1 0 .2-.1.2s-.1-.1-.1-.2 0-.3-.1-.5-.4-.4-.9-.4h-2.2c-.1 0-.1 0-.1.2v3.6c0 .1 0 .1.1.1h2.4c.3 0 .5-.1.6-.3.1-.1.1-.1.2-.1s.1 0 .1.1-.1.4-.1.9c0 .3-.1.9-.1 1 0 .1 0 .3-.1.3s-.1-.1-.1-.2 0-.3-.1-.4c-.1-.2-.3-.5-.7-.5h-2.1c-.1 0-.1 0-.1.1v.9zm4.5-1.3c0-2.5 1.6-5.6 5.9-5.6 3.6 0 5.8 2.1 5.8 5.4 0 3.3-2.3 5.9-5.9 5.9-4.2 0-5.8-3.1-5.8-5.7zm9.7.3c0-3.2-1.9-5.2-4.2-5.2-1.7 0-3.5.9-3.5 4.5 0 3 1.7 5.4 4.4 5.4 1 0 3.3-.5 3.3-4.7zm3.4-1.5v-3c0-.5-.1-.7-.6-.8h-.6c-.2 0-.2 0-.2-.1s.1-.1.3-.1h3.9c.2 0 .3 0 .3.1s-.1.1-.2.1h-.4c-.4.1-.5.3-.5.8v5c0 2.1.4 3 1.1 3.5.6.5 1.3.6 1.8.6.6 0 1.4-.2 2-.8.8-.8.8-2.1.8-3.6v-4.8c0-.5-.1-.7-.6-.8h-.5c-.2 0-.2 0-.2-.1s.1-.1.3-.1h3.3c.2 0 .3 0 .3.1s-.1.1-.3.1h-.4c-.4.1-.5.3-.5.8v4.5c0 1.6-.2 3.3-1.4 4.3-1 .9-2.1 1-3 1-.8 0-2.1 0-3.2-1-.7-.7-1.3-1.7-1.3-3.8v-1.9zm12.6 4.7c0 1.1.2 1.5.5 1.6.2.1.5.1.7.1.2 0 .2 0 .2.1s-.1.1-.3.1h-3.4c-.2 0-.3 0-.3-.1s.1-.1.2-.1c.2 0 .4 0 .6-.1.4-.1.4-.5.4-1.8l.1-8.5c0-.3 0-.5.2-.5s.3.2.5.4 2.4 2.5 4.4 4.6c1 1 2.9 3 3.2 3.3h.1l-.1-6.4c0-.9-.1-1.1-.5-1.3-.2-.1-.6-.1-.8-.1-.2 0-.2 0-.2-.1s.2-.1.4-.1h3.1c.2 0 .3 0 .3.1s-.1.1-.3.1h-.4c-.4.1-.5.4-.5 1.2l-.2 9.1c0 .3-.1.4-.2.4-.2 0-.3-.2-.5-.3l-4.2-4.2c-1.6-1.5-3.2-3.3-3.4-3.6l.4 6.1zm11.7-4.7v-3c0-.5-.1-.7-.6-.8h-.6c-.2 0-.2 0-.2-.1s.1-.1.3-.1h4.3c1.8 0 4.2 0 5.8 1.6.7.7 1.4 1.9 1.4 3.6 0 1.8-.8 3.2-1.6 4-.7.7-2.2 1.7-4.8 1.7-.5 0-1.1 0-1.6-.1-.5 0-1-.1-1.4-.1h-1.8c-.2 0-.3 0-.3-.1s.1-.1.2-.1c.2 0 .4 0 .5-.1.3-.1.4-.4.4-.8.1-.6.1-1.7.1-3.1v-2.5zm1.8 1.6v2.9c0 .4 0 .9.2 1.1.2.3.7.6 1.9.6 1.5 0 2.4-.3 3.3-1 .9-.8 1.2-2.1 1.2-3.6 0-1.8-.8-3-1.4-3.6-1.3-1.3-3-1.4-4.1-1.4-.3 0-.8 0-.9.1-.1.1-.2.1-.2.3v4.6zm11.1 1.4c-.1 0-.1 0-.1.1l-.8 2c-.1.4-.2.7-.2.9 0 .3.1.4.6.4h.2c.2 0 .2 0 .2.1s-.1.1-.2.1h-3.2c-.2 0-.3 0-.3-.1s.1-.1.2-.1h.4c.7-.1.9-.6 1.2-1.3l3.6-8.9c.2-.4.3-.6.4-.6.1 0 .2.1.4.5.3.8 2.6 6.5 3.6 8.7.5 1.3 1 1.5 1.3 1.6.2 0 .4.1.6.1.1 0 .2 0 .2.1s-.1.1-.7.1h-2.7c-.3 0-.4 0-.4-.1s.1-.1.2-.1.2-.2.1-.3l-1.1-3c0-.1-.1-.1-.1-.1h-3.4zm3-.7s.1 0 0 0L137 16c0-.1 0-.1-.1-.1l-.1.1-1.3 3.5c0 .1 0 .1.1.1h2.6zm6.4-5.7l-2.1.1c-.8 0-1.2.1-1.4.4-.1.2-.2.4-.2.5 0 .1-.1.2-.2.2s-.1-.1-.1-.2c0-.2.3-1.5.3-1.7 0-.2.1-.3.2-.3s.3.1.6.2c.4 0 1 .1 1.4.1h5.7c.5 0 .8 0 1-.1.2 0 .3-.1.4-.1.1 0 .1.1.1.3V15c0 .1 0 .2-.1.2s-.1-.1-.2-.3v-.2c0-.4-.4-.8-1.7-.8h-1.8v5.9c0 1.3 0 2.5.1 3.1 0 .4.1.7.6.8.2 0 .5.1.7.1.2 0 .2 0 .2.1s-.1.1-.3.1h-4.1c-.2 0-.3 0-.3-.1s.1-.1.2-.1c.2 0 .4 0 .5-.1.3-.1.4-.4.4-.8.1-.6.1-1.7.1-3.1v-5.9zm7.2 3.4v-3c0-.5-.2-.7-.5-.8-.2 0-.3-.1-.5-.1-.1 0-.2 0-.2-.1s.1-.1.3-.1h3.7c.2 0 .3 0 .3.1s-.1.1-.2.1h-.4c-.4.1-.5.3-.5.8v5.5c0 1.4 0 2.5.1 3.1 0 .4.1.6.6.7.2 0 .5.1.7.1.2 0 .2 0 .2.1s-.1.1-.3.1h-4c-.2 0-.3 0-.3-.1s.1-.1.2-.1c.2 0 .4 0 .5-.1.3-.1.4-.3.4-.7.1-.6.1-1.7.1-3.1v-2.4zm3.7 1.2c0-2.5 1.6-5.6 5.9-5.6 3.6 0 5.8 2.1 5.8 5.4 0 3.3-2.3 5.9-5.9 5.9-4.1 0-5.8-3.1-5.8-5.7zm9.7.3c0-3.2-1.9-5.2-4.2-5.2-1.6 0-3.5.9-3.5 4.5 0 3 1.6 5.4 4.4 5.4 1 0 3.3-.5 3.3-4.7zM170 22c0 1.1.2 1.5.5 1.6.2.1.5.1.7.1.2 0 .2 0 .2.1s-.1.1-.3.1h-3.4c-.2 0-.3 0-.3-.1s.1-.1.2-.1c.2 0 .4 0 .6-.1.4-.1.4-.5.4-1.8l.1-8.5c0-.3 0-.5.2-.5s.3.2.5.4 2.4 2.5 4.4 4.6c1 1 2.9 3 3.2 3.3h.1l-.1-6.4c0-.9-.1-1.1-.5-1.3-.2-.1-.6-.1-.8-.1-.2 0-.2 0-.2-.1s.2-.1.4-.1h3.1c.2 0 .3 0 .3.1s-.1.1-.3.1h-.4c-.4.1-.5.4-.5 1.2l-.2 9.1c0 .3-.1.4-.2.4-.2 0-.3-.2-.5-.3l-4.2-4.2c-1.6-1.5-3.2-3.3-3.4-3.6l.4 6.1zM9.3 30.6s1.4-3.5-2.6-9.3c6.5 4.7 3.6 7.9 2.6 9.3zm-1.2-2s0-1.9-5.7-3.6c3.6 1.6 4.3 3.1 5.8 5.3l-.1-1.7z"/><path class="st0" d="M11.5 30s-1.5-3.4 2.4-5.3c-.5 1.2-2 3.2-2.4 5.3zm-2.1 0s.7-4.6-5.2-5.8c2.2 1.6 4.3 3.5 5.2 5.8zm.9-1.5s-.5-5.4 3.1-6.7c-1.8 2.5-2.2 3.9-3.1 6.7z"/><path class="st0" d="M.6 34.8s1.8-6.3 11-6.8c8.4-.5 15.5 5.5 25.4 4.9 7.5-.4 10.1-2.4 10.1-2.4.3-.5-1.3 3.7-11.8 4.4-8.7.6-16.5-4.6-23.3-4.5C4.7 30.6.6 34.8.6 34.8z"/><path class="st0" d="M37.4 4.7l-.5.5c-.1.2-.4.7-.5 1.1-.2.5-.5 1.3-1.1 2.4 3.1 2.2 3.3 6.5 1.2 11.8-1.3 3.2-4 6.4-7 9.3.6.2 1.3.3 1.9.5 3-3.3 5.9-7 7.5-10.4 2.7-5.8 4-12.3-1.5-15.2zm-9.2 3.1c0-.1-.1-.3-.2-.4h-.4c0 .2-.1.4-.1.4-.1.3-.1.8-.2 1.1.1 0 .2-.1.3-.1.1-.2.2-.5.3-.7.2-.1.2-.2.3-.3zm-5.1-.7v-.2c.1-.4.2-1.5.2-2.4C22 3.3 20 2.2 17.6 2.2c-5.3 0-11.5 6.4-9.7 16.1.4-8 5.1-13.4 10-13.4 2.2.1 3.9 1.1 5.2 2.2z"/><path class="st0" d="M35.1 3.8s-.5.9-.9 1.8c-.3 1-2.1 4.4-2.2 4.9-.1.5 0 1.8-.2 2.9-.2 1.1-1.7 3.5-1.9 3.9-.2.4-.5 1.3-.6 2.2-.1.9-1.2 5.2-1.3 5.6-.1.4-6.7 1.4-6.7 1.4l-.6-.6s-.9 1.8-1.5 1.6c-.6-.2.5-2.8.5-3.2.1-.4 1-.5 2-.7 1-.2 3.9-.7 3.9-1 .1-.3.5-2.8.5-2.8s-5.1 1.6-6.3 1.6c-1.2 0-1.5-2.7-1.5-2.7s-1.2.6-2 0c-.7-.7 2.3-3 3-3.1.6-.1 2.9 2.3 2.9 2.3s1.8-.9 2.3-1.3c.4-.3 1.8-2.2 2-2.9.1-.7-.7-2.5-1.1-3.2-.4-.7-.1-2.7.1-3.4.1-.7.4-3.7.2-4.3-.3-.6-1-2.4-.7-2.7.3-.3 1.4.9 1.8 1.3.4.4.9 0 1.2.1.4.1-1 1.6-1 1.6v1.8s1.1-.1 2-.1c.9 0 1.4 1.7 1.6 2.4.2.7-.6 1.9-.6 1.9l.6.1s1.3-1.6 1.9-2.6c.3-.5 1.9-3.2 1.5-3.7-.3.1-1-1.6-.8-1.9.1-.3 1.1.3 1.4.8.3.5.8.5 1.2.5.7-.3.6.2.1.7-.2.3-.8.8-.8.8"/></svg>