<svg id="Layer_1" xmlns="http://www.w3.org/2000/svg" viewBox="0 0 719.3 167.5"><style>.st0,.st1{fill:#545559}</style><path class="st0" d="M108.7 10.4c-21 12.5-34 35.4-34 59.8 0 26.4 14.6 50.1 38.1 62.1 7-7.5 12.8-15 17.4-22.1 4.2-6 7.4-12.5 9.5-19.3 1.8-5.4 2.8-10.6 3.1-15.6v-2.2c0-1 .1-1.9.1-2.9-.1-24.4-13.2-47.3-34.2-59.8z"/><path class="st0" d="M144.3.5c-11.9 0-23 2.9-32.9 8.1 21.3 13.2 34.4 36.6 34.4 61.7v3c0 5.9-1.1 12.2-3.3 18.6-2.2 7.1-5.5 13.8-9.8 20-4.8 7.6-11 15.4-18.4 23.3l-.5.6c6.1 2.9 12.7 5 19.7 6.1V163c0 3.2 1.5 4 4 4h13.8c2.5 0 4-.8 4-4v-21.1c34.1-5.2 60.2-34.7 60.2-70.3-.1-39.3-32-71.1-71.2-71.1zM71.7 70.3c0-25.1 13.1-48.5 34.4-61.7C96.3 3.4 85.1.5 73.2.5 33.9.5 2.1 32.3 2.1 71.6s31.8 71.1 71.1 71.1v21.1c0 1.7 1.4 3.2 3.2 3.2.7 0 1.4-.2 1.9-.6 7.3-5.4 21.4-16.4 34.6-30.5l-.4-.2c-25.2-12.4-40.8-37.4-40.8-65.4z"/><path class="st1" d="M331.6 62.8v6.4c0 1.4-.5 2.3-2.3 2.3h-32.7c-1.8 0-2.3-.9-2.3-2.3V22.1c0-1.8.9-2.3 2.3-2.3h7.8c1.4 0 2.3.5 2.3 2.3v38.4h22.6c1.8 0 2.3.9 2.3 2.3zm55.5 8.7h-8.3c-1.7 0-2.4-.5-3-2.4l-2.2-6.2h-19.2l-2.2 6.2c-.6 1.9-1.3 2.4-3 2.4H341c-1.7 0-1.7-1.3-1.3-2.2l17.4-47.1c.6-1.7 1.5-2.4 3.2-2.4h7.5c1.7 0 2.5.8 3.2 2.4l17.4 47.1c.5 1 .5 2.2-1.3 2.2zM370 52l-5.9-17.4-5.9 17.4H370zm71.3-29.9v47.1c0 1.4-.5 2.3-2.3 2.3h-7.1c-2 0-2.5-1.1-3.5-2.7l-16.7-26.9v27.3c0 1.8-.9 2.3-2.3 2.3h-7.8c-1.4 0-2.3-.5-2.3-2.3V22.1c0-1.4.5-2.3 2.3-2.3h7.4c2 0 2.5 1.1 3.5 2.7l16.7 26.9V22.1c0-1.8.9-2.3 2.3-2.3h7.5c1.5 0 2.3.5 2.3 2.3zM497.6 45v11.4c-.7 11.3-12.2 16.3-21.1 16.3-9.3 0-21.1-4.7-21.1-17V36.3c0-12.4 11.9-17.7 21.1-17.7 9.8 0 21.1 5.7 21.1 16.2 0 1.9-.5 2.2-2.3 2.2h-7.6c-2.2 0-1.9-1.6-2.3-2.7-.9-2.4-3.7-4.8-9-4.8-5.2 0-8.6 3.5-8.6 8.5v15.8c0 5 3.5 7.9 8.6 7.9s8.7-2.4 8.7-8.4H478c-1.8 0-2.3-.9-2.3-2.3v-6c0-1.4.5-2.3 2.3-2.3h17.2c1.9 0 2.4.9 2.4 2.3zm54.9-22.9v33.6c0 12.3-11.5 17-20.8 17s-20.7-4.6-20.7-17V22.1c0-1.8.9-2.3 2.3-2.3h7.8c1.4 0 2.3.5 2.3 2.3V54c0 5 3.2 7.8 8.4 7.8s8.5-2.8 8.5-7.8V22.1c0-1.8.9-2.3 2.3-2.3h7.8c1.2 0 2.1.5 2.1 2.3zm58.1 49.4h-8.3c-1.7 0-2.4-.5-3-2.4l-2.2-6.2h-19.2l-2.2 6.2c-.6 1.9-1.3 2.4-3 2.4h-8.3c-1.7 0-1.7-1.3-1.3-2.2l17.4-47.1c.6-1.7 1.5-2.4 3.2-2.4h7.5c1.7 0 2.5.8 3.2 2.4l17.4 47.1c.5 1 .5 2.2-1.2 2.2zM593.4 52l-5.9-17.4-5.9 17.4h11.8zm70.1-7v11.4c-.7 11.3-12.2 16.3-21.1 16.3-9.3 0-21.1-4.7-21.1-17V36.3c0-12.4 11.9-17.7 21.1-17.7 9.8 0 21.1 5.7 21.1 16.2 0 1.9-.5 2.2-2.3 2.2h-7.6c-2.2 0-1.9-1.6-2.3-2.7-.9-2.4-3.7-4.8-9-4.8-5.2 0-8.6 3.5-8.6 8.5v15.8c0 5 3.5 7.9 8.6 7.9s8.7-2.4 8.7-8.4h-7c-1.8 0-2.3-.9-2.3-2.3v-6c0-1.4.5-2.3 2.3-2.3h17.2c1.8 0 2.3.9 2.3 2.3zm53.7 17.8v6.4c0 1.4-.5 2.3-2.3 2.3h-35.2c-1.8 0-2.3-.9-2.3-2.3V22.1c0-1.4.5-2.3 2.3-2.3h33.9c1.8 0 2.3.9 2.3 2.3v6.5c0 1.4-.5 2.3-2.3 2.3h-23.7v8.6H711c1.8 0 2.3.9 2.3 2.3v6.1c0 1.4-.5 2.3-2.3 2.3h-21.1v10.4H715c1.8-.1 2.2.8 2.2 2.2zm-382.1 50.9v11.4c-.7 11.3-12.2 16.3-21.1 16.3-9.3 0-21.1-4.7-21.1-17v-19.3c0-12.4 11.9-17.7 21.1-17.7 9.8 0 21.1 5.7 21.1 16.2 0 1.9-.5 2.2-2.3 2.2h-7.6c-2.2 0-1.9-1.6-2.3-2.7-.9-2.4-3.7-4.8-9-4.8-5.2 0-8.6 3.5-8.6 8.5v15.8c0 5 3.5 7.9 8.6 7.9s8.7-2.4 8.7-8.4h-7.1c-1.8 0-2.3-.9-2.3-2.3v-6.1c0-1.4.5-2.3 2.3-2.3h17.2c1.9 0 2.4.9 2.4 2.3zm57.1 26.6h-8.3c-1.7 0-2.4-.5-3-2.4l-2.2-6.2h-19.2l-2.2 6.2c-.6 1.9-1.3 2.4-3 2.4H346c-1.7 0-1.7-1.3-1.3-2.2L362.2 91c.6-1.7 1.5-2.4 3.2-2.4h7.5c1.7 0 2.5.8 3.2 2.4l17.4 47.1c.4.9.4 2.2-1.3 2.2zM375 120.7l-5.9-17.4-5.9 17.4H375zm71.5 17.1l-11.1-16.1c4.9-1.7 10.9-7.4 10.9-15.6 0-5-1.7-9.5-4.6-12.3-3.3-3.3-7.1-5-15.6-5h-19.5c-1.8 0-2.2.9-2.2 2.3V138c0 1.8.8 2.3 2.2 2.3h7.8c1.4 0 2.3-.5 2.3-2.3v-14.3h5.9l9.6 14.3c1.1 1.7 2 2.4 3.9 2.4h9.3c1.4-.1 1.8-1.5 1.1-2.6zm-19.9-25.1h-10v-13h10.2c4.1 0 7.2 2.6 7.2 6.7.1 3.6-3.5 6.3-7.4 6.3zm74.8-6.4v16.3c0 12.3-11.8 17.7-21.1 17.7h-17.6c-1.8 0-2.3-.9-2.3-2.3V90.9c0-1.4.5-2.3 2.3-2.3h17.6c9.3 0 21.1 5.4 21.1 17.7zm-12.3 1.1c0-5-3.6-7.9-8.8-7.9h-7.5v29.9h7.5c5.2 0 8.8-2.8 8.8-7.9v-14.1zm66 24.2v6.4c0 1.4-.5 2.3-2.3 2.3h-35.2c-1.8 0-2.3-.9-2.3-2.3V90.9c0-1.4.5-2.3 2.3-2.3h33.9c1.8 0 2.3.9 2.3 2.3v6.5c0 1.4-.5 2.3-2.3 2.3h-23.7v8.6h21.1c1.8 0 2.3.9 2.3 2.3v6.1c0 1.4-.5 2.3-2.3 2.3h-21.1v10.4h25.1c1.8-.1 2.2.7 2.2 2.2zm55.4-40.7V138c0 1.4-.5 2.3-2.3 2.3h-7.1c-2 0-2.5-1.1-3.5-2.7l-16.7-26.9V138c0 1.8-.9 2.3-2.3 2.3h-7.8c-1.4 0-2.3-.5-2.3-2.3V90.9c0-1.4.5-2.3 2.3-2.3h7.4c2 0 2.5 1.1 3.5 2.7l16.7 26.9V90.9c0-1.8.9-2.3 2.3-2.3h7.5c1.4 0 2.3.5 2.3 2.3z"/></svg>