<svg id="Layer_1" xmlns="http://www.w3.org/2000/svg" viewBox="0 0 81.9 66.1"><style>.st0,.st1{fill:#fff}</style><path class="st0" d="M2 60.1C2 57.8 3.7 56 6.1 56c1.2 0 2 .3 2.7.8.2.1.4.4.4.7 0 .5-.4.9-.9.9-.2 0-.4-.1-.5-.2-.5-.3-1-.5-1.7-.5-1.3 0-2.3 1.1-2.3 2.5s1 2.5 2.4 2.5c.6 0 1.2-.2 1.6-.5V61H6.7c-.4 0-.8-.3-.8-.7 0-.4.3-.8.8-.8h2c.5 0 .9.4.9.9v1.9c0 .5-.2.9-.6 1.1-.6.4-1.6.8-2.8.8-2.5-.1-4.2-1.8-4.2-4.1m9.1-3.5c0-.5.4-.9.9-.9s.9.4.9.9v6.7c0 .5-.4.9-.9.9s-.9-.4-.9-.9v-6.7zm8.8 6.6c0 .5-.4.9-.9.9s-.9-.4-.9-.9v-.1c-.4.5-.9 1-1.8 1-1.3 0-2.1-.9-2.1-2.2v-3.1c0-.5.4-.9.9-.9s.9.4.9.9v2.6c0 .8.4 1.2 1 1.2.7 0 1.1-.4 1.1-1.2v-2.6c0-.5.4-.9.9-.9s.9.4.9.9v4.4zm1.2-2.2c0-1.7 1.3-3.2 3.2-3.2.9 0 1.6.2 2.1.7.1.1.3.3.3.6 0 .4-.3.8-.8.8-.2 0-.4-.1-.5-.2-.3-.2-.6-.4-1.1-.4-.9 0-1.5.8-1.5 1.6 0 .9.6 1.7 1.5 1.7.5 0 .8-.2 1.1-.4.1-.1.3-.2.5-.2.4 0 .7.3.7.7 0 .2-.1.4-.2.5-.5.5-1.1.8-2.1.8-1.8.1-3.2-1.3-3.2-3m6.3 0c0-1.8 1.4-3.2 3.3-3.2s3.3 1.4 3.3 3.1c0 1.7-1.4 3.1-3.3 3.1-1.9.1-3.3-1.2-3.3-3m4.9 0c0-.9-.6-1.7-1.6-1.7s-1.6.8-1.6 1.6c0 .9.6 1.7 1.6 1.7 1 .1 1.6-.7 1.6-1.6m2.7 2.4c-.2-.1-.3-.3-.3-.6 0-.4.3-.7.7-.7.1 0 .2 0 .3.1.6.4 1.1.5 1.6.5s.7-.2.7-.5c0-.4-.6-.5-1.3-.7-.7-.1-1.7-.5-1.7-1.7s1-1.9 2.2-1.9c.6 0 1.3.2 1.9.5.2.1.4.3.4.6 0 .4-.3.7-.7.7-.1 0-.2 0-.3-.1-.5-.2-.9-.4-1.3-.4s-.6.2-.6.4c0 .3.6.5 1.2.7.8.3 1.8.7 1.8 1.8 0 1.3-1 1.9-2.3 1.9-.7.1-1.5-.1-2.3-.6m8.7.7c-1.8 0-3.2-1.3-3.2-3.1 0-1.7 1.2-3.1 3-3.1 2 0 2.9 1.7 2.9 2.9 0 .5-.3.8-.8.8h-3.4c.2.8.7 1.2 1.5 1.2.5 0 .9-.1 1.2-.4.1-.1.2-.1.4-.1.4 0 .7.3.7.7 0 .2-.1.4-.2.5-.5.4-1.2.6-2.1.6m1.1-3.6c-.1-.8-.6-1.3-1.3-1.3-.7 0-1.2.5-1.3 1.3h2.6z"/><path class="st1" d="M47.9 56.9c0-.5.4-.9.9-.9h.2c.4 0 .6.2.8.5l2.1 3.4 2.1-3.4c.2-.3.4-.4.8-.4h.2c.5 0 .9.4.9.9v6.3c0 .5-.4.9-.9.9s-.9-.4-.9-.9v-3.9l-1.5 2.3c-.2.3-.4.4-.7.4-.3 0-.5-.2-.7-.4l-1.5-2.3v3.9c0 .5-.4.8-.9.8s-.8-.4-.8-.8v-6.4zm9.3 5.4c0-1.3 1-1.9 2.4-1.9.6 0 1 .1 1.5.2v-.1c0-.7-.4-1.1-1.3-1.1-.5 0-.9.1-1.2.2h-.2c-.4 0-.7-.3-.7-.7 0-.3.2-.6.5-.7.5-.2 1.1-.3 1.9-.3.9 0 1.6.2 2 .7.5.5.7 1.1.7 1.9v2.8c0 .5-.4.8-.8.8-.5 0-.8-.3-.8-.7-.4.5-1 .8-1.8.8-1.3-.1-2.2-.7-2.2-1.9m3.9-.4v-.3c-.3-.1-.7-.2-1.1-.2-.7 0-1.2.3-1.2.8s.4.7.9.7c.9 0 1.4-.4 1.4-1m3.1-3.1c0-.5.4-.9.9-.9s.9.4.9.9v.1c.4-.5.9-1 1.8-1 .8 0 1.4.3 1.7 1 .5-.6 1.2-1 2-1 1.3 0 2 .8 2 2.2v3.1c0 .5-.4.9-.9.9s-.9-.4-.9-.9v-2.6c0-.8-.4-1.2-1-1.2s-1 .4-1 1.2v2.6c0 .5-.4.9-.9.9s-.9-.4-.9-.9v-2.6c0-.8-.4-1.2-1-1.2s-1 .4-1 1.2v2.6c0 .5-.4.9-.9.9s-.9-.4-.9-.9v-4.4zm10.4 3.5c0-1.3 1-1.9 2.4-1.9.6 0 1 .1 1.5.2v-.1c0-.7-.4-1.1-1.3-1.1-.5 0-.9.1-1.2.2h-.2c-.4 0-.7-.3-.7-.7 0-.3.2-.6.5-.7.5-.2 1.1-.3 1.9-.3.9 0 1.6.2 2 .7.5.5.7 1.1.7 1.9v2.8c0 .5-.4.8-.8.8-.5 0-.8-.3-.8-.7-.4.5-1 .8-1.8.8-1.3-.1-2.2-.7-2.2-1.9m3.9-.4v-.3c-.3-.1-.7-.2-1.1-.2-.7 0-1.2.3-1.2.8s.4.7.9.7c.9 0 1.4-.4 1.4-1"/><path class="st0" d="M62.3 19.1c1 1.6 1.7 3.4 1.7 5.9-.1 2-.4 3.8-.9 5.6-2.8 9.5-11.6 16.5-22 16.5-1.3 0-2.5-.1-3.8-.3l-1.5-.3C25.7 44.1 18.1 35 18.1 24.1c0-6.5 2.7-12.4 7.1-16.6 1.4-1.4 3-2.5 4.7-3.5.9-.5 1.6-.9 2.1-1.1 1.4-.6 2.9-1 4.5-1 6 0 10.8 4.9 10.8 10.8 0 1.8-.5 3.5-1.3 5.1 1.8-2.3 4.6-3.7 7.7-3.7 2.8 0 5.3 1.2 7.1 3 0 .1.1.1.1.2.6.6 1.1 1.1 1.4 1.8zm-1.2 11.6v-.2c-1.8 2-4.4 3.2-7.3 3.2-5.4 0-9.8-4.4-9.8-9.8 0-1.6.4-3.1 1.1-4.5-2 2.6-5.1 4.2-8.6 4.2-6 0-10.8-4.9-10.8-10.8 0-1.3.2-2.6.7-3.8-1.6 2.1-2.6 5.7-2.6 8.4 0 6.3 5.1 11.5 11.5 11.5.7 0 1.4-.1 2-.2 0-.2-.1-.5-.1-.8 0-.5 0-1 .3-1.5.1-.1.1-.3.2-.4 0-.1.1-.1.1-.2l.1-.1.1-.1.1-.1.2-.2c.1-.1.3-.2.4-.3.6-.3 1.3-.4 2-.1.7.3 1.1.9 1.3 1.5.2.6.1 1.3-.2 1.9-.3.6-.7.9-1.1 1.2-.4.3-.7.5-1.1.6-.1 0-.1 0-.2.1.3 1.1 1.4 3.5 3.2 5 .2-1.3 1.4-2.4 2.8-2.4 1 0 1.9.5 2.8 1 1.1.6 2.4 1.4 4.5 1.4h.1c3.6 0 6.7-1.8 8.3-4.5zm.7-6.7c0-4.4-3.5-7.9-7.9-7.9S46 19.6 46 24s3.5 7.9 7.9 7.9 7.9-3.6 7.9-7.9zm-5.5 13.1c.9-.5 1.7-1.2 2.4-2-1.7 1-3.6 1.5-5.7 1.6h-.1c-2.5 0-4-.9-5.2-1.5-.8-.4-1.4-.8-2-.8-.7 0-1.3.6-1.3 1.3 0 .4.2.7.6 1 0 0 .1 0 .1.1 1.7 1 3.7 1.6 5.8 1.6 1.9 0 3.7-.3 5.4-1.3zm-.7 2.3c-1.5.5-3.1.8-4.7.8-2.5 0-4.8-.7-6.8-1.8-2.9-1.5-5.1-2.4-7.7-2.6-2.7-.2-4.4 1-4.8 3.4-.2 1 .1 2 .7 2.9.8 1.1 2.3 2 4 2.5.5.1 1 .2 1.4.3h.3c1 .2 2.1.2 3.2.2 5.5.1 10.6-2.1 14.4-5.7zM45.5 12.8c0-4.9-4-8.9-8.9-8.9-.7 0-1.4.1-2 .2-.9.3-1.7.6-2.5 1-2.6 1.6-4.4 4.4-4.4 7.7 0 4.9 4 8.9 8.9 8.9s8.9-3.9 8.9-8.9zm-5.2 14.9c.5-.5.3-1 .1-1.2-.2-.2-.8-.1-1.1.5-.2.4-.3 1-.2 1.5.5-.2 1-.5 1.2-.8zm-.6 6.8c-.8-1.2-1.5-2.5-1.9-3.9-.8.2-1.6.2-2.5.2-7.4 0-13.4-6-13.4-13.4v-1c.1-.8.3-1.5.5-2.2-.2.3-.4.7-.5 1.1-1.3 2.7-2 5.7-2 8.9 0 7.5 4 14.1 9.9 17.8-.4-1-.5-2-.3-3.1.6-3.3 3.1-5.2 6.8-5 1.2.1 2.3.3 3.4.6z" id="XMLID_1_"/></svg>