<svg id="Layer_1" xmlns="http://www.w3.org/2000/svg" viewBox="0 0 762 252"><style>.st0{fill:none}.st1{fill:#545559}</style><path class="st0" d="M291.8 152.4l5.4 16.5-134.6 30.3c-1.8.4-2.9 2.2-2.5 3.9.3 1.4 1.5 2.4 2.9 2.6h.3c.2 0 .5 0 .7-.1l10.2-2.3 1.8-.4 123.3-27.7-2.1-6.3-5.4-16.5zm57.8 47.2l24-5.4v-19l-29.8 6.7zM468.2 63.2h-54.4V96l35-7.9c2.6-.6 5.2 1 5.7 3.6.6 2.6-1 5.2-3.6 5.7l-37.1 8.3V125l52.3-11.8c17.1-5.1 20.3-10.6 21.8-13.2 2.7-4.8 3.6-6.2 3.6-19.8 0-5.1-7.9-17-23.3-17zM286 134.6L235.6 146l-6.9 20.6 63.1-14.2-4.7-14.4zm-3-9.1l-20.2-61.7-23.7 71.5 4.3-1zm42.4.3l5.8 17.7 42.4-9.5v-19.1zm309.3-62.3h-54.4v40.8l52.2-11.7c2.6-.6 5.2 1 5.7 3.6.6 2.6-1 5.2-3.6 5.7l-54.3 12.2v14.2l52.4-11.2c17.1-5.1 20.2-10.6 21.7-13.2 2.7-4.8 3.6-6.2 3.6-19.8 0-3.7-1.3-9.1-4.9-13.4-4-4.9-10-7.2-18.4-7.2z"/><path class="st1" d="M736 3.7c-1.4-1.9-4-2.3-5.9-.9-1.9 1.4-2.3 4-.9 5.9 14.4 19.8 22.4 43.7 22.4 67.3 0 6 0 17.2-3.1 31.2-.5 2.3.9 4.5 3.2 5 .3.1.6.1.9.1 1.9 0 3.7-1.3 4.1-3.3 3.3-14.8 3.3-27.1 3.3-33 0-25.4-8.5-51-24-72.3z"/><path class="st1" d="M719.4 22.1c-2 1.2-2.6 3.8-1.4 5.8 8.9 14.7 13.8 31.7 13.8 48.1 0 4.2 0 11.1-1.3 19.5-.3 2.3 1.2 4.4 3.5 4.8h.6c2 0 3.8-1.5 4.1-3.6 1.4-9 1.4-16.3 1.4-20.7 0-17.8-5.3-36.5-15-52.4-1.1-2.1-3.7-2.7-5.7-1.5zm-11.2 20.3c-2.1.9-3.1 3.4-2.2 5.5 3.9 9 6 18.7 6 28 0 2 0 4.5-.1 7.4-.1 2.3 1.7 4.3 4 4.4h.2c2.2 0 4.1-1.7 4.2-4 .2-3.1.2-5.7.2-7.8 0-10.4-2.3-21.3-6.7-31.4-1-2-3.5-3-5.6-2.1zm-73.5-19.1h-55.9c-21.3 0-38.7 17.4-38.7 38.7v181.7h40.2v-74.3l62.2-13.3.7-.2c23-6.7 37.2-16.6 46-32 7.6-13.3 8.9-22.7 8.9-39.8 0-14.1-5.2-28.5-14.3-39.3-8.1-9.8-23.3-21.5-49.1-21.5zm19.7 80.6c-1.5 2.7-4.7 8.1-21.7 13.2l-52.4 11.2v-14.2l54.3-12.2c2.6-.6 4.2-3.1 3.6-5.7-.6-2.6-3.1-4.2-5.7-3.6l-52.2 11.7V63.5h54.4c8.4 0 14.4 2.3 18.4 7.1 3.6 4.3 4.9 9.8 4.9 13.4 0 13.7-.8 15.1-3.6 19.9zM513.8 41.1c-12.1-11.6-28.3-18-45.6-18h-55.9c-20.6 0-38.7 16.4-38.7 35.1v47l-51.2 11.5-22.9-69.8-.1-.2c-5.3-15.7-20.1-26.2-36.6-26.2-16.9 0-31.7 10.8-36.9 26.9l-32.6 98.4-61.8 13.9c-2.6.6-4.2 3.1-3.6 5.7.5 2.2 2.5 3.7 4.7 3.7.3 0 .7 0 1.1-.1l56.2-12.6-1.3 4-5.5 16.6-133.5 30c-1.6.4-4.6-.1-4.6-2.9 0-1 .1-2 1.2-2.9L174 106.7l.3-.2c14-10.7 20.2-22.7 20.2-38.9 0-12.3-4.6-23.5-12.8-31.6-6-5.9-17-13-34.7-13H19v40.2h130.2c3 0 5 2.2 5 4.4s0 3.6-4.3 6.9L20.6 169.9h-.1c-7.3 5.4-15.8 17.5-15.8 33.6 0 24.1 19.6 43.7 43.7 43.7 4.2 0 8.3-.6 12.2-1.7l107.6-24.2-1.3 4-4.8 14.5h42.4l9.5-28.7 90.4-20.3 5.8 17.7-51 11.5c-2.6.6-4.2 3.1-3.6 5.7.5 2.2 2.5 3.7 4.7 3.7.3 0 .7 0 1.1-.1l51.9-11.7 7.3 22.2h42.3l-9.1-27.6-1.1-3.4 21-4.7v35.8h40.2V195l92.5-20.8c2.6-.6 4.2-3.1 3.6-5.7-.6-2.6-3.1-4.2-5.7-3.6l-90.4 20.3v-19l62.3-14 .6-.2c23-6.7 37.2-16.6 46-32 7.6-13.3 8.9-22.7 8.9-39.8 0-14-6.5-28.2-17.9-39.1zm-251 22.7l20.2 61.6-39.6 8.9-4.3 1 23.7-71.5zM176 202.9l-1.8.4-10.2 2.3c-.2.1-.5.1-.7.1h-.3c-1.4-.1-2.6-1.1-2.9-2.6-.4-1.8.7-3.5 2.5-3.9l134.6-30.3-5.4-16.5-63.1 14.2 6.8-20.6 50.4-11.3 1.1 3.4 4.7 14.3 5.4 16.5 2.1 6.3L176 202.9zm197.6-8.7l-24 5.4-5.8-17.7 29.8-6.7v19zm0-60.2l-42.4 9.5-5.8-17.8 48.2-10.8V134zm114.3-34c-1.5 2.7-4.7 8.2-21.8 13.2L413.8 125v-19.1l37.1-8.3c2.6-.6 4.2-3.1 3.6-5.7-.6-2.6-3.2-4.2-5.7-3.6l-35 7.9v-33h54.4c15.4 0 23.3 11.9 23.3 16.9 0 13.7-.8 15.1-3.6 19.9z"/></svg>