<svg id="Warstwa_1" data-name="Warstwa 1" xmlns="http://www.w3.org/2000/svg" viewBox="0 0 370 84"><defs><style>.cls-1{fill:#545559}</style></defs><title>logo callersmart</title><g id="Warstwa_2" data-name="Warstwa 2"><g id="Warstwa_1-2" data-name="Warstwa 1-2"><path class="cls-1" d="M76 38a38 38 0 1 0-44.4 37.5l6.7 8.5 6.6-8.5A38 38 0 0 0 76 38zM38 67.4A29.35 29.35 0 1 1 67.4 38 29.35 29.35 0 0 1 38 67.4z"/><path class="cls-1" d="M48.7 45.6c-2.9-3.2-4.7 1.2-7.8.6-2.4-.4-4.3-4.1-5.4-5.9a27 27 0 0 1-3.1-6.4c-.8-3.1 2.4-4 3.8-6 1.9-2.7-3.7-12-6.1-13.3-1.9-1-5.3 1.6-6.6 2.6-3 2.4-3.7 4.8-3.1 8.6 1.4 8.8 13.6 27 16.9 30.2 2.1 1.9 4.5 5.3 7.6 5.6s6.7-1.6 9-3.7c4-3.6-2.6-9.5-5.2-12.3-1.8-2 1.4 1.5 0 0zm70.9-14.3a8.55 8.55 0 0 0-2.8-2.2 9.35 9.35 0 0 0-3.9-.8 9.46 9.46 0 0 0-4.1.9 10 10 0 0 0-3.3 2.4 13.43 13.43 0 0 0-2.2 3.7 13.89 13.89 0 0 0-.8 4.6 13.44 13.44 0 0 0 .8 4.6 12.26 12.26 0 0 0 2.1 3.7 9.3 9.3 0 0 0 3.2 2.4 9.55 9.55 0 0 0 8.3-.1 9.22 9.22 0 0 0 3.1-2.8l6.5 4.9a13.65 13.65 0 0 1-5.7 4.7 17.87 17.87 0 0 1-7.2 1.5 21.1 21.1 0 0 1-7.7-1.3 16.6 16.6 0 0 1-6.1-3.8 18 18 0 0 1-4-6 19.38 19.38 0 0 1-1.4-7.8 21.26 21.26 0 0 1 1.4-7.8 19.11 19.11 0 0 1 4-6 18 18 0 0 1 6.1-3.8 21.47 21.47 0 0 1 7.7-1.3 16.28 16.28 0 0 1 3.1.3 16.81 16.81 0 0 1 3.2.9 10.81 10.81 0 0 1 3 1.6 12.28 12.28 0 0 1 2.6 2.5zm25.6 23.5h-.1a6.66 6.66 0 0 1-3.4 2.8 11.17 11.17 0 0 1-4.4.9 12.57 12.57 0 0 1-3.3-.5 8.18 8.18 0 0 1-2.8-1.4 6.54 6.54 0 0 1-1.9-2.4 6.71 6.71 0 0 1-.7-3.3 8 8 0 0 1 .8-3.6 6.11 6.11 0 0 1 2.1-2.4 14 14 0 0 1 3-1.5 19 19 0 0 1 3.6-.8 23.08 23.08 0 0 1 3.7-.3c1.2 0 2.4-.1 3.4-.1a4 4 0 0 0-1.4-3.2 5.23 5.23 0 0 0-3.4-1.2 7.73 7.73 0 0 0-3.4.8 8 8 0 0 0-2.7 2.2l-4-4.2a15.41 15.41 0 0 1 4.9-3 16.47 16.47 0 0 1 5.8-1 17.28 17.28 0 0 1 5.5.8 8 8 0 0 1 3.4 2.5 8.66 8.66 0 0 1 1.8 4 29.5 29.5 0 0 1 .5 5.5v12.5h-7v-3.1zm-1.9-7.7a16.23 16.23 0 0 0-2.1.1 21.66 21.66 0 0 0-2.5.4 4.33 4.33 0 0 0-2 1.1 2.32 2.32 0 0 0-.8 2 2.1 2.1 0 0 0 1.2 2 5.49 5.49 0 0 0 2.4.7 7.11 7.11 0 0 0 2.1-.3 5.08 5.08 0 0 0 1.8-.9 4.36 4.36 0 0 0 1.3-1.4 4.55 4.55 0 0 0 .5-2v-1.6zM157 19.5h7.6v38.4H157zm13 0h7.6v38.4H170zm36.2 34.1a10.91 10.91 0 0 1-4.6 3.6 14.35 14.35 0 0 1-5.7 1.3 15.12 15.12 0 0 1-5.3-.9 12.38 12.38 0 0 1-4.3-2.6 12.19 12.19 0 0 1-2.9-4.1 13.32 13.32 0 0 1 0-10.6 12.19 12.19 0 0 1 2.9-4.1 13.37 13.37 0 0 1 4.3-2.6 15.53 15.53 0 0 1 5.3-.9 12.8 12.8 0 0 1 4.8.9 10.4 10.4 0 0 1 3.6 2.6 10.94 10.94 0 0 1 2.3 4.1 17.85 17.85 0 0 1 .8 5.3V48h-17.5a6.15 6.15 0 0 0 2 3.5 5.24 5.24 0 0 0 3.7 1.3 5.94 5.94 0 0 0 3.1-.8 7.68 7.68 0 0 0 2.2-2.2zm-6.4-10.8a4.45 4.45 0 0 0-1.3-3.3 4.6 4.6 0 0 0-3.4-1.4 5.09 5.09 0 0 0-2.2.4 6.24 6.24 0 0 0-1.6 1 4.18 4.18 0 0 0-1.1 1.5 3.66 3.66 0 0 0-.4 1.8zm12.2-9.6h7.6v4h.1a9 9 0 0 1 2.9-3.4 6.93 6.93 0 0 1 4.2-1.1 5.7 5.7 0 0 1 1.3.1 5 5 0 0 1 1.2.2v7a9.36 9.36 0 0 0-1.6-.4 8.6 8.6 0 0 0-1.6-.1 8 8 0 0 0-3.4.6 4.51 4.51 0 0 0-1.9 1.7 6.67 6.67 0 0 0-.9 2.6 32.81 32.81 0 0 0-.2 3.4v10.3H212zm39.1-2.5a5.54 5.54 0 0 0-2.6-1.8 9 9 0 0 0-3.1-.6 11 11 0 0 0-1.8.2 4.92 4.92 0 0 0-1.7.6 4.73 4.73 0 0 0-1.3 1.1 3.37 3.37 0 0 0-.5 1.7 2.91 2.91 0 0 0 1.2 2.5 10.51 10.51 0 0 0 3 1.5c1.2.4 2.5.8 4 1.2a20 20 0 0 1 4 1.7 8.61 8.61 0 0 1 3 3 9.25 9.25 0 0 1 1.2 5 12.07 12.07 0 0 1-1.1 5.2 9.83 9.83 0 0 1-3 3.7 13 13 0 0 1-4.4 2.2 18.35 18.35 0 0 1-5.3.7 18.68 18.68 0 0 1-6.4-1.1 16.49 16.49 0 0 1-5.5-3.5l5.6-6.2a8.06 8.06 0 0 0 3 2.5 8.49 8.49 0 0 0 3.8.9 12.25 12.25 0 0 0 1.9-.2 9.63 9.63 0 0 0 1.8-.7 3.74 3.74 0 0 0 1.3-1.2 3.1 3.1 0 0 0 .5-1.7 3.22 3.22 0 0 0-1.2-2.6 11.26 11.26 0 0 0-3.1-1.6c-1.2-.4-2.6-.9-4-1.3a14.44 14.44 0 0 1-4-1.8 9.53 9.53 0 0 1-3.1-2.9 8.53 8.53 0 0 1-1.2-4.8 11.93 11.93 0 0 1 1.1-5.1 12.2 12.2 0 0 1 3-3.7 13 13 0 0 1 4.4-2.2 17 17 0 0 1 5.1-.7 18.53 18.53 0 0 1 5.8.9 13 13 0 0 1 5.1 2.9zm10.3 2.5h7.3v3.4h.1a6.08 6.08 0 0 1 1-1.4 7 7 0 0 1 1.6-1.3 6.67 6.67 0 0 1 2.1-.9 9.31 9.31 0 0 1 7.1.7 6.32 6.32 0 0 1 3 3.4 8.14 8.14 0 0 1 3.2-3.4 9.21 9.21 0 0 1 4.6-1 10.84 10.84 0 0 1 4.2.8 7.54 7.54 0 0 1 2.7 2.3 9.39 9.39 0 0 1 1.4 3.4 18.72 18.72 0 0 1 .4 4.2V58h-7.6V43.5a5.79 5.79 0 0 0-.7-3 2.86 2.86 0 0 0-2.6-1.2 4.81 4.81 0 0 0-2.2.4 3.33 3.33 0 0 0-1.4 1.2 4.94 4.94 0 0 0-.8 1.8 7.49 7.49 0 0 0-.2 2.1v13.1H277v-13a9.73 9.73 0 0 0-.1-1.6 5.26 5.26 0 0 0-.4-1.8 3.07 3.07 0 0 0-1-1.5 3 3 0 0 0-2-.6 5.36 5.36 0 0 0-2.4.5 3.76 3.76 0 0 0-1.4 1.4 6.64 6.64 0 0 0-.6 2 16.41 16.41 0 0 0-.2 2.3v12.3h-7.6V33.2zm59.2 21.6h-.1a6.86 6.86 0 0 1-3.3 2.8 11.17 11.17 0 0 1-4.4.9 12.57 12.57 0 0 1-3.3-.5 8.18 8.18 0 0 1-2.8-1.4 6.54 6.54 0 0 1-1.9-2.4 6.71 6.71 0 0 1-.7-3.3 8 8 0 0 1 .8-3.6 6.11 6.11 0 0 1 2.1-2.4 14 14 0 0 1 3-1.5 19 19 0 0 1 3.6-.8 23.08 23.08 0 0 1 3.7-.3c1.2 0 2.4-.1 3.4-.1a4 4 0 0 0-1.4-3.2 5.23 5.23 0 0 0-3.4-1.2 7.73 7.73 0 0 0-3.4.8 8 8 0 0 0-2.7 2.2l-4-4.2a15.41 15.41 0 0 1 4.9-3 16.47 16.47 0 0 1 5.8-1 17.28 17.28 0 0 1 5.5.8 8 8 0 0 1 3.4 2.5 8.65 8.65 0 0 1 1.8 4 29.5 29.5 0 0 1 .5 5.5v12.5h-7v-3.1zm-1.9-7.7a16.23 16.23 0 0 0-2.1.1 18.66 18.66 0 0 0-2.5.4 4.33 4.33 0 0 0-2 1.1 2.32 2.32 0 0 0-.8 2 2.1 2.1 0 0 0 1.2 2 5.49 5.49 0 0 0 2.4.7 7.11 7.11 0 0 0 2.1-.3 6.08 6.08 0 0 0 1.8-.9 4.36 4.36 0 0 0 1.3-1.4 4.55 4.55 0 0 0 .5-2v-1.6zm13.6-13.9h7.6v4h.1a9 9 0 0 1 2.9-3.4 6.93 6.93 0 0 1 4.2-1.1 5.7 5.7 0 0 1 1.3.1 5 5 0 0 1 1.2.2v7a9.36 9.36 0 0 0-1.6-.4 8.6 8.6 0 0 0-1.6-.1 8 8 0 0 0-3.4.6 4.51 4.51 0 0 0-1.9 1.7 6.67 6.67 0 0 0-.9 2.6 32.81 32.81 0 0 0-.2 3.4v10.3h-7.6V33.2zm37.1 6.1h-6.6v8.2a11.48 11.48 0 0 0 .1 1.9 2.92 2.92 0 0 0 .5 1.4 2.44 2.44 0 0 0 1.1.9 5 5 0 0 0 1.9.3 10.36 10.36 0 0 0 1.6-.1 2.62 2.62 0 0 0 1.5-.6v6.4a11 11 0 0 1-2.6.6 24.52 24.52 0 0 1-2.7.2 12.48 12.48 0 0 1-3.5-.4 8 8 0 0 1-2.8-1.3 7.1 7.1 0 0 1-1.9-2.3 7.28 7.28 0 0 1-.7-3.5V39.3h-4.8v-6.1h4.8v-7.3h7.6v7.3h6.6v6.1z"/></g></g></svg>