<svg id="Layer_1" xmlns="http://www.w3.org/2000/svg" viewBox="0 0 1920 800"><style>.st0{fill:#a2d6f9}</style><path class="st0" d="M40.6 705.6c6.3 0 11.5 5.2 11.5 11.5s-5.2 11.5-11.5 11.5-11.5-5.2-11.5-11.5 5.1-11.5 11.5-11.5m0-8c-10.8 0-19.5 8.7-19.5 19.5s8.7 19.5 19.5 19.5 19.5-8.7 19.5-19.5-8.8-19.5-19.5-19.5zM564.7 602.1c12.6 0 22.8 10.2 22.8 22.8 0 12.6-10.2 22.8-22.8 22.8-12.6 0-22.8-10.2-22.8-22.8 0-12.6 10.2-22.8 22.8-22.8m0-15c-20.9 0-37.8 16.9-37.8 37.8s16.9 37.8 37.8 37.8 37.8-16.9 37.8-37.8-16.9-37.8-37.8-37.8zM1329.2 569.1c12.6 0 22.8 10.2 22.8 22.8 0 12.6-10.2 22.8-22.8 22.8s-22.8-10.2-22.8-22.8c0-12.6 10.2-22.8 22.8-22.8m0-15c-20.9 0-37.8 16.9-37.8 37.8s16.9 37.8 37.8 37.8 37.8-16.9 37.8-37.8-16.9-37.8-37.8-37.8zM1525.2 227.1c12.6 0 22.8 10.2 22.8 22.8 0 12.6-10.2 22.8-22.8 22.8s-22.8-10.2-22.8-22.8c0-12.6 10.2-22.8 22.8-22.8m0-15c-20.9 0-37.8 16.9-37.8 37.8s16.9 37.8 37.8 37.8 37.8-16.9 37.8-37.8-16.9-37.8-37.8-37.8zM1867.9 768.8c6.8 0 12.4 5.5 12.4 12.4s-5.5 12.4-12.4 12.4-12.4-5.5-12.4-12.4 5.6-12.4 12.4-12.4m0-8.2c-11.3 0-20.5 9.2-20.5 20.5s9.2 20.5 20.5 20.5 20.5-9.2 20.5-20.5-9.1-20.5-20.5-20.5zM752.7 305.9c6.3 0 11.5 5.1 11.5 11.5s-5.1 11.5-11.5 11.5-11.5-5.1-11.5-11.5 5.2-11.5 11.5-11.5m0-7.6c-10.5 0-19 8.5-19 19s8.5 19 19 19 19-8.5 19-19-8.5-19-19-19zM608.3 174.9h-20.7c-3.1 0-5.6-2.5-5.6-5.6 0-3.1 2.5-5.6 5.6-5.6h20.7c3.1 0 5.6 2.5 5.6 5.6 0 3.1-2.5 5.6-5.6 5.6zM1108.8 175.4h-20.7c-3.1 0-5.6-2.5-5.6-5.6 0-3.1 2.5-5.6 5.6-5.6h20.7c3.1 0 5.6 2.5 5.6 5.6 0 3.1-2.5 5.6-5.6 5.6zM1731.1 181.3h-20.7c-3.1 0-5.6-2.5-5.6-5.6 0-3.1 2.5-5.6 5.6-5.6h20.7c3.1 0 5.6 2.5 5.6 5.6.1 3-2.5 5.6-5.6 5.6zM1728.1 535.1h-20.7c-3.1 0-5.6-2.5-5.6-5.6 0-3.1 2.5-5.6 5.6-5.6h20.7c3.1 0 5.6 2.5 5.6 5.6.1 3.1-2.5 5.6-5.6 5.6zM1333.6 418.9h-35c-5.6 0-10.2-4.6-10.2-10.2s4.6-10.2 10.2-10.2h35c5.6 0 10.2 4.6 10.2 10.2s-4.6 10.2-10.2 10.2zM816.6 699.9h-35c-5.6 0-10.2-4.6-10.2-10.2s4.6-10.2 10.2-10.2h35c5.6 0 10.2 4.6 10.2 10.2s-4.6 10.2-10.2 10.2zM20.4 408.9H-.2v-20.4h21c5.5 0 10 4.5 10 10 0 5.7-4.7 10.4-10.4 10.4z"/></svg>