<svg xmlns="http://www.w3.org/2000/svg" width="64" height="50" viewBox="0 0 64 50"><defs><style>.cls-1{fill:#d4d3dc;fill-rule:evenodd}</style></defs><path id="cudzy.svg" class="cls-1" d="M2641.85 1834q-1.14 0-5.71 2.38a34.893 34.893 0 0 0-6.63 4.18q-15.315 13.125-15.31 27.83a15.791 15.791 0 0 0 4.11 11.2 13.747 13.747 0 0 0 10.52 4.41 13.3 13.3 0 0 0 9.37-3.62 11.358 11.358 0 0 0 3.88-8.6q0-8.82-8.23-8.82-4.11 0-5.94 2.49-2.52 4.065-3.88 4.07c-1.83 0-2.75-1.88-2.75-5.66a20.029 20.029 0 0 1 2.06-8.14q4.11-9.045 15.31-16.29 4.35-2.715 4.35-4.3a1.012 1.012 0 0 0-1.15-1.13zm-35.2 0q-1.14 0-5.71 2.49a37.94 37.94 0 0 0-6.63 4.3q-15.315 13.125-15.31 27.6a15.791 15.791 0 0 0 4.11 11.2 13.74 13.74 0 0 0 10.51 4.41 13.384 13.384 0 0 0 9.49-3.51 11.425 11.425 0 0 0 3.77-8.71q0-8.82-8.45-8.82c-2.6 0-4.5.83-5.72 2.49-1.68 2.71-2.97 4.07-3.89 4.07-1.82 0-2.74-1.81-2.74-5.43a20.433 20.433 0 0 1 2.06-8.37q4.11-9.045 15.31-16.29 4.35-2.715 4.35-4.3a1.012 1.012 0 0 0-1.15-1.13z" transform="translate(-2579 -1834)"/></svg>