<svg xmlns="http://www.w3.org/2000/svg" xmlns:xlink="http://www.w3.org/1999/xlink" width="97" height="13" viewBox="0 0 97 13"><defs><path id="a" d="M6.777 10.387l4.188 2.535-1.108-4.78 3.697-3.215-4.873-.42L6.777 0 4.873 4.507 0 4.927 3.697 8.14l-1.108 4.78z"/></defs><g fill="none" fill-rule="evenodd"><g transform="translate(83.2)"><mask id="b" fill="#fff"><use xlink:href="#a"/></mask><use fill="#453C61" xlink:href="#a"/><path fill="#F8E81C" d="M-1.355-.68h8.132v14.282h-8.132z" mask="url(#b)"/></g><path fill="#F8E81C" stroke="#F8E81C" d="M68.33 9.923l3.664 2.21-.97-4.168 3.236-2.803-4.264-.366L68.33.866l-1.666 3.93-4.264.366 3.235 2.803-.97 4.168zm-20.8 0l3.664 2.21-.97-4.168 3.236-2.803-4.264-.366L47.53.866l-1.666 3.93-4.264.366 3.235 2.803-.97 4.168zm-20.8 0l3.664 2.21-.97-4.168 3.236-2.803-4.264-.366L26.73.866l-1.666 3.93-4.264.366 3.235 2.803-.97 4.168zm-20.8 0l3.664 2.21-.97-4.168 3.236-2.803-4.264-.366L5.93.866l-1.666 3.93L0 5.162l3.235 2.803-.97 4.168z"/></g></svg>