<svg id="レイヤー_2" xmlns="http://www.w3.org/2000/svg" viewBox="0 0 619.7 739.1"><style>.st0{fill:#a4ca39}</style><path class="st0" d="M49.7 242.5c-24.5 0-44.4 19.9-44.4 44.4v186.5c0 24.5 19.9 44.4 44.4 44.4s44.4-19.9 44.4-44.4V286.9c0-24.6-19.8-44.4-44.4-44.4zm566.8 44.3c0-24.5-19.9-44.4-44.4-44.4s-44.4 19.9-44.4 44.4v186.5c0 24.5 19.9 44.4 44.4 44.4s44.4-19.9 44.4-44.4V286.8zm-504.3-36.6H110v292.7c0 24.4 20 44.4 44.4 44.4h37.4v102c0 24.5 19.9 44.4 44.4 44.4s44.4-19.9 44.4-44.4v-102h60.6v102c0 24.5 19.9 44.4 44.4 44.4s44.4-19.9 44.4-44.4v-102h37.4c24.4 0 44.4-20 44.4-44.4V250.2H112.2zm399.2-15.5v-21.4c-.6-6.1-1.5-12.1-2.7-17.9-11-52.1-47.3-96.2-97.1-121.8L442.2 17c1.9-3.5.6-7.9-2.9-9.8-3.5-1.9-7.9-.6-9.8 2.9l-31 57.3c-26.4-11.3-56-17.7-87.2-17.7-31.5 0-61.3 6.5-87.8 17.9l-31.2-57.5c-1.9-3.5-6.3-4.8-9.8-2.9-3.5 1.9-4.8 6.3-2.9 9.8l30.8 56.8c-47.5 24.6-82.6 66-95.1 115.1-3.2 12.7-4.9 26-4.9 39.6 0 2 .1 4.1.1 6.1h400.9zM402.3 125.9c10.4 0 18.9 8.4 18.9 18.9 0 10.4-8.4 18.9-18.9 18.9-10.4 0-18.9-8.4-18.9-18.9 0-10.4 8.5-18.9 18.9-18.9zm-182.8 0c10.4 0 18.9 8.4 18.9 18.9 0 10.4-8.4 18.9-18.9 18.9-10.4 0-18.9-8.4-18.9-18.9.1-10.4 8.5-18.9 18.9-18.9z"/></svg>