<svg width="80" height="80" viewBox="0 0 80 80" xmlns="http://www.w3.org/2000/svg"><title>path4486</title><path d="M39.766.468C17.805.468 0 18.271 0 40.233c0 21.961 17.805 39.766 39.766 39.766 21.962 0 39.766-17.805 39.766-39.766C79.532 18.271 61.727.468 39.766.468zm0 74.425c-6.248 0-11.314-4.174-11.314-9.322H51.08c0 5.147-5.066 9.322-11.315 9.322zm18.688-12.409H21.076v-6.777h37.379v6.777h-.001zm-.134-10.266H21.183c-.123-.142-.25-.283-.369-.427-3.826-4.646-4.727-7.071-5.602-9.543-.015-.081 4.64.951 7.94 1.694 0 0 1.698.393 4.18.845-2.383-2.794-3.799-6.346-3.799-9.977 0-7.971 6.114-14.937 3.908-20.567 2.147.175 4.443 4.53 4.598 11.34 2.282-3.153 3.237-8.912 3.237-12.443 0-3.656 2.41-7.904 4.82-8.049-2.149 3.54.556 6.576 2.96 14.105.902 2.828.787 7.587 1.483 10.605.23-6.268 1.309-15.415 5.286-18.573-1.755 3.977.26 8.953 1.637 11.345 2.222 3.86 3.57 6.784 3.57 12.315 0 3.708-1.37 7.199-3.679 9.928 2.626-.492 4.44-.937 4.44-.937l8.527-1.664s-1.239 5.096-6 10.003z" fill="#E85120" fill-rule="nonzero"/></svg>