<svg version="1" id="Layer_1" xmlns="http://www.w3.org/2000/svg" viewBox="0 0 47.6 42.6"><style>.st0{fill:#53c1de}</style><path class="st0" d="M39 15c-.5-.2-1-.3-1.4-.5.1-.3.2-.7.2-1 1.1-5.3.4-9.6-2.1-11-2.3-1.4-6.2.1-10.1 3.4-.4.3-.7.7-1.1 1l-.7-.7c-4.1-3.6-8.1-5.1-10.6-3.7-2.3 1.4-3 5.4-2.1 10.4l.3 1.5c-.6.2-1.1.3-1.7.5C5 16.7 2 19.3 2 22c0 2.8 3.3 5.6 8.2 7.3.4.1.8.3 1.2.4-.1.5-.3 1.1-.4 1.6-.9 5-.2 8.9 2.1 10.2 2.4 1.4 6.5 0 10.4-3.5l.9-.9c.4.4.8.8 1.2 1.1 3.8 3.3 7.6 4.6 9.9 3.3 2.4-1.4 3.2-5.6 2.2-10.8l-.3-1.2c.3-.1.6-.2.8-.3 5.2-1.7 8.5-4.5 8.5-7.3.3-2.6-2.8-5.3-7.7-6.9zM26.9 7.4c3.3-2.9 6.4-4 7.8-3.2 1.5.9 2.1 4.4 1.1 9-.1.3-.1.6-.2.9-1.9-.4-3.9-.8-6-1-1.2-1.8-2.5-3.4-3.8-4.7.4-.4.8-.7 1.1-1zM16.3 22c.6-1.2 1.2-2.4 1.9-3.6.7-1.2 1.4-2.4 2.2-3.5 1.3-.1 2.7-.2 4.1-.2 1.4 0 2.8.1 4.1.2.7 1.1 1.5 2.3 2.2 3.5.7 1.2 1.4 2.4 1.9 3.6-.6 1.2-1.2 2.4-1.9 3.6-.7 1.2-1.4 2.4-2.2 3.5-1.3.1-2.7.1-4.1.1-1.4 0-2.8 0-4.1-.1-.8-1.1-1.5-2.3-2.2-3.5-.7-1.2-1.3-2.4-1.9-3.6zm-1 2.3c.4.8.8 1.6 1.3 2.3.5.8.9 1.6 1.4 2.3-1.5-.2-2.9-.4-4.1-.7.3-1.2.8-2.6 1.4-3.9zm0-4.5c-.6-1.3-1-2.6-1.4-3.9 1.3-.3 2.7-.5 4.1-.7-.5.7-.9 1.5-1.4 2.3-.5.7-.9 1.5-1.3 2.3zm17.1 6.8c.5-.8.9-1.6 1.3-2.4.6 1.4 1.1 2.7 1.5 4-1.3.3-2.7.5-4.2.7.5-.8 1-1.5 1.4-2.3zm1.3-6.8c-.4-.8-.8-1.6-1.3-2.3-.4-.8-.9-1.5-1.4-2.3 1.4.2 2.8.4 4.1.7-.3 1.2-.8 2.5-1.4 3.9zM24.5 9.7c.9 1 1.8 2 2.6 3.2-.9 0-1.8-.1-2.7-.1-.9 0-1.8 0-2.6.1.9-1.1 1.8-2.2 2.7-3.2zM14.2 4.2c1.5-.9 4.8.4 8.3 3.5.2.2.4.4.7.6-1.3 1.4-2.6 3-3.8 4.7-2.1.2-4.1.5-6 .9-.1-.5-.2-.9-.3-1.4-.9-4.2-.4-7.5 1.1-8.3zM12 27.8c-.4-.1-.8-.2-1.1-.3-2.2-.7-4-1.7-5.2-2.8C4.6 23.7 4 22.8 4 22c0-1.6 2.4-3.7 6.5-5.1.5-.2 1-.3 1.5-.5.6 1.8 1.3 3.7 2.2 5.7-.9 1.9-1.7 3.8-2.2 5.7zm10.4 8.7c-1.7 1.5-3.5 2.6-5 3.2-1.4.5-2.5.5-3.2.1-1.4-.8-2-4-1.2-8.2l.3-1.5c1.8.4 3.9.7 6.1.9 1.2 1.8 2.5 3.4 3.9 4.8-.4.2-.6.5-.9.7zm2.2-2.1c-.9-1-1.8-2.1-2.7-3.2.9 0 1.7.1 2.6.1.9 0 1.8 0 2.7-.1-.9 1.1-1.7 2.2-2.6 3.2zm11.6 2.7c-.3 1.4-.8 2.4-1.5 2.8-1.4.8-4.5-.2-7.7-3.1-.4-.3-.8-.7-1.1-1 1.3-1.4 2.5-3 3.8-4.8 2.2-.2 4.2-.5 6.1-.9.1.4.2.7.2 1.1.5 2.2.5 4.2.2 5.9zm1.7-9.6c-.2.1-.5.2-.8.2-.6-1.8-1.3-3.7-2.3-5.7.9-1.9 1.6-3.8 2.2-5.6.5.1.9.3 1.3.4 4.2 1.4 6.7 3.6 6.7 5.2.1 1.7-2.7 4-7.1 5.5z"/><path class="st0" d="M24.5 18c2.2 0 4 1.8 4 4s-1.8 4-4 4-4-1.8-4-4 1.8-4 4-4"/></svg>