<?xml version="1.0" encoding="UTF-8"?>
<svg width="70px" height="68px" viewBox="0 0 70 68" version="1.1" xmlns="http://www.w3.org/2000/svg" xmlns:xlink="http://www.w3.org/1999/xlink">
    <!-- Generator: Sketch 52.3 (67297) - http://www.bohemiancoding.com/sketch -->
    <title>Kubernetes_logo</title>
    <desc>Created with Sketch.</desc>
    <g id="Page-1" stroke="none" stroke-width="1" fill="none" fill-rule="evenodd">
        <g id="DevOps" transform="translate(-1608.000000, -6833.000000)" fill-rule="nonzero">
            <g id="Kubernetes_logo" transform="translate(1608.000000, 6833.000000)">
                <path d="M63.4752332,15.04 C63.0775059,13.76 62.1229605,12.72 60.9297786,12.08 L36.668415,0.4 C36.0320514,0.08 35.3161423,0 34.6797786,0 C34.043415,0 33.3275059,0 32.6911423,0.16 L8.42977864,11.92 C7.23659666,12.48 6.36159666,13.52 6.04341484,14.88 L0.0775057818,41.2 C-0.161130582,42.56 0.157051236,43.92 0.95250575,45.04 L17.7365968,65.92 C18.6911423,66.88 20.043415,67.52 21.3956877,67.6 L48.1229605,67.6 C49.5547786,67.76 50.9070514,67.12 51.7820514,65.92 L68.5661423,45.04 C69.3615968,43.92 69.6797786,42.56 69.5206877,41.2 L63.4752332,15.04 Z" id="path10349" fill="#2E69EA"></path>
                <path d="M59.7365968,40.16 C59.6570514,40.16 59.5775059,40.16 59.5775059,40.08 C59.5775059,40 59.418415,40 59.2593241,40 C58.9411423,39.92 58.6229605,39.92 58.3047786,39.92 C58.1456877,39.92 57.9865968,39.92 57.8275059,39.84 L57.7479605,39.84 C56.8729605,39.76 55.918415,39.6 55.043415,39.36 C54.8047786,39.28 54.5661423,39.04 54.4865968,38.8 C54.5661423,38.8 54.4865968,38.8 54.4865968,38.8 L53.8502332,38.64 C54.168415,36.32 54.0093241,33.92 53.5320514,31.6 C52.9752332,29.28 52.0206877,27.04 50.7479605,25.04 L51.2252332,24.56 L51.2252332,24.48 C51.2252332,24.24 51.3047786,23.92 51.4638695,23.76 C52.1797786,23.12 52.8956877,22.64 53.6911423,22.16 C53.8502332,22.08 54.0093241,22 54.168415,21.92 C54.4865968,21.76 54.7252332,21.6 55.043415,21.44 C55.1229605,21.36 55.2025059,21.36 55.2820514,21.28 C55.3615968,21.2 55.2820514,21.2 55.2820514,21.12 C55.9979605,20.56 56.1570514,19.6 55.6002332,18.88 C55.3615968,18.56 54.8843241,18.32 54.4865968,18.32 C54.0888695,18.32 53.6911423,18.48 53.3729605,18.72 L53.293415,18.8 C53.2138695,18.88 53.1343241,18.96 53.0547786,18.96 C52.8161423,19.2 52.5775059,19.44 52.418415,19.68 C52.3388695,19.84 52.1797786,19.92 52.1002332,20 C51.543415,20.64 50.8275059,21.28 50.1115968,21.76 C49.9525059,21.84 49.793415,21.92 49.6343241,21.92 C49.5547786,21.92 49.3956877,21.92 49.3161423,21.84 L49.2365968,21.84 L48.6002332,22.24 C47.9638695,21.6 47.2479605,20.96 46.6115968,20.32 C43.668415,18 40.0093241,16.56 36.2706877,16.16 L36.1911423,15.52 L36.1911423,15.6 C35.9525059,15.44 35.8729605,15.2 35.793415,14.96 C35.793415,14.08 35.793415,13.2 35.9525059,12.24 L35.9525059,12.16 C35.9525059,12 36.0320514,11.84 36.0320514,11.68 C36.1115968,11.36 36.1115968,11.04 36.1911423,10.72 L36.1911423,10.24 C36.2706877,9.44 35.6343241,8.64 34.8388695,8.56 C34.3615968,8.48 33.8843241,8.72 33.4865968,9.12 C33.168415,9.44 33.0093241,9.84 33.0093241,10.24 L33.0093241,10.64 C33.0093241,10.96 33.0888695,11.28 33.168415,11.6 C33.2479605,11.76 33.2479605,11.92 33.2479605,12.08 L33.2479605,12.16 C33.4070514,13.04 33.4070514,13.92 33.4070514,14.88 C33.3275059,15.12 33.2479605,15.36 33.0093241,15.52 L33.0093241,15.68 L32.9297786,16.32 C32.0547786,16.4 31.1797786,16.56 30.2252332,16.72 C26.4865968,17.52 23.0661423,19.52 20.4411423,22.32 L19.9638695,22 L19.8843241,22 C19.8047786,22 19.7252332,22.08 19.5661423,22.08 C19.4070514,22.08 19.2479605,22 19.0888695,21.92 C18.3729605,21.36 17.6570514,20.72 17.1002332,20.08 C17.0206877,19.92 16.8615968,19.84 16.7820514,19.76 C16.543415,19.52 16.3843241,19.28 16.1456877,19.04 C16.0661423,18.96 15.9865968,18.96 15.9070514,18.88 C15.8275059,18.8 15.8275059,18.8 15.8275059,18.8 C15.5093241,18.56 15.1115968,18.4 14.7138695,18.4 C14.2365968,18.4 13.8388695,18.56 13.6002332,18.96 C13.1229605,19.68 13.2820514,20.64 13.918415,21.2 C13.9979605,21.2 13.9979605,21.28 13.9979605,21.28 C13.9979605,21.28 14.1570514,21.44 14.2365968,21.44 C14.4752332,21.6 14.793415,21.76 15.1115968,21.92 C15.2706877,22 15.4297786,22.08 15.5888695,22.16 C16.3843241,22.64 17.1797786,23.12 17.8161423,23.76 C17.9752332,23.92 18.1343241,24.24 18.0547786,24.48 L18.0547786,24.4 L18.5320514,24.88 C18.4525059,25.04 18.3729605,25.12 18.293415,25.28 C15.8275059,29.2 14.793415,33.84 15.5093241,38.4 L14.8729605,38.56 C14.8729605,38.64 14.793415,38.64 14.793415,38.64 C14.7138695,38.88 14.4752332,39.04 14.2365968,39.2 C13.3615968,39.44 12.4865968,39.6 11.5320514,39.68 C11.3729605,39.68 11.2138695,39.68 11.0547786,39.76 C10.7365968,39.76 10.418415,39.84 10.1002332,39.84 C10.0206877,39.84 9.94114227,39.92 9.78205136,39.92 C9.70250591,39.92 9.70250591,39.92 9.62296045,40 C8.74796045,40.16 8.19114227,40.96 8.35023318,41.84 C8.35023318,41.84 8.35023318,41.84 8.35023318,41.84 C8.50932409,42.56 9.22523318,43.04 9.94114227,42.96 C10.1002332,42.96 10.1797786,42.96 10.3388695,42.88 C10.418415,42.88 10.418415,42.88 10.418415,42.8 C10.418415,42.72 10.6570514,42.8 10.7365968,42.8 C11.0547786,42.72 11.3729605,42.56 11.6115968,42.48 C11.7706877,42.4 11.9297786,42.32 12.0888695,42.32 L12.168415,42.32 C13.043415,42 13.8388695,41.76 14.793415,41.6 L14.8729605,41.6 C15.1115968,41.6 15.3502332,41.68 15.5093241,41.84 C15.5888695,41.84 15.5888695,41.92 15.5888695,41.92 L16.3047786,41.84 C17.4979605,45.52 19.7252332,48.8 22.8275059,51.2 C23.543415,51.76 24.1797786,52.24 24.9752332,52.64 L24.5775059,53.2 C24.5775059,53.28 24.6570514,53.28 24.6570514,53.28 C24.8161423,53.52 24.8161423,53.84 24.7365968,54.08 C24.418415,54.88 23.9411423,55.68 23.4638695,56.4 L23.4638695,56.48 C23.3843241,56.64 23.3047786,56.72 23.1456877,56.88 C22.9865968,57.04 22.8275059,57.36 22.5888695,57.68 C22.5093241,57.76 22.5093241,57.84 22.4297786,57.92 C22.4297786,57.92 22.4297786,58 22.3502332,58 C21.9525059,58.8 22.2706877,59.76 22.9865968,60.16 C23.1456877,60.24 23.3843241,60.32 23.543415,60.32 C24.1797786,60.32 24.7365968,59.92 25.0547786,59.36 C25.0547786,59.36 25.0547786,59.28 25.1343241,59.28 C25.1343241,59.2 25.2138695,59.12 25.293415,59.04 C25.3729605,58.72 25.5320514,58.48 25.6115968,58.16 L25.7706877,57.68 C26.0093241,56.8 26.4070514,56 26.8047786,55.2 C26.9638695,54.96 27.2025059,54.8 27.4411423,54.72 C27.5206877,54.72 27.5206877,54.72 27.5206877,54.64 L27.8388695,54 C30.0661423,54.88 32.3729605,55.28 34.7593241,55.28 C36.1911423,55.28 37.6229605,55.12 39.0547786,54.72 C39.9297786,54.56 40.8047786,54.24 41.6002332,54 L41.918415,54.56 C41.9979605,54.56 41.9979605,54.56 41.9979605,54.64 C42.2365968,54.72 42.4752332,54.88 42.6343241,55.12 C43.0320514,55.92 43.4297786,56.72 43.668415,57.6 L43.668415,57.68 L43.8275059,58.16 C43.9070514,58.48 43.9865968,58.8 44.1456877,59.04 C44.2252332,59.12 44.2252332,59.2 44.3047786,59.28 C44.3047786,59.28 44.3047786,59.36 44.3843241,59.36 C44.7025059,59.92 45.2593241,60.32 45.8956877,60.32 C46.1343241,60.32 46.293415,60.24 46.5320514,60.16 C46.8502332,60 47.168415,59.68 47.2479605,59.28 C47.3275059,58.88 47.3275059,58.48 47.168415,58.08 C47.168415,58 47.0888695,58 47.0888695,58 C47.0888695,57.92 47.0093241,57.84 46.9297786,57.76 C46.7706877,57.44 46.6115968,57.2 46.3729605,56.96 C46.293415,56.8 46.2138695,56.72 46.0547786,56.56 L46.0547786,56.4 C45.4979605,55.68 45.1002332,54.88 44.7820514,54.08 C44.7025059,53.84 44.7025059,53.52 44.8615968,53.28 C44.8615968,53.2 44.9411423,53.2 44.9411423,53.2 L44.7025059,52.56 C48.7593241,50.08 51.8615968,46.24 53.293415,41.68 L53.9297786,41.76 C54.0093241,41.76 54.0093241,41.68 54.0093241,41.68 C54.168415,41.52 54.4070514,41.44 54.6456877,41.44 L54.7252332,41.44 C55.6002332,41.6 56.4752332,41.84 57.2706877,42.16 L57.3502332,42.16 C57.5093241,42.24 57.668415,42.32 57.8275059,42.32 C58.1456877,42.48 58.3843241,42.64 58.7025059,42.72 C58.7820514,42.72 58.8615968,42.8 59.0206877,42.8 C59.1002332,42.8 59.1002332,42.8 59.1797786,42.88 C59.3388695,42.96 59.418415,42.96 59.5775059,42.96 C60.293415,42.96 60.9297786,42.48 61.168415,41.84 C61.0888695,40.96 60.4525059,40.32 59.7365968,40.16 Z M36.7479605,37.68 L34.6002332,38.72 L32.4525059,37.68 L31.8956877,35.36 L33.4070514,33.44 L35.793415,33.44 L37.3047786,35.36 L36.7479605,37.68 Z M49.7138695,32.48 C50.1115968,34.16 50.1911423,35.84 50.0320514,37.52 L42.4752332,35.36 C41.7593241,35.2 41.3615968,34.48 41.5206877,33.76 C41.6002332,33.52 41.6797786,33.36 41.8388695,33.2 L47.8047786,27.76 C48.6797786,29.2 49.3161423,30.8 49.7138695,32.48 Z M45.418415,24.8 L38.8956877,29.44 C38.3388695,29.76 37.543415,29.68 37.1456877,29.12 C36.9865968,28.96 36.9070514,28.8 36.9070514,28.56 L36.4297786,20.48 C39.9297786,20.88 43.0320514,22.4 45.418415,24.8 Z M31.0206877,20.72 L32.6115968,20.4 L32.2138695,28.4 C32.2138695,29.12 31.5775059,29.68 30.8615968,29.68 C30.6229605,29.68 30.4638695,29.6 30.2252332,29.52 L23.6229605,24.8 C25.6911423,22.8 28.2365968,21.36 31.0206877,20.72 Z M21.3161423,27.76 L27.2025059,33.04 C27.7593241,33.52 27.8388695,34.32 27.3615968,34.88 C27.2025059,35.12 27.043415,35.2 26.7252332,35.28 L19.0093241,37.52 C18.7706877,34.16 19.5661423,30.72 21.3161423,27.76 Z M19.9638695,41.28 L27.8388695,39.92 C28.4752332,39.92 29.1115968,40.32 29.1911423,40.96 C29.2706877,41.2 29.2706877,41.52 29.1115968,41.76 L26.0888695,49.12 C23.3047786,47.28 21.0775059,44.48 19.9638695,41.28 Z M38.0206877,51.2 C36.9070514,51.44 35.793415,51.6 34.6002332,51.6 C32.9297786,51.6 31.1797786,51.28 29.5888695,50.8 L33.4865968,43.68 C33.8843241,43.2 34.5206877,43.04 35.0775059,43.36 C35.3161423,43.52 35.4752332,43.68 35.7138695,43.92 L39.5320514,50.88 C39.0547786,50.96 38.5775059,51.04 38.0206877,51.2 Z M47.7252332,44.24 C46.5320514,46.16 44.8615968,47.84 42.9525059,49.04 L39.8502332,41.52 C39.6911423,40.88 40.0093241,40.24 40.5661423,40 C40.8047786,39.92 41.043415,39.84 41.2820514,39.84 L49.2365968,41.2 C48.8388695,42.32 48.3615968,43.36 47.7252332,44.24 Z" id="path10351" fill="#FFFFFF"></path>
            </g>
        </g>
    </g>
</svg>