<svg xmlns="http://www.w3.org/2000/svg" width="83" height="83" viewBox="0 0 83 83"><path fill="#137cc9" d="M0 41.5V0h83v83H0V41.5zm18.354.275l-.026 3.4h10.803V75.87h7.641V45.174h10.804v-3.333c0-1.844-.04-3.386-.093-3.425-.04-.053-6.613-.08-14.584-.066l-14.505.04-.04 3.385zm48.619-3.482c-1.436-.356-4.835-.461-6.298-.185-4.505.857-7.628 3.742-8.51 7.879-.25 1.186-.172 4.124.144 5.296.383 1.41 1.305 3.096 2.28 4.15 1.686 1.818 3.53 2.964 7.812 4.809 3.742 1.62 5.06 2.398 5.705 3.32.5.724.619 1.146.619 2.108 0 1.067-.316 1.792-1.08 2.49-1.792 1.607-5.428 1.805-8.076.408-.923-.487-2.45-1.95-3.15-3.017l-.5-.738-2.384 1.384a758.765 758.765 0 0 1-3.083 1.778c-.382.224-.725.435-.764.488-.093.158 1.396 2.358 2.16 3.201 1.95 2.16 5.112 3.808 8.445 4.4 1.529.277 4.901.317 6.324.066 4.598-.777 7.865-3.122 9.183-6.574 1.199-3.175.803-7.443-.962-10.118-1.58-2.398-4.124-4.084-10.065-6.64-3.228-1.396-4.256-2.081-4.81-3.228-.263-.527-.355-.909-.355-1.554-.013-2.2 1.607-3.518 4.124-3.347 1.713.119 2.832.79 3.9 2.346.355.527.671.869.75.816 2.187-1.357 5.797-3.78 5.77-3.886-.091-.356-1.224-1.845-1.988-2.661-1.476-1.529-3.083-2.464-5.191-2.991z"/></svg>