<svg version="1" id="Layer_1" xmlns="http://www.w3.org/2000/svg" xmlns:xlink="http://www.w3.org/1999/xlink" viewBox="0 0 455.2 283.2"><style>.st0{fill:#699f63}.st1{fill-rule:evenodd;clip-rule:evenodd;fill:#fff}.st2{clip-path:url(#XMLID_3_)}.st3{fill:none}.st4{fill:url(#SVGID_1_)}.st5{fill:url(#SVGID_2_)}.st6{fill:url(#SVGID_3_)}.st7{fill:url(#SVGID_4_)}.st8{fill:url(#SVGID_5_)}.st9{fill:url(#SVGID_6_)}</style><path class="st0" d="M224.2 277.9c-1.5 0-2.9-.4-4.2-1.1l-13.3-7.9c-2-1.1-1-1.5-.4-1.7 2.7-.9 3.2-1.1 6-2.7.3-.2.7-.1 1 .1l10.2 6.1c.4.2.9.2 1.2 0l39.9-23.1c.4-.2.6-.6.6-1.1v-46.1c0-.5-.2-.9-.6-1.1l-39.9-23c-.4-.2-.9-.2-1.2 0l-39.9 23c-.4.2-.6.7-.6 1.1v46.1c0 .4.2.9.6 1.1l10.9 6.3c5.9 3 9.6-.5 9.6-4v-45.5c0-.6.5-1.2 1.2-1.2h5.1c.6 0 1.2.5 1.2 1.2v45.5c0 7.9-4.3 12.5-11.8 12.5-2.3 0-4.1 0-9.2-2.5l-10.5-6a8.44 8.44 0 0 1-4.2-7.3v-46.1c0-3 1.6-5.8 4.2-7.3L220 170c2.5-1.4 5.9-1.4 8.4 0l39.9 23.1c2.6 1.5 4.2 4.3 4.2 7.3v46.1c0 3-1.6 5.8-4.2 7.3l-39.9 23.1c-1.3.7-2.8 1-4.2 1z"/><path class="st0" d="M236.5 246.2c-17.5 0-21.1-8-21.1-14.8 0-.6.5-1.2 1.2-1.2h5.2c.6 0 1.1.4 1.1 1 .8 5.3 3.1 7.9 13.7 7.9 8.4 0 12-1.9 12-6.4 0-2.6-1-4.5-14.1-5.8-10.9-1.1-17.7-3.5-17.7-12.2 0-8.1 6.8-12.9 18.2-12.9 12.8 0 19.1 4.4 19.9 14 0 .3-.1.6-.3.9-.2.2-.5.4-.8.4h-5.2c-.5 0-1-.4-1.1-.9-1.2-5.5-4.3-7.3-12.5-7.3-9.2 0-10.3 3.2-10.3 5.6 0 2.9 1.3 3.8 13.7 5.4 12.3 1.6 18.1 3.9 18.1 12.5-.1 8.8-7.3 13.8-20 13.8zm57.6-48.4c0 4.2-3.5 7.7-7.7 7.7s-7.7-3.4-7.7-7.7c0-4.4 3.6-7.7 7.7-7.7 4.2 0 7.7 3.4 7.7 7.7zm-14.2 0c0 3.6 2.9 6.5 6.4 6.5 3.6 0 6.5-3 6.5-6.5 0-3.6-2.9-6.4-6.5-6.4-3.4 0-6.4 2.8-6.4 6.4zm3.6-4.3h3c1 0 3 0 3 2.3 0 1.6-1 1.9-1.6 2.1 1.2.1 1.3.9 1.4 2 .1.7.2 1.9.4 2.3h-1.8c0-.4-.3-2.6-.3-2.7-.1-.5-.3-.7-.9-.7h-1.5v3.5h-1.7v-8.8zm1.6 3.8h1.3c1.1 0 1.3-.8 1.3-1.2 0-1.2-.8-1.2-1.3-1.2H285v2.4z"/><path class="st1" d="M100.4 97.6c0-1.8-1-3.5-2.6-4.4L55.5 68.7c-.7-.4-1.5-.6-2.3-.7h-.4c-.8 0-1.6.3-2.3.7L8.1 93.1c-1.6.9-2.6 2.6-2.6 4.4l.1 65.6c0 .9.5 1.8 1.3 2.2.8.5 1.8.5 2.5 0L34.6 151c1.6-.9 2.6-2.6 2.6-4.4v-30.7c0-1.8 1-3.5 2.6-4.4l10.7-6.2c.8-.5 1.7-.7 2.6-.7.9 0 1.8.2 2.5.7l10.7 6.2c1.6.9 2.6 2.6 2.6 4.4v30.7c0 1.8 1 3.5 2.6 4.4l25.2 14.4c.8.5 1.8.5 2.6 0 .8-.4 1.3-1.3 1.3-2.2l-.2-65.6zM304.2 7.3c-.8-.4-1.8-.4-2.5 0-.8.5-1.3 1.3-1.3 2.2v65c0 .6-.3 1.2-.9 1.6-.6.3-1.2.3-1.8 0L287.1 70c-1.6-.9-3.5-.9-5.1 0l-42.4 24.5c-1.6.9-2.6 2.6-2.6 4.4v48.9c0 1.8 1 3.5 2.6 4.4l42.4 24.5c1.6.9 3.5.9 5.1 0l42.4-24.5c1.6-.9 2.6-2.6 2.6-4.4V25.9c0-1.9-1-3.6-2.6-4.5L304.2 7.3zm-3.9 124.4c0 .5-.2.9-.6 1.1l-14.5 8.4c-.4.2-.9.2-1.3 0l-14.5-8.4c-.4-.2-.6-.7-.6-1.1v-16.8c0-.5.2-.9.6-1.1l14.5-8.4c.4-.2.9-.2 1.3 0l14.5 8.4c.4.2.6.7.6 1.1v16.8zm145-17.2c1.6-.9 2.5-2.6 2.5-4.4V98.2c0-1.8-1-3.5-2.5-4.4l-42.1-24.4c-1.6-.9-3.5-.9-5.1 0l-42.4 24.5c-1.6.9-2.6 2.6-2.6 4.4v48.9c0 1.8 1 3.5 2.6 4.4l42.1 24c1.6.9 3.5.9 5 0l25.5-14.2c.8-.4 1.3-1.3 1.3-2.2 0-.9-.5-1.8-1.3-2.2l-42.6-24.5c-.8-.5-1.3-1.3-1.3-2.2V115c0-.9.5-1.8 1.3-2.2l13.3-7.6c.8-.5 1.8-.5 2.6 0l13.3 7.6c.8.5 1.3 1.3 1.3 2.2v12c0 .9.5 1.8 1.3 2.2.8.5 1.8.5 2.6 0l25.2-14.7z"/><path class="st1" d="M400 112.2c.3-.2.7-.2 1 0l8.1 4.7c.3.2.5.5.5.9v9.4c0 .4-.2.7-.5.9l-8.1 4.7c-.3.2-.7.2-1 0l-8.1-4.7c-.3-.2-.5-.5-.5-.9v-9.4c0-.4.2-.7.5-.9l8.1-4.7z"/><defs><path id="XMLID_143_" d="M171.3 69.6c-1.6-.9-3.5-.9-5.1 0l-42.1 24.3c-1.6.9-2.5 2.6-2.5 4.4V147c0 1.8 1 3.5 2.5 4.4l42.1 24.3c1.6.9 3.5.9 5.1 0l42.1-24.3c1.6-.9 2.5-2.6 2.5-4.4V98.3c0-1.8-1-3.5-2.5-4.4l-42.1-24.3z"/></defs><linearGradient id="XMLID_2_" gradientUnits="userSpaceOnUse" x1="185.902" y1="87.715" x2="147.837" y2="165.367"><stop offset="0" stop-color="#41873f"/><stop offset=".329" stop-color="#418b3d"/><stop offset=".635" stop-color="#419637"/><stop offset=".932" stop-color="#3fa92d"/><stop offset="1" stop-color="#3fae2a"/></linearGradient><use xlink:href="#XMLID_143_" overflow="visible" fill-rule="evenodd" clip-rule="evenodd" fill="url(#XMLID_2_)"/><clipPath id="XMLID_3_"><use xlink:href="#XMLID_143_" overflow="visible"/></clipPath><g class="st2"><path class="st3" d="M166.1 69.6l-42.2 24.3c-1.6.9-2.7 2.6-2.7 4.4V147c0 1.2.5 2.3 1.3 3.2L170 69.1c-1.3-.3-2.7-.2-3.9.5zm4.1 106.6c.4-.1.8-.3 1.2-.5l42.2-24.3c1.6-.9 2.6-2.6 2.6-4.4V98.3c0-1.3-.6-2.6-1.5-3.5l-44.5 81.4z"/><linearGradient id="SVGID_1_" gradientUnits="userSpaceOnUse" x1="162.358" y1="128.353" x2="269.165" y2="49.438"><stop offset=".138" stop-color="#41873f"/><stop offset=".403" stop-color="#54a044"/><stop offset=".714" stop-color="#66b848"/><stop offset=".908" stop-color="#6cc04a"/></linearGradient><path class="st4" d="M213.5 93.9l-42.3-24.3c-.4-.2-.9-.4-1.3-.5l-47.4 81.2c.4.5.9.9 1.4 1.2l42.3 24.3c1.2.7 2.6.9 3.9.5l44.5-81.4c-.3-.4-.7-.7-1.1-1z"/></g><g class="st2"><path class="st3" d="M216.2 147V98.3c0-1.8-1.1-3.5-2.7-4.4l-42.3-24.3c-.5-.3-1-.5-1.6-.6l46.3 79.1c.2-.3.3-.7.3-1.1zm-92.3-53.1c-1.6.9-2.7 2.6-2.7 4.4V147c0 1.8 1.2 3.5 2.7 4.4l42.3 24.3c1 .6 2.1.8 3.3.6l-45.3-82.6-.3.2z"/><linearGradient id="SVGID_2_" gradientUnits="userSpaceOnUse" x1="120.062" y1="60.834" x2="217.479" y2="60.834"><stop offset=".092" stop-color="#6cc04a"/><stop offset=".286" stop-color="#66b848"/><stop offset=".597" stop-color="#54a044"/><stop offset=".862" stop-color="#41873f"/></linearGradient><path class="st5" d="M164.8 60.7l-.6.3h.8z"/><linearGradient id="SVGID_3_" gradientUnits="userSpaceOnUse" x1="120.062" y1="122.651" x2="217.479" y2="122.651"><stop offset=".092" stop-color="#6cc04a"/><stop offset=".286" stop-color="#66b848"/><stop offset=".597" stop-color="#54a044"/><stop offset=".862" stop-color="#41873f"/></linearGradient><path class="st6" d="M213.6 151.4c1.2-.7 2.1-1.9 2.5-3.2L169.7 69c-1.2-.2-2.5-.1-3.6.6l-42 24.2 45.3 82.6c.6-.1 1.3-.3 1.9-.6l42.3-24.4z"/><linearGradient id="SVGID_4_" gradientUnits="userSpaceOnUse" x1="120.062" y1="150.462" x2="217.479" y2="150.462"><stop offset=".092" stop-color="#6cc04a"/><stop offset=".286" stop-color="#66b848"/><stop offset=".597" stop-color="#54a044"/><stop offset=".862" stop-color="#41873f"/></linearGradient><path class="st7" d="M217.5 150.6l-.3-.5v.7z"/><linearGradient id="SVGID_5_" gradientUnits="userSpaceOnUse" x1="120.062" y1="163.032" x2="217.479" y2="163.032"><stop offset=".092" stop-color="#6cc04a"/><stop offset=".286" stop-color="#66b848"/><stop offset=".597" stop-color="#54a044"/><stop offset=".862" stop-color="#41873f"/></linearGradient><path class="st8" d="M213.6 151.4l-42.2 24.3c-.6.3-1.2.5-1.9.6l.8 1.5 46.8-27.1v-.6l-1.2-2c-.2 1.4-1.1 2.6-2.3 3.3z"/><linearGradient id="SVGID_6_" gradientUnits="userSpaceOnUse" x1="231.672" y1="85.412" x2="171.591" y2="207.977"><stop offset="0" stop-color="#41873f"/><stop offset=".329" stop-color="#418b3d"/><stop offset=".635" stop-color="#419637"/><stop offset=".932" stop-color="#3fa92d"/><stop offset="1" stop-color="#3fae2a"/></linearGradient><path class="st9" d="M213.6 151.4l-42.2 24.3c-.6.3-1.2.5-1.9.6l.8 1.5 46.8-27.1v-.6l-1.2-2c-.2 1.4-1.1 2.6-2.3 3.3z"/></g></svg>