<svg width="128" height="73" viewBox="0 0 128 73" xmlns="http://www.w3.org/2000/svg" xmlns:xlink="http://www.w3.org/1999/xlink"><title>Docker_(container_engine)_logo Copy</title><defs><path d="M20.5 0v23.159h-11v11.579H.29c-.039.335-.07.671-.102 1.007-.576 6.309.518 12.127 3.03 17.101l.845 1.526c.505.915 1.095 1.774 1.718 2.612.623.837.843 1.3 1.235 1.857C13.66 66.36 23.565 69.979 35 69.979c25.324 0 46.816-11.296 56.328-36.673 6.749.698 13.222-1.045 16.172-6.843-4.7-2.731-10.74-1.856-14.219-.095L102.5 0l-36 23.159H55V0H20.5z" id="a"/><path d="M20.5 0v23.159h-11v11.579H.29c-.039.335-.07.671-.102 1.007-.576 6.309.518 12.127 3.03 17.101l.845 1.526c.505.915 1.095 1.774 1.718 2.612.623.837.843 1.3 1.235 1.857C13.66 66.36 23.565 69.979 35 69.979c25.324 0 46.816-11.296 56.328-36.673 6.749.698 13.222-1.045 16.172-6.843-4.7-2.731-10.74-1.856-14.219-.095L102.5 0l-36 23.159H55V0H20.5z" id="c"/><path d="M20.5 0v23.159h-11v11.579H.29c-.039.335-.07.671-.102 1.007-.576 6.309.518 12.127 3.03 17.101l.845 1.526c.505.915 1.095 1.774 1.718 2.612.623.837.843 1.3 1.235 1.857C13.66 66.36 23.565 69.979 35 69.979c25.324 0 46.816-11.296 56.328-36.673 6.749.698 13.222-1.045 16.172-6.843-4.7-2.731-10.74-1.856-14.219-.095L102.5 0l-36 23.159H55V0H20.5z" id="e"/><path d="M20.5 0v23.159h-11v11.579H.29c-.039.335-.07.671-.102 1.007-.576 6.309.518 12.127 3.03 17.101l.845 1.526c.505.915 1.095 1.774 1.718 2.612.623.837.843 1.3 1.235 1.857C13.66 66.36 23.565 69.979 35 69.979c25.324 0 46.816-11.296 56.328-36.673 6.749.698 13.222-1.045 16.172-6.843-4.7-2.731-10.74-1.856-14.219-.095L102.5 0l-36 23.159H55V0H20.5z" id="g"/><path d="M20.5 0v23.159h-11v11.579H.29c-.039.335-.07.671-.102 1.007-.576 6.309.518 12.127 3.03 17.101l.845 1.526c.505.915 1.095 1.774 1.718 2.612.623.837.843 1.3 1.235 1.857C13.66 66.36 23.565 69.979 35 69.979c25.324 0 46.816-11.296 56.328-36.673 6.749.698 13.222-1.045 16.172-6.843-4.7-2.731-10.74-1.856-14.219-.095L102.5 0l-36 23.159H55V0H20.5z" id="i"/></defs><g fill="none" fill-rule="evenodd"><path d="M73.744 23.024h11.433v11.768h5.78c2.67 0 5.416-.48 7.944-1.342 1.242-.424 2.637-1.014 3.862-1.756-1.614-2.122-2.438-4.801-2.68-7.442-.33-3.592.39-8.267 2.804-11.078l1.202-1.4 1.432 1.16c3.606 2.916 6.638 6.992 7.173 11.638 4.341-1.285 9.438-.981 13.265 1.243l1.57.912-.826 1.624c-3.237 6.36-10.003 8.33-16.618 7.982-9.898 24.824-31.449 36.576-57.578 36.576-13.5 0-25.885-5.08-32.938-17.14-.414-.75-.768-1.533-1.143-2.302-2.384-5.309-3.176-11.124-2.639-16.935l.161-1.74h9.777V23.024h11.433V11.512h22.866V0h13.72v23.024" fill="#394D54" fill-rule="nonzero"/><g transform="translate(17.5 1.007)"><mask id="b" fill="#fff"><use xlink:href="#a"/></mask><g mask="url(#b)"><g fill-rule="nonzero"><path fill="#00ACD3" d="M44.43-10.6h9.908v9.977H44.43z"/><path fill="#20C2EF" d="M44.43.911h9.908v9.978H44.43z"/><path d="M45.646 10.057V1.743m1.486 8.314V1.743m1.501 8.314V1.743m1.502 8.314V1.743m1.501 8.314V1.743m1.486 8.314V1.743" fill="#000" stroke="#394D54" stroke-width=".78"/><g><path fill="#00ACD3" d="M55.863 10.888h9.908V.912h-9.908z"/><path fill="#20C2EF" d="M55.863-.623h9.908v-9.978h-9.908z"/><path d="M57.08 1.743v8.315m1.485-8.315v8.315m1.501-8.315v8.315m1.502-8.315v8.315m1.501-8.315v8.315m1.486-8.315v8.315" stroke="#394D54" stroke-width=".78" fill="#000"/></g></g><g fill-rule="nonzero"><path fill="#00ACD3" d="M-1.302 12.424h9.908V22.4h-9.908z"/><path fill="#20C2EF" d="M-1.302 23.935h9.908v9.978h-9.908z"/><path d="M-.086 21.57v-8.316M1.4 21.57v-8.315m1.501 8.315v-8.315m1.502 8.315v-8.315m1.501 8.315v-8.315M7.39 21.57v-8.315M-.086 33.081v-8.315M1.4 33.081v-8.315m1.501 8.315v-8.315m1.502 8.315v-8.315m1.501 8.315v-8.315m1.486 8.315v-8.315" stroke="#394D54" stroke-width=".78" fill="#000"/><g><path fill="#00ACD3" d="M10.13 33.912h9.91v-9.977h-9.91z"/><path fill="#20C2EF" d="M10.13 22.4h9.91v-9.977h-9.91z"/><path d="M11.347 24.767v8.314m1.486-8.314v8.314m1.501-8.314v8.314m1.502-8.314v8.314m1.501-8.314v8.314m1.486-8.314v8.314M11.347 13.255v8.314m1.486-8.314v8.314m1.501-8.314v8.314m1.502-8.314v8.314m1.501-8.314v8.314m1.486-8.314v8.314" stroke="#394D54" stroke-width=".78" fill="#000"/></g></g><g fill-rule="nonzero"><path fill="#00ACD3" d="M21.564 12.424h9.908V22.4h-9.908z"/><path fill="#20C2EF" d="M21.564 23.935h9.908v9.978h-9.908z"/><path d="M22.78 21.57v-8.316m1.486 8.315v-8.315m1.501 8.315v-8.315m1.502 8.315v-8.315m1.501 8.315v-8.315m1.486 8.315v-8.315M22.78 33.081v-8.315m1.486 8.315v-8.315m1.501 8.315v-8.315m1.502 8.315v-8.315m1.501 8.315v-8.315m1.486 8.315v-8.315" stroke="#394D54" stroke-width=".78" fill="#000"/><g><path fill="#00ACD3" d="M32.997 33.912h9.908v-9.977h-9.908z"/><path fill="#20C2EF" d="M32.997 22.4h9.908v-9.977h-9.908z"/><path d="M34.213 24.767v8.314m1.486-8.314v8.314m1.501-8.314v8.314m1.502-8.314v8.314m1.501-8.314v8.314m1.486-8.314v8.314M34.213 13.255v8.314m1.486-8.314v8.314m1.501-8.314v8.314m1.502-8.314v8.314m1.501-8.314v8.314m1.486-8.314v8.314" stroke="#394D54" stroke-width=".78" fill="#000"/></g></g><g fill-rule="nonzero"><path fill="#00ACD3" d="M44.43 12.424h9.908V22.4H44.43z"/><path fill="#20C2EF" d="M44.43 23.935h9.908v9.978H44.43z"/><path d="M45.646 21.57v-8.316m1.486 8.315v-8.315m1.501 8.315v-8.315m1.502 8.315v-8.315m1.501 8.315v-8.315m1.486 8.315v-8.315M45.646 33.081v-8.315m1.486 8.315v-8.315m1.501 8.315v-8.315m1.502 8.315v-8.315m1.501 8.315v-8.315m1.486 8.315v-8.315" stroke="#394D54" stroke-width=".78" fill="#000"/><g><path fill="#00ACD3" d="M55.863 33.912h9.908v-9.977h-9.908z"/><path fill="#20C2EF" d="M55.863 22.4h9.908v-9.977h-9.908z"/><path d="M57.08 24.767v8.314m1.485-8.314v8.314m1.501-8.314v8.314m1.502-8.314v8.314m1.501-8.314v8.314m1.486-8.314v8.314M57.08 13.255v8.314m1.485-8.314v8.314m1.501-8.314v8.314m1.502-8.314v8.314m1.501-8.314v8.314m1.486-8.314v8.314" stroke="#394D54" stroke-width=".78" fill="#000"/></g></g></g></g><g transform="translate(17.5 1.007)"><mask id="d" fill="#fff"><use xlink:href="#c"/></mask><path d="M93.285 26.37c.767-5.998-3.692-10.71-6.457-12.947-3.186 3.709-3.681 13.43 1.318 17.523-2.79 2.495-8.67 4.757-14.688 4.757H-.5c-.585 6.327 0 36.794 0 36.794H108l-.493-46.028c-4.7-2.73-10.742-1.86-14.222-.099" fill="#17B5EB" fill-rule="nonzero" mask="url(#d)"/></g><g transform="translate(17.5 1.007)"><mask id="f" fill="#fff"><use xlink:href="#e"/></mask><path fill-opacity=".17" fill="#000" fill-rule="nonzero" mask="url(#f)" d="M-.5 43.8v28.697H108V43.8"/></g><g transform="translate(17.5 1.007)"><mask id="h" fill="#fff"><use xlink:href="#g"/></mask><path d="M38.119 69.924c-6.77-3.235-10.486-7.632-12.554-12.432L5 58.4l10.5 14.097 22.619-2.573" fill="#D4EDF1" fill-rule="nonzero" mask="url(#h)"/></g><g transform="translate(17.5 1.007)"><mask id="j" fill="#fff"><use xlink:href="#i"/></mask><path d="M93.75 26.148v.016C83.32 39.7 68.358 51.527 52.297 57.739c-14.328 5.542-26.82 5.569-35.438 1.117-.928-.528-1.837-1.113-2.75-1.667-6.318-4.447-9.877-11.802-9.578-21.491H-.5v36.799H108V24.166H95.5l-1.75 1.982z" fill-opacity=".085" fill="#000" fill-rule="nonzero" mask="url(#j)"/></g><path d="M22.813 58.92c7.082.39 14.64.46 21.234-1.621" stroke="#394D54" stroke-width="1.7" stroke-linecap="round"/><path d="M51.085 53.848a2.743 2.743 0 0 1-2.733 2.753 2.743 2.743 0 0 1-2.734-2.753 2.744 2.744 0 0 1 2.734-2.752 2.743 2.743 0 0 1 2.733 2.752z" fill="#D4EDF1" fill-rule="nonzero"/><path d="M49.06 52.01a.806.806 0 0 0 .4 1.5c.302 0 .565-.168.7-.418.096.233.15.488.15.756a1.964 1.964 0 0 1-1.958 1.971 1.965 1.965 0 0 1-1.958-1.97c0-1.09.877-1.972 1.958-1.972.25 0 .489.047.709.133zM0 45.392h127.164c-2.77-.707-8.76-1.662-7.773-5.316-5.034 5.866-17.176 4.115-20.24 1.223-3.413 4.983-23.278 3.089-24.663-.793-4.278 5.055-17.534 5.055-21.812 0-1.386 3.882-21.25 5.776-24.663.793-3.064 2.892-15.205 4.643-20.24-1.223C8.76 43.73 2.769 44.685 0 45.392" fill="#394D54" fill-rule="nonzero"/></g></svg>