<?xml version="1.0" encoding="UTF-8"?>
<svg width="74px" height="102px" viewBox="0 0 74 102" version="1.1" xmlns="http://www.w3.org/2000/svg" xmlns:xlink="http://www.w3.org/1999/xlink">
    <!-- Generator: Sketch 52.3 (67297) - http://www.bohemiancoding.com/sketch -->
    <title>Jenkins_logo (1)</title>
    <desc>Created with Sketch.</desc>
    <g id="Page-1" stroke="none" stroke-width="1" fill="none" fill-rule="evenodd">
        <g id="DevOps-Copy" transform="translate(-738.000000, -7604.000000)">
            <g id="Jenkins_logo-(1)" transform="translate(738.000000, 7604.000000)">
                <g id="g10" transform="translate(37.000000, 50.911645) scale(-1, 1) rotate(-180.000000) translate(-37.000000, -50.911645) translate(0.000000, 0.362972)">
                    <g id="g3393">
                        <path d="M72.4181278,52.3768629 C72.4181278,32.3486611 56.4547467,16.1124171 36.7628414,16.1124171 C17.0712621,16.1124171 1.10786068,32.3486611 1.10786068,52.3768629 C1.10786068,72.405551 17.0712621,88.6420381 36.7628414,88.6420381 C56.4547467,88.6420381 72.4181278,72.405551 72.4181278,52.3768629" id="path22" fill="#D33833"></path>
                        <path d="M2.56081564,43.3953557 C2.56081564,43.3953557 -0.0203744493,81.2132304 35.0238414,82.29388 L32.5790705,86.3458096 L13.5630264,79.9976515 L8.12973128,73.7848278 L3.37579361,64.7352482 L0.658987115,54.2002312 L1.47396509,47.1770217" id="path24" fill="#EF3D3A" fill-rule="nonzero"></path>
                        <path d="M12.3421487,77.1159192 C6.08637775,70.7511481 2.2152446,61.9633232 2.2152446,52.2415285 C2.2152446,42.5217597 6.08637775,33.7328002 12.3421487,27.3692043 C18.600935,21.0056083 27.2264581,17.0788833 36.7623524,17.0788833 C46.2984912,17.0788833 54.9246256,21.0056083 61.1828414,27.3692043 C67.4382048,33.7328002 71.3101652,42.5217597 71.3101652,52.2415285 C71.3101652,61.9633232 67.4382048,70.7511481 61.1828414,77.1159192 C54.9246256,83.478259 46.2984912,87.404984 36.7623524,87.4057944 C27.2264581,87.404984 18.600935,83.478259 12.3421487,77.1159192 Z M10.7586465,25.8297952 C4.11021916,32.5908044 0,41.9346351 0,52.2415285 C0,62.5500426 4.11021916,71.8929819 10.7586465,78.6544368 C17.4055253,85.4171074 26.6065044,89.6088285 36.7623524,89.607613 C46.9182819,89.6088285 56.1201982,85.4171074 62.7659361,78.6544368 C69.4149339,71.8929819 73.5256828,62.5492322 73.5248678,52.2415285 C73.5256828,41.9346351 69.4149339,32.5908044 62.7659361,25.8297952 C56.1201982,19.0674893 46.9182819,14.8762949 36.7623524,14.8762949 C26.6065044,14.8762949 17.4055253,19.0674893 10.7586465,25.8297952 Z" id="path26" fill="#231F20" fill-rule="nonzero"></path>
                        <polyline id="path28" fill="#F0D6B7" points="51.7718833 52.1758872 46.3384251 51.3655013 39.0035419 50.5551154 34.2492863 50.4201861 29.6312952 50.5551154 26.0995066 51.635765 22.97537 55.0122379 20.5304361 61.9005183 19.9871718 63.3863609 16.7272599 64.4666053 14.8255903 67.5732197 13.467348 72.0303423 14.9616916 75.9473427 18.4929912 77.1629215 21.3454141 75.8120082 22.7039824 72.8407282 24.3339383 73.1109919 24.8770396 73.7860434 24.3339383 76.8926578 24.197837 80.8096582 25.012815 86.2120959 24.9809901 89.2980455 27.4577489 93.2353055 31.8043524 96.34192 39.4110308 99.5834637 47.8322797 98.3678848 55.1670815 93.1003763 58.5630947 87.6979385 60.7362335 83.7809382 61.2794163 74.0563071 59.6494604 65.6821842 56.6613436 58.2537816 53.8089207 54.3367813"></polyline>
                        <polyline id="path30" fill="#335061" points="47.1534031 28.8100299 27.7294626 27.999644 27.7294626 24.7581003 29.3594185 13.4126974 28.5444405 12.466977 14.9616916 17.059434 14.0106123 18.6802059 12.65237 33.942204 9.52872247 43.1267128 8.84935683 45.2876069 19.7154581 52.7160094 23.1114714 54.0669228 26.0995066 50.4201861 28.6802159 48.1239576 31.6687401 47.1786424 33.0268194 46.7734495 34.6567753 39.7502399 35.8792423 38.2644783 39.0035419 39.3450469 36.8299956 35.1577828 48.6472577 29.6204158 47.1534031 28.8100299"></polyline>
                        <polyline id="path32" fill="#6D6B6D" points="14.9616916 75.9473427 18.4929912 77.1629215 21.3454141 75.8120082 22.7039824 72.8407282 24.3339383 73.1109919 24.7414273 74.7317638 23.9264493 77.837973 24.7414273 85.2667808 24.0620617 89.3187104 26.5069956 92.1550611 31.8043524 96.34192 30.3101718 98.3678848 22.8395947 94.7211481 19.7154581 92.2899904 17.9497269 88.5083245 15.2330793 84.8615878 14.4181013 80.5393945 14.9616916 75.9473427"></polyline>
                        <path d="M20.5304361,88.6432537 C20.5304361,88.6432537 22.5678811,93.6404985 30.7176608,96.0716563 C38.8674405,98.502814 31.1251498,97.8277626 31.1251498,97.8277626 L22.2964934,94.4508844 L18.9004802,91.0744115 L17.4066256,88.37299 L20.5304361,88.6432537" id="path34" fill="#DCD9D8"></path>
                        <path d="M16.4555463,76.8926578 C16.4555463,76.8926578 13.6031233,86.3474304 24.4695507,87.6979385 L24.0620617,89.3187104 L16.5916476,87.5626041 L14.4181013,80.5393945 L14.9616916,75.9473427 L16.4555463,76.8926578" id="path36" fill="#DCD9D8"></path>
                        <path d="M20.8021498,64.331676 L22.5806355,66.0452371 C22.5806355,66.0452371 23.383348,65.9524479 23.5189604,65.0071327 C23.6545727,64.0614123 24.0620617,55.5523602 29.9026828,50.9599031 C30.4354339,50.5409336 25.5564053,51.635765 25.5564053,51.635765 L21.2096388,58.3887109" id="path38" fill="#F7E4CD"></path>
                        <path d="M45.7956498,66.8977631 C45.7956498,66.8977631 46.1122687,70.9918328 47.2210463,70.6769978 C48.3298238,70.3621629 48.3298238,69.2596328 48.3298238,69.2596328 C48.3298238,69.2596328 45.6371366,67.5274329 45.7956498,66.8977631" id="path40" fill="#F7E4CD"></path>
                        <path d="M57.0688326,81.8899026 C57.0688326,81.8899026 54.8300881,81.4198788 54.6238987,79.4587449 C54.4177093,77.4972057 57.0688326,79.0535519 57.4763216,79.1884812" id="path42" fill="#F7E4CD" fill-rule="nonzero"></path>
                        <path d="M40.6334978,81.7545682 C40.6334978,81.7545682 37.6449736,81.3493752 37.6449736,79.4587449 C37.6449736,77.5677093 41.0410683,77.7026386 41.9917401,78.5130245" id="path44" fill="#F7E4CD" fill-rule="nonzero"></path>
                        <path d="M22.1603921,72.9756575 C22.1603921,72.9756575 16.9986476,76.0822719 16.4555463,73.1105867 C15.9122819,70.1393068 14.689489,67.9780075 17.2705242,64.8717983 L15.504793,65.4119205 L13.874837,69.5987793 L13.3317357,73.650709 L16.4555463,76.8926578 L19.9871718,76.6223941 L22.0246167,75.0016223 L22.1603921,72.9756575" id="path46" fill="#F7E4CD"></path>
                        <path d="M24.605326,81.4847097 C24.605326,81.4847097 26.9144846,93.3702348 38.5960529,95.6664633 C48.2132819,97.5566885 53.2653304,95.2612703 55.1670815,93.1003763 C55.1670815,93.1003763 46.6098128,103.229795 38.4599515,100.123586 C30.3101718,97.0169714 24.3339383,91.34427 24.4695507,87.6979385 C24.7008414,81.4871408 24.605326,81.4847097 24.605326,81.4847097" id="path48" fill="#F7E4CD"></path>
                        <path d="M56.1181608,91.7498681 C56.1181608,91.7498681 52.1793722,91.8847974 52.0432709,88.37299 C52.0432709,88.37299 52.0428634,87.8328678 52.3146586,87.2927456 C52.3146586,87.2927456 55.4392841,90.804553 57.3406278,88.9135174" id="path50" fill="#F7E4CD"></path>
                        <path d="M38.8698447,86.9268563 C38.8698447,86.9268563 38.1917423,92.3171383 33.5700837,89.1833759 C30.5818855,87.1574111 30.8537621,84.3210604 31.3968634,83.7809382 C31.9401278,83.2404108 31.792413,82.1524677 32.2059736,82.8992383 C32.6193304,83.6460089 32.4832291,86.0771667 33.9775727,86.7522182 C35.4717533,87.4276748 37.9211289,88.1821441 38.8698447,86.9268563" id="path52" fill="#F7E4CD"></path>
                        <path d="M26.0995066,50.4201861 L13.3317357,44.7474847 C13.3317357,44.7474847 18.6290925,23.8123799 15.9122819,17.3292926 L14.0106123,18.004344 L13.874837,25.973355 L10.3437004,41.1003428 L8.84935683,45.2876069 L22.1603921,54.2014468 L26.0995066,50.4201861" id="path54" fill="#49728B"></path>
                        <path d="M27.4123954,38.8409058 L29.2238062,36.6432202 L29.2238062,28.539361 L27.0502599,28.539361 C27.0502599,28.539361 26.7788722,34.2120625 26.7788722,34.8876002 C26.7788722,35.5629758 27.0502599,37.9941336 27.0502599,37.9941336" id="path56" fill="#49728B"></path>
                        <polyline id="path58" fill="#49728B" points="27.4577489 27.3237821 21.3454141 27.0539236 23.1114714 25.8383447 27.4577489 25.1629691"></polyline>
                        <polyline id="path60" fill="#335061" points="48.37587 28.6746955 53.4014317 28.8097058 54.6238987 16.3835722 49.4622357 15.7085207 48.37587 28.6746955"></polyline>
                        <path d="M49.7340308,28.6746955 L57.3406278,29.0798884 C57.3406278,29.0798884 60.4644383,36.913565 60.4644383,37.3187579 C60.4644383,37.7239509 63.1811674,48.6640798 63.1811674,48.6640798 L57.0688326,55.0118328 L55.8463656,56.0924824 L52.5864537,52.8509387 L52.5864537,40.2899569 L49.7340308,28.6746955" id="path62" fill="#335061"></path>
                        <path d="M53.1296366,29.6200917 L48.37587,28.6746955 L49.0547467,24.8926244 C50.8203965,24.0822385 53.8089207,26.2435377 53.8089207,26.2435377" id="path64" fill="#49728B"></path>
                        <polyline id="path66" fill="#49728B" points="53.2657379 53.2561316 62.7736784 46.2329221 63.0454736 49.4744657 55.8463656 56.0924824 53.2657379 53.2561316"></polyline>
                        <polyline id="path68" fill="#FFFFFF" points="32.1715815 2.06569398 29.3594185 13.4126974 27.9607533 21.7851185 27.7294626 27.999644 40.4572996 28.6733989 48.37587 28.6746955 47.655837 14.4916452 48.878304 3.55145147 48.7426101 1.52548667 38.4198546 0.715100745 32.1715815 2.06569398"></polyline>
                        <path d="M46.6098128,28.8097058 C46.6098128,28.8097058 45.9309361,14.7628003 47.9683811,4.76831077 C47.9683811,4.76831077 43.8934912,2.20181045 37.9166872,1.52675492 L49.3265419,1.93194788 L50.6847026,2.7423338 L49.0547467,24.8926244 L48.6472577,29.6204158" id="path70" fill="#DCD9D8"></path>
                        <polyline id="path72" fill="#FFFFFF" points="54.8553524 17.4630062 60.1527093 18.9487678 70.2038326 19.488971 71.6980947 24.0809824 68.9813656 32.0499528 65.8575551 32.4551458 61.51087 31.1045566 57.3406278 29.0798884 55.1267401 29.4837848 53.4014317 28.8097058"></polyline>
                        <path d="M54.7595925,20.1656433 C54.7595925,20.1656433 58.2908921,21.786091 58.8344824,21.6510807 L57.3406278,29.0798884 L59.1062775,29.7549399 C59.1062775,29.7549399 60.3287445,22.7318113 60.3287445,21.9214254 C60.3287445,21.9214254 67.9349339,21.5162325 68.6142181,21.5162325 C68.6142181,21.5162325 70.244174,24.6227659 69.836685,27.8643095 L71.3309471,23.5421973 L71.466641,21.1110395 L69.2935022,17.8694958 L66.8485683,17.3292926 L62.7736784,17.4643029 L61.4155176,19.2199229 L56.6613436,18.5448714 L55.1670815,18.004344" id="path74" fill="#DCD9D8"></path>
                        <path d="M49.4218943,29.7536838 L46.4337775,37.3174613 L43.3095595,41.7745839 C43.3095595,41.7745839 43.9884361,43.6656195 44.9395154,43.6656195 C45.8905947,43.6656195 48.0637335,43.6656195 48.0637335,43.6656195 L51.0518502,42.5849698 L50.7804626,37.587644 L49.4218943,29.7536838" id="path76" fill="#FFFFFF" fill-rule="nonzero"></path>
                        <path d="M50.005826,32.3214321 C50.005826,32.3214321 46.2023238,39.6145813 46.2023238,40.6951499 C46.2023238,40.6951499 46.8812004,42.3159217 47.8322797,41.9107287 C48.783359,41.5055358 50.820804,40.4252913 50.820804,40.4252913 L50.820804,42.9913784 L46.2023238,43.9370987 L43.0785132,43.5319058 L48.37587,31.1058532 L49.4622357,30.9705188" id="path78" fill="#DCD9D8"></path>
                        <polyline id="path80" fill="#FFFFFF" fill-rule="nonzero" points="33.3942115 50.1483016 29.6312952 50.5551154 26.0995066 51.635765 26.0995066 50.4201861 27.825141 48.527935 33.2582731 46.0967772"></polyline>
                        <path d="M27.3224626,49.7435139 C27.3224626,49.7435139 31.5334537,47.9874076 32.891696,48.3926005 L33.0268194,46.7734495 L29.2242952,47.5822146 L26.9149736,49.2029865 L27.3224626,49.7435139" id="path82" fill="#DCD9D8"></path>
                        <path d="M54.8406828,43.2057254 C52.5359251,43.2729875 50.4536564,43.5452771 48.6305507,44.0566307 C48.7544273,44.7997546 48.5225661,45.5291019 48.7087885,46.0643618 C49.2169273,46.4282251 50.0685793,46.4225524 50.836696,46.5080481 C50.172489,46.8326076 49.2393392,46.9610538 48.4728524,46.7734495 C48.4549229,47.2892601 48.2222467,47.6089574 48.0812555,48.0125295 C49.3770705,48.4724236 52.4360903,51.4874644 54.1569163,50.4890689 C54.9767841,50.0141828 55.3251872,47.3018211 55.3887555,45.982918 C55.4417291,44.888897 55.2889207,43.7851514 54.8406828,43.2057254" id="path84" fill="#D33833"></path>
                        <path d="M54.8406828,43.2057254 C52.5359251,43.2729875 50.4536564,43.5452771 48.6305507,44.0566307 C48.7544273,44.7997546 48.5225661,45.5291019 48.7087885,46.0643618 C49.2169273,46.4282251 50.0685793,46.4225524 50.836696,46.5080481 C50.172489,46.8326076 49.2393392,46.9610538 48.4728524,46.7734495 C48.4549229,47.2892601 48.2222467,47.6089574 48.0812555,48.0125295 C49.3770705,48.4724236 52.4360903,51.4874644 54.1569163,50.4890689 C54.9767841,50.0141828 55.3251872,47.3018211 55.3887555,45.982918 C55.4417291,44.888897 55.2889207,43.7851514 54.8406828,43.2057254 Z" id="path86" stroke="#D33833" stroke-width="0.81"></path>
                        <path d="M43.8193282,46.9521396 C43.8132159,46.778717 43.8058811,46.6040788 43.7989537,46.4290354 C43.0793282,45.9590116 41.9175771,45.9646843 41.1278634,45.5696212 C42.2920595,45.5189721 43.2085022,45.2401993 44.0014758,44.8471621 C43.9839537,44.4103641 43.9672467,43.9739713 43.9501322,43.5371733 C42.6310903,42.6392657 41.4261454,41.3021289 39.8731233,40.4600974 C39.1388282,40.0618738 36.5617863,39.0371813 35.7805485,39.218262 C35.3385452,39.3203301 35.2987335,39.8657604 35.1220463,40.3798692 C34.7456079,41.480819 33.8788789,43.2332786 33.8032896,44.8905178 C33.707,46.9837446 33.4944945,50.4919053 35.7630672,50.06078 C37.5932632,49.7135296 39.7219042,48.8751854 41.1388656,48.1053187 C42.0047797,47.6344845 42.5055837,47.0526274 43.8193282,46.9521396" id="path88" fill="#D33833"></path>
                        <path d="M43.8193282,46.9521396 C43.8132159,46.778717 43.8058811,46.6040788 43.7989537,46.4290354 C43.0793282,45.9590116 41.9175771,45.9646843 41.1278634,45.5696212 C42.2920595,45.5189721 43.2085022,45.2401993 44.0014758,44.8471621 C43.9839537,44.4103641 43.9672467,43.9739713 43.9501322,43.5371733 C42.6310903,42.6392657 41.4261454,41.3021289 39.8731233,40.4600974 C39.1388282,40.0618738 36.5617863,39.0371813 35.7805485,39.218262 C35.3385452,39.3203301 35.2987335,39.8657604 35.1220463,40.3798692 C34.7456079,41.480819 33.8788789,43.2332786 33.8032896,44.8905178 C33.707,46.9837446 33.4944945,50.4919053 35.7630672,50.06078 C37.5932632,49.7135296 39.7219042,48.8751854 41.1388656,48.1053187 C42.0047797,47.6344845 42.5055837,47.0526274 43.8193282,46.9521396 Z" id="path90" stroke="#D33833" stroke-width="0.81"></path>
                        <path d="M45.1294053,44.4545301 C44.9281057,45.5947431 44.6954295,45.9201131 44.7854846,46.9148618 C47.8436894,48.9424474 48.4178414,43.4322283 45.1294053,44.4545301" id="path92" fill="#D33833"></path>
                        <path d="M45.1294053,44.4545301 C44.9281057,45.5947431 44.6954295,45.9201131 44.7854846,46.9148618 C47.8436894,48.9424474 48.4178414,43.4322283 45.1294053,44.4545301 Z" id="path94" stroke="#D33833" stroke-width="0.81"></path>
                        <path d="M49.5575881,43.530285 C49.5575881,43.530285 48.6065088,44.8811983 49.285793,45.2863913 C49.9650771,45.6915843 50.6443612,45.2859861 51.0518502,45.9614428 C51.4593392,46.6368994 51.0518502,47.0420924 51.1875441,47.8524783 C51.3232379,48.6628642 52.0029295,48.7981987 52.6818062,48.9331279 C53.3606828,49.0680572 55.2628414,49.3383209 55.5342291,48.6628642 L54.7192511,51.094022 L53.0892952,51.6341442 L47.9276322,48.6628642 L47.655837,47.1770217 L47.655837,44.2057417" id="path96" fill="#EF3D3A"></path>
                        <path d="M35.2955551,39.0731219 C35.1323965,41.1809762 34.9597026,43.2859536 34.7675716,45.3917415 C34.4800881,48.5360388 35.5271311,47.9874076 38.2681465,47.9874076 C38.6868007,47.9874076 40.8458811,47.4910462 41.0003194,47.1770217 C41.7411344,45.6725402 39.7615529,46.0068244 41.8536013,44.8722841 C43.6196586,43.9148131 46.7393943,45.453736 46.0258811,47.5822146 C45.6265419,48.05548 43.9452423,47.7297049 43.3425661,48.0404879 C42.2814648,48.5874984 41.2203634,49.1345088 40.1591399,49.6815193 C38.8090474,50.378046 35.6887004,51.3934596 34.2492863,50.4201861 C30.6020969,47.9537766 34.4794769,41.7911968 35.7805485,39.218262" id="path98" fill="#EF3D3A"></path>
                        <path d="M38.8698447,86.9268563 C35.1677258,87.7842446 33.3281575,85.3863127 32.2059736,82.8992383 C31.2039581,83.1407333 31.6026861,84.4956986 31.8557775,85.1861474 C32.5184361,86.9981703 35.1889152,89.410284 37.3708965,89.0832933 C38.3098733,88.9426913 39.5805463,88.0889497 38.8698447,86.9268563" id="path100" fill="#231F20"></path>
                        <path d="M56.9078744,82.73473 C56.9661454,82.7322988 57.0252313,82.7302728 57.0835022,82.7278417 C57.9200771,80.9996937 58.644185,79.1690319 59.6995815,77.6434804 C58.9925881,76.0060956 54.3459912,74.5571256 54.4177093,77.4972057 C55.4225771,77.9340038 57.1572577,77.5863482 58.0480286,78.1442989 C57.5329626,79.5499133 56.7897026,80.7464481 56.9078744,82.73473" id="path102" fill="#231F20"></path>
                        <path d="M40.7651982,82.6897535 C41.5589868,81.2428095 41.8173348,79.7225255 42.9456718,78.6289097 C43.4538106,78.1366002 44.4419714,77.5365095 43.9521696,76.1673624 C43.8376652,75.8444237 43.0010903,75.1243958 42.5182159,74.9829834 C40.754196,74.4651468 36.6437731,74.8760125 38.0357555,77.0628389 C39.4946068,76.9951717 41.4554846,76.1207653 42.5459251,77.1738618 C41.7085352,78.5049206 40.2156586,81.1382697 40.7651982,82.6897535" id="path104" fill="#231F20"></path>
                        <path d="M56.2457048,67.9836802 C53.5896916,66.2871373 50.6280617,64.4422937 46.2760793,64.8701775 C45.3461894,65.6740803 44.991674,67.4630073 45.8950771,68.6445499 C46.3653194,67.8406471 46.0698899,66.362098 47.3803744,66.139647 C49.8497577,65.7194619 52.7237775,67.6416973 54.500022,68.3135073 C55.6014648,70.1599716 54.4050771,70.839075 53.4128414,72.027506 C51.3815088,74.4623105 48.65663,77.4801876 48.7556498,81.1253035 C49.5767401,81.7172904 49.6476432,80.2217232 49.7654075,79.9494335 C50.8261013,77.480998 53.4955617,74.3241397 55.4437665,72.2114636 C55.9221586,71.6911958 56.7098348,71.1919981 56.7974449,70.8479892 C57.0500881,69.8475678 56.1401652,68.649007 56.2457048,67.9836802" id="path106" fill="#231F20"></path>
                        <path d="M21.2308282,69.7697708 C20.3983282,70.2422258 20.2001663,72.3232968 19.222804,72.382455 C17.826054,72.4667351 18.0807346,69.6826543 18.0863172,68.054589 C17.1248877,68.9225123 16.9558205,71.5947599 17.6621211,72.9671484 C16.8571674,73.3601856 16.4977214,72.533592 16.0512357,72.2422582 C16.6250617,76.3873822 22.1492676,74.1648988 21.2308282,69.7697708" id="path108" fill="#231F20"></path>
                        <path d="M57.9367841,66.2575582 C56.7004626,63.9175688 54.9515198,61.3405416 51.3236454,61.2655809 C51.2498899,62.0212658 51.1932489,63.1712034 51.3277203,63.6262351 C54.1010903,63.8912313 55.813359,65.2948197 57.9367841,66.2575582" id="path110" fill="#231F20"></path>
                        <path d="M40.5559934,64.7405157 C42.8698789,63.5306096 47.1224339,63.4005426 50.2674339,63.4921162 C50.4361344,62.8069349 50.4320595,61.9604868 50.4385793,61.124979 C46.3958811,60.9244084 41.6160352,61.9191572 40.5559934,64.7405157" id="path112" fill="#231F20"></path>
                        <path d="M40.1161905,62.4844013 C41.7162775,58.4896039 47.2157489,58.9494979 51.8533811,59.0597104 C51.6492291,58.5410634 51.206696,57.9284117 50.6565859,57.7067711 C49.1704736,57.1054648 45.0715419,56.6492175 43.0084251,57.7387814 C41.699978,58.4304458 40.8593282,59.993275 40.1424328,60.9094163 C39.7962302,61.351887 38.072348,62.4819702 40.1161905,62.4844013" id="path114" fill="#231F20"></path>
                        <path d="M56.0525551,40.4488736 C54.1748458,37.2510097 52.3782269,33.9665561 50.1504846,31.1458863 C51.0844493,33.8765222 51.484196,38.4468152 51.6251872,41.9309884 C53.5790969,42.8402414 55.2522467,41.7263659 56.0525551,40.4488736" id="path116" fill="#81B0C4"></path>
                        <path d="M66.156652,28.9554537 C64.0544163,28.5369704 62.5772687,26.5053329 60.5263767,26.635724 C61.6534912,28.2156929 63.6285903,28.8817086 66.156652,28.9554537" id="path118" fill="#231F20"></path>
                        <path d="M67.0840969,25.6840067 C65.3706057,25.5040606 63.3580176,25.2281647 61.6200771,25.3703064 C62.4427974,26.6199214 65.6126542,26.1887556 67.0840969,25.6840067" id="path120" fill="#231F20"></path>
                        <path d="M67.6778084,22.8634991 C65.7520154,22.8220073 63.3584251,22.8601765 61.5279846,23.0128937 C62.6106828,24.1692739 66.4288546,23.4419931 67.6778084,22.8634991" id="path122" fill="#231F20"></path>
                        <path d="M52.429163,15.1448973 C52.7054405,12.739996 53.6642621,10.3032871 53.5440529,7.66953289 C52.4792841,7.31247685 51.8676432,7.00019463 50.4410242,7.00209904 C50.3403744,9.240466 50.0392401,12.66228 50.1292952,14.7960262 C50.8309912,14.7498342 51.8656057,15.294454 52.429163,15.1448973" id="path124" fill="#DCD9D8"></path>
                        <path d="M49.3245044,50.587936 C48.357533,49.9602921 47.5339978,49.1766489 46.6053304,48.5064598 C44.5458811,48.4051615 43.4220264,48.6482773 41.9090198,49.8241473 C41.9338767,49.9185572 42.08587,49.8764172 42.0915749,49.9923023 C44.2960903,49.0153821 47.0983921,50.3902018 49.3245044,50.587936" id="path126" fill="#F0D6B7"></path>
                        <path d="M37.7516134,35.6452705 C38.3573051,38.2551184 40.7306024,39.6068016 42.8857709,41.044021 C45.1102533,38.2367631 46.4631167,34.6265749 47.9528965,31.1427258 C44.4330066,32.1978077 40.8365088,33.909748 37.7516134,35.6452705" id="path128" fill="#81B0C4"></path>
                        <path d="M50.1292952,14.7960262 C50.0392401,12.66228 50.3403744,9.240466 50.4410242,7.00209904 C51.8676432,7.00019463 52.4792841,7.31247685 53.5440529,7.66953289 C53.6642621,10.3032871 52.7054405,12.739996 52.429163,15.1448973 C51.8656057,15.294454 50.8309912,14.7498342 50.1292952,14.7960262 Z M27.9153998,26.9310691 C28.8561289,18.3316589 30.2186498,11.1027734 32.7176982,3.48782402 C38.2641531,1.8132385 44.9505176,1.6673042 49.8530176,3.17839031 C48.9528744,7.47629636 49.3461013,12.7087962 48.820033,17.2952564 C48.4235463,20.742557 48.6256608,24.2110898 48.0820705,27.7281647 C42.141696,28.9570339 33.7451817,28.0154465 27.9153998,26.9310691 Z M49.486685,27.674193 C49.4365639,23.9809402 49.6529405,20.3378503 49.9365529,16.6399783 C51.3627643,16.8528667 52.3305507,16.9950084 53.6557048,17.2838704 C53.2253965,20.8438553 53.27837,24.8497144 52.4018612,27.9988336 C51.3888436,27.98919 50.4968502,28.0105437 49.486685,27.674193 Z M56.721652,28.2695025 C56.0448128,28.4238 55.2567291,28.2754994 54.6100441,28.2630194 C54.9140308,25.2523952 55.6515859,21.9302586 55.9111564,18.7700777 C56.9286564,18.7385942 57.4722467,19.2157899 58.3092291,19.3762869 C58.3540529,22.1502784 58.0655507,25.9720584 56.721652,28.2695025 Z M67.6765859,18.3167883 C69.7975661,18.8289522 71.1312775,21.4120574 70.5379736,24.0648152 C70.1398568,25.8476642 69.430826,29.2047689 68.6720815,30.3453061 C68.1113767,31.1889178 66.5910352,32.2933928 65.3771256,31.5203656 C63.4024339,30.2630114 59.9237004,29.8980135 58.4836344,28.3760277 C59.2057048,25.9853893 59.4298238,22.701746 59.7276982,19.6726045 C62.1946366,19.5196847 65.230022,20.347656 67.2817291,19.4690355 C65.8494053,19.0076828 63.990848,19.0040361 62.753304,18.3316589 C63.7646916,17.8459136 66.1326101,17.9440513 67.6765859,18.3167883 Z M47.9528965,31.1427258 C46.4631167,34.6265749 45.1102533,38.2367631 42.8857709,41.044021 C40.7306024,39.6068016 38.3573051,38.2551184 37.7516134,35.6452705 C40.8365088,33.909748 44.4330066,32.1978077 47.9528965,31.1427258 Z M51.6251872,41.9309884 C51.484196,38.4468152 51.0844493,33.8765222 50.1504846,31.1458863 C52.3782269,33.9665561 54.1748458,37.2510097 56.0525551,40.4488736 C55.2522467,41.7263659 53.5790969,42.8402414 51.6251872,41.9309884 Z M47.4622797,43.4018388 C46.61837,43.4921969 45.9020044,42.4370744 44.8046366,42.8933217 C44.5532159,42.6169801 44.3246145,42.3175425 44.068304,42.047684 C46.4920485,39.1432203 47.5934912,35.0224484 49.4654956,31.6091839 C50.4699559,34.8879243 50.3542291,38.480041 50.5754956,42.0586242 C49.1953304,41.9715077 48.4296586,43.2997302 47.4622797,43.4018388 Z M44.7854846,46.9148618 C44.6954295,45.9201131 44.9281057,45.5947431 45.1294053,44.4545301 C48.4178414,43.4322283 47.8436894,48.9424474 44.7854846,46.9148618 Z M41.1388656,48.1053187 C39.7219042,48.8751854 37.5932632,49.7135296 35.7630672,50.06078 C33.4944945,50.4923105 33.707,46.9837446 33.8032896,44.8905178 C33.8788789,43.2332786 34.7456079,41.480819 35.1220463,40.3798692 C35.2987335,39.8657604 35.3385452,39.3203301 35.7805485,39.218262 C36.5617863,39.0371813 39.1388282,40.0618738 39.8731233,40.4600974 C41.4261454,41.3021289 42.6310903,42.6392657 43.9501322,43.5371733 C43.9672467,43.9739713 43.9839537,44.4103641 44.0014758,44.8471621 C43.2085022,45.2401993 42.2920595,45.5189721 41.1278634,45.5696212 C41.9175771,45.9646843 43.0793282,45.9590116 43.7989537,46.4290354 C43.8058811,46.6040788 43.8132159,46.778717 43.8193282,46.9521396 C42.5055837,47.0526274 42.0047797,47.6344845 41.1388656,48.1053187 Z M27.6046894,50.5498479 C26.4286762,49.3626325 30.903109,47.7442918 32.3277313,47.6571753 C32.3197852,48.4084031 32.7582841,49.1166804 32.6699405,49.655587 C30.977924,49.9509727 28.7542566,49.7560749 27.6046894,50.5498479 Z M42.0915749,49.9923023 C42.08587,49.8764172 41.9338767,49.9185572 41.9090198,49.8241473 C43.4220264,48.6482773 44.5458811,48.4051615 46.6053304,48.5064598 C47.5339978,49.1766489 48.357533,49.9602921 49.3245044,50.587936 C47.0983921,50.3902018 44.2960903,49.0153821 42.0915749,49.9923023 Z M55.3887555,45.982918 C55.3251872,47.3018211 54.9767841,50.0141828 54.1569163,50.4890689 C52.4360903,51.4878696 49.3770705,48.4724236 48.0812555,48.0125295 C48.2222467,47.6089574 48.4549229,47.2892601 48.4728524,46.7734495 C49.2393392,46.9610538 50.172489,46.8326076 50.836696,46.5080481 C50.0685793,46.4225524 49.2169273,46.4282251 48.7087885,46.0643618 C48.5225661,45.5291019 48.7544273,44.7997546 48.6305507,44.0566307 C50.4536564,43.5452771 52.5359251,43.2729875 54.8406828,43.2057254 C55.2889207,43.7851514 55.4417291,44.888897 55.3887555,45.982918 Z M25.6248634,49.401531 C25.2555562,49.6632857 22.7573227,52.8955099 22.4150727,52.761391 C17.8945121,50.9886718 13.6675881,47.9233871 9.89036894,45.0242315 C13.4917159,37.3401116 14.9454736,27.9258584 15.2023546,18.8520887 C19.3278546,16.933419 22.9514912,14.1674908 28.5496971,13.8786693 C27.9018711,18.4362797 27.3105231,22.5024721 26.9428051,26.7933846 C25.5361938,27.3829808 23.5181454,26.7666418 22.201793,26.9762076 C22.1906278,28.5535833 24.2121806,27.6669401 24.3805551,28.7276947 C24.5074471,29.5300173 23.2682731,29.5907962 23.6717687,30.8541879 C24.7008414,30.4822208 25.2412533,29.660611 26.3387434,29.3520971 C27.3415738,31.533656 26.3247258,35.3936052 26.4692621,37.2169735 C26.4966454,37.559321 26.6411817,39.1136412 27.4123954,38.8409058 C28.0949394,38.5995324 27.3733987,34.7071678 27.4482137,32.9814509 C27.5163458,31.3915143 27.2551046,29.8530776 27.9026454,28.8549658 C33.3122247,29.5871495 38.8093326,30.0604149 44.6624229,30.2201014 C43.3747577,30.7695026 41.8450441,31.2894462 40.1679009,32.2294533 C39.2587115,32.739105 36.3927599,33.799576 36.1304185,34.658261 C35.7118051,36.0265571 37.2287236,36.7554182 37.4881718,37.9284518 C34.7575474,36.4475931 34.2247963,39.3478833 33.5788447,41.4026168 C32.9935683,43.263668 32.6604053,44.6538851 32.5168062,45.7272412 C30.1645352,46.8423323 27.649554,47.9716051 25.6248634,49.401531 Z M52.9996476,52.3703798 C56.7660683,54.1864547 57.4449449,45.5829925 55.9686123,42.8114727 C56.1968062,41.9848791 56.98163,41.6684233 57.3019163,40.9252995 C55.2000881,37.181357 52.8655837,33.6865677 50.7209692,29.9866698 C52.3162885,30.9741655 54.594967,30.1632934 56.4722687,30.9024464 C57.1584802,31.1723049 57.6552093,32.7343643 58.1747577,33.9839794 C59.6038216,37.4219606 61.104196,41.7563502 61.771663,45.0371976 C61.9224339,45.7847786 62.3331828,47.4136543 62.2410903,48.0789812 C62.0768722,49.2702485 60.4513987,50.1535691 59.6246035,50.8902099 C58.1014097,52.2508479 57.1421806,53.4481931 55.5533811,54.720499 C54.909141,53.7747786 53.5265308,53.1394361 52.9996476,52.3703798 Z M17.011076,85.5832365 C15.2163722,83.6196714 15.5920363,79.9405193 15.8093095,77.3229728 C19.0532885,79.3521791 23.3589802,77.1625164 23.3183943,73.7110827 C24.8671784,73.7520072 23.8969879,75.6345337 23.6168392,76.8472762 C22.701293,80.8084426 25.1592665,85.1119971 23.7282874,88.7344221 C20.9498645,88.5249374 18.6672742,87.396475 17.011076,85.5832365 Z M29.8525617,96.9796937 C25.7896112,95.8346184 20.5824725,92.8989954 18.9129086,89.269682 C20.2057081,89.456476 21.1031619,90.1047847 22.3784802,90.1850129 C22.8604581,90.2162128 23.4919031,89.9840372 24.0458436,90.1209924 C25.1497313,90.3932821 26.0813733,92.8544242 26.9141586,93.7701603 C27.7259581,94.6644211 28.7016905,95.0465181 29.3694427,95.8617663 C29.7984471,96.0676043 30.4327445,96.0534226 30.4571123,96.6940327 C30.2711751,96.8917668 30.0753767,97.0424986 29.8525617,96.9796937 Z M51.0025441,95.9026908 C46.7854405,98.2686125 39.6474152,100.04822 35.1615319,97.824521 C31.5418888,96.0299214 26.6491278,93.0606674 24.9809901,89.2980455 C26.5393095,85.6671114 24.5193866,82.340072 24.390457,78.6536265 C24.3219989,76.6920873 25.3192467,74.9797419 25.3956509,72.844375 C24.8624108,71.9695634 23.2332291,71.861782 22.1054626,71.9217506 C21.7258458,73.8107602 21.061272,75.9339713 19.1050396,76.1471028 C16.336967,76.4481612 14.3130507,74.1701663 14.1872996,71.7896577 C14.0384846,68.9901795 16.3496806,64.3503149 19.6255253,64.6724433 C20.8909824,64.7968376 21.2018557,66.0582033 22.5806355,66.0452371 C23.3279295,64.562636 21.4278899,64.0970693 21.2324174,63.0366793 C21.1814813,62.7627689 21.3899934,61.6922491 21.5112621,61.190215 C22.1062775,58.7456859 23.4326949,55.5819392 24.7382489,53.720888 C26.3952621,51.3602338 29.6507324,51.0044744 33.1530595,50.7731092 C33.7785958,52.1130823 36.0829868,52.0028698 37.5845022,51.6523779 C35.7850308,52.3610604 34.1120848,54.0790786 32.7256443,55.5997677 C31.1330958,57.3445286 29.5198877,59.2161149 29.4383899,61.4965409 C32.4478998,57.3449338 34.9342346,53.7192672 40.4066894,51.8930625 C44.547511,50.5121649 49.3835903,52.5259739 52.5652643,54.7476469 C53.8855286,55.6710817 54.6736123,57.1362594 55.6120595,58.4774481 C59.1233921,63.4998149 60.7619053,70.6684888 60.401685,77.6167377 C60.253359,80.4822623 60.2598789,83.3380623 59.2929075,85.2659704 C58.2823348,87.2818054 54.8643172,89.0853192 52.8635463,87.2619509 C52.4927313,89.2222745 54.5273238,90.4346118 56.9172467,89.7291709 C55.2131278,91.9159973 53.4246586,94.5436736 51.0025441,95.9026908 Z M58.8593392,31.2471845 C62.1547026,32.8761818 68.3118612,35.6318181 70.3778304,31.2411877 C71.1402423,29.622766 72.0346806,26.8869436 72.4295374,25.2162925 C72.9873899,22.8593661 71.8248238,17.9053959 69.3884471,17.1144998 C67.2364978,16.4160281 64.7255507,16.4585734 62.1335132,16.976329 C61.828304,17.2287642 61.4884581,17.6688037 61.2508921,18.1274822 C59.4000771,18.1988772 57.6670264,18.0286961 56.2049559,17.2721604 C56.3435022,15.9111172 55.4176872,15.6926777 54.5497357,15.4123652 C53.9063106,12.8754926 55.8369934,9.56255388 55.3749009,7.24930727 C55.0452423,5.60130646 53.0061674,5.3464806 51.5074229,5.03816928 C51.4585242,4.12235215 51.5730286,3.35787864 51.6753084,2.58310513 C51.3326101,1.32748102 49.7955617,0.612696328 48.339196,0.437640813 C43.547533,-0.135327966 36.2721024,-0.392689112 31.6631575,1.25530805 C30.3770407,4.39221066 29.3638601,8.2075481 28.2926123,11.7895349 C23.7975198,11.3121771 20.1619438,13.7181724 16.7345947,15.294454 C15.547946,15.8414645 13.9063767,16.1428065 13.4630694,17.0820438 C13.0332907,17.9913779 13.209163,19.7341533 13.1025231,21.3804118 C12.8311355,25.5850991 12.5987445,29.6406755 11.4821024,33.9458507 C10.980728,35.8777702 10.1068271,37.5824575 9.49718282,39.4439545 C8.93370705,41.1692256 7.94921366,43.301351 7.69245485,45.0218003 C7.31173789,47.5716796 9.72639537,47.7134971 11.2704119,48.8184583 C13.6572379,50.5271571 15.53075,51.472067 18.1157379,53.0142315 C18.8813689,53.4708839 21.1902423,54.6268994 21.4528689,55.159323 C21.9749438,56.2148507 20.5567192,57.7031244 20.1775507,58.5305284 C19.5777676,59.8388965 19.2649791,60.9503408 19.1790396,62.2412856 C17.010587,62.5820528 15.3667764,63.865299 14.373848,65.312243 C12.7313414,67.7069334 11.5922467,72.1373133 13.0133645,75.5073031 C13.1248128,75.7727045 13.6806278,76.294593 13.7626145,76.7022172 C13.9243469,77.5049044 13.458261,78.5721827 13.4292885,79.4259242 C13.2799846,83.8060601 14.1745859,87.5800274 17.1400055,88.9009564 C18.3438502,93.6696724 22.6525573,95.2551925 26.7120033,97.6251661 C28.2294515,98.5109179 29.9021938,99.0769725 31.6297434,99.7090735 C37.8269174,101.976938 47.3351432,101.549865 52.4784692,97.6818931 C54.6593502,96.041672 58.1454185,92.5784878 59.3923348,90.0711537 C62.6856608,83.4515163 62.4517621,72.3885329 60.1482269,64.3361332 C59.8385352,63.2550784 59.3894824,61.6659116 58.7623568,60.3672681 C58.3251211,59.4604463 56.9661454,57.6459922 57.1311784,56.8453309 C57.3011013,56.0175217 60.2297247,53.8063837 60.8576652,53.204267 C61.9884471,52.1195654 64.1367291,50.6799148 64.3107269,49.311173 C64.4977643,47.8545043 63.6652643,45.8617653 63.2435132,44.4561509 C61.8336013,39.7652725 60.4579185,35.4292216 58.8593392,31.2471845 Z" id="path130" fill="#231F20"></path>
                        <path d="M36.8740859,63.7186191 C37.0528513,63.9552518 38.0357555,64.3146579 39.4110308,63.6562194 C39.4110308,63.6562194 37.7810749,63.3859557 37.9166872,60.6837238 L37.2374846,60.8190583 C37.2374846,60.8190583 36.5355441,63.2692601 36.8740859,63.7186191" id="path132" fill="#F7E4CD"></path>
                        <path d="M48.783359,40.4925534 C48.783359,40.0824576 48.4488106,39.7499157 48.0360242,39.7499157 C47.6236454,39.7499157 47.2890969,40.0824576 47.2890969,40.4925534 C47.2890969,40.9026087 47.6236454,41.2356773 48.0360242,41.2356773 C48.4488106,41.2356773 48.783359,40.9026087 48.783359,40.4925534" id="path134" fill="#1D1919"></path>
                        <path d="M49.5302863,37.0484132 C49.5302863,36.6383174 49.1957379,36.3057755 48.7829515,36.3057755 C48.3705727,36.3057755 48.0360242,36.6383174 48.0360242,37.0484132 C48.0360242,37.458509 48.3705727,37.7915371 48.7829515,37.7915371 C49.1957379,37.7915371 49.5302863,37.458509 49.5302863,37.0484132" id="path136" fill="#1D1919"></path>
                    </g>
                </g>
            </g>
        </g>
    </g>
</svg>