<svg id="Layer_1" xmlns="http://www.w3.org/2000/svg" viewBox="0 0 2500 2500"><style>.st0{fill:url(#SVGID_1_)}.st1{fill:#fff}</style><title>icon_Kotlin</title><linearGradient id="SVGID_1_" gradientUnits="userSpaceOnUse" x1="208.45" y1="2291.6" x2="2223.519" y2="276.531" gradientTransform="matrix(1 0 0 -1 0 2500)"><stop offset="0" stop-color="#6adbff"/><stop offset="1" stop-color="#0045aa"/></linearGradient><path class="st0" d="M2119.8 2314.8H380.2c-107.2 0-195-87.7-195-195V380.2c0-107.2 87.7-195 195-195h1739.7c107.2 0 195 87.7 195 195v1739.7c-.1 107.2-87.8 194.9-195.1 194.9z"/><path class="st1" d="M384.8 1462.7V950.3h114.7v48.2h-62.2v415.4h62.2v48.8H384.8zm320.6-472.2c99.7 0 193.5 73.4 193.5 197.8 0 124.9-93.8 198.3-193.5 198.3s-193-73.4-193-198.3c0-124.4 93.3-197.8 193-197.8zm0 335c64.3 0 127.6-45.6 127.6-137.2s-63.2-137.2-127.6-137.2c-63.8 0-127 45.6-127 137.2s63.2 137.2 127 137.2zm255.1 53v-388h61.1v159.2c11.8-20.4 41.8-39.1 82-39.1 78.3 0 120.6 59.5 120.6 136.1 0 78.8-46.6 138.3-122.7 138.3-37 0-65.4-16.1-80.4-41.3v34.8h-60.6zm130.8-212.7c-39.7 0-70.2 29.5-70.2 81.5 0 51.5 30.6 82.5 70.2 82.5 40.7 0 70.2-31.1 70.2-82.5 0-52.1-29-81.5-70.2-81.5zm192.9-48.3h62.2v287.3c0 48.8-29.5 83.6-77.7 83.6-20.9 0-32.7-3.8-35.4-4.8v-51.5c2.7.5 11.8 1.6 18.8 1.6 23.6 0 32.2-12.3 32.2-33.8l-.1-282.4zm30.6-132.9c22.5 0 40.7 18.2 40.7 40.7 0 22-18.2 40.2-40.7 40.2-22 0-40.2-18.2-40.2-40.2 0-22.5 18.2-40.7 40.2-40.7zm95.9 264.8v-55.2h151.2v55.2h-151.2zm197.8-60.6c0-123.8 92.7-198.3 191.4-198.3 96.5 0 153.8 56.8 171 123.3l-60.6 20.4c-11.3-46.1-46.6-83.1-110.4-83.1-62.7 0-125.4 45.6-125.4 137.8 0 89 61.1 136.1 126 136.1 63.8 0 100.2-40.7 113.1-83.6l59 19.3c-17.2 64.3-75 126-172.1 126-102.5-.1-192-74.1-192-197.9zm384.8 273.9v-48.8h62.2V998.5h-62.2v-48.2H2108v512.4h-114.7z"/></svg>