<svg id="Ebene_1" xmlns="http://www.w3.org/2000/svg" viewBox="0 0 500.2 616.9"><style>.st0{fill-rule:evenodd;clip-rule:evenodd;fill:#fff}</style><path class="st0" d="M274.9 54.2c40-52.7 95.6-53 95.6-53s8.3 49.6-31.5 97.3c-42.4 51-90.6 42.6-90.6 42.6s-9.1-40.1 26.5-86.9zm-21.4 121.7c20.6 0 58.8-28.3 108.5-28.3 85.6 0 119.2 60.9 119.2 60.9s-65.8 33.7-65.8 115.3c0 92.1 82 123.9 82 123.9S440 609 362.6 609c-35.6 0-63.2-24-100.7-24-38.2 0-76.1 24.9-100.8 24.9-70.7 0-160-153.1-160-276.1 0-121.1 75.6-184.6 146.5-184.6 46.1.1 81.9 26.7 105.9 26.7z"/></svg>