<?xml version="1.0" encoding="UTF-8"?>
<svg width="78px" height="79px" viewBox="0 0 78 79" version="1.1" xmlns="http://www.w3.org/2000/svg" xmlns:xlink="http://www.w3.org/1999/xlink">
    <!-- Generator: Sketch 52.3 (67297) - http://www.bohemiancoding.com/sketch -->
    <title>Ansible_logo</title>
    <desc>Created with Sketch.</desc>
    <g id="Page-1" stroke="none" stroke-width="1" fill="none" fill-rule="evenodd">
        <g id="DevOps" transform="translate(-842.000000, -7194.000000)" fill-rule="nonzero">
            <g id="Group-47" transform="translate(0.000000, 6588.000000)">
                <g id="Group-34" transform="translate(710.000000, 491.000000)">
                    <g id="Ansible_logo" transform="translate(132.000000, 115.000000)">
                        <g id="Group">
                            <path d="M77.9630006,39.2294144 C77.9630006,60.8447787 60.5622755,78.3657727 39.0951682,78.3657727 C17.6298971,78.3657727 0.227335669,60.8447787 0.227335669,39.2294144 C0.227335669,17.6155911 17.6298971,0.0925936892 39.0951682,0.0925936892 C60.5622755,0.0925936892 77.9630006,17.6155911 77.9630006,39.2294144" id="Shape" fill="#CE0000"></path>
                            <path d="M39.7494895,24.0003181 L49.8077105,48.9969161 L34.6149396,36.9466387 L39.7494895,24.0003181 Z M57.6177292,54.7551678 L42.146133,17.2640463 C41.7044812,16.182785 40.8213299,15.6106426 39.7494895,15.6106426 C38.6756599,15.6106426 37.728235,16.182785 37.2865828,17.2640463 L20.3054732,58.3871086 L26.1144378,58.3871086 L32.8365479,41.431939 L52.8968264,57.7504021 C53.7036142,58.4072949 54.2857505,58.7043834 55.0424967,58.7043834 C56.5579785,58.7043834 57.8826288,57.5604069 57.8826288,55.9091606 C57.8826288,55.6404247 57.7883606,55.2138989 57.6177292,54.7551678 Z" id="Shape" fill="#FFFFFF"></path>
                        </g>
                    </g>
                </g>
            </g>
        </g>
    </g>
</svg>