<svg width="127" height="99" viewBox="0 0 127 99" xmlns="http://www.w3.org/2000/svg"><title>bitcoin (2)</title><defs><linearGradient x1="0%" y1="50%" y2="50%" id="a"><stop stop-color="#865EE8" offset="0%"/><stop stop-color="#6536E2" offset="100%"/></linearGradient></defs><g fill="none"><path d="M73.26 44.15c0-4.204-3.392-7.639-7.621-7.795v-.82c0-1.346-1.109-2.438-2.476-2.438s-2.476 1.092-2.476 2.438v.812h-5.346c-1.367 0-2.476 1.092-2.476 2.439 0 1.346 1.109 2.438 2.476 2.438h.153v16.58h-.153c-1.367 0-2.476 1.092-2.476 2.439 0 1.346 1.109 2.438 2.476 2.438h5.346v.777c0 1.347 1.109 2.439 2.476 2.439s2.476-1.092 2.476-2.439v-.784c4.229-.156 7.62-3.592 7.62-7.795a7.71 7.71 0 0 0-2.176-5.364 7.712 7.712 0 0 0 2.177-5.365zm-7.922 13.655h-4.893v-5.852h4.893c1.638 0 2.97 1.312 2.97 2.926 0 1.613-1.332 2.926-2.97 2.926zm0-10.73h-4.893v-5.851h4.893c1.638 0 2.97 1.312 2.97 2.926 0 1.613-1.332 2.926-2.97 2.926z" fill="url(#a)"/><path d="M117.59 80.715c-4.212 0-7.767 2.816-8.832 6.636h-6.048L86.792 71.672a2.496 2.496 0 0 0-1.75-.714h-6.173a26.27 26.27 0 0 0 11.116-19.023h18.791c1.083 3.793 4.624 6.583 8.817 6.583 5.05 0 9.16-4.047 9.16-9.022 0-4.975-4.11-9.022-9.16-9.022-4.193 0-7.734 2.79-8.817 6.584H89.994a25.901 25.901 0 0 0-3.326-10.49 26.32 26.32 0 0 0-7.805-8.534h6.18c.657 0 1.287-.257 1.751-.714l15.919-15.68h6.045c1.063 3.825 4.62 6.645 8.835 6.645 5.05 0 9.16-4.048 9.16-9.022 0-4.975-4.11-9.022-9.16-9.022-4.171 0-7.697 2.76-8.8 6.523h-7.106c-.657 0-1.286.257-1.75.714l-15.919 15.68H42.737L26.819 7.478a2.496 2.496 0 0 0-1.751-.714h-7.106c-1.103-3.762-4.63-6.523-8.8-6.523-5.05 0-9.16 4.048-9.16 9.022 0 4.975 4.11 9.022 9.16 9.022 4.216 0 7.773-2.82 8.835-6.644h6.045l15.919 15.68a2.496 2.496 0 0 0 1.75.714h6.172a26.248 26.248 0 0 0-11.134 19.023H17.977c-1.083-3.794-4.625-6.583-8.817-6.583-5.05 0-9.16 4.047-9.16 9.021 0 4.975 4.11 9.022 9.16 9.022 4.193 0 7.733-2.79 8.817-6.583h18.771c.033.352.072.703.12 1.055.181 1.335 1.428 2.272 2.781 2.094 1.356-.178 2.308-1.405 2.127-2.74a21.51 21.51 0 0 1-.192-2.751c.001-.033.005-.064.005-.097 0-.034-.004-.068-.005-.102.022-7.66 4.17-14.747 11.097-18.592 10.465-5.808 23.777-2.147 29.673 8.161 5.897 10.308 2.18 23.42-8.286 29.228a22.054 22.054 0 0 1-9.998 2.767h-1.325a21.953 21.953 0 0 1-12.883-4.622 2.501 2.501 0 0 0-3.477.402 2.413 2.413 0 0 0 .408 3.425c.355.276.717.54 1.083.796h-6.167c-.657 0-1.286.257-1.75.714l-15.92 15.679h-6.047c-1.065-3.82-4.62-6.637-8.832-6.637-5.05 0-9.16 4.047-9.16 9.022 0 4.975 4.11 9.022 9.16 9.022 4.173 0 7.7-2.765 8.801-6.531h7.104c.657 0 1.286-.257 1.75-.714l15.92-15.68h41.28l15.919 15.68a2.496 2.496 0 0 0 1.75.714h7.104c1.1 3.767 4.628 6.53 8.802 6.53 5.05 0 9.16-4.046 9.16-9.021 0-4.975-4.11-9.022-9.16-9.022zm.003-35.364c2.32 0 4.208 1.86 4.208 4.145 0 2.286-1.888 4.146-4.208 4.146-2.32 0-4.209-1.86-4.209-4.146 0-2.285 1.888-4.145 4.209-4.145zm0-40.233c2.32 0 4.208 1.86 4.208 4.145 0 2.286-1.888 4.146-4.208 4.146-2.32 0-4.209-1.86-4.209-4.146 0-2.285 1.888-4.145 4.209-4.145zm-108.43 8.29c-2.321 0-4.21-1.86-4.21-4.145 0-2.286 1.889-4.145 4.21-4.145 2.32 0 4.208 1.86 4.208 4.145 0 2.286-1.888 4.145-4.209 4.145zM9.16 53.641c-2.321 0-4.209-1.86-4.209-4.145 0-2.286 1.888-4.145 4.209-4.145 2.32 0 4.208 1.86 4.208 4.145 0 2.286-1.888 4.145-4.208 4.145zm0 40.241c-2.321 0-4.209-1.86-4.209-4.145 0-2.286 1.888-4.145 4.209-4.145 2.32 0 4.208 1.86 4.208 4.145 0 2.286-1.888 4.145-4.208 4.145zm108.43 0c-2.32 0-4.208-1.86-4.208-4.145 0-2.286 1.887-4.145 4.208-4.145 2.32 0 4.209 1.86 4.209 4.145 0 2.286-1.888 4.145-4.209 4.145z" fill="#A2A2AF"/><path d="M44.388 60.035c-.67-1.174-2.19-1.585-3.381-.925a2.419 2.419 0 0 0-.944 3.321 2.481 2.481 0 0 0 2.16 1.244c.41 0 .828-.101 1.211-.314l.02-.01a2.41 2.41 0 0 0 .934-3.316zM86.308.241H63.779c-1.367 0-2.475 1.092-2.475 2.439 0 1.346 1.108 2.438 2.475 2.438h22.529c1.367 0 2.476-1.092 2.476-2.438 0-1.347-1.109-2.439-2.476-2.439z" fill="#A2A2AF"/><path d="M58.946 9.507h-15.04c-1.367 0-2.475 1.092-2.475 2.439 0 1.346 1.108 2.438 2.475 2.438h15.04c1.367 0 2.476-1.092 2.476-2.438 0-1.347-1.109-2.439-2.476-2.439zm56.778 13.711h-15.04c-1.368 0-2.476 1.092-2.476 2.439 0 1.346 1.108 2.438 2.476 2.438h15.04c1.367 0 2.475-1.092 2.475-2.438 0-1.347-1.108-2.439-2.475-2.439zm-84.84 47.687h-15.04c-1.367 0-2.476 1.092-2.476 2.439 0 1.346 1.109 2.438 2.476 2.438h15.04c1.367 0 2.475-1.092 2.475-2.438 0-1.347-1.108-2.439-2.475-2.439z" fill="#7142EB"/><path d="M69.606 94.588a2.514 2.514 0 0 0-1.75-.715c-.652 0-1.29.26-1.75.715a2.439 2.439 0 0 0-.726 1.726c0 .641.265 1.27.725 1.724a2.51 2.51 0 0 0 3.5 0 2.442 2.442 0 0 0 .726-1.724c0-.644-.265-1.273-.725-1.726zm-12.024-.714H36.281c-1.367 0-2.476 1.092-2.476 2.439 0 1.346 1.109 2.438 2.476 2.438h21.301c1.367 0 2.476-1.092 2.476-2.438 0-1.347-1.109-2.439-2.476-2.439z" fill="#A2A2AF"/><path d="M83.303 84.609H63.38c-1.367 0-2.475 1.092-2.475 2.438 0 1.347 1.108 2.439 2.475 2.439h19.923c1.367 0 2.475-1.092 2.475-2.439 0-1.346-1.108-2.438-2.475-2.438z" fill="#7142EB"/></g></svg>