<svg xmlns="http://www.w3.org/2000/svg" width="120" height="123" viewBox="0 0 120 123"><defs><linearGradient id="a" x1="0%" y1="50%" y2="50%"><stop offset="0%" stop-color="#865EE8"/><stop offset="100%" stop-color="#6536E2"/></linearGradient></defs><g fill="none" fill-rule="evenodd" transform="translate(0 -.402)"><path fill="#A2A2AF" d="M59.973 42.322c.517 0 1.012.205 1.376.57a6.334 6.334 0 0 0 3.403 1.78 6.409 6.409 0 0 0 3.13-.229l-3.13-5.014a1.944 1.944 0 0 1 2.99-2.437l4.25 4.047a6.373 6.373 0 0 0 4.452 1.806l.116-.002a6.385 6.385 0 0 0 2.923-.762l-5.878-5.677a1.944 1.944 0 0 1 2.409-3.028l6.972 4.526a6.39 6.39 0 0 0 4.812.895 6.347 6.347 0 0 0 2.727-1.309l-6.855-4.452a1.944 1.944 0 0 1 1.786-3.43l7.707 3.112a6.383 6.383 0 0 0 4.895-.04 6.377 6.377 0 0 0 2.426-1.8l-7.58-3.066a1.943 1.943 0 0 1 1.1-3.709l8.162 1.59a6.434 6.434 0 0 0 4.797-.978 6.362 6.362 0 0 0 2.039-2.23l-8.026-1.56a1.945 1.945 0 0 1 .371-3.852h8.315a6.358 6.358 0 0 0 4.524-1.874 6.346 6.346 0 0 0 1.573-2.578H78.157c-.973 9.175-8.757 16.346-18.184 16.346-9.43 0-17.214-7.17-18.187-16.346H4.185c.306.963.84 1.844 1.574 2.578a6.359 6.359 0 0 0 4.523 1.873h8.313c1 0 1.838.762 1.935 1.757a1.946 1.946 0 0 1-1.564 2.095l-8.021 1.56a6.348 6.348 0 0 0 2.037 2.231 6.438 6.438 0 0 0 4.8.977l8.158-1.589a1.946 1.946 0 0 1 2.234 1.356 1.941 1.941 0 0 1-1.135 2.353l-7.578 3.065a6.387 6.387 0 0 0 2.426 1.801 6.383 6.383 0 0 0 4.895.04l7.709-3.113a1.943 1.943 0 1 1 1.786 3.431l-6.856 4.452a6.403 6.403 0 0 0 7.538.415l6.973-4.527a1.943 1.943 0 1 1 2.408 3.028l-5.88 5.676a6.39 6.39 0 0 0 2.928.763l.114.002a6.37 6.37 0 0 0 4.44-1.797l4.26-4.056a1.943 1.943 0 0 1 2.989 2.437l-3.13 5.013a6.423 6.423 0 0 0 3.133.23 6.35 6.35 0 0 0 3.404-1.78c.364-.365.859-.57 1.375-.57m5.897 6.333c-.596 0-1.2-.054-1.792-.157a10.217 10.217 0 0 1-4.106-1.7 10.186 10.186 0 0 1-4.104 1.7c-2.7.47-5.457-.145-7.686-1.705a1.94 1.94 0 0 1-.688-.867 10.233 10.233 0 0 1-3.992.805l-.183-.002a10.224 10.224 0 0 1-7.22-3.14 1.937 1.937 0 0 1-.51-.984 10.328 10.328 0 0 1-4.25-.007 10.211 10.211 0 0 1-6.486-4.462 1.93 1.93 0 0 1-.313-1.062c-1.445-.012-2.843-.254-4.173-.818a10.226 10.226 0 0 1-5.514-5.61 1.94 1.94 0 0 1-.106-1.109 10.236 10.236 0 0 1-3.94-1.6 10.213 10.213 0 0 1-4.342-6.562 1.932 1.932 0 0 1 .108-1.103 10.287 10.287 0 0 1-3.561-2.324A10.209 10.209 0 0 1 0 10.678c0-1.073.869-1.944 1.943-1.944h41.683c1.074 0 1.944.871 1.944 1.943 0 7.942 6.46 14.403 14.403 14.403 7.94 0 14.4-6.46 14.4-14.403 0-1.072.87-1.943 1.944-1.943H118c1.074 0 1.944.871 1.944 1.943 0 2.752-1.07 5.333-3.012 7.272a10.264 10.264 0 0 1-3.56 2.322c.14.338.184.718.11 1.104a10.221 10.221 0 0 1-4.345 6.562 10.25 10.25 0 0 1-3.94 1.6c.074.37.04.753-.104 1.107a10.227 10.227 0 0 1-5.515 5.611 10.355 10.355 0 0 1-4.172.82c.002.362-.1.733-.313 1.061a10.211 10.211 0 0 1-6.487 4.462c-1.411.298-2.87.297-4.253.006a1.933 1.933 0 0 1-.51.984 10.213 10.213 0 0 1-7.215 3.141l-.184.002c-1.391 0-2.743-.277-3.993-.805a1.938 1.938 0 0 1-.688.866 10.216 10.216 0 0 1-5.893 1.863"/><path fill="#A2A2AF" d="M58.029 123.254h3.887V19.009h-3.887z"/><path fill="#A2A2AF" d="M59.973 4.29a6.396 6.396 0 0 0-6.39 6.388 6.396 6.396 0 0 0 6.39 6.388 6.397 6.397 0 0 0 6.39-6.388 6.397 6.397 0 0 0-6.39-6.389m0 16.663c-5.666 0-10.275-4.609-10.275-10.274 0-5.666 4.609-10.276 10.275-10.276s10.276 4.61 10.276 10.276c0 5.665-4.61 10.274-10.276 10.274"/><circle cx="59.5" cy="11.5" r="10.5" fill="url(#a)"/><path fill="#A2A2AF" d="M72.28 90.764l-2.564-2.923c1.703-1.491 2.602-3.252 2.602-5.091 0-2.117-1.205-4.15-3.393-5.725-2.333-1.69-5.595-2.656-8.953-2.656-5.17 0-10.057-1.472-13.76-4.147-3.894-2.807-6.037-6.606-6.037-10.698 0-4.083 2.143-7.881 6.035-10.694l2.276 3.15c-2.853 2.063-4.426 4.742-4.426 7.544 0 2.808 1.572 5.489 4.425 7.547 3.048 2.2 7.127 3.413 11.487 3.413 4.217 0 8.205 1.203 11.228 3.389 3.225 2.324 5.005 5.477 5.005 8.877 0 2.949-1.395 5.795-3.926 8.014m-6.127 28.174l-2.269-3.154c.826-.595 1.28-1.329 1.28-2.069 0-.746-.452-1.478-1.274-2.065-1.007-.734-2.427-1.149-3.917-1.149-3.173 0-6.2-.892-8.529-2.51a3.393 3.393 0 0 1-.222-.16 9.994 9.994 0 0 1-2.213-2.159c-1.094-1.423-1.685-3.117-1.685-4.864 0-1.43.39-2.799 1.157-4.068l3.326 2.01c-.396.656-.596 1.347-.596 2.058 0 .896.303 1.746.903 2.527a6.23 6.23 0 0 0 1.414 1.368l.112.08c1.687 1.181 3.936 1.832 6.333 1.832 2.328 0 4.527.67 6.191 1.885 1.828 1.302 2.886 3.209 2.886 5.216 0 1.994-1.056 3.898-2.897 5.222m7.252-48.491l-2.084-3.28.116-.08c2.877-2.076 4.448-4.756 4.448-7.564 0-2.8-1.572-5.479-4.426-7.543l2.277-3.15c3.893 2.814 6.035 6.613 6.035 10.693 0 4.09-2.143 7.89-6.037 10.698a6.731 6.731 0 0 1-.329.226m-19.618 48.489c-1.807-1.303-2.83-3.095-2.884-5.045l3.885-.104c.02.71.472 1.42 1.273 1.999l-2.274 3.15zm17.137-13.238l-3.09-2.358c.6-.785.902-1.636.902-2.532 0-1.425-.826-2.806-2.325-3.89-1.674-1.21-4.02-1.905-6.437-1.905-4.214 0-8.202-1.202-11.232-3.385-3.217-2.328-4.988-5.48-4.988-8.878 0-2.69 1.113-5.239 3.22-7.368l2.763 2.732c-1.371 1.388-2.096 2.991-2.096 4.636 0 2.117 1.199 4.151 3.377 5.726 2.336 1.685 5.6 2.652 8.956 2.652 3.264 0 6.359.937 8.713 2.64 2.538 1.831 3.936 4.333 3.936 7.04 0 1.743-.588 3.434-1.7 4.89"/></g></svg>