<svg width="100" height="100" viewBox="0 0 100 100" xmlns="http://www.w3.org/2000/svg"><title>brain (1)</title><g fill="none" fill-rule="evenodd"><path d="M49.905.003h-8.317c-17.217.02-31.17 13.972-31.19 31.189v3.495L.26 53.06a2.093 2.093 0 0 0-.257 1.005 6.063 6.063 0 0 0 6.238 6.238 7.445 7.445 0 0 1 4.158 1.557v6.76a8.082 8.082 0 0 0 8.317 8.317h12.476a6.063 6.063 0 0 0 6.238-6.238V58.222H33.27v12.476a1.903 1.903 0 0 1-2.08 2.08H18.717a3.917 3.917 0 0 1-4.158-4.158v-7.753a2.08 2.08 0 0 0-.701-1.557 12.012 12.012 0 0 0-7.617-3.167l-.027.003a1.826 1.826 0 0 1-2.008-1.623L14.3 36.226c.168-.308.257-.653.258-1.005v-4.03c.017-14.92 12.109-27.013 27.03-27.03h8.292a1.91 1.91 0 0 1 2.104 2.08v10.396h4.16V6.24A6.063 6.063 0 0 0 49.905.003zM85.253 62.38H62.38v4.16h22.872a1.902 1.902 0 0 1 2.08 2.08l-.001 3.929c-.3 1.24-2.304 8.545-8.317 8.545a2.08 2.08 0 0 0-2.08 2.08v12.475H37.43v-6.237h-4.158v8.317a2.08 2.08 0 0 0 2.08 2.079h43.664a2.08 2.08 0 0 0 2.08-2.08V85.07c6.5-1.229 9.597-8.086 10.354-11.877.028-.137.042-.276.042-.416V68.62a6.063 6.063 0 0 0-6.238-6.238z" fill="#A2A2AF"/><path d="M97.728 24.954h-5.241a18.961 18.961 0 0 0-.755-1.815l3.71-3.71a2.08 2.08 0 0 0 0-2.94l-5.883-5.882a2.08 2.08 0 0 0-2.94 0l-3.71 3.71a19.242 19.242 0 0 0-1.815-.753V8.32a2.08 2.08 0 0 0-2.08-2.08h-8.316a2.08 2.08 0 0 0-2.08 2.08v5.244c-1.132.4-2.222.908-3.256 1.52l2.113 3.58a14.553 14.553 0 0 1 3.743-1.55 2.08 2.08 0 0 0 1.559-2.012V10.4h4.158v4.703a2.08 2.08 0 0 0 1.556 2.015c1.313.34 2.573.861 3.743 1.55a2.08 2.08 0 0 0 2.528-.321l3.327-3.327 2.942 2.936-3.327 3.327a2.08 2.08 0 0 0-.322 2.528 14.559 14.559 0 0 1 1.553 3.743 2.08 2.08 0 0 0 2.01 1.56h4.704v4.156h-4.7a2.08 2.08 0 0 0-2.01 1.56 14.559 14.559 0 0 1-1.553 3.742 2.08 2.08 0 0 0 .322 2.529l3.327 3.327-2.94 2.94-3.327-3.327a2.08 2.08 0 0 0-2.528-.32 14.553 14.553 0 0 1-3.743 1.549 2.08 2.08 0 0 0-1.56 2.012v4.704H72.78v-4.702c0-.948-.642-1.775-1.56-2.012a14.553 14.553 0 0 1-3.742-1.55 2.08 2.08 0 0 0-2.529.32l-3.326 3.327-2.94-2.94 3.327-3.327a2.08 2.08 0 0 0 .322-2.528 14.559 14.559 0 0 1-1.553-3.743 2.08 2.08 0 0 0-2.011-1.56h-6.783v4.16h5.244c.22.617.47 1.223.753 1.814l-3.71 3.71a2.08 2.08 0 0 0 0 2.94l5.883 5.882a2.08 2.08 0 0 0 2.94 0l3.71-3.71c.591.283 1.197.534 1.815.753v5.244a2.08 2.08 0 0 0 2.079 2.08h8.317a2.08 2.08 0 0 0 2.08-2.08v-5.242c.617-.22 1.223-.47 1.815-.752l3.709 3.707a2.08 2.08 0 0 0 2.94 0l5.882-5.882a2.08 2.08 0 0 0 0-2.94l-3.711-3.71c.283-.591.535-1.197.755-1.815h5.243a2.08 2.08 0 0 0 2.08-2.08v-8.316a2.08 2.08 0 0 0-2.08-2.079z" fill="#7142EB"/><path d="M74.856 22.875a8.317 8.317 0 1 0 0 16.634 8.317 8.317 0 0 0 0-16.634zm0 12.475a4.158 4.158 0 1 1 0-8.317 4.158 4.158 0 0 1 0 8.317z" fill="#A2A2AF" fill-rule="nonzero"/><path d="M31.192 33.271v2.08h-6.238v-2.08h-4.159v2.08a4.073 4.073 0 0 0 4.158 4.158h6.411a4.073 4.073 0 0 0 3.986-4.159v-2.079h-4.158z" fill="#7142EB"/><path d="M58.222 58.222a6.238 6.238 0 1 0 0 12.476 6.238 6.238 0 0 0 0-12.476zm0 8.317a2.08 2.08 0 1 1 0-4.158 2.08 2.08 0 0 1 0 4.158zM35.35 47.826a6.238 6.238 0 1 0 0 12.476 6.238 6.238 0 0 0 0-12.476zm0 8.317a2.08 2.08 0 1 1 0-4.159 2.08 2.08 0 0 1 0 4.16zM54.064 14.558a6.238 6.238 0 1 0 0 12.475 6.238 6.238 0 0 0 0-12.475zm0 8.317a2.08 2.08 0 1 1 0-4.16 2.08 2.08 0 0 1 0 4.16z" fill="#A2A2AF" fill-rule="nonzero"/><path fill="#A2A2AF" d="M43.667 33.271h4.158v4.158h-4.158zM43.667 41.588h4.158v4.158h-4.158zM33.271 81.094h4.158v4.158h-4.158z"/></g></svg>