<svg width="115" height="113" viewBox="0 0 115 113" xmlns="http://www.w3.org/2000/svg" xmlns:xlink="http://www.w3.org/1999/xlink"><title>Page 1</title><defs><path id="a" d="M0 .197h115v112.58H0z"/><linearGradient x1="0%" y1="50%" y2="50%" id="c"><stop stop-color="#865EE8" offset="0%"/><stop stop-color="#6536E2" offset="100%"/></linearGradient></defs><g fill="none" fill-rule="evenodd"><g transform="translate(0 .026)"><mask id="b" fill="#fff"><use xlink:href="#a"/></mask><path d="M38.453 77.444a.839.839 0 0 1-.84-.835V35.314c0-.461.376-.836.84-.836h41.533c.464 0 .84.375.84.836v41.295c0 .46-.376.835-.84.835H38.453zm25.86 24.507l-5.094 5.063-5.092-5.063 5.092-5.064 5.093 5.064zM54.417 9.745c0-2.632 2.154-4.774 4.801-4.774 2.648 0 4.802 2.142 4.802 4.774s-2.154 4.774-4.802 4.774c-2.647 0-4.801-2.141-4.801-4.774zM9.603 60.735c-2.647 0-4.801-2.141-4.801-4.774 0-2.632 2.154-4.774 4.801-4.774 2.648 0 4.802 2.142 4.802 4.774 0 2.633-2.154 4.774-4.802 4.774zm94.508-9.838l5.093 5.064-5.093 5.064-5.093-5.064 5.093-5.064zm8.488 38.482H76.025v-7.16h3.961c3.111 0 5.642-2.517 5.642-5.61V72.67h9.603c1.325 0 2.4-1.068 2.4-2.387a2.394 2.394 0 0 0-2.4-2.387h-9.603v-9.548h9l7.785 7.74a2.408 2.408 0 0 0 3.396 0l8.488-8.44a2.378 2.378 0 0 0 0-3.375l-8.488-8.44a2.409 2.409 0 0 0-3.396 0l-7.784 7.74h-9.001v-9.547h9.603c1.325 0 2.4-1.069 2.4-2.387v-7.52a2.394 2.394 0 0 0-2.4-2.386 2.394 2.394 0 0 0-2.4 2.387v5.132h-7.203v-3.939c0-3.093-2.531-5.609-5.642-5.609h-3.961v-9.548a2.394 2.394 0 0 0-2.4-2.387 2.394 2.394 0 0 0-2.402 2.387v9.548H61.62V18.991c4.137-1.063 7.202-4.805 7.202-9.246 0-5.265-4.308-9.548-9.603-9.548s-9.603 4.283-9.603 9.548c0 4.44 3.065 8.183 7.202 9.246v10.713h-9.603v-9.548a2.394 2.394 0 0 0-2.4-2.387 2.394 2.394 0 0 0-2.402 2.387v9.548h-3.96c-3.112 0-5.642 2.516-5.642 5.61v3.938h-7.203V2.584a2.394 2.394 0 0 0-2.4-2.387 2.394 2.394 0 0 0-2.401 2.387V41.64a2.394 2.394 0 0 0 2.4 2.387h9.604v9.548H18.902a9.61 9.61 0 0 0-9.299-7.161C4.308 46.413 0 50.696 0 55.961s4.308 9.548 9.603 9.548a9.61 9.61 0 0 0 9.3-7.161H32.81v9.548h-9.603a2.394 2.394 0 0 0-2.401 2.387v9.632a2.394 2.394 0 0 0 2.4 2.388 2.395 2.395 0 0 0 2.402-2.388V72.67h7.202v3.939c0 3.093 2.53 5.609 5.642 5.609h3.96v9.548a2.394 2.394 0 0 0 2.402 2.387c1.325 0 2.4-1.069 2.4-2.387v-9.548h9.604v10.305l-7.785 7.74a2.38 2.38 0 0 0 0 3.375l8.488 8.44a2.4 2.4 0 0 0 1.697.699 2.4 2.4 0 0 0 1.698-.7l8.488-8.439a2.38 2.38 0 0 0 0-3.375l-7.785-7.74V82.218h9.603v9.548a2.394 2.394 0 0 0 2.401 2.387H112.6a2.394 2.394 0 0 0 2.4-2.387 2.394 2.394 0 0 0-2.401-2.387z" fill="#A2A2AF" mask="url(#b)"/></g><path d="M95.231 15.886c1.326 0 2.4-1.069 2.4-2.387V8.486h13.045c1.326 0 2.4-1.069 2.4-2.387a2.394 2.394 0 0 0-2.4-2.387H95.231a2.394 2.394 0 0 0-2.4 2.387v7.4a2.394 2.394 0 0 0 2.4 2.387M23.208 97.6a2.394 2.394 0 0 0-2.401 2.387v6.366H5.682a2.394 2.394 0 0 0-2.4 2.387 2.394 2.394 0 0 0 2.4 2.387h17.526c1.325 0 2.4-1.069 2.4-2.387v-8.753a2.394 2.394 0 0 0-2.4-2.386m39.52-41.911a2.384 2.384 0 0 0-1.108 2.01v10.543h-4.8V57.7c0-.814-.418-1.572-1.107-2.011a6.458 6.458 0 0 1-3.018-5.47c0-3.577 2.927-6.488 6.525-6.488 3.598 0 6.526 2.911 6.526 6.489a6.458 6.458 0 0 1-3.017 5.47M59.22 38.957c-6.246 0-11.327 5.052-11.327 11.262 0 3.404 1.52 6.564 4.125 8.692v11.72a2.394 2.394 0 0 0 2.4 2.386h9.604c1.326 0 2.4-1.068 2.4-2.387V58.911a11.183 11.183 0 0 0 4.126-8.692c0-6.21-5.082-11.262-11.328-11.262" fill="url(#c)"/><path d="M95.623 21.435a2.394 2.394 0 0 0-2.4 2.387v.24a2.394 2.394 0 0 0 2.4 2.386 2.394 2.394 0 0 0 2.401-2.387v-.239a2.394 2.394 0 0 0-2.4-2.387M23.208 87.376a2.394 2.394 0 0 0-2.401 2.387v.24a2.394 2.394 0 0 0 2.4 2.386 2.394 2.394 0 0 0 2.401-2.387v-.239a2.394 2.394 0 0 0-2.4-2.387" fill="#7142EB"/></g></svg>