<svg width="103" height="102" viewBox="0 0 103 102" xmlns="http://www.w3.org/2000/svg"><title>networking</title><g fill="none"><path d="M8.13 71.374a2.02 2.02 0 0 0-2.84 0 1.981 1.981 0 0 0 0 2.818l.011.01a2.014 2.014 0 0 0 2.834-.005 1.987 1.987 0 0 0-.005-2.823z" fill="#7549E5"/><path d="M101.247 43.728a2.014 2.014 0 0 0-2.65-1.013 1.986 1.986 0 0 0-1.02 2.63c1.758 3.93 1.534 8.426-.414 12.137a6.996 6.996 0 0 0-4.703-3.23l-.494-.09c.144-.573.221-1.17.221-1.786v-3.517c0-4.078-3.344-7.396-7.454-7.396-4.11 0-7.454 3.318-7.454 7.396v3.517c0 .616.077 1.213.22 1.785l-.493.092a6.996 6.996 0 0 0-4.713 3.247c-2.789-5.263-1.956-11.937 2.499-16.357a14.114 14.114 0 0 1 15.227-3.062 2.013 2.013 0 0 0 2.615-1.097 1.987 1.987 0 0 0-1.106-2.595 18.232 18.232 0 0 0-4.758-1.202v-16.69c3.683-.896 6.425-4.198 6.425-8.124 0-4.614-3.783-8.367-8.432-8.367-4.65 0-8.432 3.753-8.432 8.367 0 3.926 2.741 7.228 6.424 8.124v16.68a18.102 18.102 0 0 0-10.803 5.15 17.97 17.97 0 0 0-2.187 2.632L35.155 23.8c.489-1.406.804-2.885.928-4.405h5.611c.903 3.654 4.231 6.374 8.189 6.374 4.649 0 8.431-3.753 8.431-8.366 0-4.614-3.782-8.367-8.431-8.367-3.958 0-7.286 2.72-8.189 6.375h-5.73C34.727 6.715 27.178.005 18.077.005 8.113.005.008 8.047.008 17.933c0 3.693 1.123 7.24 3.249 10.259a18.017 18.017 0 0 0 8.323 6.475 2.016 2.016 0 0 0 2.595-1.142 1.988 1.988 0 0 0-1.151-2.576 13.94 13.94 0 0 1-4.379-2.693c0-1.66 1.026-2.885 2.44-3.146l1.94-.36a7.456 7.456 0 0 0 5.05 1.963 7.457 7.457 0 0 0 5.05-1.962l1.941.359a2.971 2.971 0 0 1 2.44 2.913c-1.149 1.286-2.48 2.138-3.961 2.76a1.986 1.986 0 0 0-1.067 2.61 2.013 2.013 0 0 0 2.63 1.058 18.013 18.013 0 0 0 8.32-7.053l34.473 17.09a17.824 17.824 0 0 0-1.117 4.524H53.167c-.904-3.655-4.231-6.375-8.189-6.375-4.65 0-8.432 3.753-8.432 8.367 0 4.613 3.783 8.366 8.432 8.366 3.958 0 7.285-2.72 8.189-6.374h13.617a17.85 17.85 0 0 0 .842 3.774L33.029 74a18.006 18.006 0 0 0-12.946-7.756v-7.116c3.683-.896 6.424-4.198 6.424-8.125 0-4.613-3.782-8.366-8.432-8.366s-8.432 3.753-8.432 8.366c0 3.927 2.742 7.229 6.425 8.125v7.114a18.143 18.143 0 0 0-5.323 1.428 1.986 1.986 0 0 0-1.021 2.63 2.014 2.014 0 0 0 2.65 1.013c5.273-2.322 11.559-1.16 15.64 2.889 4.454 4.42 5.287 11.094 2.498 16.357a6.995 6.995 0 0 0-4.714-3.248l-.493-.091c.143-.572.22-1.17.22-1.785v-3.517c0-4.079-3.343-7.396-7.454-7.396-4.11 0-7.454 3.317-7.454 7.396v3.516c0 .616.078 1.213.221 1.786l-.494.091a6.996 6.996 0 0 0-4.709 3.24 13.827 13.827 0 0 1-.583-11.738 1.987 1.987 0 0 0-1.105-2.595 2.012 2.012 0 0 0-2.615 1.097C-1.404 84.007.154 91.631 5.3 96.737c3.522 3.496 8.149 5.243 12.776 5.243 4.627 0 9.254-1.747 12.776-5.242a17.783 17.783 0 0 0 5.22-11.225h7.167c.903 3.655 4.23 6.375 8.188 6.375 4.65 0 8.432-3.753 8.432-8.367 0-4.613-3.782-8.366-8.432-8.366-3.957 0-7.285 2.72-8.188 6.374h-7.284a17.837 17.837 0 0 0-1.058-4.001l34.434-17.15a17.914 17.914 0 0 0 2.621 3.302 18.036 18.036 0 0 0 10.803 5.132v16.692c-3.683.897-6.424 4.198-6.424 8.125 0 4.613 3.782 8.366 8.432 8.366s8.432-3.753 8.432-8.366c0-3.927-2.742-7.229-6.425-8.125v-16.7a18.035 18.035 0 0 0 10.735-5.124 17.774 17.774 0 0 0 5.013-9.534c.633-3.54.193-7.143-1.27-10.418zm-20.9-35.356c0-2.416 1.98-4.382 4.416-4.382 2.435 0 4.417 1.966 4.417 4.382 0 2.417-1.982 4.383-4.417 4.383-2.435 0-4.417-1.966-4.417-4.383zm-30.464 4.649c2.435 0 4.417 1.966 4.417 4.382 0 2.417-1.982 4.383-4.417 4.383-2.436 0-4.417-1.966-4.417-4.383 0-2.416 1.981-4.382 4.417-4.382zm-28.368 6.295c0 1.882-1.543 3.413-3.44 3.413-1.895 0-3.438-1.531-3.438-3.413V15.8c0-1.882 1.543-3.413 3.439-3.413 1.896 0 3.439 1.531 3.439 3.413v3.516zm8.998 5.119a6.995 6.995 0 0 0-4.71-3.242l-.494-.091c.144-.572.22-1.17.22-1.786V15.8c0-4.079-3.343-7.397-7.453-7.397s-7.454 3.318-7.454 7.397v3.516c0 .616.077 1.214.22 1.786l-.493.091a6.997 6.997 0 0 0-4.697 3.22 13.8 13.8 0 0 1-1.629-6.48c0-7.69 6.304-13.944 14.053-13.944 7.75 0 14.053 6.255 14.053 13.944 0 2.319-.575 4.539-1.616 6.502zm14.465 30.95c-2.435 0-4.417-1.965-4.417-4.382 0-2.416 1.982-4.382 4.417-4.382 2.436 0 4.417 1.966 4.417 4.382 0 2.417-1.981 4.383-4.417 4.383zm-31.32-4.382c0-2.416 1.982-4.382 4.417-4.382 2.435 0 4.417 1.966 4.417 4.382 0 2.417-1.982 4.383-4.417 4.383-2.435 0-4.417-1.966-4.417-4.383zm.974 30.914c0-1.882 1.543-3.413 3.44-3.413 1.895 0 3.438 1.531 3.438 3.413v3.516c0 1.882-1.543 3.412-3.439 3.412-1.896 0-3.439-1.53-3.439-3.412v-3.516zm12.87 12.486c-5.34 4.796-13.526 4.792-18.861-.01v-.253a2.971 2.971 0 0 1 2.44-2.914l1.94-.359a7.457 7.457 0 0 0 5.05 1.963 7.457 7.457 0 0 0 5.05-1.963l1.94.36a2.971 2.971 0 0 1 2.44 2.913v.263zM51.427 79.14c2.435 0 4.417 1.966 4.417 4.382 0 2.417-1.982 4.383-4.417 4.383-2.436 0-4.417-1.966-4.417-4.383 0-2.416 1.981-4.382 4.417-4.382zm29.866-30.28c0-1.881 1.542-3.412 3.439-3.412 1.896 0 3.439 1.53 3.439 3.412v3.517c0 1.881-1.543 3.412-3.44 3.412-1.896 0-3.438-1.531-3.438-3.412V48.86zm7.886 44.77c0 2.417-1.982 4.383-4.417 4.383-2.436 0-4.417-1.966-4.417-4.383 0-2.416 1.981-4.382 4.417-4.382 2.435 0 4.417 1.966 4.417 4.382zm4.983-32.292c-5.335 4.801-13.521 4.804-18.86.008v-.263a2.97 2.97 0 0 1 2.44-2.913l1.94-.36a7.457 7.457 0 0 0 5.05 1.963 7.457 7.457 0 0 0 5.05-1.963l1.941.36a2.971 2.971 0 0 1 2.44 2.913v.255z" fill="#A2A2AF"/><path d="M97.514 38.317a2.02 2.02 0 0 0-2.839 0l-.01.01a1.975 1.975 0 0 0 .005 2.812c.39.388.904.581 1.417.581.517 0 1.034-.195 1.427-.586a1.981 1.981 0 0 0 0-2.817zm-79.438-6.435c-1.109 0-2.008.9-2.008 2a2 2 0 0 0 2.008 1.992 2 2 0 0 0 2.007-1.992v-.015c0-1.1-.898-1.985-2.007-1.985z" fill="#7549E5"/></g></svg>