<svg xmlns="http://www.w3.org/2000/svg" width="101" height="103" viewBox="0 0 101 103"><g fill="none"><path fill="#7142EB" d="M32.585 94.424c-12.173 5.78-21.722 6.526-26.193 2.048-7.75-7.764.666-30.323 19.575-52.475l-2.598-2.226C2.63 66.067-5.347 89.557 3.973 98.893c2.604 2.607 6.28 3.907 10.84 3.907 5.316 0 11.831-1.766 19.235-5.282l-1.463-3.094z"/><path fill="#A2A2AF" d="M98.643 35.455C90.33 8.854 61.975-6.012 35.419 2.312 8.867 10.64-5.972 39.056 2.338 65.658L5.6 64.634c-7.748-24.798 6.086-51.29 30.84-59.055C48.433 1.821 61.168 2.965 72.297 8.8c11.134 5.838 19.331 15.667 23.084 27.68 3.752 12.013 2.612 24.771-3.213 35.924-5.823 11.155-15.634 19.368-27.626 23.129-20.07 6.293-42.072-1.654-53.515-19.33L8.16 78.065c9.46 14.614 25.649 23.03 42.431 23.027a49.9 49.9 0 0 0 14.973-2.294c12.861-4.033 23.385-12.844 29.634-24.807 6.249-11.964 7.47-25.65 3.446-38.536z"/><path fill="#7142EB" d="M40.584 23.975l.982-3.281-17.093-5.138a1.705 1.705 0 0 0-1.699.43l-3.418 3.425a1.716 1.716 0 0 0 .515 2.776l15.382 6.85 1.388-3.13-13.107-5.838.936-.939 16.114 4.845z"/><path fill="#7142EB" d="M56.461 13.774a1.71 1.71 0 0 0-1.709-1.713h-.003c-3.76 0-7.297 1.468-9.957 4.132L30.3 30.713l-5.9-1.477a1.707 1.707 0 0 0-1.624.45l-3.418 3.425a1.713 1.713 0 0 0 .328 2.678l8.18 4.918 4.91 8.196a1.707 1.707 0 0 0 2.674.33l3.419-3.424a1.719 1.719 0 0 0 .45-1.627l-1.474-5.903 14.724-14.607c2.513-2.636 3.896-6.098 3.892-9.898zM34.746 36.529a1.715 1.715 0 0 0-.457 1.632l1.476 5.91-1.187 1.188-4-6.682a1.704 1.704 0 0 0-.587-.587l-6.67-4.01 1.187-1.188 5.898 1.478a1.707 1.707 0 0 0 1.624-.45l15.178-15.207a10.566 10.566 0 0 1 5.698-2.97 10.567 10.567 0 0 1-2.777 5.628L34.746 36.529z"/><path fill="#7142EB" d="M52.97 44.333l-5.128-17.348-3.279.973 4.819 16.3-1.038.917-5.698-13.244-3.14 1.356L46.138 48.7a1.711 1.711 0 0 0 1.57 1.034c.412 0 .815-.149 1.13-.428l3.624-3.202c.499-.44.695-1.13.507-1.771z"/><path fill="#A2A2AF" d="M90.443 59.2a1.71 1.71 0 0 0-1.507-.904h-5.78L78.5 48.968a1.711 1.711 0 0 0-1.53-.947H59.878a1.71 1.71 0 0 0-1.71 1.713v13.7a1.71 1.71 0 0 0 1.71 1.712h5.127v18.837a1.71 1.71 0 0 0 1.71 1.712h8.545c.453 0 .888-.18 1.21-.503l6.837-6.85c.322-.32.501-.755.501-1.21V70.8l6.55-9.843c.349-.524.383-1.2.085-1.757zm-9.768 10.133c-.186.28-.287.613-.287.95v6.141l-5.835 5.846h-6.13V63.433a1.71 1.71 0 0 0-1.71-1.712h-5.128V51.446h14.327l4.656 9.328c.29.58.882.947 1.53.947h3.643l-5.066 7.612zm10.96-24.737L85.29 33.472a1.708 1.708 0 0 0-1.483-.863H73.552a1.71 1.71 0 0 0-1.422.762l-2.911 4.375h-4.213v-8.562h8.546c.454 0 .887-.18 1.208-.502l6.336-6.348h7.838V18.91h-8.546c-.454 0-.887.18-1.208.502l-6.336 6.348h-9.547a1.71 1.71 0 0 0-1.71 1.712V39.46a1.71 1.71 0 0 0 1.71 1.712h6.836a1.71 1.71 0 0 0 1.422-.762l2.911-4.375h8.35l6.344 11.124a1.71 1.71 0 0 0 1.484.863h6.836v-3.425h-5.845zM49.623 61.72h-9.548l-4.627-4.635a1.703 1.703 0 0 0-1.208-.501h-8.546a1.71 1.71 0 0 0-1.71 1.712v11.987a1.71 1.71 0 0 0 1.71 1.713h6.837V89.12a1.714 1.714 0 0 0 1.71 1.713 1.7 1.7 0 0 0 1.025-.343l6.836-5.137c.431-.324.684-.832.684-1.37v-4.315l7.905-6.335c.405-.325.641-.817.641-1.337v-8.562a1.71 1.71 0 0 0-1.71-1.713zm-1.71 9.454l-7.905 6.334c-.405.326-.64.817-.64 1.338v4.28l-3.419 2.57V70.283a1.71 1.71 0 0 0-1.709-1.712h-6.837v-8.562h6.13l4.626 4.635c.32.322.756.502 1.209.502h8.545v6.028zM15.194 36.865l-5.127-8.563a1.706 1.706 0 0 0-1.465-.83h-1.71v3.425h.743l3.943 6.584-4.184 4.192c-.322.32-.501.757-.501 1.21v5.138H1.765v3.425h6.837c.943 0 1.709-.767 1.709-1.712v-6.141l4.627-4.636c.554-.556.66-1.418.256-2.092zm37.849-35.08v2.089L47.5 5.263c-.19.048-.371.128-.533.236l-4.303 2.874-9.368-4.694-1.53 3.063 10.256 5.138a1.707 1.707 0 0 0 1.711-.108l4.881-3.26 6.552-1.641A1.712 1.712 0 0 0 56.46 5.21V1.785h-3.418z"/></g></svg>