<svg xmlns="http://www.w3.org/2000/svg" width="113" height="82" viewBox="0 0 113 82"><defs><linearGradient id="a" x1="196.042%" x2="196.042%" y1="-18.903%" y2="191.33%"><stop offset="0%" stop-color="#896BEB"/><stop offset="100%" stop-color="#2E097C"/></linearGradient></defs><g fill="url(#a)" fill-rule="evenodd" transform="translate(-717 -6761)"><path d="M728.421 6785.456s2.833-4.011 1-9.582c-1.837-5.567-6.118-7.681-6.118-7.681s-3.203 4.78-1.413 10.207c1.787 5.43 6.531 7.056 6.531 7.056zm8.076 5.754s5.075-.401 7.98-4.888c2.907-4.483.686-9.497.686-9.497s-4.712.945-7.696 5.549c-2.982 4.6-.97 8.837-.97 8.837zm1.863 6.676c-2.548 5.09.22 9.15.22 9.15s5.405-1.087 7.885-6.043c2.476-4.963-.63-9.782-.63-9.782s-4.927 1.586-7.475 6.675zm12.882 6.272s-4.28 2.127-6.106 7.693c-1.825 5.576 1.022 9.57 1.022 9.57s4.745-1.639 6.525-7.068c1.777-5.43-1.44-10.195-1.44-10.195zm4.379 28.772s4.52-2.923 4.827-8.405c.302-5.485-4.461-8.858-4.461-8.858s-3.888 3.223-4.201 8.848c-.31 5.622 3.835 8.415 3.835 8.415zm-20.391-54.667s4.644-1.589 6.006-7.268c1.366-5.68-1.274-9.995-1.274-9.995s-5.38 1.998-6.712 7.539c-1.328 5.537 1.98 9.724 1.98 9.724zm-7.094 23.017s1.809-4.606-1.797-9.186c-3.613-4.583-8.786-5.2-8.786-5.2s-1.975 5.435 1.542 9.902c3.517 4.471 9.041 4.485 9.041 4.485zm3.316 14.216s.658-4.687-3.689-8.242c-4.353-3.558-9.28-3.074-9.28-3.074s-.635 5.5 3.604 8.966c4.245 3.463 9.365 2.35 9.365 2.35zm7.278 11.664s-.829-5.171-6.102-7.51c-5.277-2.347-9.833-.23-9.833-.23s1.117 6.023 6.255 8.311c5.138 2.278 9.68-.57 9.68-.57zm3.556 6.26c-5.25-1.508-9.35.945-9.35.945s1.697 5.332 6.812 6.802c5.121 1.47 9.124-1.646 9.124-1.646s-1.335-4.598-6.586-6.102z"/><path d="M735.334 6780.865l-2.705-1.332c-.143.296-14.058 29.903 25.043 63.382l1.955-2.293c-37.227-31.88-24.84-58.635-24.293-59.757zM818.579 6785.456s-2.833-4.011-1-9.582c1.837-5.567 6.118-7.681 6.118-7.681s3.203 4.78 1.413 10.207c-1.787 5.43-6.531 7.056-6.531 7.056zm-8.076 5.754s-5.075-.401-7.98-4.888c-2.907-4.483-.686-9.497-.686-9.497s4.712.945 7.696 5.549c2.982 4.6.97 8.837.97 8.837zm-1.863 6.676c2.548 5.09-.22 9.15-.22 9.15s-5.405-1.087-7.885-6.043c-2.476-4.963.63-9.782.63-9.782s4.927 1.586 7.475 6.675zm-12.882 6.272s4.28 2.127 6.106 7.693c1.825 5.576-1.022 9.57-1.022 9.57s-4.745-1.639-6.525-7.068c-1.777-5.43 1.44-10.195 1.44-10.195zm-4.379 28.772s-4.52-2.923-4.827-8.405c-.302-5.485 4.461-8.858 4.461-8.858s3.888 3.223 4.201 8.848c.31 5.622-3.835 8.415-3.835 8.415zm20.391-54.667s-4.644-1.589-6.006-7.268c-1.366-5.68 1.274-9.995 1.274-9.995s5.38 1.998 6.712 7.539c1.328 5.537-1.98 9.724-1.98 9.724zm7.094 23.017s-1.809-4.606 1.797-9.186c3.613-4.583 8.786-5.2 8.786-5.2s1.975 5.435-1.542 9.902c-3.517 4.471-9.041 4.485-9.041 4.485zm-3.316 14.216s-.658-4.687 3.689-8.242c4.353-3.558 9.28-3.074 9.28-3.074s.635 5.5-3.604 8.966c-4.245 3.463-9.365 2.35-9.365 2.35zm-7.278 11.664s.829-5.171 6.102-7.51c5.277-2.347 9.833-.23 9.833-.23s-1.117 6.023-6.255 8.311c-5.138 2.278-9.68-.57-9.68-.57zm-3.556 6.26c5.25-1.508 9.35.945 9.35.945s-1.697 5.332-6.812 6.802c-5.121 1.47-9.124-1.646-9.124-1.646s1.335-4.598 6.586-6.102z"/><path d="M811.666 6780.865l2.705-1.332c.143.296 14.058 29.903-25.043 63.382l-1.955-2.293c37.227-31.88 24.84-58.635 24.293-59.757z"/></g></svg>