<svg xmlns="http://www.w3.org/2000/svg" width="87" height="64" viewBox="0 0 87 64"><g fill="#111" fill-rule="evenodd"><path d="M54.26 51.5h12.254a29.136 29.136 0 0 0 1.856-2.757c.037-.056.073-.128.11-.184a32.416 32.416 0 0 0 2.702-6.153h-.006c.107-.334.223-.664.32-1.004a28.81 28.81 0 0 0 .686-3.137 30.19 30.19 0 0 0 .385-3.614h.633c.023-.487.048-.974.048-1.468a30.61 30.61 0 0 0-.454-5.207H74a28.673 28.673 0 0 0-.665-3.011c-.095-.327-.205-.644-.306-.965H60.14c.231.477.458.963.657 1.468.32.812.57 1.654.78 2.508H60.37c.415 1.662.64 3.392.64 5.207 0 .497-.033.983-.064 1.468h-.633a20.714 20.714 0 0 1-.558 3.614 19.486 19.486 0 0 1-.799 2.572 20.844 20.844 0 0 1-.708 1.574h3.69v2.57h-5.217a17.228 17.228 0 0 1-3.306 3.578 19.117 19.117 0 0 1-4.391 2.721c-2.318 1.024-4.853 1.533-7.591 1.533-2.755 0-5.29-.509-7.588-1.533a19.47 19.47 0 0 1-4.39-2.721h-.113a17.374 17.374 0 0 1-1.478-1.37 18.858 18.858 0 0 1-3.218-4.664h-.503c-.252-.51-.49-1.033-.703-1.574a20.21 20.21 0 0 1-.788-2.572h-.014a20.912 20.912 0 0 1-.547-3.614h.962c-.033-.485-.066-.97-.066-1.468 0-1.815.225-3.545.632-5.207h-.444c.208-.853.45-1.696.767-2.508.198-.506.42-.99.652-1.468H11.87c-.1.321-.21.638-.301.965a29.361 29.361 0 0 0-.653 3.011h.444a31.241 31.241 0 0 0-.444 5.207c0 .495.024.98.046 1.468H10a31.02 31.02 0 0 0 .377 3.614h.015a30.2 30.2 0 0 0 .674 3.137c.096.342.213.674.318 1.01h.502a29.8 29.8 0 0 0 2.7 6.139h.067c.016.026.03.055.047.078 1.23 2.08 2.701 3.962 4.372 5.697h1.231c.166.171.303.363.474.533 1.475 1.466 3.117 2.721 4.848 3.862h-1.224c.48.318.932.671 1.433.964a30.837 30.837 0 0 0 7.417 3.11C35.892 63.636 38.65 64 41.523 64c2.842 0 5.595-.364 8.247-1.091a30.735 30.735 0 0 0 7.44-3.11c.499-.293.952-.646 1.435-.964h1.223c1.733-1.14 3.38-2.396 4.867-3.862.171-.17.311-.365.48-.54h-1.213c.44-.455.88-.928 1.28-1.418H54.26V51.5zM49.128 1.81A40.08 40.08 0 0 0 41.012 1 40.012 40.012 0 0 0 32 2h18a47.72 47.72 0 0 0-.872-.19M19.512 23h5.518c.872-1.844 1.964-3.5 3.298-4.93a21.481 21.481 0 0 1 1.657-1.569h.003a18.963 18.963 0 0 1 4.369-2.79c2.32-1.065 4.876-1.6 7.66-1.6 2.759 0 5.303.535 7.64 1.6a18.896 18.896 0 0 1 4.388 2.79 19 19 0 0 1 1.656 1.56c1.335 1.446 2.433 3.098 3.308 4.939H72a33.147 33.147 0 0 0-2.779-6.499c-.021-.04-.043-.086-.067-.126a31.301 31.301 0 0 0-4.89-6.47h6.645V7.261h-6.647v2.64c-.082-.082-.176-.147-.258-.227-1.438-1.427-3.01-2.662-4.673-3.771-.477-.321-.924-.68-1.419-.974A31.248 31.248 0 0 0 54.063 3H30.134a31.795 31.795 0 0 0-3.846 1.93c-.495.294-.942.653-1.42.974-1.656 1.109-3.225 2.344-4.651 3.771-.082.08-.176.145-.258.229a32.16 32.16 0 0 0-4.892 6.47c-.024.04-.046.087-.067.127h4.512V23zM14 16H0v6h11.332c.676-2.116 1.547-4.11 2.668-6"/><path d="M65 54h13v-2H66.28c-.402.699-.84 1.348-1.28 2M55 43v3h1.424A23.776 23.776 0 0 0 58 43h-3zM14 61h11v-1H14zm56-11h11v-1H70zM8 35h2v-2H8zm60-19h2v-2h-2zM4 33h3v-3H4zm78 29h5v-1h-5zm-68-4h4v-4h-4zm39-15h2v-2h-2zM28 2v1h1.29A32.083 32.083 0 0 1 32 2h-4zm28 1V2h-5c.998.292 1.97.628 2.917 1H56zM19 6h4V5h-4zm-3-4h1V0h-1zm54 5h1V6h-1zm1 1h1V7h-1zM24 24h1v-1h-1zm2-2h8v-1h-8z"/></g></svg>