<svg xmlns="http://www.w3.org/2000/svg" width="794" height="27" viewBox="0 0 794 27"><path fill="none" fill-rule="evenodd" stroke="#FFF" d="M173.948.707l25.103 25.102-.354.354-.354-.354.006-.005h.707l.005.005-.354.354-.353-.354L223.456.707l25.102 25.102h-.707L272.953.707l25.103 25.102h-.707L322.45.707l24.75 24.749L371.948.707l25.103 25.102-.354.354-.354-.354.006-.005h.707l.005.005-.354.354-.353-.354L421.456.707l25.102 25.102h-.707L470.953.707l25.103 25.102h-.707L520.45.707l25.102 25.102h-.707L569.948.707l25.103 25.102-.354.354-.354-.354.006-.005h.707l.005.005-.354.354-.353-.354L619.456.707l25.102 25.102-.353.354-.354-.354L668.953.707l24.75 24.749L718.45.707l25.102 25.102h-.707L767.948.707l25.103 25.102h-.708l.708-.707v.707L767.595.354l.353-.354.354.354L743.2 25.456 718.45.707l-24.748 24.749L668.953.707l-24.748 24.749L619.102.354h.707L594.702 25.46 569.948.707 545.2 25.456 520.45.707l-24.748 24.749L470.6.354l.353-.354.354.354-25.102 25.102L421.455.707l-24.753 24.754L371.948.707 347.2 25.456 322.45.707l-24.748 24.749L272.953.707l-24.748 24.749L223.102.354l.354-.354.353.354-25.107 25.107L173.595.354h.707L149.2 25.456 124.097.354h.707L99.702 25.456 74.6.354 74.953 0l.354.354-25.102 25.102L25.102.354 25.456 0l.353.354L.354 25.809v-.707l.707.707H.354L25.456.707l24.749 24.749L74.953.707l25.103 25.102h-.707L124.45.707l24.75 24.749L173.948.707z"/></svg>