<svg width="88" height="101" viewBox="0 0 88 101" xmlns="http://www.w3.org/2000/svg"><title>Group 47</title><defs><linearGradient x1="81.025%" y1="69.892%" x2="22.142%" y2="8.309%" id="a"><stop stop-color="#896BEB" stop-opacity=".163" offset="0%"/><stop stop-color="#8854F8" offset="100%"/></linearGradient><linearGradient x1="100%" y1="100%" x2="9.169%" y2="0%" id="b"><stop stop-color="#7754E6" offset="0%"/><stop stop-color="#532AAD" offset="100%"/></linearGradient><linearGradient x1="7.632%" y1="79.376%" x2="107.89%" y2="22.233%" id="c"><stop stop-color="#A98EFF" offset="0%"/><stop stop-color="#3E0FA2" offset="100%"/></linearGradient><linearGradient x1="7.632%" y1="79.376%" x2="84.511%" y2="12.453%" id="d"><stop stop-color="#36167A" offset="0%"/><stop stop-color="#491DA9" offset="100%"/></linearGradient></defs><g fill="none" fill-rule="evenodd"><ellipse fill="url(#a)" fill-rule="nonzero" cx="31.27" cy="31.262" rx="31.27" ry="31.262"/><path d="M24.259 42.081c-.955 0-1.876-.507-2.335-1.39-.643-1.243-.122-2.753 1.165-3.373l8.983-4.332V16.943c0-1.388 1.167-2.514 2.606-2.514 1.438 0 2.606 1.126 2.606 2.514v17.599c0 .952-.557 1.821-1.441 2.25L25.42 41.82c-.374.18-.772.264-1.162.264v-.002z" fill="#1F0C49"/><g transform="translate(37.284 25.25)"><path d="M46.595 0H3.148A3.16 3.16 0 0 0 0 3.153V72.53a3.16 3.16 0 0 0 3.148 3.153h43.447a3.16 3.16 0 0 0 3.148-3.153V3.153A3.16 3.16 0 0 0 46.595 0z" fill="url(#b)" transform="translate(.41)"/><path fill="url(#c)" d="M4.019 9.001h41.872v55.027H4.019z" transform="translate(.41)"/><g fill="#3E09A5"><path d="M28.745 67.956H21.03c-.944 0-1.731.789-1.731 1.735 0 .946.787 1.734 1.731 1.734h7.714c.944 0 1.731-.788 1.731-1.734s-.787-1.735-1.731-1.735zM31.578 3.784H18.985c-.473 0-.787.316-.787.788 0 .474.315.789.787.789h12.593c.472 0 .787-.316.787-.789 0-.473-.315-.788-.787-.788z"/></g><ellipse fill="url(#d)" fill-rule="nonzero" cx="25.257" cy="37.274" rx="13.23" ry="13.226"/></g><path d="M69.637 58.133a1.431 1.431 0 0 0-2.024 0l-6.38 6.376-3.466-3.465a1.431 1.431 0 0 0-2.023 2.022l4.478 4.476c.28.28.646.419 1.012.419s.732-.14 1.011-.419l7.392-7.387a1.43 1.43 0 0 0 0-2.022z" fill="#DDCFFF" fill-rule="nonzero"/></g></svg>