<svg width="104" height="94" viewBox="0 0 104 94" xmlns="http://www.w3.org/2000/svg"><title>Group 29</title><defs><linearGradient x1="89.594%" y1="14.927%" x2="14.207%" y2="83.61%" id="a"><stop stop-color="#8B4FFF" offset="0%"/><stop stop-color="#2E097C" offset="100%"/></linearGradient><linearGradient x1="16.583%" y1="10.882%" x2="109.608%" y2="90.764%" id="b"><stop stop-color="#C9B3FF" offset="0%"/><stop stop-color="#2D098E" offset="100%"/></linearGradient><linearGradient x1="31.921%" y1="78.237%" x2="107.89%" y2="22.233%" id="c"><stop stop-color="#8D6AFF" offset="0%"/><stop stop-color="#2E097C" offset="100%"/></linearGradient><linearGradient x1="7.632%" y1="79.376%" x2="107.89%" y2="22.233%" id="d"><stop stop-color="#8C68FF" offset="0%"/><stop stop-color="#2E097C" offset="100%"/></linearGradient><linearGradient x1="12.361%" y1="76.68%" x2="107.89%" y2="22.233%" id="e"><stop stop-color="#8661FE" offset="0%"/><stop stop-color="#2E097C" offset="100%"/></linearGradient><linearGradient x1="28.262%" y1="80.934%" x2="107.89%" y2="22.233%" id="f"><stop stop-color="#896BEB" offset="0%"/><stop stop-color="#2E097C" offset="100%"/></linearGradient></defs><g fill="none" fill-rule="evenodd"><rect fill="url(#a)" opacity=".883" x="36" width="68" height="49" rx="5"/><path d="M62 11h27.5M48 24h41.5" stroke="#13023F" stroke-width="3" opacity=".511" stroke-linecap="round" fill-rule="nonzero"/><path d="M34.687.016c-.242 8.66-6.99 11.069-10.086 11.719C25.78 3.319 31.892.755 34.687.016z" fill="url(#b)" fill-rule="nonzero" opacity=".826"/><path d="M37.682 59.276l-.098.093c-2.781 2.916-6.998.126-7.154.022-1.66-1.177-3.58-1.561-5.383-1.561-3.27 0-6.147 1.265-6.33 1.347l-.208.117c-3.828 2.668-6.45.32-6.728.053l-.15-.128c-5.063-3.688-9.718-14.573-9.724-14.576-6.352-19.716 5.816-26.165 6.333-26.427l.14-.082c5.893-3.951 14.365 1.768 14.45 1.825l.675.463.7-.421c5.276-3.185 10.037-4.268 14.15-3.216 3.35.856 5.487 2.947 6.532 4.233-4.245 2.597-6.825 7.13-6.825 12.146 0 5.77 3.469 10.896 8.754 13.126-3.253 7.93-9.072 12.934-9.134 12.986z" fill="url(#c)"/><g><path d="M34.984 6.434l3.087-4.717c.352-.537.162-1.233-.424-1.555-.587-.323-1.345-.15-1.696.39l-3.259 4.976a19.94 19.94 0 0 0-6.192-.995 19.94 19.94 0 0 0-6.192.995L17.049.551c-.35-.538-1.11-.71-1.696-.389-.586.322-.776 1.018-.424 1.555l3.087 4.717C12.047 9.26 7.95 14.962 7.95 21.534c0 .626.554 1.133 1.237 1.133h34.626c.683 0 1.237-.507 1.237-1.134-.001-6.57-4.097-12.27-10.066-15.1z" fill="url(#d)" transform="translate(50 30)"/><path d="M85.112 42h-1.325a.664.664 0 0 0-.662.667V44c0 .368.296.667.662.667h1.326a.664.664 0 0 0 .662-.667v-1.333a.665.665 0 0 0-.663-.667zM69.213 42h-1.326a.664.664 0 0 0-.662.667V44c0 .368.296.667.662.667h1.326a.664.664 0 0 0 .662-.667v-1.333a.664.664 0 0 0-.662-.667z" fill="#1F0D47" fill-rule="nonzero"/><path d="M43.813 24H9.187c-.683 0-1.237.497-1.237 1.111v22.412c0 2.96 2.682 5.366 5.978 5.366h1.442v6.673c0 2.447 2.219 4.438 4.947 4.438s4.946-1.991 4.946-4.438V52.89h2.474v6.673c0 2.447 2.218 4.438 4.946 4.438 2.728 0 4.947-1.991 4.947-4.438V52.89h1.442c3.297 0 5.978-2.407 5.978-5.366V25.111c0-.614-.553-1.111-1.237-1.111z" fill="url(#e)" transform="translate(50 30)"/><path d="M53 43.995c0 .948-1.189 1.72-2.65 1.72-1.461 0-2.65-.772-2.65-1.72v-15.99c0-.948 1.189-1.72 2.65-1.72 1.461 0 2.65.772 2.65 1.72v15.99zM5.3 43.995c0 .948-1.189 1.72-2.65 1.72-1.461 0-2.65-.772-2.65-1.72v-15.99c0-.948 1.189-1.72 2.65-1.72 1.461 0 2.65.772 2.65 1.72v15.99z" fill="url(#f)" transform="translate(50 30)"/></g></g></svg>