<svg width="104" height="86" viewBox="0 0 104 86" xmlns="http://www.w3.org/2000/svg"><title>Group 26</title><defs><linearGradient x1="7.844%" y1="0%" x2="79.736%" y2="84.032%" id="a"><stop stop-color="#896BEB" offset="0%"/><stop stop-color="#2E097C" offset="100%"/></linearGradient><linearGradient x1="7.632%" y1="79.376%" x2="106.818%" y2="79.376%" id="b"><stop stop-color="#896BEB" offset="0%"/><stop stop-color="#2E097C" offset="100%"/></linearGradient><linearGradient x1="6.669%" y1="3.78%" x2="93.068%" y2="98%" id="c"><stop stop-color="#8A6AD8" offset="0%"/><stop stop-color="#BEACEE" offset="100%"/></linearGradient><linearGradient x1="7.632%" y1="79.376%" x2="107.89%" y2="22.233%" id="d"><stop stop-color="#896BEB" offset="0%"/><stop stop-color="#2E097C" offset="100%"/></linearGradient></defs><g fill="none" fill-rule="evenodd"><g><rect stroke-opacity=".231" stroke="#FFF" stroke-width="5" fill="url(#a)" x="2.5" y="2.5" width="83" height="60" rx="2"/><path d="M13 20h27.5M13 31.5h41.5M13 44.5h14.5" stroke="#180F2B" stroke-width="3" stroke-linecap="round" fill-rule="nonzero"/><rect fill="url(#b)" fill-rule="nonzero" x="14" y="70" width="56" height="8" rx="2"/></g><path d="M38.742 0H2.618A2.628 2.628 0 0 0 0 2.623V60.32a2.628 2.628 0 0 0 2.618 2.623h36.124c1.44 0 2.617-1.18 2.617-2.623V2.623A2.628 2.628 0 0 0 38.742 0z" fill="url(#c)" transform="translate(62.34 23)"/><path fill="url(#d)" d="M3.341 7.486h34.815v45.765H3.341z" transform="translate(62.34 23)"/><g fill="#3E09A5"><path d="M85.9 79.518h-6.413c-.786 0-1.44.656-1.44 1.443 0 .786.654 1.442 1.44 1.442H85.9c.785 0 1.44-.656 1.44-1.442 0-.787-.655-1.443-1.44-1.443zM88.256 26.147h-10.47c-.394 0-.655.263-.655.656s.262.655.654.655h10.47c.394 0 .655-.262.655-.655 0-.394-.262-.656-.654-.656z"/></g></g></svg>