<svg width="95" height="91" viewBox="0 0 95 91" xmlns="http://www.w3.org/2000/svg"><title>Group 57</title><defs><linearGradient x1="7.632%" y1="79.376%" x2="107.89%" y2="22.233%" id="a"><stop stop-color="#DFD5FF" offset="0%"/><stop stop-color="#BB9BFF" offset="100%"/></linearGradient><linearGradient x1="19.572%" y1="15.73%" x2="106.682%" y2="100%" id="b"><stop stop-color="#BDA9FE" offset="0%"/><stop stop-color="#642DD9" offset="100%"/></linearGradient><linearGradient x1="50%" y1="0%" x2="50%" y2="91.846%" id="c"><stop stop-color="#F0EAFF" offset="0%"/><stop stop-color="#CCBBFB" offset="100%"/></linearGradient><linearGradient x1="16.358%" y1="50%" x2="82.88%" y2="106.373%" id="d"><stop stop-color="#C6AFFF" offset="0%"/><stop stop-color="#6536E2" offset="100%"/></linearGradient></defs><g fill="none" fill-rule="evenodd"><rect y=".576" width="52.651" height="72.57" rx="2.3" transform="translate(17.169 7.487)" fill="url(#a)"/><path d="M47.258 4.273V40.67L34.27 32.568H4.163a3.45 3.45 0 0 1-3.45-3.45V.823h43.095a3.45 3.45 0 0 1 3.45 3.45z" fill="url(#b)" transform="matrix(-1 0 0 1 95 0)"/><g fill="#D6C3FF" opacity=".909"><path d="M59.807 13.441h23.075c1.12 0 1.977-.863 1.977-1.992s-.857-1.992-1.977-1.992H59.807c-1.121 0-1.978.863-1.978 1.992 0 1.13.857 1.992 1.978 1.992zM59.807 23.403h23.075c1.12 0 1.977-.863 1.977-1.992 0-1.13-.857-1.992-1.977-1.992H59.807c-1.121 0-1.978.863-1.978 1.992s.857 1.992 1.978 1.992z"/></g><path fill="#A182F5" d="M26.325 23.038H40.06v16.127H26.325z"/><path fill="#A182F5" opacity=".355" d="M46.928 57.595h13.735v16.127H46.928z"/><g><path d="M26.144 38.669c0-3.455-2.73-6.255-6.098-6.255-3.367 0-6.097 2.8-6.097 6.255s2.73 6.255 6.097 6.255c3.368 0 6.098-2.8 6.098-6.255z" fill="url(#c)" fill-rule="nonzero" transform="translate(0 46.076)"/><path d="M35.148 37.622H4.944c-2.702 0-4.893-2.247-4.893-5.02 0-1.534.677-2.987 1.842-3.95l.97-.803c2.244-1.857 3.55-4.656 3.55-7.614v-5.276C6.412 7.175 12.562.866 20.15.866c7.588 0 13.739 6.31 13.739 14.093v5.373c0 2.902 1.256 5.655 3.429 7.513l.945.808a5.13 5.13 0 0 1 1.779 3.899v.05c0 2.773-2.19 5.02-4.894 5.02z" fill="url(#d)" transform="translate(0 46.076)"/></g></g></svg>