<svg width="73" height="84" viewBox="0 0 73 84" xmlns="http://www.w3.org/2000/svg"><title>Group 54</title><defs><linearGradient x1="100%" y1="100%" x2="9.169%" y2="0%" id="a"><stop stop-color="#E7E0FF" offset="0%"/><stop stop-color="#B391FF" offset="100%"/></linearGradient><linearGradient x1="19.572%" y1="15.73%" x2="87.043%" y2="119.906%" id="b"><stop stop-color="#DACEFF" offset="0%"/><stop stop-color="#642DD9" offset="100%"/></linearGradient><linearGradient x1="26.406%" y1="6.283%" x2="88.849%" y2="62.052%" id="c"><stop stop-color="#F6F2FF" offset="0%"/><stop stop-color="#C6B1FD" offset="100%"/></linearGradient><linearGradient x1="44.337%" y1="26.452%" x2="63.458%" y2="135.701%" id="d"><stop stop-color="#E9E3F9" offset="0%"/><stop stop-color="#AD8EFF" offset="100%"/></linearGradient></defs><g fill="none" fill-rule="evenodd"><path d="M51.163 0H3.457C1.556 0 0 1.568 0 3.485v76.678c0 1.917 1.556 3.486 3.457 3.486h47.706c1.901 0 3.457-1.569 3.457-3.486V3.485C54.62 1.568 53.064 0 51.163 0z" fill="url(#a)" transform="translate(.45)"/><path fill="url(#b)" d="M4.413 9.949H50.39v60.82H4.413z" transform="translate(.45)"/><path d="M31.563 75.11h-8.47c-1.037 0-1.901.87-1.901 1.917 0 1.045.864 1.917 1.901 1.917h8.47c1.037 0 1.901-.872 1.901-1.917 0-1.046-.864-1.917-1.901-1.917z" fill="#955EFF"/><path d="M34.674 4.183H20.846c-.519 0-.864.348-.864.87 0 .524.346.872.864.872h13.828c.518 0 .864-.349.864-.871 0-.523-.346-.871-.864-.871z" fill="#925DF8"/><g transform="translate(32 25)" fill-rule="nonzero"><rect fill="#B594FF" width="41" height="27" rx="5"/><path d="M3.932 9.904c.519.363 2.08 1.44 4.687 3.23 2.607 1.791 4.603 3.17 5.99 4.138.153.106.476.336.972.691.495.356.907.643 1.234.862.328.219.724.464 1.19.736.464.272.902.477 1.314.612a3.65 3.65 0 0 0 1.143.204h.046c.35 0 .732-.068 1.143-.204.412-.135.85-.34 1.315-.612.465-.272.86-.517 1.189-.736.327-.22.739-.506 1.234-.862.495-.355.82-.585.972-.691a20225.5 20225.5 0 0 1 10.7-7.368c1.112-.77 2.042-1.7 2.789-2.789.747-1.088 1.12-2.229 1.12-3.423 0-.997-.362-1.851-1.086-2.561C39.16.42 38.302.065 37.312.065H3.658C2.484.065 1.58.458.948 1.244.317 2.03 0 3.012 0 4.19c0 .952.42 1.984 1.257 3.095.839 1.11 1.73 1.983 2.675 2.618z" fill="url(#c)"/><path d="M38.684 12.33c-5 3.354-8.795 5.962-11.386 7.82a53.95 53.95 0 0 1-2.115 1.486c-.54.355-1.26.718-2.16 1.088-.9.37-1.737.555-2.515.555h-.046c-.777 0-1.616-.185-2.515-.555-.899-.37-1.62-.733-2.16-1.088-.541-.355-1.246-.85-2.115-1.485-2.058-1.496-5.845-4.104-11.363-7.821A12.082 12.082 0 0 1 0 10.357v18c0 .998.358 1.852 1.074 2.562a3.537 3.537 0 0 0 2.584 1.066h33.654a3.537 3.537 0 0 0 2.584-1.066c.716-.71 1.074-1.564 1.074-2.562v-18a12.577 12.577 0 0 1-2.286 1.973z" fill="url(#d)"/></g></g></svg>