<svg width="75" height="77" viewBox="0 0 75 77" xmlns="http://www.w3.org/2000/svg"><title>Group 43</title><defs><linearGradient x1="0%" y1="0%" x2="82.88%" y2="106.373%" id="a"><stop stop-color="#D7C6FF" offset="0%"/><stop stop-color="#6536E2" offset="100%"/></linearGradient><linearGradient x1="16.827%" y1="0%" y2="100%" id="b"><stop stop-color="#D7C6FF" offset="0%"/><stop stop-color="#6536E2" offset="100%"/></linearGradient><linearGradient x1="50%" y1="0%" x2="50%" y2="91.846%" id="c"><stop stop-color="#F0EAFF" offset="0%"/><stop stop-color="#CCBBFB" offset="100%"/></linearGradient><linearGradient x1="26.406%" y1="6.283%" x2="112.718%" y2="100%" id="d"><stop stop-color="#F0EAFF" offset="0%"/><stop stop-color="#CCBBFB" offset="100%"/></linearGradient><linearGradient x1="16.376%" y1="20.102%" x2="112.283%" y2="85.771%" id="e"><stop stop-color="#F0EAFF" offset="0%"/><stop stop-color="#CCBBFB" offset="100%"/></linearGradient></defs><g fill="none" fill-rule="evenodd"><path d="M11 50.6h6.676c6.076 0 11 4.925 11 11v14.3H0V61.6c0-6.075 4.925-11 11-11z" fill="url(#a)"/><path d="M57.324 20.9H64c6.075 0 11 4.925 11 11v14.3H46.324V31.9c0-6.075 4.924-11 11-11z" fill="url(#b)"/><ellipse fill="url(#c)" fill-rule="nonzero" cx="14.89" cy="39.05" rx="9.375" ry="9.35"/><ellipse fill="url(#c)" fill-rule="nonzero" cx="60.11" cy="9.35" rx="9.375" ry="9.35"/><path d="M35.294 58.109l7.085 6.075v7.093c0 3 2.836 5.43 6.333 5.43h19.884c3.497 0 6.333-2.43 6.333-5.43V59.33c0-2.999-2.836-5.43-6.333-5.43H48.712c-3.007 0-5.523 1.798-6.17 4.209h-7.248z" fill="url(#d)" fill-rule="nonzero"/><path d="M0 5.6l7.085 6.076v7.094c0 2.999 2.836 5.43 6.333 5.43h19.884c3.497 0 6.333-2.431 6.333-5.43V6.823c0-3-2.836-5.43-6.333-5.43H13.418c-3.007 0-5.523 1.797-6.17 4.208H0z" fill="url(#e)" fill-rule="nonzero" transform="matrix(-1 0 0 1 39.635 0)"/><path d="M8.824 9.35h14.89M8.824 15.95h14.89M51.838 61.6h14.89M51.838 68.2h14.89" stroke="#7142EB" stroke-width="2.2" stroke-linecap="round" fill-rule="nonzero"/></g></svg>