<svg width="106" height="84" viewBox="0 0 106 84" xmlns="http://www.w3.org/2000/svg"><title>Group 51</title><defs><linearGradient x1="9.954%" y1="5.469%" x2="78.15%" y2="100%" id="a"><stop stop-color="#9466FF" offset="0%"/><stop stop-color="#27086B" offset="100%"/></linearGradient><linearGradient x1="4.077%" y1="45.923%" x2="95.923%" y2="45.923%" id="b"><stop stop-color="#F0EAFF" offset="0%"/><stop stop-color="#CCBBFB" offset="100%"/></linearGradient></defs><g fill="none" fill-rule="evenodd"><path d="M6.786 0h71.251a6.785 6.785 0 0 1 6.786 6.784v52.574a6.785 6.785 0 0 1-6.786 6.784H6.786A6.785 6.785 0 0 1 0 59.358V6.784A6.785 6.785 0 0 1 6.786 0z" fill="url(#a)"/><path fill="url(#b)" fill-rule="nonzero" opacity=".207" d="M12.368 18h63.356v6.033H12.368zM12.368 31h38.781v6.033H12.368zM12.368 44h31.781v6.033H12.368z"/><path fill="#9174F1" d="M105.956 47.456L80.5 62 55.044 47.456 80.5 33z"/><path fill="#6E47E3" d="M80.5 62l-15.8-9.027-9.656 5.483L80.5 73l25.456-14.544-9.656-5.483z"/><path fill="#4A21A3" d="M80.5 73l-15.8-9.027-9.656 5.483L80.5 84l25.456-14.544-9.656-5.483z"/></g></svg>