<svg id="Layer_1" data-name="Layer 1" xmlns="http://www.w3.org/2000/svg" viewBox="0 0 2125 533"><defs><style>.cls-1{fill:#ededed;}.cls-1,.cls-2,.cls-3,.cls-4,.cls-5,.cls-6{stroke:#fff;stroke-miterlimit:10;stroke-width:1.14px;}.cls-2{fill:#999;}.cls-3{fill:#b7b7b7;}.cls-4{fill:#53af84;}.cls-5{fill:#47916c;}.cls-6{fill:#70b794;}</style></defs><title>mazegeek</title><rect class="cls-1" x="18.7" y="12.35" width="54.97" height="55.26"/><rect class="cls-1" x="73.67" y="12.35" width="54.97" height="55.26"/><rect class="cls-1" x="128.63" y="12.35" width="54.97" height="55.26"/><rect class="cls-1" x="183.6" y="12.35" width="54.97" height="55.26"/><rect class="cls-1" x="238.56" y="12.35" width="54.97" height="55.26"/><rect class="cls-1" x="293.53" y="12.35" width="54.97" height="55.26"/><rect class="cls-1" x="348.49" y="12.35" width="54.97" height="55.26"/><rect class="cls-1" x="403.46" y="12.35" width="54.97" height="55.26"/><rect class="cls-1" x="458.42" y="12.35" width="54.97" height="55.26"/><rect class="cls-1" x="513.39" y="12.35" width="54.97" height="55.26"/><rect class="cls-1" x="568.35" y="12.35" width="54.97" height="55.26"/><rect class="cls-1" x="623.32" y="12.35" width="54.97" height="55.26"/><rect class="cls-1" x="678.28" y="12.35" width="54.97" height="55.26"/><rect class="cls-1" x="733.25" y="12.35" width="54.97" height="55.26"/><rect class="cls-1" x="788.21" y="12.35" width="54.97" height="55.26"/><rect class="cls-1" x="843.18" y="12.35" width="54.97" height="55.26"/><rect class="cls-1" x="898.15" y="12.35" width="54.97" height="55.26"/><rect class="cls-1" x="953.11" y="12.35" width="54.97" height="55.26"/><rect class="cls-1" x="1008.08" y="12.35" width="54.97" height="55.26"/><rect class="cls-1" x="1063.04" y="12.35" width="54.97" height="55.26"/><rect class="cls-1" x="18.7" y="67.6" width="54.97" height="55.26"/><rect class="cls-1" x="73.67" y="67.6" width="54.97" height="55.26"/><rect class="cls-1" x="128.63" y="67.6" width="54.97" height="55.26"/><rect class="cls-1" x="183.6" y="67.6" width="54.97" height="55.26"/><rect class="cls-1" x="238.56" y="67.6" width="54.97" height="55.26"/><rect class="cls-1" x="293.53" y="67.6" width="54.97" height="55.26"/><rect class="cls-1" x="348.49" y="67.6" width="54.97" height="55.26"/><rect class="cls-1" x="403.46" y="67.6" width="54.97" height="55.26"/><rect class="cls-1" x="458.42" y="67.6" width="54.97" height="55.26"/><rect class="cls-1" x="513.39" y="67.6" width="54.97" height="55.26"/><rect class="cls-1" x="568.35" y="67.6" width="54.97" height="55.26"/><rect class="cls-1" x="623.32" y="67.6" width="54.97" height="55.26"/><rect class="cls-1" x="678.28" y="67.6" width="54.97" height="55.26"/><rect class="cls-1" x="733.25" y="67.6" width="54.97" height="55.26"/><rect class="cls-1" x="788.21" y="67.6" width="54.97" height="55.26"/><rect class="cls-1" x="843.18" y="67.6" width="54.97" height="55.26"/><rect class="cls-1" x="898.15" y="67.6" width="54.97" height="55.26"/><rect class="cls-1" x="953.11" y="67.6" width="54.97" height="55.26"/><rect class="cls-1" x="1008.08" y="67.6" width="54.97" height="55.26"/><rect class="cls-1" x="1063.04" y="67.6" width="54.97" height="55.26"/><rect class="cls-1" x="18.7" y="122.86" width="54.97" height="55.26"/><rect class="cls-1" x="73.67" y="122.86" width="54.97" height="55.26"/><rect class="cls-2" x="128.63" y="122.86" width="54.97" height="55.26"/><rect class="cls-3" x="183.6" y="122.86" width="54.97" height="55.26"/><rect class="cls-1" x="238.56" y="122.86" width="54.97" height="55.26"/><rect class="cls-3" x="293.53" y="122.86" width="54.97" height="55.26"/><rect class="cls-2" x="348.49" y="122.86" width="54.97" height="55.26"/><rect class="cls-1" x="403.46" y="122.86" width="54.97" height="55.26"/><rect class="cls-2" x="458.42" y="122.86" width="54.97" height="55.26"/><rect class="cls-3" x="513.39" y="122.86" width="54.97" height="55.26"/><rect class="cls-2" x="568.35" y="122.86" width="54.97" height="55.26"/><rect class="cls-1" x="623.32" y="122.86" width="54.97" height="55.26"/><rect class="cls-2" x="678.28" y="122.86" width="54.97" height="55.26"/><rect class="cls-3" x="733.25" y="122.86" width="54.97" height="55.26"/><rect class="cls-3" x="788.21" y="122.86" width="54.97" height="55.26"/><rect class="cls-1" x="843.18" y="122.86" width="54.97" height="55.26"/><rect class="cls-3" x="898.15" y="122.86" width="54.97" height="55.26"/><rect class="cls-3" x="953.11" y="122.86" width="54.97" height="55.26"/><rect class="cls-2" x="1008.08" y="122.86" width="54.97" height="55.26"/><rect class="cls-1" x="1063.04" y="122.86" width="54.97" height="55.26"/><rect class="cls-1" x="18.7" y="178.12" width="54.97" height="55.26"/><rect class="cls-1" x="73.67" y="178.12" width="54.97" height="55.26"/><rect class="cls-3" x="128.63" y="178.12" width="54.97" height="55.26"/><rect class="cls-1" x="183.6" y="178.12" width="54.97" height="55.26"/><rect class="cls-3" x="238.56" y="178.12" width="54.97" height="55.26"/><rect class="cls-1" x="293.53" y="178.12" width="54.97" height="55.26"/><rect class="cls-3" x="348.49" y="178.12" width="54.97" height="55.26"/><rect class="cls-1" x="403.46" y="178.12" width="54.97" height="55.26"/><rect class="cls-3" x="458.42" y="178.12" width="54.97" height="55.26"/><rect class="cls-1" x="513.39" y="178.12" width="54.97" height="55.26"/><rect class="cls-3" x="568.35" y="178.12" width="54.97" height="55.26"/><rect class="cls-1" x="623.32" y="178.12" width="54.97" height="55.26"/><rect class="cls-1" x="678.28" y="178.12" width="54.97" height="55.26"/><rect class="cls-1" x="733.25" y="178.12" width="54.97" height="55.26"/><rect class="cls-2" x="788.21" y="178.12" width="54.97" height="55.26"/><rect class="cls-1" x="843.18" y="178.12" width="54.97" height="55.26"/><rect class="cls-3" x="898.15" y="178.12" width="54.97" height="55.26"/><rect class="cls-1" x="953.11" y="178.12" width="54.97" height="55.26"/><rect class="cls-1" x="1008.08" y="178.12" width="54.97" height="55.26"/><rect class="cls-1" x="1063.04" y="178.12" width="54.97" height="55.26"/><rect class="cls-1" x="18.7" y="233.37" width="54.97" height="55.26"/><rect class="cls-1" x="73.67" y="233.37" width="54.97" height="55.26"/><rect class="cls-3" x="128.63" y="233.37" width="54.97" height="55.26"/><rect class="cls-1" x="183.6" y="233.37" width="54.97" height="55.26"/><rect class="cls-2" x="238.56" y="233.37" width="54.97" height="55.26"/><rect class="cls-1" x="293.53" y="233.37" width="54.97" height="55.26"/><rect class="cls-3" x="348.49" y="233.37" width="54.97" height="55.26"/><rect class="cls-1" x="403.46" y="233.37" width="54.97" height="55.26"/><rect class="cls-3" x="458.42" y="233.37" width="54.97" height="55.26"/><rect class="cls-1" x="513.39" y="233.37" width="54.97" height="55.26"/><rect class="cls-2" x="568.35" y="233.37" width="54.97" height="55.26"/><rect class="cls-1" x="623.32" y="233.37" width="54.97" height="55.26"/><rect class="cls-1" x="678.28" y="233.37" width="54.97" height="55.26"/><rect class="cls-2" x="733.25" y="233.37" width="54.97" height="55.26"/><rect class="cls-1" x="788.21" y="233.37" width="54.97" height="55.26"/><rect class="cls-1" x="843.18" y="233.37" width="54.97" height="55.26"/><rect class="cls-2" x="898.15" y="233.37" width="54.97" height="55.26"/><rect class="cls-3" x="953.11" y="233.37" width="54.97" height="55.26"/><rect class="cls-1" x="1008.08" y="233.37" width="54.97" height="55.26"/><rect class="cls-1" x="1063.04" y="233.37" width="54.97" height="55.26"/><rect class="cls-1" x="18.7" y="288.63" width="54.97" height="55.26"/><rect class="cls-1" x="73.67" y="288.63" width="54.97" height="55.26"/><rect class="cls-2" x="128.63" y="288.63" width="54.97" height="55.26"/><rect class="cls-1" x="183.6" y="288.63" width="54.97" height="55.26"/><rect class="cls-1" x="238.56" y="288.63" width="54.97" height="55.26"/><rect class="cls-1" x="293.53" y="288.63" width="54.97" height="55.26"/><rect class="cls-3" x="348.49" y="288.63" width="54.97" height="55.26"/><rect class="cls-1" x="403.46" y="288.63" width="54.97" height="55.26"/><rect class="cls-3" x="458.42" y="288.63" width="54.97" height="55.26"/><rect class="cls-1" x="513.39" y="288.63" width="54.97" height="55.26"/><rect class="cls-3" x="568.35" y="288.63" width="54.97" height="55.26"/><rect class="cls-1" x="623.32" y="288.63" width="54.97" height="55.26"/><rect class="cls-3" x="678.28" y="288.63" width="54.97" height="55.26"/><rect class="cls-1" x="733.25" y="288.63" width="54.97" height="55.26"/><rect class="cls-1" x="788.21" y="288.63" width="54.97" height="55.26"/><rect class="cls-1" x="843.18" y="288.63" width="54.97" height="55.26"/><rect class="cls-3" x="898.15" y="288.63" width="54.97" height="55.26"/><rect class="cls-1" x="953.11" y="288.63" width="54.97" height="55.26"/><rect class="cls-1" x="1008.08" y="288.63" width="54.97" height="55.26"/><rect class="cls-1" x="1063.04" y="288.63" width="54.97" height="55.26"/><rect class="cls-1" x="18.7" y="343.88" width="54.97" height="55.26"/><rect class="cls-1" x="73.67" y="343.88" width="54.97" height="55.26"/><rect class="cls-3" x="128.63" y="343.88" width="54.97" height="55.26"/><rect class="cls-1" x="183.6" y="343.88" width="54.97" height="55.26"/><rect class="cls-1" x="238.56" y="343.88" width="54.97" height="55.26"/><rect class="cls-1" x="293.53" y="343.88" width="54.97" height="55.26"/><rect class="cls-2" x="348.49" y="343.88" width="54.97" height="55.26"/><rect class="cls-1" x="403.46" y="343.88" width="54.97" height="55.26"/><rect class="cls-2" x="458.42" y="343.88" width="54.97" height="55.26"/><rect class="cls-1" x="513.39" y="343.88" width="54.97" height="55.26"/><rect class="cls-3" x="568.35" y="343.88" width="54.97" height="55.26"/><rect class="cls-1" x="623.32" y="343.88" width="54.97" height="55.26"/><rect class="cls-2" x="678.28" y="343.88" width="54.97" height="55.26"/><rect class="cls-3" x="733.25" y="343.88" width="54.97" height="55.26"/><rect class="cls-2" x="788.21" y="343.88" width="54.97" height="55.26"/><rect class="cls-1" x="843.18" y="343.88" width="54.97" height="55.26"/><rect class="cls-2" x="898.15" y="343.88" width="54.97" height="55.26"/><rect class="cls-3" x="953.11" y="343.88" width="54.97" height="55.26"/><rect class="cls-2" x="1008.08" y="343.88" width="54.97" height="55.26"/><rect class="cls-1" x="1063.04" y="343.88" width="54.97" height="55.26"/><rect class="cls-1" x="18.7" y="399.14" width="54.97" height="55.26"/><rect class="cls-1" x="73.67" y="399.14" width="54.97" height="55.26"/><rect class="cls-1" x="128.63" y="399.14" width="54.97" height="55.26"/><rect class="cls-1" x="183.6" y="399.14" width="54.97" height="55.26"/><rect class="cls-1" x="238.56" y="399.14" width="54.97" height="55.26"/><rect class="cls-1" x="293.53" y="399.14" width="54.97" height="55.26"/><rect class="cls-1" x="348.49" y="399.14" width="54.97" height="55.26"/><rect class="cls-1" x="403.46" y="399.14" width="54.97" height="55.26"/><rect class="cls-1" x="458.42" y="399.14" width="54.97" height="55.26"/><rect class="cls-1" x="513.39" y="399.14" width="54.97" height="55.26"/><rect class="cls-1" x="568.35" y="399.14" width="54.97" height="55.26"/><rect class="cls-1" x="623.32" y="399.14" width="54.97" height="55.26"/><rect class="cls-1" x="678.28" y="399.14" width="54.97" height="55.26"/><rect class="cls-1" x="733.25" y="399.14" width="54.97" height="55.26"/><rect class="cls-1" x="788.21" y="399.14" width="54.97" height="55.26"/><rect class="cls-1" x="843.18" y="399.14" width="54.97" height="55.26"/><rect class="cls-1" x="898.15" y="399.14" width="54.97" height="55.26"/><rect class="cls-1" x="953.11" y="399.14" width="54.97" height="55.26"/><rect class="cls-1" x="1008.08" y="399.14" width="54.97" height="55.26"/><rect class="cls-1" x="1063.04" y="399.14" width="54.97" height="55.26"/><rect class="cls-1" x="18.7" y="454.4" width="54.97" height="55.26"/><rect class="cls-1" x="73.67" y="454.4" width="54.97" height="55.26"/><rect class="cls-1" x="128.63" y="454.4" width="54.97" height="55.26"/><rect class="cls-1" x="183.6" y="454.4" width="54.97" height="55.26"/><rect class="cls-1" x="238.56" y="454.4" width="54.97" height="55.26"/><rect class="cls-1" x="293.53" y="454.4" width="54.97" height="55.26"/><rect class="cls-1" x="348.49" y="454.4" width="54.97" height="55.26"/><rect class="cls-1" x="403.46" y="454.4" width="54.97" height="55.26"/><rect class="cls-1" x="458.42" y="454.4" width="54.97" height="55.26"/><rect class="cls-1" x="513.39" y="454.4" width="54.97" height="55.26"/><rect class="cls-1" x="568.35" y="454.4" width="54.97" height="55.26"/><rect class="cls-1" x="623.32" y="454.4" width="54.97" height="55.26"/><rect class="cls-1" x="678.28" y="454.4" width="54.97" height="55.26"/><rect class="cls-1" x="733.25" y="454.4" width="54.97" height="55.26"/><rect class="cls-1" x="788.21" y="454.4" width="54.97" height="55.26"/><rect class="cls-1" x="843.18" y="454.4" width="54.97" height="55.26"/><rect class="cls-1" x="898.15" y="454.4" width="54.97" height="55.26"/><rect class="cls-1" x="953.11" y="454.4" width="54.97" height="55.26"/><rect class="cls-1" x="1008.08" y="454.4" width="54.97" height="55.26"/><rect class="cls-1" x="1063.04" y="454.4" width="54.97" height="55.26"/><rect class="cls-1" x="1118.58" y="12.35" width="54.97" height="55.26"/><rect class="cls-1" x="1173.54" y="12.35" width="54.97" height="55.26"/><rect class="cls-1" x="1228.51" y="12.35" width="54.97" height="55.26"/><rect class="cls-1" x="1283.47" y="12.35" width="54.97" height="55.26"/><rect class="cls-1" x="1338.44" y="12.35" width="54.97" height="55.26"/><rect class="cls-1" x="1118.58" y="67.6" width="54.97" height="55.26"/><rect class="cls-1" x="1173.54" y="67.6" width="54.97" height="55.26"/><rect class="cls-1" x="1228.51" y="67.6" width="54.97" height="55.26"/><rect class="cls-1" x="1283.47" y="67.6" width="54.97" height="55.26"/><rect class="cls-1" x="1338.44" y="67.6" width="54.97" height="55.26"/><rect class="cls-4" x="1118.58" y="122.86" width="54.97" height="55.26"/><rect class="cls-4" x="1173.54" y="122.86" width="54.97" height="55.26"/><rect class="cls-5" x="1228.51" y="122.86" width="54.97" height="55.26"/><rect class="cls-1" x="1283.47" y="122.86" width="54.97" height="55.26"/><rect class="cls-4" x="1338.44" y="122.86" width="54.97" height="55.26"/><rect class="cls-5" x="1118.58" y="178.12" width="54.97" height="55.26"/><rect class="cls-1" x="1173.54" y="178.12" width="54.97" height="55.26"/><rect class="cls-1" x="1228.51" y="178.12" width="54.97" height="55.26"/><rect class="cls-1" x="1283.47" y="178.12" width="54.97" height="55.26"/><rect class="cls-5" x="1338.44" y="178.12" width="54.97" height="55.26"/><rect class="cls-4" x="1118.58" y="233.37" width="54.97" height="55.26"/><rect class="cls-1" x="1173.54" y="233.37" width="54.97" height="55.26"/><rect class="cls-1" x="1228.51" y="233.37" width="54.97" height="55.26"/><rect class="cls-1" x="1283.47" y="233.37" width="54.97" height="55.26"/><rect class="cls-4" x="1338.44" y="233.37" width="54.97" height="55.26"/><rect class="cls-4" x="1118.58" y="288.63" width="54.97" height="55.26"/><rect class="cls-1" x="1173.54" y="288.63" width="54.97" height="55.26"/><rect class="cls-4" x="1228.51" y="288.63" width="54.97" height="55.26"/><rect class="cls-1" x="1283.47" y="288.63" width="54.97" height="55.26"/><rect class="cls-4" x="1338.44" y="288.63" width="54.97" height="55.26"/><rect class="cls-5" x="1118.58" y="343.88" width="54.97" height="55.26"/><rect class="cls-4" x="1173.54" y="343.88" width="54.97" height="55.26"/><rect class="cls-5" x="1228.51" y="343.88" width="54.97" height="55.26"/><rect class="cls-1" x="1283.47" y="343.88" width="54.97" height="55.26"/><rect class="cls-4" x="1338.44" y="343.88" width="54.97" height="55.26"/><rect class="cls-1" x="1118.58" y="399.14" width="54.97" height="55.26"/><rect class="cls-1" x="1173.54" y="399.14" width="54.97" height="55.26"/><rect class="cls-1" x="1228.51" y="399.14" width="54.97" height="55.26"/><rect class="cls-1" x="1283.47" y="399.14" width="54.97" height="55.26"/><rect class="cls-1" x="1338.44" y="399.14" width="54.97" height="55.26"/><rect class="cls-1" x="1118.58" y="454.4" width="54.97" height="55.26"/><rect class="cls-1" x="1173.54" y="454.4" width="54.97" height="55.26"/><rect class="cls-1" x="1228.51" y="454.4" width="54.97" height="55.26"/><rect class="cls-1" x="1283.47" y="454.4" width="54.97" height="55.26"/><rect class="cls-1" x="1338.44" y="454.4" width="54.97" height="55.26"/><rect class="cls-1" x="1393.97" y="12.35" width="54.97" height="55.26"/><rect class="cls-1" x="1448.94" y="12.35" width="54.97" height="55.26"/><rect class="cls-1" x="1503.9" y="12.35" width="54.97" height="55.26"/><rect class="cls-1" x="1558.87" y="12.35" width="54.97" height="55.26"/><rect class="cls-1" x="1613.83" y="12.35" width="54.97" height="55.26"/><rect class="cls-1" x="1393.97" y="67.6" width="54.97" height="55.26"/><rect class="cls-1" x="1448.94" y="67.6" width="54.97" height="55.26"/><rect class="cls-1" x="1503.9" y="67.6" width="54.97" height="55.26"/><rect class="cls-1" x="1558.87" y="67.6" width="54.97" height="55.26"/><rect class="cls-1" x="1613.83" y="67.6" width="54.97" height="55.26"/><rect class="cls-4" x="1393.97" y="122.86" width="54.97" height="55.26"/><rect class="cls-5" x="1448.94" y="122.86" width="54.97" height="55.26"/><rect class="cls-1" x="1503.9" y="122.86" width="54.97" height="55.26"/><rect class="cls-6" x="1558.87" y="122.86" width="54.97" height="55.26"/><rect class="cls-5" x="1613.83" y="122.86" width="54.97" height="55.26"/><rect class="cls-1" x="1393.97" y="178.12" width="54.97" height="55.26"/><rect class="cls-1" x="1448.94" y="178.12" width="54.97" height="55.26"/><rect class="cls-1" x="1503.9" y="178.12" width="54.97" height="55.26"/><rect class="cls-5" x="1558.87" y="178.12" width="54.97" height="55.26"/><rect class="cls-1" x="1613.83" y="178.12" width="54.97" height="55.26"/><rect class="cls-5" x="1393.97" y="233.37" width="54.97" height="55.26"/><rect class="cls-1" x="1448.94" y="233.37" width="54.97" height="55.26"/><rect class="cls-1" x="1503.9" y="233.37" width="54.97" height="55.26"/><rect class="cls-6" x="1558.87" y="233.37" width="54.97" height="55.26"/><rect class="cls-6" x="1613.83" y="233.37" width="54.97" height="55.26"/><rect class="cls-1" x="1393.97" y="288.63" width="54.97" height="55.26"/><rect class="cls-1" x="1448.94" y="288.63" width="54.97" height="55.26"/><rect class="cls-1" x="1503.9" y="288.63" width="54.97" height="55.26"/><rect class="cls-5" x="1558.87" y="288.63" width="54.97" height="55.26"/><rect class="cls-1" x="1613.83" y="288.63" width="54.97" height="55.26"/><rect class="cls-5" x="1393.97" y="343.88" width="54.97" height="55.26"/><rect class="cls-4" x="1448.94" y="343.88" width="54.97" height="55.26"/><rect class="cls-1" x="1503.9" y="343.88" width="54.97" height="55.26"/><rect class="cls-6" x="1558.87" y="343.88" width="54.97" height="55.26"/><rect class="cls-6" x="1613.83" y="343.88" width="54.97" height="55.26"/><rect class="cls-1" x="1393.97" y="399.14" width="54.97" height="55.26"/><rect class="cls-1" x="1448.94" y="399.14" width="54.97" height="55.26"/><rect class="cls-1" x="1503.9" y="399.14" width="54.97" height="55.26"/><rect class="cls-1" x="1558.87" y="399.14" width="54.97" height="55.26"/><rect class="cls-1" x="1613.83" y="399.14" width="54.97" height="55.26"/><rect class="cls-1" x="1393.97" y="454.4" width="54.97" height="55.26"/><rect class="cls-1" x="1448.94" y="454.4" width="54.97" height="55.26"/><rect class="cls-1" x="1503.9" y="454.4" width="54.97" height="55.26"/><rect class="cls-1" x="1558.87" y="454.4" width="54.97" height="55.26"/><rect class="cls-1" x="1613.83" y="454.4" width="54.97" height="55.26"/><rect class="cls-1" x="1669.37" y="12.35" width="54.97" height="55.26"/><rect class="cls-1" x="1724.33" y="12.35" width="54.97" height="55.26"/><rect class="cls-1" x="1779.3" y="12.35" width="54.97" height="55.26"/><rect class="cls-1" x="1834.26" y="12.35" width="54.97" height="55.26"/><rect class="cls-1" x="1889.23" y="12.35" width="54.97" height="55.26"/><rect class="cls-1" x="1669.37" y="67.6" width="54.97" height="55.26"/><rect class="cls-1" x="1724.33" y="67.6" width="54.97" height="55.26"/><rect class="cls-1" x="1779.3" y="67.6" width="54.97" height="55.26"/><rect class="cls-1" x="1834.26" y="67.6" width="54.97" height="55.26"/><rect class="cls-1" x="1889.23" y="67.6" width="54.97" height="55.26"/><rect class="cls-6" x="1669.37" y="122.86" width="54.97" height="55.26"/><rect class="cls-1" x="1724.33" y="122.86" width="54.97" height="55.26"/><rect class="cls-4" x="1779.3" y="122.86" width="54.97" height="55.26"/><rect class="cls-1" x="1834.26" y="122.86" width="54.97" height="55.26"/><rect class="cls-1" x="1889.23" y="122.86" width="54.97" height="55.26"/><rect class="cls-1" x="1669.37" y="178.12" width="54.97" height="55.26"/><rect class="cls-1" x="1724.33" y="178.12" width="54.97" height="55.26"/><rect class="cls-5" x="1779.3" y="178.12" width="54.97" height="55.26"/><rect class="cls-1" x="1834.26" y="178.12" width="54.97" height="55.26"/><rect class="cls-5" x="1889.23" y="178.12" width="54.97" height="55.26"/><rect class="cls-1" x="1669.37" y="233.37" width="54.97" height="55.26"/><rect class="cls-1" x="1724.33" y="233.37" width="54.97" height="55.26"/><rect class="cls-4" x="1779.3" y="233.37" width="54.97" height="55.26"/><rect class="cls-4" x="1834.26" y="233.37" width="54.97" height="55.26"/><rect class="cls-1" x="1889.23" y="233.37" width="54.97" height="55.26"/><rect class="cls-1" x="1669.37" y="288.63" width="54.97" height="55.26"/><rect class="cls-1" x="1724.33" y="288.63" width="54.97" height="55.26"/><rect class="cls-4" x="1779.3" y="288.63" width="54.97" height="55.26"/><rect class="cls-1" x="1834.26" y="288.63" width="54.97" height="55.26"/><rect class="cls-5" x="1889.23" y="288.63" width="54.97" height="55.26"/><rect class="cls-5" x="1669.37" y="343.88" width="54.97" height="55.26"/><rect class="cls-1" x="1724.33" y="343.88" width="54.97" height="55.26"/><rect class="cls-4" x="1779.3" y="343.88" width="54.97" height="55.26"/><rect class="cls-1" x="1834.26" y="343.88" width="54.97" height="55.26"/><rect class="cls-1" x="1889.23" y="343.88" width="54.97" height="55.26"/><rect class="cls-1" x="1669.37" y="399.14" width="54.97" height="55.26"/><rect class="cls-1" x="1724.33" y="399.14" width="54.97" height="55.26"/><rect class="cls-1" x="1779.3" y="399.14" width="54.97" height="55.26"/><rect class="cls-1" x="1834.26" y="399.14" width="54.97" height="55.26"/><rect class="cls-1" x="1889.23" y="399.14" width="54.97" height="55.26"/><rect class="cls-1" x="1669.37" y="454.4" width="54.97" height="55.26"/><rect class="cls-1" x="1724.33" y="454.4" width="54.97" height="55.26"/><rect class="cls-1" x="1779.3" y="454.4" width="54.97" height="55.26"/><rect class="cls-1" x="1834.26" y="454.4" width="54.97" height="55.26"/><rect class="cls-1" x="1889.23" y="454.4" width="54.97" height="55.26"/><rect class="cls-1" x="1945.1" y="12.35" width="54.97" height="55.26"/><rect class="cls-1" x="2000.07" y="12.35" width="54.97" height="55.26"/><rect class="cls-1" x="2055.03" y="12.35" width="54.97" height="55.26"/><rect class="cls-1" x="1945.1" y="67.6" width="54.97" height="55.26"/><rect class="cls-1" x="2000.07" y="67.6" width="54.97" height="55.26"/><rect class="cls-1" x="2055.03" y="67.6" width="54.97" height="55.26"/><rect class="cls-4" x="1945.1" y="122.86" width="54.97" height="55.26"/><rect class="cls-1" x="2000.07" y="122.86" width="54.97" height="55.26"/><rect class="cls-1" x="2055.03" y="122.86" width="54.97" height="55.26"/><rect class="cls-1" x="1945.1" y="178.12" width="54.97" height="55.26"/><rect class="cls-1" x="2000.07" y="178.12" width="54.97" height="55.26"/><rect class="cls-1" x="2055.03" y="178.12" width="54.97" height="55.26"/><rect class="cls-1" x="1945.1" y="233.37" width="54.97" height="55.26"/><rect class="cls-1" x="2000.07" y="233.37" width="54.97" height="55.26"/><rect class="cls-1" x="2055.03" y="233.37" width="54.97" height="55.26"/><rect class="cls-1" x="1945.1" y="288.63" width="54.97" height="55.26"/><rect class="cls-1" x="2000.07" y="288.63" width="54.97" height="55.26"/><rect class="cls-1" x="2055.03" y="288.63" width="54.97" height="55.26"/><rect class="cls-5" x="1945.1" y="343.88" width="54.97" height="55.26"/><rect class="cls-1" x="2000.07" y="343.88" width="54.97" height="55.26"/><rect class="cls-1" x="2055.03" y="343.88" width="54.97" height="55.26"/><rect class="cls-1" x="1945.1" y="399.14" width="54.97" height="55.26"/><rect class="cls-1" x="2000.07" y="399.14" width="54.97" height="55.26"/><rect class="cls-1" x="2055.03" y="399.14" width="54.97" height="55.26"/><rect class="cls-1" x="1945.1" y="454.4" width="54.97" height="55.26"/><rect class="cls-1" x="2000.07" y="454.4" width="54.97" height="55.26"/><rect class="cls-1" x="2055.03" y="454.4" width="54.97" height="55.26"/></svg>