<svg height="60" id="Layer_1" data-name="Layer 1" xmlns="http://www.w3.org/2000/svg" viewBox="0 0 782 406.28">
  <defs>
    <style>
      .cls-1 {
        fill: #2ab57d;
      }

      .cls-2 {
        fill: #939291;
      }
    </style>
  </defs>
  <title>Mazegeek Logo</title>
  <g>
    <polygon class="cls-1" points="432.16 116.18 447.15 101.95 350.34 0 231.55 112.82 328.36 214.76 343.32 200.56 277.74 131.48 366.58 47.1 432.16 116.18"/>
    <polygon class="cls-2" points="438.68 25.55 504.26 94.62 415.42 178.97 349.84 109.92 334.88 124.13 431.66 226.08 550.48 113.26 453.66 11.31 438.68 25.55"/>
    <g>
      <path class="cls-2" d="M78,352,54.68,414.14,28.3,352.44v58H5V309H43.06L58.7,349.49,75.59,309h34.62V410.62H78Z" transform="translate(-5 -7.86)"/>
      <path class="cls-2" d="M148.13,395.34l-5.71,15.07H119.35l37.93-101.66h28.93l38.55,101.66H190.88l-5.66-15.07Zm30.26-17.59-11.76-31.28-11.73,31.28Z" transform="translate(-5 -7.86)"/>
      <path class="cls-2" d="M276.64,325.88H236.32V309h84.53l-46.16,84.46h46.92v17H229.85Z" transform="translate(-5 -7.86)"/>
      <path class="cls-2" d="M334,309h73.82v17.23H366.1V349h34.07v17.26H366v26.85h42.44v17.26H334Z" transform="translate(-5 -7.86)"/>
      <path class="cls-1" d="M506.52,365.73v38.34a19.21,19.21,0,0,1-5.94,2.79,94.8,94.8,0,0,1-15.64,4.25,108.74,108.74,0,0,1-21.19,1.9q-26.46,0-37.2-13.71t-10.74-42.72q1.09-48.87,46.19-50.1a181.3,181.3,0,0,1,19.65,1,121.73,121.73,0,0,1,13.71,2.19,27.16,27.16,0,0,1,5.21,1.43l4.35,22.23-4.59-1.93a72.61,72.61,0,0,0-11-3.47,62.56,62.56,0,0,0-14.65-1.56q-2,0-6.78.42-11.57,1-16.45,8.86T446.57,357a172,172,0,0,0,.83,19,25.65,25.65,0,0,0,4.54,12.33,15.22,15.22,0,0,0,11.63,5.92,57.53,57.53,0,0,0,12-1.07,59.69,59.69,0,0,0,6.73-1.75V365.76Z" transform="translate(-5 -7.86)"/>
      <path class="cls-1" d="M520.52,309h73.82v17.23H552.63V349h34.23v17.26H552.53v26.85H595v17.26H520.52Z" transform="translate(-5 -7.86)"/>
      <path class="cls-1" d="M606,309h73.82v17.23H638.08V349h34.23v17.26H638v26.85h42.46v17.26H606Z" transform="translate(-5 -7.86)"/>
      <path class="cls-1" d="M782.2,309,747.54,352.1,787,410.49H756.48l-24.61-37.93-9.36,11.76v26.07h-32V309h32v42L755,309Z" transform="translate(-5 -7.86)"/>
    </g>
  </g>
</svg>
