<svg width="190" id="Layer_1" data-name="Layer 1" xmlns="http://www.w3.org/2000/svg" viewBox="0 0 676.83 114.27"><defs><style>.cls-1{fill:#2ab57d;}.cls-2{fill:#939291;}</style></defs><title>mazegeek-web-logo</title><polygon class="cls-1" points="101.39 58.72 108.97 51.53 60.04 0 0 57.02 48.93 108.55 56.49 101.37 23.35 66.45 68.25 23.81 101.39 58.72"/><polygon class="cls-2" points="104.69 12.91 137.84 47.83 92.94 90.46 59.79 55.56 52.23 62.74 101.14 114.27 161.2 57.25 112.26 5.72 104.69 12.91"/><path class="cls-2" d="M285.67,300.76,271,339.94,254.36,301v36.55H239.67v-64h24l9.86,25.56,10.65-25.56H306v64.1H285.67Z" transform="translate(-55.9 -248.87)"/><path class="cls-2" d="M329.91,328.09l-3.6,9.5H311.77l23.91-64.1h18.24l24.31,64.1H356.87l-3.57-9.5ZM349,317l-7.41-19.72L334.19,317Z" transform="translate(-55.9 -248.87)"/><path class="cls-2" d="M410.94,284.29H385.52V273.62h53.3l-29.11,53.25h29.58v10.7H381.44Z" transform="translate(-55.9 -248.87)"/><path class="cls-2" d="M447.1,273.62h46.55v10.86h-26.3V298.9h21.48v10.88H467.28v16.93H494v10.88H447.1Z" transform="translate(-55.9 -248.87)"/><path class="cls-1" d="M555.89,309.42V333.6a12.11,12.11,0,0,1-3.75,1.76,59.78,59.78,0,0,1-9.86,2.68,68.57,68.57,0,0,1-13.36,1.2q-16.68,0-23.45-8.65t-6.77-26.94q.69-30.82,29.12-31.59a114.31,114.31,0,0,1,12.39.61,76.76,76.76,0,0,1,8.65,1.38,17.13,17.13,0,0,1,3.29.9l2.74,14L552,287.76a45.79,45.79,0,0,0-7-2.19,39.45,39.45,0,0,0-9.24-1q-1.25,0-4.27.26-7.3.66-10.37,5.59t-3.07,13.49a108.47,108.47,0,0,0,.53,12,16.17,16.17,0,0,0,2.86,7.77,9.6,9.6,0,0,0,7.33,3.73,36.28,36.28,0,0,0,7.56-.67,37.64,37.64,0,0,0,4.24-1.1V309.44Z" transform="translate(-55.9 -248.87)"/><path class="cls-1" d="M564.71,273.62h46.55v10.86H585V298.9h21.58v10.88H584.9v16.93h26.77v10.88h-47Z" transform="translate(-55.9 -248.87)"/><path class="cls-1" d="M618.59,273.62h46.55v10.86h-26.3V298.9h21.58v10.88H638.76v16.93h26.77v10.88H618.59Z" transform="translate(-55.9 -248.87)"/><path class="cls-1" d="M729.71,273.62l-21.86,27.2,24.88,36.82H713.49L698,313.73l-5.9,7.41v16.44h-20.2v-64h20.2v26.46l20.48-26.46Z" transform="translate(-55.9 -248.87)"/></svg>