<svg width="95" id="Layer_1" data-name="Layer 1" xmlns="http://www.w3.org/2000/svg" xmlns:xlink="http://www.w3.org/1999/xlink" viewBox="0 0 195.02 195.02"><defs><style>.cls-1{fill:none;}.cls-2{clip-path:url(#clip-path);}.cls-3{fill:#540070;}.cls-4{fill:#fefefe;}.cls-5{fill:#53006d;}.cls-6{fill:#550074;}.cls-7{fill:#e3effe;}.cls-8{fill:#d4e5fe;}.cls-9{fill:#c3dcfe;}.cls-10{fill:#c6defe;}.cls-11{fill:#cfe3fe;}.cls-12{fill:#c9e0fe;}.cls-13{fill:#e1edfe;}.cls-14{fill:#cae0fe;}.cls-15{fill:#cde2fe;}.cls-16{fill:#dfecfe;}.cls-17{fill:#d7e7fe;}.cls-18{fill:#e0ecfe;}.cls-19{fill:#d6e7fe;}.cls-20{fill:#fdfcfd;}.cls-21{fill:#fafcfe;}.cls-22{fill:#f6f9fe;}.cls-23{fill:#510167;}.cls-24{fill:#590c71;}.cls-25{fill:#540569;}.cls-26{fill:#ccb5d3;}.cls-27{fill:#c4a9cd;}.cls-28{fill:#530368;}.cls-29{fill:#540769;}.cls-30{fill:#601674;}.cls-31{fill:#c6abce;}.cls-32{fill:#b08bb9;}.cls-33{fill:#743586;}.cls-34{fill:#e4d8e6;}.cls-35{fill:#601774;}.cls-36{fill:#a37aaf;}.cls-37{fill:#cdb5d2;}.cls-38{fill:#dbcade;}.cls-39{fill:#d4c0da;}.cls-40{fill:#652078;}.cls-41{fill:#510067;}.cls-42{fill:#b898c2;}.cls-43{fill:#ebf3fe;}.cls-44{fill:#edf5fe;}.cls-45{fill:#e7f1fe;}.cls-46{fill:#510069;}.cls-47{fill:#fdfdfd;}.cls-48{fill:#c9afd0;}.cls-49{fill:#67207d;}.cls-50{fill:#c3a7cb;}.cls-51{fill:#c5ddfe;}.cls-52{fill:#c5defe;}.cls-53{fill:#f7fafe;}.cls-54{fill:#f5f8fe;}.cls-55{fill:#51006b;}.cls-56{fill:#53026b;}.cls-57{fill:#e8f1fe;}.cls-58{fill:#f2f7fe;}.cls-59{fill:#570a6d;}.cls-60{fill:#804590;}.cls-61{fill:#bd9fc5;}.cls-62{fill:#dacadf;}.cls-63{fill:#f7f3f8;}.cls-64{fill:#f4eff5;}.cls-65{fill:#f7f3f7;}.cls-66{clip-path:url(#clip-path-2);}.cls-67{fill:#c1dbfe;}.cls-68{fill:#dbeafe;}.cls-69{fill:#bdd9fe;}.cls-70{fill:#bbd8fe;}.cls-71{fill:#bcd9fe;}.cls-72{fill:#cce1fe;}.cls-73{fill:#510169;}.cls-74{fill:#4d0160;}</style><clipPath id="clip-path"><circle class="cls-1" cx="338.15" cy="97.22" r="90.98"/></clipPath><clipPath id="clip-path-2"><path class="cls-1" d="M191.61,97a93.63,93.63,0,0,1-5.28,31.1c-.16.46-.33.92-.5,1.38-.07.2-.14.4-.22.6-.16.43-.33.87-.5,1.3l-.26.66c-.07.18-.15.35-.21.53l-.23.53c-.07.19-.16.38-.24.57s-.21.51-.33.76-.2.47-.31.71c-.35.8-.72,1.6-1.1,2.39a94.1,94.1,0,0,1-10.5,17l-.7.89a93.82,93.82,0,0,1-138,9.82,95.26,95.26,0,0,1-9-9.82c-.44-.55-.87-1.1-1.29-1.66l-.69-.93-.63-.84-.11-.16c-.43-.6-.86-1.21-1.28-1.83l-.59-.87c-.72-1.08-1.42-2.17-2.09-3.27l-.51-.84-.49-.83c-.16-.29-.33-.57-.49-.85l-.58-1c-.4-.71-.78-1.43-1.15-2.15L13.78,139v0c-.54-1.08-1.06-2.19-1.57-3.29s-1-2.25-1.45-3.39c-.16-.38-.31-.76-.46-1.14-.3-.76-.59-1.53-.87-2.3L9,127.73l-.4-1.17c-.25-.78-.5-1.56-.74-2.35l-.09-.31c-.1-.32-.2-.65-.29-1l-.27-1c-.13-.44-.25-.89-.36-1.34A93.88,93.88,0,1,1,191.61,97Z"/></clipPath></defs><title>1</title><g class="cls-2"><path class="cls-3" d="M197.8,162c12,.21,24.08.09,36.11.53,20.69.74,41.38,1.24,62.08,1.35a12.44,12.44,0,0,1,2,.19,11.31,11.31,0,0,0,6.2.65,28.36,28.36,0,0,1,5.45,0c6.5.73,13,.38,19.52.17,8.52-.29,17.07-1,25.54.58,2.4.45,4.7-.16,7-.15,7.54,0,15.11-.49,22.6.12,11,.9,22,.2,33,.62,6.93,1,13.89.27,20.84.47,3.25.1,6.51-.21,9.75.27a8.15,8.15,0,0,0,3.63.45c3.13.05,6.27-.15,9.39.14,5.72.73,11.44.36,17.18.19,8.53-.25,17.1-1.05,25.58.63,3.05.61,6.05-.09,9.07-.16,17.89-.37,35.76,1.14,53.66.67a4.2,4.2,0,0,1,3.15.94V202.2a3.55,3.55,0,0,1-2.45,1c-6.07-.06-12.15.74-18.2-.19a32.19,32.19,0,0,0-4.38-.35c-12.72-.25-25.45-.31-38.17-.47-21.74-.28-43.48-.76-65.22-1-25.33-.32-50.67-.88-76-1.41-11.26-.24-22.53,0-33.77-.55-13.74-.72-27.5-.05-41.21-.76-11.61-.61-23.22.05-34.8-.61-12.95-.73-25.92,0-38.84-.74-12.06-.67-24.12.08-36.14-.62"/><path class="cls-4" d="M179.05,83.93c8.21-.29,16.42-.37,24.61-.66,16.31-.57,32.64-.52,49-1.47,5.36-.31,10.79.56,16.13-.61a5.68,5.68,0,0,1,1.22-.28c5.37-.48,10.73-1.48,16.15-.46.73.86,1.55.2,2.34.11,7,1,14.06.19,21.1.25,2.38,0,3.44-1.27,3.41-3.59,0-.89,0-1.79,0-2.69a4.18,4.18,0,0,1,.81-2.82c1.73-.46.73-1.44.42-2.29.07-2.2,1.64-3.28,3.29-2.52,2.58,1.18,1.47-.69,1.67-1.55s.29-1.74,1.35-2a3.48,3.48,0,0,1,2,1.78A12.71,12.71,0,0,1,323,69c0,2.66.12,5.34-1.23,7.78a1.09,1.09,0,0,1-.91.49,7.9,7.9,0,0,1-3.45-5.63c-1.08,3.42.22,7.6-1.51,11.35-.43.94-1.42,1.34-2.05,2.17a1,1,0,0,1,1.72.16,1.91,1.91,0,0,1-.18,2,2,2,0,0,1-1.45.43c-3.82-1.62-3.83-1.62-4.49,2.54-.25,1.53-.46,3.07-.84,4.58-.24,1-.33,2.41-2.07,1.73-2.48-1.66-2.61-3.93-1.89-6.56.81-3,.32-3.8-2.74-3.77-11.24.11-22.5-.65-33.74.45a28.7,28.7,0,0,1-3.71.15c-11.37-.4-22.7,1.1-34.07.71a3.59,3.59,0,0,0-2.75.66c.78,1.59,3.25,2.72,1.84,5.07-2.37,1.23-4.14.6-6.59-2.42-.57,1.49-1.87,2.07-3.12,2.7a37.15,37.15,0,0,0-4.86,3c-4.48,3.17-5.73,7.48-4.59,12.67-.65,1.82.07,3.89-1,5.62a.94.94,0,0,1-1,.19,2.39,2.39,0,0,1-.59-.9c-.58-2.91,0-5.88-.41-8.79-.39-.18-.12-2-1.18-.45a14.41,14.41,0,0,0-.21,4c0,.49,0,1,0,1.49a13.9,13.9,0,0,1-.25,3.64,2.33,2.33,0,0,1-.95,1.25,3.75,3.75,0,0,1-1.51.39,4.74,4.74,0,0,1-1.5-.16,4.41,4.41,0,0,1-1.91-1.42,2.13,2.13,0,0,1-.53-1.24,11.59,11.59,0,0,0,0-2.94c-.3-.67-.6-.55-.76.06a6.59,6.59,0,0,0,0,2.58,2.22,2.22,0,0,1-.11.92,2.11,2.11,0,0,1-.68.65c-.61.25-1.23.46-1.78-.12a2.31,2.31,0,0,1-.26-.92c.91-4-1.32-6.27-4.48-8.06-1.25-.71-3.13-.95-2.84-3,.22,2-1.49,2.57-2.92,3.23-3.38,1.54-5,4-4.29,7.75a2.52,2.52,0,0,1-.28.92,1.35,1.35,0,0,1-.84.47,1.81,1.81,0,0,1-1.16-.84,3.33,3.33,0,0,1-.33-.88c-.15-.73-.09-1.48-.21-2.21-.06-.33.09-1-.52-.84-.35.09-.3.73-.36,1.15-.05,1,0,2,0,2.94a29,29,0,0,1-.14,4.75,3.36,3.36,0,0,1-.37,1,2.21,2.21,0,0,1-1.24.83,16,16,0,0,0-2.73.93,2,2,0,0,1-1-.28,2.53,2.53,0,0,1-.9-1.28c-.25-3.76-.81-7.54.47-11.24.67-1.3-.45-2.35-.53-3.54a5.88,5.88,0,0,1-.1-.94c0-.61,0-1.23,0-1.85.19-1.81-1.43-2.56-2.26-3.84a10.63,10.63,0,0,0-2.52,2.79,2.51,2.51,0,0,0,0,1.58,5.77,5.77,0,0,1,.2.82,6.11,6.11,0,0,1,.08.85,5.1,5.1,0,0,1-.07.87c-.12,1-.93,1.78-.7,2.85a8.17,8.17,0,0,1,.81,1.75,33.11,33.11,0,0,1-.16,10.23,11.47,11.47,0,0,0-.91,2.16c-.28,10.18.15,20.36-.2,30.54-.22,1.44-1.44,2.27-2.12,3.42"/><path class="cls-5" d="M162.07,157.16a6.84,6.84,0,0,1,.24-2c-.12-1.65,1.62-.88,2.17-1.65a10.78,10.78,0,0,0,.25-5c-.21-2.74,1.1-3.59,3.54-3.49a10.28,10.28,0,0,1,3.94.44c2.28,2,.69,4.76,1.53,7a1,1,0,0,0,1.48.24c1.23-2.2-.47-5,1.44-7.05,3.24-.25,3.28-.2,3.33,3.7.48-4-1.54-8.7.7-13.17a3.11,3.11,0,0,1,3.38.06c1.17,2.49.08,5.07.32,7.61.16,1.67,0,3.36,0,5a4.46,4.46,0,0,0,6.94,3.79c1.34-.77,1-2.12,1.09-3.3.26-4.35-.42-8.72.32-13.06a3.08,3.08,0,0,1,3.32-.22c2,2.68.91,5.77,1,8.67,0,1.67-.12,3.38-.17,5.07a14.26,14.26,0,0,1,.24-3.63c3.21-1.51,3.89-.88,3.88,3.62,0,.45-.21,0,0,.31.37.51.28-.35.58-.33a1.57,1.57,0,0,1,1.29-.06c1.33.69.35,2.86,2.12,3.26a27.24,27.24,0,0,0,3.5.12h1.65c1.77,0,3.54,0,5.31,0q7.44-.24,14.88,0c1.78,0,3.57-.09,5.35,0l1.7,0c1.09,0,2.18,0,3.27,0a12.94,12.94,0,0,0,5.9-1.09c7.68-2.91,15.24-6.11,23-8.91,1.35-.49,2.68-1.3,4.18-.51,1.19,1.69,1.37-.33,2-.58,4.39-3.19,7.72-7.57,12.12-10.74,1.17-.84,2.13-2.59,4-1.21a2.1,2.1,0,0,1,.12.93c-.25,1.07-.81,2-1.08,3.1-.54,1.46-.93,3-1.41,4.45-.6.79-.55,1.81-1,2.66-.51,1.83-1.26,3.58-1.73,5.43-.33,1-.62,2.08-.94,3.11a4.76,4.76,0,0,1-.21.6c-.12.28-.16.62-.49.76.42-.13.41-.55.58-.85q.48-1.53.93-3.06c.56-2,1.28-4,2-6,.34-.81.35-1.77,1.1-2.4a3.31,3.31,0,0,1,1.06-.44c2.75-.16,5.53-.66,8.2.5,1.74,1.94.58,4,.37,6.1a26.51,26.51,0,0,1-.71,4.6,9.16,9.16,0,0,1-.3,1.63c-.12.44-.29-.07-.1.28s.22-.27.46-.26c3-1.67,6.18-.68,9.29-.44.47.1.91.77,1.42.06a6,6,0,0,0-.09-3.58,5.87,5.87,0,0,1,.28-2.85c.1-.48.25-.95.39-1.41.46-1.13.25-2.36.52-3.51a2.29,2.29,0,0,1,.9-1.37,4.83,4.83,0,0,1,4.51.1,3.39,3.39,0,0,1,.9,2.68,7.57,7.57,0,0,1-.19,1.64,11.37,11.37,0,0,0-.43,4.1c0,1.15,0,2.31,0,3.46.07.68-.33,1.36,0,2a6.78,6.78,0,0,1,.92-.78,4.68,4.68,0,0,1,.9-.44c4.08-1.34,9-.33,12.11-4.42a1.71,1.71,0,0,1,.61.75,27.09,27.09,0,0,0,.54,3.81c.08.33-.05.72.27,1a12.57,12.57,0,0,0-.59-2.89c-.05-.49-.06-1-.07-1.48a41.06,41.06,0,0,1-.25-4.14c.05-1.24-.07-2.48-.11-3.72a1.35,1.35,0,0,1,.55-.91,5.09,5.09,0,0,1,4.33-.1,3.26,3.26,0,0,1,1.38,1.7,5.74,5.74,0,0,1,.36,1.59c.08,1,0,2.09.07,3.13a10.15,10.15,0,0,0,.35,3.43,12.56,12.56,0,0,1,.22,3.67.76.76,0,0,0,.35.76c-.21-.52.15-.82.47-1.14,2.94-1.35,6-.85,9-.56.41.07.85.62,1.15.37s-.19-.75-.23-1.18a6,6,0,0,1-.21-.93c-.2-2.33-.72-4.61-1.12-6.9a5.05,5.05,0,0,1-.07-2.12,3,3,0,0,1,.43-1c3.15-2.46,6.38-1.49,9.61-.21a4.29,4.29,0,0,1,1.18,1.61c.78,1.84,1,3.87,1.86,5.68a6.06,6.06,0,0,1,.32.84,12.18,12.18,0,0,0,1.05,3.33,7.44,7.44,0,0,1,.31.78c.22.86.79.89,1.5.62,3.66-.88,7.4-.29,11.09-.53a39.68,39.68,0,0,0,5.66-.63c1,.1,1.29,1.11,2.09,1.43.36.28.19-.05,0-.07-.52-.06-.84-.62-1.24-1-.53-.58-1.53-.32-2-1.09a30.82,30.82,0,0,0-5.33-4.94c-.4-.53-.76-1.06-.34-1.75,2.38-1.18,4.13.78,6,1.44,7.29,2.58,14.46,5.53,21.64,8.41,1.65.67,3.22,0,5.52.41-2.64-2.5-5.78-2.42-8-4.07-.34-.45-.61-1.06-1.34-.59-1.77.16-2.31-.84-2.26-2.4l.12-4.26c2.75-1.85,5.66-1.21,8.57-.53a3,3,0,0,1,1.24,2.92c-.26,3.28,1.38,4.34,4.37,4.09a4,4,0,0,1,1.63.3c1.29.62,2.1,1.81,3.2,2.66.11,2.15,1.15,2.37,2.79,1.35,1.28-1.27,2.95-1.15,4.48-1,11.69,1.14,23.43,0,35.12.62,14.07.71,28.17.07,42.21.77,11.16.55,22.31,0,33.43.6,11.37.62,22.74.61,34.11.71a4.73,4.73,0,0,1,3.47,1v12.85c-.82.54-1.75.3-2.63.32-17.75.51-35.49-.41-53.22-.85-15.25-.38-30.53-.1-45.78-1-2.43-.15-4.95-.24-7.28.89h-9.47a3.56,3.56,0,0,0-2.7-.67q-13.44,0-26.88,0c-1.45,0-2.92.14-4.24-.68a2.33,2.33,0,0,0-1.61-.34c-15.28.49-30.54-.57-45.81-.77-17.84-.24-35.68-.72-53.53-1.15-2.44-.06-5-.22-7.28.91h-5.41c-1.42-1.32-3.14-.54-4.73-.68-8.34,0-16.71.43-25-.11-10.8-.69-21.62.06-32.37-.72-8.45-.62-16.87-.12-25.28-.54-18-.89-36-.78-54-.76"/><path class="cls-6" d="M172.35,194.88c12.73.88,25.46-.21,38.13.69,12.05.85,24.1-.21,36.09.66,12.61.91,25.24-.2,37.79.69,12.05.85,24.1-.18,36.1.65,13.06.91,26.13-.19,39.14.72,11.37.78,22.73,0,34.07.58,12.94.7,25.9,0,38.8.79,12.39.7,24.78-.24,37.11.63,12.84.9,25.68-.2,38.46.68s25.69-.24,38.46.73c7.74.58,15.42.15,23.12.5.77,2.92-1.06,2.73-3,2.73"/><path class="cls-7" d="M165.17,44.85a50.7,50.7,0,0,0,12.77-1c3-.7,6.06.3,9.08.23,15.42-.34,30.85-.32,46.26-1.11,5.18-.27,10.36-.12,15.54-.14a69.56,69.56,0,0,0,11.08-1,16.54,16.54,0,0,1,4,0,60.85,60.85,0,0,0,13.49-.14c4.82-.66,9.64-.36,14.47-.41,15.75-.16,31.52-.26,47.26-1.17.79,0,1.58,0,2.37-.06,15.29-.23,30.57-.76,45.84-1.7,5.68-.35,11.47.51,17.21.32,18.57-.6,37.16-.69,55.71-1.59,7.54-.36,15-.26,22.56-.41a22.22,22.22,0,0,0,6-.74,10.69,10.69,0,0,1,4.34-.51c10.47,1.33,20.92-.16,31.38-.06,13.3.12,26.57-1.14,39.87-.72,1.78,0,3.64-.23,5.16,1.09v4.74a4.43,4.43,0,0,1-3.15,1c-10.69.13-21.36.57-32,.82-18.2.43-36.39.8-54.58,1.41-6.74.22-13.49.1-20.21.53-11.13.7-22.29.14-33.39.81-8.78.52-17.55.11-26.31.53-16.62.8-33.25,1-49.88,1.52-7.75.22-15.48.59-23.23.19a2.71,2.71,0,0,1-1.4-1.35c-2.12-1.45-3.58-.59-4.73,1.35-1.06,1.14-2.48,1-3.81,1-7.86-.15-15.74-.09-23.58.2-16.31.61-32.62.89-48.92,1.38-6.52.2-13,.06-19.56.51-12.24.85-24.52.17-36.75.9-6.65.4-13.31-.16-19.9.49"/><path class="cls-8" d="M177.74,19q25-1.07,50-1.31c18.47-.2,36.94-.72,55.39-1.42,17.45-.67,34.9-1,52.35-1.33s35.14-.76,52.69-1.37c15.54-.53,31.06-1.16,46.61-1.27,18.69-.13,37.38-.93,56.07-1.46,17.11-.49,34.21-1.42,51.34-1.17,7.56.12,15.06-1.12,22.62-.71,1.68.09,3.42-.13,4.82,1.13v4.73a3.68,3.68,0,0,1-2.82.93c-6.2-.38-12.33.81-18.53.74-11.81-.13-23.62.49-35.42.87-8.88.28-17.79-.1-26.64.54-10.68.76-21.37.18-32,.67-15.51.71-31,.85-46.52,1.45-8.78.34-17.56,0-26.31.57-10.55.67-21.11.23-31.64.69-15.51.69-31,.89-46.52,1.46-9.12.34-18.24,0-27.32.56-10.33.64-20.68.19-31,.7-15.06.75-30.12.91-45.17,1.43-9.23.33-18.47,0-27.66.61"/><path class="cls-9" d="M184.48-3.58c7.89-.61,15.78.13,23.59-.62,9-.87,18,.09,27-.71,8.34-.74,16.67.1,24.94-.67a98,98,0,0,1,19.51-.35c5.71.61,11-1.16,16.62-.93A114.7,114.7,0,0,0,313-6.93c9.12-1,18.22-.12,27.31-.58,16.62-.85,33.26-.88,49.87-1.52,8.55-.33,17.11.16,25.61-.58,9.56-.82,19.15.08,28.65-.73,8.11-.69,16.22.14,24.26-.63,8.95-.85,17.9.1,26.79-.68,5.17-.46,10.31-.56,15.48-.56,12.71,0,25.41-.66,38.11-.9,6.84-.13,13.7-.22,20.55-.47v3.39a7.92,7.92,0,0,1-5,1.61c-1.57,0-3.15.07-4.73,0C545.54-9,531.25-8,517-7.66c-9.22.24-18.48-.18-27.66.57-8.56.7-17.13,0-25.64.68-9.12.7-18.25-.1-27.3.48-17.42,1.11-34.84,1-52.26,1.62-7.53.25-15.06.26-22.59.49-1.58,0-3.18-.09-4.57.87a4.59,4.59,0,0,1-1.26.38c-7.75-.08-15.53.71-23.26-.52-2.17-.35-4.24.54-6.37.58-8.65.17-17.31.25-26,.57-8.48.31-17-.05-25.48.8-3.47.36-6.92-.18-10.4-.13-7.09.08-14.13,1.1-21.24.86-13.28-.45-26.55.56-39.83.87-8.77.2-17.57-.15-26.3.56"/><path class="cls-10" d="M168.35,1.31a19.74,19.74,0,0,0,4-.19,6.83,6.83,0,0,1,2.1-.38,7.7,7.7,0,0,0,4.07-.07c5.55-.13,11.11.16,16.67,0A74.87,74.87,0,0,0,206,0c5.67-.11,11.34,0,17,0,2.26-.19,4.53-.22,6.77-.63,12.25.3,24.47-.68,36.71-.81a9.6,9.6,0,0,0,5.1.15c1.9-.17,3.81.12,5.7-.25A25,25,0,0,0,281.81-2c5.74.3,11.48-.4,17.22-.05,2.83-.12,5.7.39,8.46-.62,6.11-.16,12.23,0,18.35,0,2.89-.13,5.78-.39,8.68-.35,7.11-.19,14.24.46,21.35-.33h.67c1.21-.83,2.59-.68,3.93-.67,16.42.21,32.82-.77,49.23-1.1,6.19-.13,12.4.15,18.56-.32,10.21-.77,20.44-.24,30.63-.69,16.51-.73,33-.94,49.53-1.42,9.22-.26,18.5.18,27.65-.71,10.68-1,21.38.46,32-1.07a2.09,2.09,0,0,1,1.55.57v3.38a2.64,2.64,0,0,1-1.47.79c-7.18.31-14.26,2.32-21.52,1.24a25.47,25.47,0,0,0-8.75.19,53.27,53.27,0,0,1-16.81.4c-4.75-.58-9.45.09-14.14.72a21.37,21.37,0,0,1-5.05.29c-9.45-1-18.86,0-28.28.51a6.25,6.25,0,0,1-1.34.15C461.58-3,451,.67,440.26-.9a23.42,23.42,0,0,0-8.72.61c-4.45,1-9,.75-13.46.37-5.65-.47-11.24-.81-16.8.57a8.51,8.51,0,0,1-3.36.26c-10-1.56-20,.31-30,.21s-19.76,1.47-29.61,1c-6.71-.34-13.21,1.2-19.86.94-6.17-.23-12.37-1.36-18.52,0-4.05.89-8.06.08-12.09,0-9.58-.07-19.16,1.42-28.67.89-9.26-.51-18.36,2.24-27.61.55-4-.74-8,.62-12.08,1-5.87.61-11.69-.5-17.54-.45a27.89,27.89,0,0,0-8,.88,10.17,10.17,0,0,1-3.68.39"/><path class="cls-11" d="M186.72,15.74c9-.77,18,.08,27-.68,9.13-.78,18.26.1,27.32-.69,8.23-.71,16.46.06,24.62-.65,8.33-.73,16.68,0,25-.69,8.9-.78,17.8.06,26.65-.66,9.34-.76,18.71.06,28-.71,8.45-.71,16.9.11,25.28-.65s16.91.06,25.29-.68c9.24-.82,18.49.09,27.67-.69,8.33-.7,16.68.07,24.95-.66,9-.81,18,.07,27-.69,8.45-.72,16.91.08,25.29-.68C508.84,6.88,517,7.58,525,7c13.36-1,26.75-.46,40.11-1.27,1.56-.09,3.19-.23,4.49,1V10.1c-17.22.22-34.43.57-51.64.82-14.37.22-28.75.8-43.1,1.38-8.21.34-16.45-.16-24.6.6-11.25,1-22.5.08-33.73.62-15,.73-30.09.89-45.13,1.5-7.19.29-14.38.07-21.56.52-13.6.85-27.22.28-40.82.74-13.35.47-26.72.78-40.06,1.44-8.89.44-17.79-.17-26.62.58-12.6,1.08-25.21.05-37.79.65-13.8.66-27.62.81-41.41,1.48"/><path class="cls-12" d="M170.62,4.94A16,16,0,0,1,176,4.87a11,11,0,0,0,5.29,0,12.68,12.68,0,0,1,6.35.17,9.3,9.3,0,0,0,5.35.09c5.75-1.81,11.5-1.21,17.33-.59A37.37,37.37,0,0,0,221,4.35a44.49,44.49,0,0,1,15.69-.41c3.78.61,7.59-.51,11.37-.92,2.93-.31,5.82.07,8.67-.07,5.82-.29,11.69.21,17.46-.52A90.19,90.19,0,0,1,292,2.23,35.31,35.31,0,0,0,299.28,2,63.27,63.27,0,0,1,315,1.87a35,35,0,0,0,13.4-.65c3.85-1.06,7.55,0,11.29.08,4.75.12,9.39-.7,14.08-1,1.34-.08,2.74-.54,4-.28,3.25.67,6.44.08,9.65.09,7.66,0,15.25-1.14,22.91-.86,5.11.18,10.13.71,15.34-.42,4-.87,8.45-.32,12.74.23,4.52.58,9.23.8,13.74-.57a20.4,20.4,0,0,1,10-.35c5,1.09,9.83-.24,14.72-.5a38.9,38.9,0,0,1,4.33-.38c8.16.48,16.28-.13,24.42-.44,5.36-.2,10.85-.92,16.34.24,2.82.6,6-.24,9-.72a40.31,40.31,0,0,1,11.71,0,45.33,45.33,0,0,0,15.1-.59,25.72,25.72,0,0,1,10.34,0c4,.81,8.08-.26,12.06-.71,3.15-.37,6.26-.39,9.4-.51v3.38c-1.19,1.13-2.69,1-4.15,1-15.43-.22-30.83.86-46.26.8-8.74,0-17.52.26-26.26.64C477,1,461,1.14,445.05,1.81c-9.57.39-19.16-.18-28.67.63-8.79.74-17.55.17-26.32.57-16.75.78-33.53.94-50.29,1.52-7,.24-13.94.14-20.9.5-11.55.61-23.13.19-34.67.71-15.86.73-31.74.82-47.59,1.48-9.91.41-19.81.07-29.69.55"/><path class="cls-13" d="M183.8,41.38c16.65-.17,33.31-.87,50-1.26q29-.69,58-1.45c16-.42,32-.66,47.92-1.37,11.47-.5,23,.35,34.42-1.11,3.35-.42,6.72.21,10.1.13,6.87-.14,13.68-1,20.56-.91,21.85.17,43.68-1.13,65.52-1.44,17.56-.24,35.12-.87,52.68-1.28,14-.34,28.1-.83,42.15-1.27,1.56-.05,3.19-.21,4.49,1V35.8c-9,0-18-.37-26.89.27-6.31.45-12.59.26-18.87.37-7.53.12-15,1-22.57.79-3.49-.12-7-1.69-10.36-.6-5.44,1.79-10.93,1.1-16.41,1.17-19.73.26-39.43,1.43-59.17,1.59-6.82.06-13.72.69-20.53.33-6.42-.34-12.71.88-19,.7-12.2-.36-24.33.79-36.49,1-9.44.19-18.91-.17-28.32.53-6.18.46-12.39,1-18.5.45-7.12-.67-14.05,1.09-21.06.74-12.34-.62-24.62.75-36.93,1-9.89.18-19.81-.15-29.67.52a135,135,0,0,1-17.16.52"/><path class="cls-14" d="M178.85,7.81c5.38-.15,10.78-.12,16.15-.42,12-.69,24.08-.32,36.09-.78,15.61-.6,31.22-.93,46.83-1.41,6.63-.21,13.32-.33,20-1.06,1.73-.19,3.57.64,5.31.5,10.78-.86,21.61-.1,32.37-.8,7-.45,14,.1,20.88-.59,8.77-.86,17.57.06,26.28-.72,9.12-.83,18.24.1,27.31-.64,9.9-.8,19.82,0,29.66-.74,7-.55,14,.07,20.88-.6,9.22-.9,18.5.17,27.63-.78,7.18-.75,14.36.21,21.52-.93a39.34,39.34,0,0,1,6.9-.2c17.68.43,35.32-1,53-.72V0c-1.43,1.27-3.18.86-4.84,1-6.2.25-12.43-.59-18.61.51a58.89,58.89,0,0,1-6.09.15c-7.7-.21-15.41-.59-23.09.53a8,8,0,0,1-1.2.12A175,175,0,0,0,497,2.32c-9.28.35-18.56.72-27.85.64a7,7,0,0,0-2.31.41,28.62,28.62,0,0,1-5,.25c-5.56,0-11.12,0-16.67,0a12.51,12.51,0,0,0-4,.52c-2.08.24-4.17.11-6.26.16-6.61-.13-13.24-.53-19.83,0-9.6.74-19.23.28-28.83,1a118.69,118.69,0,0,1-13.08.37,48.66,48.66,0,0,0-12.11.63c-4.28.09-8.57,0-12.85.08-12,.34-24.08.35-36.09.85-8.78.37-17.55.08-26.3.51-16.51.81-33,.92-49.56,1.5-9.22.33-18.46,0-27.65.59-9.56.66-19.12.15-28.65.67"/><path class="cls-15" d="M173.58,12.29c9.22-.22,18.45,0,27.65-.48,16.29-.91,32.6-.93,48.89-1.51,9.11-.32,18.24.15,27.31-.6,9.23-.77,18.48.07,27.65-.7,7.89-.67,15.78.06,23.6-.64,9.23-.83,18.48.05,27.65-.71,8.68-.72,17.32-.3,26-.55a8.73,8.73,0,0,0,3-.39,6.22,6.22,0,0,1,1.29-.22A31.77,31.77,0,0,1,390,6.43c14.06.49,28.1-.47,42.13-.88,8.88-.26,17.78.16,26.61-.59,9.56-.8,19.13.07,28.63-.69,8.55-.68,17.11.05,25.6-.67,8-.67,16,0,23.91-.68,8.32-.74,16.62-.4,24.93-.52,2.6,0,5.29-1.76,7.83.26v2c-1.09,1-2.45,1-3.81,1-19.57.55-39.14,1-58.71,1.46-17,.41-34,.89-50.93,1.35q-26,.71-52,1.39c-9,.26-18,0-27,.66s-18,.14-27,.59c-16.29.82-32.59.95-48.89,1.39-18,.48-36,.88-54,1.45-9.12.29-18.23.1-27.33.54-16.86.82-33.74,1-50.6,1.41"/><path class="cls-11" d="M164.12,15.41c9-.85,18,.1,27-.71,8-.72,16,.12,23.93-.65,9.12-.88,18.25.12,27.31-.69s18,.14,27-.67c9.12-.83,18.25.14,27.31-.69,8-.73,16,.11,23.92-.65,8.33-.81,16.68.1,24.94-.7,8.68-.83,17.35.11,26-.65,9.46-.84,18.93.11,28.32-.72,8-.7,16,0,23.94-.59,9.33-.71,18.69-.07,28-.77,8.23-.63,16.45.11,24.61-.62,8.78-.79,17.58.08,26.29-.72,8.11-.75,16.21,0,24.27-.6,9.9-.77,19.8-.26,29.68-.75,4.36-.21,8.73-.5,13.11-.54v2c-13.37-.11-26.73.6-40.08.88-7.86.16-15.77-.19-23.58.58-8.45.83-16.91-.13-25.28.68-8.79.85-17.58-.11-26.3.67s-17.35-.1-25.95.69c-8.78.81-17.57-.08-26.29.65-8.89.74-17.8,0-26.63.73-7.44.66-14.85,0-22.24.58-10.12.76-20.27.07-30.35.78-8.78.63-17.54.1-26.3.54-16.95.86-33.93.9-50.89,1.52-8.43.31-16.88-.13-25.27.57-9.56.81-19.15,0-28.66.74-8.56.7-17.12-.13-25.62.64"/><path class="cls-16" d="M183.11,37.65c7.07-.26,14.16-.1,21.22-.52,16.27-1,32.56-1,48.85-1.46,11.41-.31,22.83-.16,34.23-.62,14.7-.58,29.42-.81,44.11-1.46,7.87-.35,15.74-.07,23.59-.52,13-.74,26-.27,39-.75,13.47-.5,26.95-.61,40.39-1.41,9.69-.57,19.37.17,29-.62,11.14-.91,22.28-.08,33.39-.63,13.81-.68,27.63-.76,41.41-1.47,10.47-.55,20.92-.16,31.37-.5v2.7c-1.19,1.13-2.69,1-4.15,1-20.82.12-41.62,1.18-62.44,1.49-17.89.26-35.78.87-53.67,1.32s-35.55.87-53.33,1.38c-16.64.47-33.28.82-49.91,1.34-17.43.55-34.86.82-52.29,1.38s-35.09.92-52.64,1.31q-26,.59-52,1.34"/><path class="cls-15" d="M175.22,10c8.85-.8,17.72-.06,26.51-.73,9.91-.75,19.83.17,29.67-.66,8.45-.7,16.89.08,25.28-.66,8.17-.71,16.37,0,24.48-.71,8.54-.78,17.09.11,25.55-.65,9.56-.86,19.12.13,28.61-.69,8.67-.75,17.31-.24,26-.55,5.47,0,11,.16,16.41-.06,6.27-.26,12.54-.61,18.83-.62,9.28,0,18.56-.56,27.83-.89,3.56-.13,7.14.7,10.66-.46h6.09c5.8,0,11.6,0,17.4,0a8.47,8.47,0,0,0,3.57-.65h4.73c13.71.28,27.38-.62,41.08-1,2.77-.06,5.58.7,8.3-.4h.68q10,0,20.07-.21a5.64,5.64,0,0,0,2.92-.47h6.09c6.31-.3,12.67.7,18.94-.68h4.74V1.31c-1.55,1.33-3.65.1-5.27,1.12a3.69,3.69,0,0,1-1.14.2c-7.82.21-15.64-.32-23.45.28a3.22,3.22,0,0,1-1.16.37c-7.5.28-15-.31-22.53.31a3.16,3.16,0,0,1-1.16.37c-8.18.28-16.37-.32-24.54.31a3.25,3.25,0,0,1-1.17.36c-7.84.12-15.69,0-23.53.06a11.92,11.92,0,0,0-3.67.24,3.49,3.49,0,0,1-1.17.38c-8.61.26-17.24-.27-25.85.28a3.81,3.81,0,0,1-1.15.39c-6.87.31-13.75-.33-20.61.34a3.44,3.44,0,0,1-1.17.35c-8.85.24-17.7-.26-26.54.26a3.19,3.19,0,0,1-1.17.4c-7.17.14-14.34,0-21.52.07-1.33,0-2.69-.23-4,.39a3.9,3.9,0,0,1-1.21.25c-8.49.2-17-.28-25.47.25a3.51,3.51,0,0,1-1.17.39c-7.75.3-15.51-.31-23.26.32a3.27,3.27,0,0,1-1.17.37c-8.62.28-17.25-.31-25.87.3a3.27,3.27,0,0,1-1.17.37c-8.85.28-17.7-.28-26.54.3a3.49,3.49,0,0,1-1.17.38c-8.4.27-16.8-.27-25.19.29a3.68,3.68,0,0,1-1.16.38c-7.1.32-14.22-.36-21.32.36a3.16,3.16,0,0,1-1.2.33c-7.72.12-15.44,0-23.16.05a7.68,7.68,0,0,0-3.93.56,13.1,13.1,0,0,1-3,.45"/><path class="cls-17" d="M181.86,27.21c16.39-.4,32.78-.95,49.17-1.39,5.8-.15,11.68,0,17.47-.81,1.5-.22,2.88.37,4.29.72a35.87,35.87,0,0,0,11.09-.09,12.74,12.74,0,0,1,2.68-.25c13.07.45,26.13-.35,39.16-.9,9-.37,18-.45,27-.71,8.38-.24,16.79-.49,25.19-.63,12.35-.21,24.74,0,37.08-1.08a10.17,10.17,0,0,1,1.35-.06c11.72.43,23.39-.75,35.11-.8,13.25-.05,26.51-.27,39.74-.76,8.33-.3,16.66-.09,25-.54,13.93-.76,27.87-1.07,41.81-1.38,7.95-.17,15.9-.45,23.85-1,2.54-.17,5.41-.19,7.83,1.35v2c-13.62-.49-27.22.49-40.81.88-8.87.26-17.78-.21-26.61.58-9.22.83-18.47-.13-27.63.7-8.78.79-17.56-.13-26.28.65s-17.34-.1-25.93.7c-8.33.78-16.66-.08-24.93.64-9.33.81-18.69-.07-28,.73-7.89.68-15.74.13-23.59.56-9.43.52-18.9.22-28.29.83-8.34.53-16.67-.17-24.93.6-8.89.83-17.8-.11-26.61.7-8.22.76-16.41.24-24.6.55-18,.68-35.94,1.11-53.91,1.55-8.19.21-16.42-.14-24.58.56"/><path class="cls-18" d="M182.37,40.38c8-.55,16,.14,23.92-.62,8.89-.86,17.8.11,26.63-.69,9.34-.85,18.7.13,28-.67,8.78-.76,17.57.1,26.28-.7,8-.73,16,.11,23.93-.64,9.57-.92,19.15.12,28.65-.71,8.56-.74,17.13.13,25.62-.66s16.9.12,25.27-.68c8.67-.83,17.35.12,26-.67,8.34-.77,16.68.11,24.94-.69,8.78-.84,17.57.13,26.29-.66,9.46-.85,18.93.13,28.32-.7,8.9-.78,17.77-.1,26.64-.58,15.6-.85,31.2-1.36,46.83-1.32v2c-8.87-.08-17.73,0-26.54,1.26-1.82.27-3.79-.65-5.65-.54-11.12.71-22.28.15-33.37.81-7.66.46-15.3,0-22.91.55-10.34.75-20.71.08-31,.79-7.88.54-15.76-.14-23.57.61-9.9.94-19.83-.12-29.66.75a155.26,155.26,0,0,1-15.73.91c-9.53-.16-19.05.27-28.56.44-10.75.2-21.53,0-32.24.67-7.43.47-14.87-.13-22.23.61-9.56,1-19.12,0-28.64.71-3.48.24-7.12-.12-10.53,1.44-1.49.68-3-.93-4.73-1-7.89-.26-15.71.91-23.58.76-13.39-.25-26.76.58-40.13.91-8.88.22-17.8-.26-26.61.62"/><path class="cls-17" d="M211.39,24.91c9.12-.15,18.25-.22,27.34-.74,8.55-.48,17.1-.07,25.61-.64s17.06-.32,25.58-.61c18.33-.61,36.67-.94,55-1.51,7.42-.23,14.84-.2,22.26-.49,18.4-.72,36.82-1,55.23-1.48,8.55-.24,17.11-.2,25.64-.61,20.22-1,40.45-1.09,60.67-1.62,13.95-.36,27.9-1.08,41.86-1,5.17,0,10.28-1.12,15.47-.68,1.22.1,2.5-.2,3.57.68v2a2.91,2.91,0,0,1-2.29.3c-5.25-1.07-10.49-.06-15.7.14-9.7.39-19.42.05-29.08.73-7,.49-13.94-.12-20.84.59-8.55.89-17.13-.1-25.61.72-9.54.93-19.07-.13-28.58.57-10.25.76-20.54.17-30.76.82-7.08.44-14.18-.14-21.19.62-8.43.92-16.85,0-25.24.67-3.91.29-7.84.91-11.72.49-5.48-.58-10.93,0-16.35.21-10.16.42-20.34.07-30.45.71-6.75.43-13.5-.11-20.17.62-8.54.94-17.1-.09-25.58.73-4.57.43-9.17,0-13.69.87-1.87-1.54-4-.68-6.05-.76-8-.28-15.9,1.05-23.88.77-11.8-.4-23.58.51-35.35.88-8.64.27-17.32-.27-25.9.58"/><path class="cls-19" d="M162.77,25.48c4.77-.17,9.55-.76,14.38-.58,14.51.53,29-.5,43.53-.77s29-.87,43.44-1.31c11-.33,21.94,0,32.87-.68,9-.54,18-.09,27-.6,14.58-.83,29.18-1.05,43.78-1.39,11.41-.27,22.84-.13,34.22-.75,8.21-.45,16.44.17,24.59-.63,7.32-.72,14.66.19,21.89-.68,9.43-1.12,18.85-.18,28.28-.85s19.07.07,28.57-.48c9.34-.54,18.67-.19,28-.66,12.11-.61,24.22-1.1,36.35-1.27v1.36c-12.93,0-25.87.5-38.78.89-9.33.28-18.69-.23-28,.57-8.32.72-16.67-.1-24.92.69-8,.77-16-.12-23.92.65-9.11.89-18.24-.11-27.29.7-8.89.79-17.79-.1-26.62.65-9.41.8-18.84,0-28.19.78-6.76.58-13.5-.1-20.2.54-10.22,1-20.49,0-30.66.76-8.22.64-16.45-.15-24.59.63-9.12.88-18.25-.11-27.3.7-8,.71-16-.12-23.91.66-9.68.95-19.37-.13-29,.68-8.67.73-17.35-.11-25.94.7s-16.87.12-25.28.57"/><path class="cls-20" d="M193.54,181.46a20.26,20.26,0,0,1,0-3c.23-1.54-1-4,.81-4.44,2.35-.59,5.13-.85,7.48.75,1,.67,2,2.07,1.56,2.75-1.81,2.68-.42,4.52.8,6.82.83,1.57-.52,3.19-2,4.21a5.5,5.5,0,0,1-1.51.71c-5.39,1.64-7.16.37-7.16-5.09Z"/><path class="cls-21" d="M161.06,78.33a23.15,23.15,0,0,1,8.09,0,11.2,11.2,0,0,0,6-.34c2-.81,4,.27,6,0,7.48-1,15,.63,22.54-.81,3.91-.74,8.27.2,12.42.09,4.46-.12,9,.16,13.34-1.24,1.82-.59,3.63.77,5.6.69,9.33-.41,18.66-.6,28-.79,2.66,0,5.28-1.19,8-.38,1.63.63,1.5,1.62.61,2.84s-2.17,1.93-2.35,3.5c-4.81,1.3-9.64,1.08-14.6.9a89.08,89.08,0,0,0-14.42.4c-7.76,1-15.5.37-23.25.54-5.39.12-10.73,1.08-16.15.72-12.55-.83-25.07.65-37.6.9"/><path class="cls-22" d="M212.74,73.21c8-.2,16,.15,23.94-.66,5.37-.55,10.82.3,16.09-1.19,2.51-1.21,5.66-.19,7.93-2.27,1.4-2.46,3.53-1.78,5.62-1.29,1.05.74,1.49,1.76.78,2.87-.83,1.3-.79,2.75-1,4.16a2.08,2.08,0,0,1-2.05.71c-7.87-.26-15.74-.61-23.6.22a6.52,6.52,0,0,1-1.24.19q-9.76,0-19.54,0a13.85,13.85,0,0,0-4.34.48,28.84,28.84,0,0,1-6.3.26c-7.52.1-15.05-.5-22.56.36a5.85,5.85,0,0,1-1.24.21c-5.73.1-11.46,0-17.19,0a12.49,12.49,0,0,0-4,.44,7.08,7.08,0,0,1-1.89.22"/><path class="cls-23" d="M180.72,113.51c-1.24-4.53-.11-6.71,4.85-9.27,1.37-.71,3.1-1,2.79-3.4.23,2.14,1.7,2.7,3.16,3.44,4.95,2.51,6.11,4.88,4.69,9.28-3.31,2-7,.68-10.43,1C184.07,114.64,182.17,115,180.72,113.51Z"/><path class="cls-24" d="M176.47,119.62a3.39,3.39,0,0,1,.21-.61,1.9,1.9,0,0,1,2.29-.19,2.84,2.84,0,0,1,1.07,1.54c.67,7.53,0,15-.08,22.56,0,2.36-1.26,3.24-3.54,2.48-.18-.28-.46-.53-.48-.87a220.8,220.8,0,0,1-.06-23.72A2.57,2.57,0,0,1,176.47,119.62Z"/><path class="cls-25" d="M165.87,120.34c0-3.82,0-7.65,0-11.48,4.23-2,5.7-1.1,5.67,3.42a76.08,76.08,0,0,1-.12,8A4.22,4.22,0,0,1,165.87,120.34Z"/><path class="cls-26" d="M176.47,119.62l.12,25.83c.26.13.35.25.27.38s-.17.2-.26.2q0,3,0,6c0,.86.19,1.86-1.12,2a2.56,2.56,0,0,1-.86-1c-.75-6-.2-11.93-.33-17.89-.08-4.17,0-8.34,0-12.52a3.9,3.9,0,0,1,1-3Z"/><path class="cls-27" d="M172.78,146a1.94,1.94,0,0,0-.33-.07c-7-.48-6.95-.48-7.48,6.43a4.41,4.41,0,0,1-.49,1.18V121a.71.71,0,0,1,1,.25c1.25,3.15.5,6.44.64,9.67.12,2.8,0,5.61,0,8.42.05,4,.2,4.08,4.21,4.31.45,0,.9.05,1.34.11a4.14,4.14,0,0,1,1.1.34,1.34,1.34,0,0,1,.74,1.4A.55.55,0,0,1,172.78,146Z"/><path class="cls-28" d="M164.44,108.17c-.53-1.52,1.7-1.87,1.4-3.29,2-1.38,4-1.58,5.9.11-.22,1.35,1.74,1.72,1.42,3.11A20.84,20.84,0,0,1,164.44,108.17Z"/><path class="cls-29" d="M165.23,101.35c.06-2.36,3-2.46,3.6-5.4,0,3.28,4.28,3,3,6.14C169.49,103.4,167.2,103.81,165.23,101.35Z"/><path class="cls-30" d="M178.66,119h-2a9.93,9.93,0,0,1,0-5.38,1.89,1.89,0,0,1,2.68,0l.62.71C181.11,116.3,181.78,118.17,178.66,119Z"/><path class="cls-31" d="M173.12,144.7l-.63,0a3.24,3.24,0,0,1-.89-2.12c-.06-6.92-.56-13.84.27-20.75a2.26,2.26,0,0,1,.82-1,3.61,3.61,0,0,0,.42.16,2.78,2.78,0,0,1,1,2.34c.1,5.79,0,11.57,0,17.36C174.17,142.09,174.46,143.63,173.12,144.7Z"/><path class="cls-32" d="M164.44,108.17l8.72-.07c-1.6,1.2-1.15,2.94-1.17,4.54,0,2.57,0,5.14,0,7.71a.72.72,0,0,1-.87,0c.09-1.87.25-3.75.26-5.63,0-5.6,0-5.6-5.53-5.81C165.3,108.81,164.65,108.94,164.44,108.17Z"/><path class="cls-33" d="M176.69,110.16c.1-1.07.48-2.21,1.67-2,.69.14,1.11,1.29,1,2.3-.11.77-.09,1.56-.13,2.35C175.88,114.29,177.52,111.05,176.69,110.16Z"/><path class="cls-34" d="M180.72,113.51l15.49,0a.86.86,0,0,1,.08.45,1.45,1.45,0,0,1-.79.84,57.27,57.27,0,0,1-14.09,0,1.74,1.74,0,0,1-.84-.81A2.65,2.65,0,0,1,180.72,113.51Z"/><path class="cls-35" d="M173.46,123.05c-.11-.69-.23-1.38-.35-2.07.1-1.48.94-1.74,2.18-1.32-.06.93-.13,1.85-.19,2.77a1.27,1.27,0,0,1-.86.92A.92.92,0,0,1,173.46,123.05Z"/><path class="cls-3" d="M161.75,157.36c.09-.75-.2-1.59.56-2.16"/><path class="cls-36" d="M165.23,101.35c2.07,1.5,4.43.48,6.65.74l0,2a.59.59,0,0,1-.79.17l-.82-.4c-1.44-.46-3.16.17-4.4-1.09C165.38,102.41,165,102,165.23,101.35Z"/><path class="cls-37" d="M171.12,120.3l.87,0,.7.47-.2.29a6.7,6.7,0,0,1-7.32-.06h-.69a1.5,1.5,0,0,1,1.39-.7Z"/><path class="cls-38" d="M178.66,119c2.09-1.12.53-3.24,1.29-4.72a3.48,3.48,0,0,0,.62-.21l.16.26c.88,1,.8,2.15.79,3.33a5.57,5.57,0,0,1-.11,1l-.15.47a2.17,2.17,0,0,1-.6.77,1.14,1.14,0,0,1-1.35-.23Z"/><path class="cls-39" d="M171.15,104.08h.7c0,.3-.07.6-.11.9l-5.9-.11V104A5.54,5.54,0,0,1,171.15,104.08Z"/><path class="cls-40" d="M165.84,102.77c1.78.31,3.72-.73,5.36.68a9.28,9.28,0,0,1-5.3,0Z"/><path class="cls-41" d="M165.9,103.46h5.3a.74.74,0,0,1,0,.63l-5.3,0A.7.7,0,0,1,165.9,103.46Z"/><path class="cls-42" d="M176.69,110.16c.94.79-.25,3.6,2.51,2.67l.13.75-2.68,0C176.66,112.48,176.67,111.32,176.69,110.16Z"/><path class="cls-43" d="M164.75,54.34a73.16,73.16,0,0,0,11.46-.56c5.16-.84,10.34-.08,15.52-.12,3.6,0,7.2.18,10.71-1a8.93,8.93,0,0,1,4-.1,100.6,100.6,0,0,0,19.24.26c5-.33,9.9-.48,14.85-.49,15,0,29.94-.92,44.91-1.57,4.05-.18,8.09.3,12.15.24,6.39-.08,12.72-1.49,19.14-.78a3,3,0,0,0,3.51-2,.82.82,0,0,1,1.1-.23c.43,3-1,5.82-.67,8.79-1.4,1.26-3.14,1.15-4.81,1.11-12.62-.25-25.22.59-37.82.85-18,.37-36,.71-54,1.3-17,.55-34,.91-51,1.36"/><path class="cls-44" d="M166.75,60.7c8.89-.79,17.79.14,26.61-.66,8.33-.75,16.67.11,24.92-.69,7.88-.76,15.76.1,23.57-.64,9.9-1,19.82.11,29.66-.71,8.33-.7,16.66.12,24.92-.67,8.1-.77,16.18-.3,24.26-.56v2.71c-2.57,2.37-5.92,1.45-8.9,1.93a44.17,44.17,0,0,1-8.76.08c-10.23-.45-20.42,1.12-30.63.65a55.14,55.14,0,0,0-13.94.72c-1.29.72-2.61,1.29-4.12.62a125.62,125.62,0,0,0-18.2.11c-1.35.07-2.68.39-4,.35-13.63-.39-27.24.62-40.87.83"/><path class="cls-45" d="M161.53,51.21c8.74-1,17.52.31,26.24-1a34.4,34.4,0,0,1,5.95-.19c15.2.48,30.38-.54,45.56-.88,9-.2,18,.2,27-.61,7.67-.69,15.31-.06,22.92-.59,10.51-.74,21-.57,31.54-.63l.66.68h-.67c-1,1.77-2.78,1.81-4.46,1.76-11-.36-22.05.55-33.08.71-19.14.29-38.26,1.1-57.4,1.56-8.1.2-16.2.24-24.3.42"/><path class="cls-46" d="M196.29,136.59H193c-3-2.34-5.92-1.18-8.88,0H180.8a2.2,2.2,0,0,1-.77-2.09c.33-4.92-.85-9.92.7-14.78v0a3.38,3.38,0,0,1,2.75-1c4.28.27,8.66-.88,12.86.79,1.74,3.63.59,7.48.8,11.22C197.25,132.71,197.74,134.83,196.29,136.59Z"/><path class="cls-47" d="M184.09,136.6c3.6-3.53,5.4-3.54,8.88,0,1.39,5.3,1,10.78.41,16-.34,2.8-4.17.93-6.39,1.19-1.13.14-3.48,1.15-3.49-1.14C183.48,147.31,182.71,141.91,184.09,136.6Z"/><path class="cls-48" d="M180.73,119.72q0,8.43.07,16.87v17.87c-2-2.27-1.28-4.22-1.28-5.94,0-2.19-.59-3.24-2.92-2.49,0-.19,0-.39,0-.58,2.16.58,2.9-.5,2.88-2.47q-.08-11.64-.16-23.3Z"/><path class="cls-49" d="M173.46,123.05a5.09,5.09,0,0,1,.56,0c.84,1.21.54,2.6.55,3.93,0,7.52,0,15,0,22.57,0,1.32-.29,2.71.62,3.9a.91.91,0,0,1,.28.56l-2.45,0a70.62,70.62,0,0,1-.11-8l.18-1.35Q173.28,133.87,173.46,123.05Z"/><path class="cls-50" d="M172.94,146.05a27.36,27.36,0,0,1,.11,8c-1-2.65-.48-5.34-.27-8Z"/><path class="cls-51" d="M196.31-.12c18.43-.69,36.85-1,55.28-1.45,7.35-.17,14.78.07,22.06-.7,6.59-.69,13.22.46,19.75-1.06,1.94-.45,3.91.87,6,.59,10.13-1.36,20.37-.78,30.54-1.1,8.59-.26,17.28.34,25.94.41-1,1.09-2.31.65-3.49.66-6.05,0-12.11,0-18.16,0-2.65.91-5.47-.28-8.12.67H307.16c-2.64.92-5.47-.27-8.11.68H281.46c-1.25.85-2.81-.2-4.06.68h-6.09a5.55,5.55,0,0,1-4.05,0C254.62-1.06,242,.46,229.38,0c-2,.89-4.14-.24-6.09.68H205.7c-3.56,1-7.26-.32-10.82.68H178a4,4,0,0,1-3.38,0h-2c-1,.8-2.38-.16-3.39.67"/><path class="cls-52" d="M194.88,1.31C198.41-.12,202.1,1,205.7.63,202.17,2.06,198.48.94,194.88,1.31Z"/><path class="cls-52" d="M174.59,1.31H178A2.29,2.29,0,0,1,174.59,1.31Z"/><path class="cls-52" d="M169.17,2c1-1.11,2.25-.52,3.39-.67C171.61,2.42,170.31,1.82,169.17,2Z"/><path class="cls-15" d="M171.64,12.84a25.56,25.56,0,0,0,4.3-.71c7.47-.75,15-.11,22.43-.35,1.77-.06,3.58.39,5.3-.33,6-.73,12-.11,18-.34,1.43-.06,2.9.36,4.28-.34,7.36-.73,14.73-.11,22.1-.34,1.43,0,2.9.37,4.28-.33,7.47-.75,15-.11,22.44-.35,1.77-.06,3.57.39,5.3-.33,7.58-.74,15.18-.11,22.77-.34,1.43-.05,2.9.36,4.28-.33,6.68-.76,13.38-.11,20.07-.35,1.43-.05,2.9.37,4.29-.33,7.35-.74,14.73-.11,22.09-.35,1.43,0,2.9.37,4.29-.33h.67c7.36-.73,14.73-.11,22.1-.34,1.42,0,2.9.36,4.28-.33.68-.23.87,0,.68.67-.67.84-1.61.7-2.5.67-15.64-.46-31.26.67-46.9.86-8.75.11-17.56-.11-26.27.65-8.11.71-16.2,0-24.26.59-10.11.79-20.26,0-30.33.77-8.56.63-17.11-.09-25.61.6-11.43.93-22.9.28-34.31,1.37-1.66.16-3.35-.09-5-.09"/><path class="cls-15" d="M203.67,11.45c-1,1.09-2.31.65-3.49.66-8.08,0-16.16,0-24.24,0,1-1.09,2.31-.65,3.49-.66C187.51,11.43,195.59,11.45,203.67,11.45Z"/><path class="cls-53" d="M162.41,77.06h1.35c5.89-.72,11.8-.12,17.7-.34,1.32,0,2.68.35,3.95-.33h.67c6.23-.76,12.48-.1,18.72-.35,1.43-.05,2.9.37,4.28-.33h6.09c6.68-.75,13.38-.1,20.07-.34,1.43-.05,2.9.36,4.28-.33h.68a179.88,179.88,0,0,1,24.35,0l1.35-.61a2.27,2.27,0,0,1,1-.76c4.6-.47,9.2-.71,13.76.39a1.54,1.54,0,0,1,.14,2.27c-1.78.28-3.56,1.3-5.36.07a2.72,2.72,0,0,0-3.31,0c-5.71-.26-11.34.58-17,1.22-2.08.23-3.93-.83-6-.62a83.36,83.36,0,0,1-13.77.71c-1.53-.09-3.16.37-4.54-.8a1.47,1.47,0,0,0-1.23-.2c-8,2.87-16.13,1.75-24.24,1.12-2-.15-3.36,1.26-5.15,1.2-3.69-.13-7.38.2-11.1-.32-2.7-.38-5.54.21-8.33.35"/><path class="cls-54" d="M211.76,71.85c13.26-.37,26.52-.59,39.77-1.31a2.3,2.3,0,0,1,2.2,1.17,4.38,4.38,0,0,1-3.36,1.3c-4.49,0-9,.52-13.44.53-15.86,0-31.72.75-47.58,1"/><path class="cls-22" d="M209.08,75.71c-1,1.09-2.31.65-3.49.66-6.5,0-13,0-19.51,0,1-1.09,2.32-.65,3.5-.66C196.08,75.69,202.58,75.71,209.08,75.71Z"/><path class="cls-22" d="M185.41,76.39c-1,1.09-2.31.65-3.49.66-6,0-12.11,0-18.16,0,1-1.09,2.31-.64,3.49-.65C173.3,76.37,179.36,76.39,185.41,76.39Z"/><path class="cls-55" d="M175.22,153.49c-1.45-.18-1.31-1.28-1.31-2.27q.06-14.07.11-28.13l1.08-.66Z"/><path class="cls-56" d="M165.17,121.05l7.32.06v23.57c-7.5.11-7.52.11-7.49-7.47C165,131.83,165.11,126.44,165.17,121.05Z"/><path class="cls-57" d="M186.3,51.86c10.81-.49,21.61,0,32.39-.53,16.39-.77,32.81-.92,49.2-1.51,7.41-.27,14.86.13,22.23-.57,9.22-.88,18.44-.4,27.65-.58a6.22,6.22,0,0,0,2.92-.69c.4,2.62-.61,3.71-3.34,3.41-3-.33-6,.3-9.06-.58-2.22-.64-4,1.47-6.38,1.32-14.54-.89-29.08.21-43.6.77-9.22.36-18.46-.17-27.63.61-6.75.58-13.48.32-20.21.59-2.5.09-5-1.55-7.31-.6-5.26,2.17-10.66,1.25-16,1.15"/><path class="cls-58" d="M180.23,68.07c7.94-.29,15.94.22,23.8-.63,10.06-1.09,20.15.07,30.24-1.47,4.87-.75,10.27.11,15.42.29a15.43,15.43,0,0,0,5.32-.69,4.68,4.68,0,0,1,0,2.7c-2.68,1.12-5.54.7-8.32.92-2.47.19-5,.11-7.43.08-13.29-.12-26.56.6-39.83.9-8.43.19-16.9-.17-25.29.57"/><path class="cls-58" d="M168.9,70.11c8.31-.29,16.65.18,24.92-.58,9.44-.88,18.94.24,28.29-.75s18.88.32,28.28-.86c1.43-.18,3.08.38,4.66.35-.48,1-1.5,1.16-2.43,1.44a5,5,0,0,1-2.86.91c-5.75-.33-11.45.68-17.2.72-20.49.12-41,1-61.45,1.44"/><path class="cls-59" d="M180.76,118.29l0-4,15.49,0a8.41,8.41,0,0,1,.06,4.08c-.52.26-.86,0-1.19-.38-.65-1.73-2.14-1.13-3.37-1.21a9.09,9.09,0,0,0-3,0,2.31,2.31,0,0,0-2.91,1.21.92.92,0,0,1-1.54,0c-.73-1.29-1.35-1-1.91.15C181.88,118.58,181.36,118.88,180.76,118.29Z"/><path class="cls-60" d="M195.37,117.45l.91.92a1.39,1.39,0,0,1,0,.64,66.3,66.3,0,0,1-15.55-.1,1,1,0,0,1,0-.62,1.19,1.19,0,0,0,1.28-.67,2,2,0,0,1,2.63-.06c.27.55.53.55.8,0a3.72,3.72,0,0,1,3.24-.62,7.64,7.64,0,0,1,2.82,0C192.82,117,194.2,116.41,195.37,117.45Z"/><path class="cls-61" d="M180.75,118.91l15.55.1a3.32,3.32,0,0,1,.63,0l-.64.66-15.56.09Z"/><path class="cls-54" d="M166.71,72.16c8.67-.49,17.32-.06,26-.54,15.5-.86,31-1.13,46.5-1.45,4.47-.09,9-.61,13.45-.46L252.4,71a8.79,8.79,0,0,1-2.58.64c-7.32-.4-14.57.78-21.88.78-13.83,0-27.66.49-41.48.82-7.41.17-14.87-.18-22.22.58"/><path class="cls-62" d="M195.37,117.45c-1.3.67-2.61,0-3.91,0a.81.81,0,0,1,0-1.19C192.83,116.52,195,113.81,195.37,117.45Z"/><path class="cls-63" d="M188.79,117.52l-3.32,0c.15-3.15,1.83-1.86,3.32-1.14A.67.67,0,0,1,188.79,117.52Z"/><path class="cls-64" d="M188.79,117.52v-1.1c.87-.65,1.74-1.57,2.7-.11l0,1.19Z"/><path class="cls-65" d="M184.67,117.56l-2.63.06c-.13-.93-.1-1.89,1.08-2S184.77,116.42,184.67,117.56Z"/><rect class="cls-3" x="188.56" y="160.26" width="274.85" height="33.82"/></g><g class="cls-66"><path class="cls-7" d="M-51.47,196.72A9,9,0,0,0-43,193.55c2-2.25,4,.95,6,.74,10.24-1.1,20.49-1,30.73-3.57,3.44-.85,6.89-.38,10.33-.42,2.48,0,4.93-1.22,7.36-3.14.91-.71,1.79-.19,2.68.16,3,1.16,6,1.55,9-.44,3.2-2.14,6.4-1.17,9.61-1.33,10.47-.5,20.94-.81,31.4-3.73a7.78,7.78,0,0,1,1.57-.21,141.58,141.58,0,0,0,30.46-5.41c3.78-1.12,7.62,1.64,11.44,1,12.33-1.94,24.69-2.21,37-5.08,5-1.17,10-.83,15-1.32a4.91,4.91,0,0,0,4-2.36c.94-1.36,1.91-2.21,2.88-1.62,7,4.23,13.9-.52,20.85-.21,8.84.4,17.65-3.63,26.49-2.3,1.18.18,2.42-.74,3.43,3.5V183c-.6,2.67-1.34,3-2.1,3-7.09.42-14.19,1.84-21.28,2.64-12.09,1.35-24.18,2.55-36.27,4.49-4.47.72-9,.33-13.43,1.69-7.39,2.25-14.8.45-22.18,2.58-5.83,1.69-11.66.37-17.47,1.72-11,2.56-22.1,3.33-33.15,4.83-5.15.7-10.28,1.91-15.43.62a13.92,13.92,0,0,1-.93-4.32c-1.41-4.64-2.38-1.86-3.15,4.32-.7,3.65-1.64,3.1-2.52,3a59.78,59.78,0,0,0-15.68.65c-10.83,2-21.66,2.83-32.49,4.41-4.33.63-8.68.18-13,1.63-8.13,2.72-16.29.54-24.42,2.88-4.42,1.27-8.84-.52-13.22,1.55"/><path class="cls-67" d="M-53.91,23.49c11.67-1.45,23.35-2.23,35-4.67,7.09-1.47,14.22,1.67,21.28-4.3,1.36-1.14,2.81.85,4.24.93,8.09.5,16.16-2.12,24.24-2.78,12.34-1,24.69-3.11,37-4.38,11-1.14,22-3.06,33-4.14,12.19-1.21,24.38-3,36.58-4.51,11-1.35,22-2.84,33-4.24,12.35-1.56,24.69-3.24,37-3.88,2.47-.13,4.94-.74,7.4-.8.82,0,1.67-.69,2.38,2.12V10.12c-1.08,4.48-2.4,3.5-3.65,3.52a134.82,134.82,0,0,0-23.78,2.91c-8.44,1.7-16.9,1.38-25.34,3.46-6.1,1.5-12.25,2.74-18.38,2.34-8.76-.56-17.51,1.86-26.26,2.65-11.21,1-22.43,2.44-33.64,4.1-11.82,1.75-23.63,3-35.44,4.56-5.61.72-11.22,1.19-16.83,1.68-.3,0-.62-.24-.89.19-4,6.3-8.15,1.34-12.22,1.84C7.59,39-5.65,41-18.89,42.23c-10.84,1-21.67,2.9-32.52,4.17"/><path class="cls-8" d="M-43.12,114.21A220.47,220.47,0,0,1-9.9,110a283.32,283.32,0,0,0,36.8-4.52c11.59-2.13,23.18-3.21,34.78-4.24s23.34-2.45,35-4.37c10.32-1.71,20.63-3.71,31-4.06,12.42-.41,24.84-3,37.25-4.68,11.37-1.55,22.74-4.53,34.11-3.71,5,.36,10-3.58,15-2.29,1.11.29,2.27-.4,3.2,3.61v15.12c-.53,2.36-1.19,3.16-1.87,3-4.12-1.2-8.2,2.59-12.31,2.37-7.85-.41-15.7,1.56-23.54,2.76-5.9.9-11.82-.29-17.7,1.72-7.1,2.43-14.2.59-21.28,2.16-10.3,2.28-20.61,2.71-30.91,4.64-5.83,1.08-11.67.07-17.48,1.83-7,2.11-14,.7-21,2.19-10.3,2.21-20.61,2.83-30.91,4.67-6.06,1.08-12.11-.06-18.15,1.76-6.87,2.07-13.74.64-20.59,2.27-10,2.37-20,2.88-30,4.56-6.13,1-12.27-.15-18.38,1.93"/><path class="cls-68" d="M-22.31,146.47c11.29-1.07,22.57-3.2,33.87-4.05,6-.45,12.1-.35,18.14-1.76,10.75-2.51,21.51-2.88,32.25-4.7,6.43-1.09,12.87.46,19.26-2,5.76-2.24,11.51-.28,17.25-1.87,9.93-2.76,19.87-3.1,29.8-4.32,7.17-.87,14.34-1.32,21.5-2.54,6.43-1.11,12.86-.39,19.27-1.85,10.53-2.4,21.06-2.84,31.59-4.53,4.7-.75,9.39-1.78,14.1-1.74.9,0,1.81-.07,2.53,3.23v21.6c-.86,3.74-1.94,3.68-3,3.51-8.76-1.37-17.51,1.15-26.25,2.57-12.26,2-24.53,3.19-36.79,4.58-6.06.68-12.12.15-18.17,1.76-10.6,2.83-21.23,3.14-31.83,5.65-6.65,1.57-13.33-.62-20,1.46-7.17,2.25-14.37-.95-21.52,2.92a2.67,2.67,0,0,1-1.57.48c-7.64-1.16-15.27,1.45-22.88,2.88-6.88,1.29-13.76,1-20.64,2.19-3.27.58-6.56,1.92-9.85,1.44-8.68-1.26-17.36,1.41-26,2.76"/><path class="cls-9" d="M-38.64,42c5.24-1.93,10.48.42,15.67-2,6-2.77,12,.29,17.92-2.25C.49,35.44,6,38.12,11.52,35.67c4.33-1.94,8.7-3.34,13-1.14,3.79,1.95,7.34-3.68,11-3s7.52,1.71,11.22-.21c6.06-3.13,12.11-.41,18.15-1.88C75.93,26.8,87,26.69,98,24.64c5.68-1.05,11.37.51,17-1.84,6.35-2.64,12.72.24,19-2.34,5.39-2.21,10.78.45,16.12-2,5.94-2.72,11.89.31,17.8-2.19a25.5,25.5,0,0,1,10.28-1.77c8.45,0,16.89-2.11,25.33-2.88,4.54-.41,9.1-.72,13.65-1.5v10.8c-1,3.86-2.13,5-3.35,5.17a12.31,12.31,0,0,1-3.15.06c-9.5-1.4-19,1.69-28.48,2.86-6.13.76-12.28-.56-18.38,1.83-5.69,2.23-11.38.05-17,2.16-6.06,2.25-12.13-.3-18.14,1.55-11.58,3.54-23.15,3.29-34.72,5.17-5,.81-10,.84-15,1.56-1,.15-2.1-.28-3,2.79a3.15,3.15,0,0,1-.84,1.21C70,45,64.79,47.54,59.66,43.6c-1.44-1.1-2.82,1.74-4.23,1.88-5.75.54-11.5.78-17.26,1.81s-11.29-.17-16.93,2.57c-2.3,1.12-4.6-.58-6.9-.44C9.62,49.7,5,53,.22,52.19-8.6,50.75-17.42,54-26.24,54.94c-5.82.66-11.68-.46-17.48,1.82"/><path class="cls-10" d="M-49.36,57.66c.88-.16,1.78.41,2.65-.59.46-.55.91-1.39,1.4-1.21.9,1.36,1.8.71,2.7-.24,3.69-.4,7.39.53,11.08-.11a11.68,11.68,0,0,0,7.17-2c3.77-.35,7.53-.05,11.29-.16,1.5-.61,3-.7,4.5-2,8.14,1,16.26-2.18,24.39-2.61,1.12,1.09,2.25,2.34,3.39.49,1.26-.53,2.53.38,3.79-.79,1-.39,2-.14,3-1.4,3.81.94,7.63-1.3,11.44-.15,1.88-.39,3.78,1.24,5.62-2,4.06-.52,8.12,0,12.19-.18,1.92-.4,3.84-1.24,5.77-1.1,4.72-.61,9.46,1.47,14.18-1.06h.45c.8-2.64,1.72-2.19,2.61-2.13,10.91.66,21.81-2.48,32.71-3.53,4.11-.4,8.24.49,12.33-1,6.78-2.48,13.58-.77,20.35-2.2,11-2.33,21.94-3,32.91-4.54,6.13-.84,12.29.56,18.37-2.26,7.09-3.29,14.2,1.46,21.26-3.44.38-.27.72.71,1,1.83v10.8c-.3,1.14-.6,2.46-1,2.53-4.77,1-9.47,7.39-14.3,3.93q-2.91-2.09-5.81.63c-3.71,3.49-7.43,3.47-11.17,1.27-3.16-1.85-6.28.3-9.39,2.31-1.12.72-2.23,1.48-3.36.91-6.27-3.13-12.53-.11-18.79,1.65-.3.08-.6.7-.89.47-7.09-5.82-14.15,5.88-21.26.84-1.92-1.36-3.87-.17-5.8,2-3,3.3-6,2.4-8.94,1.19-3.75-1.53-7.46-2.6-11.16,1.8-.73.87-1.49,1.4-2.23.85-6.65-5-13.29,1-20,.65S70.1,61.74,63.55,60.15c-4.46-1.09-8.78,3.84-13.19,3-4.1-.75-8.22-4.35-12.31-.06-2.69,2.83-5.35.23-8,.13-6.36-.25-12.73,4.53-19,2.84-6.15-1.64-12.2,7.15-18.34,1.76-2.69-2.36-5.35,2-8,3.31-3.9,1.94-7.76-1.59-11.65-1.46a5.81,5.81,0,0,0-5.34,2.82c-.79,1.16-1.62,1.54-2.44,1.26"/><path class="cls-11" d="M-37.15,103.75c6-2.46,12,.26,17.93-2.17s12.13.32,18.15-2.18c5.47-2.28,10.94.19,16.36-2.1s11.08.11,16.58-2.21c5.92-2.49,11.83.19,17.71-2.1,6.21-2.42,12.43.2,18.6-2.28,5.62-2.25,11.23.37,16.8-2.06s11.23.19,16.8-2.18c6.14-2.62,12.29.28,18.38-2.18,5.54-2.24,11.09.22,16.59-2.14,6-2.56,12,.25,17.93-2.18,5.61-2.29,11.23.25,16.8-2.17,5.39-2.34,10.77-.11,16.13-2,8.88-3.13,17.78-1.44,26.66-4,1-.3,2.12-.73,3,3.18v10.8c-11.44.69-22.88,1.83-34.31,2.64-9.55.68-19.1,2.53-28.64,4.4-5.45,1.07-10.92-.51-16.34,1.92-7.48,3.35-15,.23-22.41,2-10,2.33-20,2.86-30,4.8-4.78.92-9.56.22-14.33,1.65-9,2.72-18.09.89-27.12,2.39C35.25,107,26.37,108,17.51,110.08c-5.91,1.4-11.82-.54-17.69,1.86-8.38,3.43-16.75.15-25.11,2.07-9.17,2.1-18.35,2.6-27.51,4.72"/><path class="cls-69" d="M-46,14.66c1.07-1,2.12-2.54,3.23-2.07,4.84,1.41,9.69,1.95,14.53-.34A1.82,1.82,0,0,1-27,11.47c4.31-.19,8.63-.05,12.94-.09A2.68,2.68,0,0,0-11.22,10a2.07,2.07,0,0,1,2.09-.79C-4,8.56,1.09,10.63,6.19,8c1.31-1.48,2.61-3.92,4-2.21a13.87,13.87,0,0,0,12.75,0c1.57-1.38,3.12-4,4.75-2.15a12.74,12.74,0,0,0,12.38,0,1.83,1.83,0,0,1,1.22-.76c4.53-.2,9.07,0,13.6-.12.89,0,1.78.35,2.64-1.25A1.64,1.64,0,0,1,59.2.57c4.77,0,9.54,0,14.3,0,.82,0,1.64.26,2.43-1.21a1.85,1.85,0,0,1,1.24-.83c4.29-.2,8.58,0,12.86-.12.81,0,1.63.35,2.41-1.24,1.17-2,2.35-3.62,3.6-2.13a17,17,0,0,0,14,0c1-1,2.07-2.47,3.16-1.88,4.68,1.34,9.36,2,14-.43A1.54,1.54,0,0,1,128.44-8c4-.68,7.95,1.09,11.92-1,1.38-.52,2.75-.16,4.13-.29,5-2.17,10-.5,15-1.08.81-.1,1.65.89,2.43-.91l55.3-.16v4.32c-7.85-.13-15.69,1.63-23.53,2.84C187.83-3.42,181.9-5,176-2.5c-6.13,2.64-12.27-.39-18.36,2.24-5.39,2.32-10.78-.36-16.12,2.06-5.9,2.68-11.82-.34-17.68,2.27-5.32,2.37-10.63-.33-15.89,2-6.36,2.83-12.73-.3-19,2.3-5.76,2.36-11.52-.48-17.24,2.08-6,2.71-12.12-.37-18.13,2.21-5.39,2.3-10.78-.36-16.12,2.11-5.9,2.75-11.82-.36-17.68,2.22-4.72,2.08-9.41.71-14.1,1.82-6.91,1.63-13.83.76-20.72,2.69-5.46,1.53-10.91-.28-16.34,1.79-6.12,2.33-12.27.16-18.36,2.45"/><path class="cls-12" d="M-47.85,69.26c1.2-.54,2.41-1.58,3.56-.21s2.3,1.37,3.51.08c1.37-1.45,2.82-1.42,4.22.56,1.17,1.65,2.43,2,3.55.28,3.83-5.8,7.64-3.87,11.52-1.89,2.34,1.19,4.79,1.37,7.09-.71C-10.91,64.2-7.5,63.3-4,66.06c2.52,2,5-1.63,7.55-2.92,1.95-1,3.87.23,5.77-.23,3.87-.94,7.76.66,11.6-1.66s7.93-2,11.85-.63a5.49,5.49,0,0,0,4.84-.87c3.49-2.13,6.94-2.35,10.46-.3,2.94,1.72,6,1.78,8.91-2.07,2.55-3.4,5,0,7.5.27,3.15.38,6.23-2.24,9.35-3.2.89-.28,1.82-1.74,2.66-.91,2.16,2.14,4.28.27,6.41.28,5.09,0,10.14-3.61,15.22-2.73,3.39.58,6.73,2.26,10.19-1.34,2.67-2.78,5.62-1,8.47.74,3,1.85,6.13,2.54,9.13-1.81,2.21-3.21,4.54-3.32,6.66-1.12,3.35,3.46,6.54-.79,9.78-1.62.95-.24,1.92-1.47,2.88-1.2,5.42,1.52,10.82-.42,16.23-1.41,3.56-.65,7.21-2.93,10.86.78,1.87,1.9,4-.78,6-2.3,2.61-2,5.17-1.71,7.78,0,3.34,2.15,6.72,1.32,10-1.9,2.31-2.26,4.56-2.13,6.87.08,2.68,2.56,5.37-.83,8-2.29,2.09-1.15,4.16-1.22,6.25-1.61v10.8c-.79,3.59-1.79,3.28-2.76,3.21-10.25-.69-20.48,2.74-30.73,2.56a80.52,80.52,0,0,0-17.45,2c-10.61,2.17-21.23,2.49-31.83,4.6-6.35,1.28-12.72-.57-19,2-5.84,2.39-11.67.54-17.49,1.84-11.13,2.49-22.28,3-33.41,4.83-4.63.77-9.27.46-13.89,1.62-7.68,1.94-15.37.59-23,2.27C17.08,74.14,6.53,74.43-4,76.54c-6.58,1.32-13.16.23-19.72,1.76"/><path class="cls-13" d="M-39.09,185.65c11.06-.55,22.13-2.78,33.2-4,12.84-1.46,25.69-3,38.54-4.61,10.62-1.36,21.24-2.13,31.84-4.38,7.62-1.62,15.27,1.1,22.87-3.54,2.22-1.36,4.46.64,6.71.41,4.56-.47,9.09-3.09,13.66-2.92,14.52.55,29-3.61,43.53-4.58,11.67-.78,23.33-2.79,35-4.11,9.33-1.07,18.67-2.65,28-4,1-.15,2.11-.68,3,3.2v10.8c-6,.12-11.94-1.19-17.87.84-4.19,1.44-8.36.84-12.54,1.18-5,.41-10,3.32-15,2.53-2.32-.37-4.67-5.39-6.88-1.9-3.62,5.71-7.27,3.5-10.9,3.73-13.11.83-26.2,4.57-39.32,5.08-4.53.18-9.12,2.19-13.64,1-4.27-1.09-8.45,2.83-12.64,2.24-8.1-1.14-16.16,2.53-24.24,3.31-6.27.62-12.56-.53-18.81,1.72-4.11,1.47-8.24,3.24-12.3,1.41-4.73-2.12-9.34,3.49-14,2.37-8.2-2-16.36,2.41-24.54,3.16-6.56.6-13.15-.48-19.71,1.69-3.8,1.26-7.61,2.71-11.4,1.65"/><path class="cls-14" d="M-42.38,78.43c3.57-.49,7.16-.37,10.73-1.35,8-2.21,16-1,24-2.5,10.37-1.9,20.74-3,31.11-4.49,4.41-.65,8.86-1,13.27-3.37,1.15-.61,2.36,2,3.52,1.58,7.17-2.75,14.36-.31,21.51-2.55,4.63-1.45,9.27.31,13.87-1.88,5.83-2.76,11.68.2,17.46-2.32,6.06-2.63,12.12.33,18.15-2,6.57-2.57,13.16.11,19.7-2.37,4.64-1.76,9.28.23,13.88-1.92,6.12-2.87,12.28.56,18.35-2.5,4.77-2.4,9.54.7,14.3-3,1.42-1.09,3.06-.83,4.58-.64,11.75,1.39,23.48-3.34,35.22-2.29v6.48c-.95,4-2.12,2.75-3.21,3.08-4.12.83-8.27-1.86-12.37,1.63-1.35.78-2.7.4-4,.49-5.12-.67-10.24-1.89-15.34,1.69a1.64,1.64,0,0,1-.8.4c-4.15-1.38-8.31-.48-12.46.28-6.16,1.13-12.32,2.31-18.5,2-.52,0-1,.52-1.53,1.31-1.1,1-2.2.66-3.31.81-3.69,0-7.39,0-11.08,0A3,3,0,0,0,132,66.72c-1.38.75-2.77.35-4.16.5-4.39-.43-8.8-1.68-13.17-.06-6.38,2.35-12.78.9-19.16,3.28a16.93,16.93,0,0,1-8.69,1.18c-2.69-.45-5.39-.76-8,2-2.84.3-5.69-.11-8.53.27-8,1.08-16,1.1-24,2.71-5.83,1.17-11.66.26-17.48,1.63-11,2.59-22,2.93-32.92,4.8-6.13,1-12.27-.15-18.37,1.87-6.35,2.11-12.71.49-19,2.15"/><path class="cls-15" d="M-45.88,92.74c6.12-.71,12.26.09,18.37-1.54,10.82-2.89,21.66-3,32.48-4.81,6.05-1,12.12.47,18.15-1.93s12.27.23,18.37-2.24c5.24-2.12,10.48.2,15.68-2,6.13-2.65,12.27.17,18.37-2.25,5.76-2.29,11.51-1,17.26-1.76a2,2,0,0,0,2-1.23,1.85,1.85,0,0,1,.86-.72A4.77,4.77,0,0,1,97.89,74c9.34,1.54,18.67-1.49,28-2.82,5.89-.84,11.81.52,17.68-1.87,6.35-2.58,12.71.22,19-2.21,5.68-2.19,11.37.17,17-2.13,5.3-2.17,10.62.1,15.88-2.18,5.53-2.38,11.05-1.27,16.57-1.66,1.72-.13,3.51-5.64,5.2.81v6.49c-.72,3.29-1.63,3.12-2.53,3.24-13,1.74-26,3.18-39,4.67-11.28,1.29-22.56,2.81-33.84,4.29-11.51,1.51-23,2.9-34.52,4.46-6,.8-12-.08-17.93,2.09s-12,.46-17.94,1.9c-10.82,2.6-21.65,3-32.48,4.41-12,1.54-23.92,2.83-35.87,4.64C-2.93,99.08-9,98.5-15,99.9c-11.2,2.61-22.41,3.11-33.62,4.5"/><path class="cls-11" d="M-52.16,102.71c6-2.72,12,.31,17.91-2.26,5.32-2.3,10.63.38,15.9-2.08,6.06-2.81,12.13.38,18.14-2.21s12,.45,17.92-2.14,12.13.44,18.15-2.2c5.31-2.34,10.63.35,15.9-2.1,5.53-2.57,11.08.33,16.57-2.21,5.76-2.67,11.52.36,17.24-2.08,6.28-2.68,12.58.33,18.82-2.31,5.31-2.24,10.62,0,15.9-1.89,6.2-2.25,12.42-.2,18.59-2.46,5.46-2,10.93.36,16.35-2,5.83-2.52,11.68.24,17.46-2.31,5.4-2.38,10.77.08,16.13-1.92,6.57-2.45,13.16-.82,19.72-2.37,2.9-.68,5.8-1.61,8.71-1.74v6.48c-8.88-.35-17.76,1.94-26.63,2.82-5.22.52-10.48-.61-15.67,1.85-5.61,2.66-11.23-.4-16.79,2.19-5.84,2.71-11.68-.38-17.47,2.11s-11.53-.3-17.25,2.23S111.77,85.86,106,88.2,94.15,88,88.28,90.53c-4.94,2.1-9.87.08-14.78,1.85-6.72,2.43-13.46.22-20.16,2.51-5.83,2-11.65.32-17.47,1.73-11.27,2.73-22.55,2.86-33.81,4.84-5.61,1-11.22-.42-16.8,1.83-6.35,2.57-12.72-.13-19,2.34-5.69,2.23-11.38-.42-17,2.05"/><path class="cls-16" d="M-39.55,173.74c4.7-.84,9.41-.34,14.1-1.68C-14.64,169-3.82,168.84,7,167.42c7.59-1,15.17-.53,22.75-2,9.77-1.87,19.54-2.61,29.31-4.68,5.23-1.11,10.45-.22,15.67-1.65,8.62-2.35,17.26-.85,25.88-2.4,9-1.61,17.91-2,26.84-4.5,6.43-1.83,12.87.55,19.26-2,7.4-2.92,14.8-.27,22.19-2,9.17-2.19,18.35-2.41,27.51-4.71,7-1.75,13.89-.5,20.84-1.6v8.64c-.79,3.61-1.79,3.2-2.76,3.23-13.83.38-27.65,3.76-41.49,4.74-11.88.85-23.77,2.79-35.65,4.24s-23.62,2.77-35.43,4.39c-11.06,1.52-22.11,2.62-33.16,4.3C57.18,173.21,45.59,174,34,175.85s-23.31,3-35,4.2-23,2.73-34.54,4.26"/><path class="cls-15" d="M-44.79,85.46c5.88-2.55,11.77-.2,17.61-2.33,6.59-2.4,13.17.52,19.72-2.1,5.61-2.26,11.22.23,16.79-2.11s10.88.07,16.26-2.29c5.68-2.48,11.36.36,17-2.07,6.35-2.75,12.71.41,19-2.21,5.76-2.39,11.5-.77,17.25-1.73,3.63.14,7.27.5,10.9-.21,4.17-.82,8.33-2,12.51-2,6.17,0,12.33-1.77,18.49-2.83,2.36-.41,4.75,2.21,7.08-1.47h4.05c3.85,0,7.7.1,11.56-.09.8,0,1.62-.34,2.37-2.07h3.15c9.1.89,18.19-2,27.29-3,1.84-.21,3.7,2.23,5.51-1.3h.45A106.4,106.4,0,0,0,195.53,57c.66-.07,1.34.21,1.94-1.52h4.05c4.19-1,8.41,2.24,12.58-2.16h3.15v4.32c-1,4.28-2.43.35-3.5,3.6a1.21,1.21,0,0,1-.76.65c-5.19.67-10.39-1-15.58.89a2.32,2.32,0,0,1-.77,1.17c-5,.9-10-1-15,1a2.23,2.23,0,0,1-.77,1.16c-5.43.9-10.87-1-16.3,1a2.25,2.25,0,0,1-.78,1.16c-5.21.38-10.42,0-15.63.19-.82,0-1.64-.47-2.44.76a2.51,2.51,0,0,1-.78,1.2c-5.72.85-11.45-.84-17.17.9a2.93,2.93,0,0,1-.77,1.24c-4.56,1-9.14-1-13.7,1.09a2.09,2.09,0,0,1-.77,1.12c-5.88.78-11.76-.82-17.63.85a2.68,2.68,0,0,1-.78,1.27c-4.77.43-9.53,0-14.3.22-.88,0-1.79-.72-2.64,1.25-.26.48-.53.74-.8.79-5.64.66-11.29-.89-16.93.81a2.88,2.88,0,0,1-.77,1.25c-5.15,1-10.31-1-15.46,1a2.28,2.28,0,0,1-.77,1.16c-5.73.88-11.47-1-17.19,1a2.3,2.3,0,0,1-.78,1.18c-5.88.87-11.76-.92-17.63,1a2.51,2.51,0,0,1-.78,1.2c-5.58.86-11.16-.86-16.74.93a2.68,2.68,0,0,1-.76,1.22c-4.72,1-9.46-1.14-14.17,1.17a1.87,1.87,0,0,1-.79,1c-5.13.38-10.26,0-15.39.14-.89,0-1.79-.45-2.62,1.78-.66.66-1.3,1.55-2,1.45"/><path class="cls-17" d="M-40.38,140.39c10.89-1.29,21.78-3,32.67-4.42,3.85-.49,7.76.12,11.61-2.61,1-.71,1.91,1.18,2.85,2.29,2.46,1.6,4.91,1.81,7.36-.28a2.36,2.36,0,0,1,1.79-.78c8.68,1.43,17.36-1.12,26-2.87,6-1.21,12-1.46,17.92-2.28,5.57-.76,11.16-1.58,16.74-2,8.2-.65,16.44.1,24.63-3.43a1.64,1.64,0,0,1,.9-.2c7.79,1.37,15.54-2.39,23.33-2.54a170.65,170.65,0,0,0,26.4-2.44c5.54-1,11.07-.28,16.59-1.73,9.26-2.43,18.52-3.4,27.78-4.39A75.87,75.87,0,0,0,212,109.52c1.7-.55,3.6-.61,5.21,4.31v6.48c-9.05-1.57-18.08,1.56-27.11,2.82-5.9.82-11.82-.68-17.68,1.84-6.13,2.64-12.28-.4-18.36,2.22-5.83,2.52-11.67-.4-17.46,2.09s-11.52-.31-17.23,2.24c-5.54,2.48-11.07-.27-16.57,2-6.2,2.6-12.41-.2-18.57,2.35-5.24,2.17-10.46.39-15.67,1.78-6.27,1.66-12.56.71-18.8,2.64-5.54,1.7-11.08-.55-16.57,1.91-5.9,2.65-11.82-.34-17.68,2.26-5.46,2.43-10.9.76-16.34,1.75-11.94,2.17-23.87,3.53-35.81,5-5.45.65-10.92-.46-16.34,1.77"/><path class="cls-18" d="M-40,182.46c5.31-1.76,10.63.45,15.89-2,5.91-2.74,11.83.36,17.69-2.2,6.21-2.72,12.43.41,18.59-2.15,5.84-2.42,11.68.34,17.47-2.21,5.31-2.34,10.63.35,15.89-2.07,6.36-2.92,12.73.39,19-2.24,5.69-2.37,11.38.4,17-2.12s11.23.37,16.79-2.18c5.76-2.65,11.53.39,17.24-2.14,5.54-2.45,11.08.35,16.57-2.19,5.84-2.69,11.68.41,17.47-2.1,6.28-2.73,12.58.39,18.81-2.24,5.92-2.49,11.81-.33,17.7-1.87a117.27,117.27,0,0,1,31.12-4.21V157c-5.9-.25-11.78-.08-17.64,4-1.2.85-2.51-2.09-3.75-1.71-7.39,2.26-14.8.47-22.17,2.58-5.09,1.45-10.16,0-15.22,1.74-6.87,2.4-13.76.27-20.6,2.52-5.24,1.73-10.48-.44-15.67,1.95-6.57,3-13.17-.36-19.7,2.4-3.48,1.47-7,3.17-10.45,2.9-6.33-.51-12.66.86-19,1.42-7.15.64-14.31,0-21.43,2.14-4.93,1.49-9.87-.44-14.76,1.95-6.36,3.11-12.71.12-19,2.25-2.31.78-4.73-.38-7,4.6-1,2.17-2-3-3.14-3.15-5.24-.82-10.44,2.89-15.67,2.43-8.9-.79-17.78,1.85-26.66,2.9-5.9.7-11.83-.82-17.68,2"/><path class="cls-17" d="M-20.76,133c6.06-.49,12.12-.71,18.16-2.35,5.68-1.55,11.37-.24,17-2.06s11.33-1,17-1.93c12.18-2,24.37-3,36.55-4.82,4.93-.74,9.86-.65,14.78-1.58,12.23-2.31,24.47-3.09,36.7-4.72,5.68-.76,11.37-.64,17-1.94,13.43-3.09,26.87-3.49,40.31-5.18,9.27-1.16,18.53-3.44,27.81-3.27,3.43.07,6.83-3.58,10.28-2.18.8.33,1.66-.63,2.37,2.17v6.48c-.47,1.59-1,1.44-1.52,1-3.49-3.41-7-.19-10.43.47-6.45,1.22-12.91.14-19.32,2.31-4.63,1.57-9.27-.37-13.85,1.9-5.68,2.82-11.38-.33-17,2.3-6.35,3-12.68-.42-19,1.82-6.81,2.42-13.65.53-20.44,2.6-4.71,1.42-9.42-.44-14.08,2-5.6,2.93-11.2.13-16.77,2.13-2.6.94-5.21,2.9-7.78,1.59-3.65-1.86-7.27-.08-10.87.65-6.75,1.36-13.51.24-20.23,2.29-4.48,1.36-9-.38-13.4,2-5.68,3-11.37-.27-17,2.32-3,1.4-6.09.06-9.09,2.79-1.24-4.93-2.64-2.17-4-2.41-5.31-.9-10.57,3.33-15.87,2.46-7.84-1.29-15.66,1.63-23.49,2.8-5.74.86-11.5-.86-17.2,1.85"/><path class="cls-19" d="M-53.07,134.88c3.17-.54,6.35-2.45,9.56-1.87,9.64,1.71,19.28-1.58,28.92-2.45s19.24-2.77,28.86-4.18c7.29-1.07,14.58-.1,21.84-2.2,6-1.72,12-.28,17.92-1.9,9.69-2.63,19.39-3.34,29.09-4.43,7.58-.85,15.17-.41,22.73-2.41,5.46-1.43,10.93.54,16.34-2,4.87-2.29,9.75.6,14.54-2.15,6.27-3.59,12.53-.59,18.79-2.75s12.68.23,19-1.52,12.4-.59,18.59-2.1a140.84,140.84,0,0,1,24.15-4v4.32c-8.6,0-17.19,1.61-25.77,2.85-6.2.9-12.41-.73-18.58,1.83-5.53,2.31-11.07-.31-16.56,2.21-5.31,2.44-10.62-.38-15.89,2.08-6,2.84-12.12-.37-18.13,2.22s-11.82-.3-17.69,2.1c-6.25,2.55-12.51-.13-18.72,2.46-4.5,1.88-9-.31-13.43,1.74-6.79,3.12-13.61-.12-20.37,2.42-5.46,2-10.93-.46-16.34,2-6.05,2.79-12.12-.35-18.13,2.23C12.33,131.62,7,129,1.75,131.45c-6.43,3-12.87-.4-19.26,2.18-5.75,2.32-11.52-.35-17.23,2.22s-11.2.4-16.79,1.81"/><path class="cls-51" d="M217.25,25.25c-6.56,3.09-13.16.38-19.69,2.67-5.46,1.91-10.92-.32-16.34,1.91-6.57,2.7-13.17-.51-19.68,2.52-4.63,2.16-9.24-1-13.79,1.82-6,3.67-12.07.45-18.1,2.85-2,.79-4.09,1.7-6.16,1.29-10-2-20,1.2-30,2.84-6,1-11.89.07-17.83,1.38.43-4.51,1.27-4.46,2.1-4.32,9.12,1.57,18.21-3,27.32-2.29,6.64.54,13.29-1.13,19.9-2.74,5.88-1.44,11.76.81,17.59-1.74s11.66.23,17.44-2.29c6.06-2.64,12.09-.33,18.12-1.83A144.06,144.06,0,0,1,213.94,23c1.1,0,2.2-1.34,3.31-2.06Z"/><path class="cls-17" d="M6.47,139.75c.33-.71.67-2.13,1-2,3.68,1.35,7.29-2.37,11-2.46,8.14-.21,16.31.58,24.41-2.65,5.67-2.26,11.33-.5,17-2.71,3.24-1.26,6.65-1.27,10-1.24,9.52.07,19.06-.27,28.58-2.15,9.25-1.82,18.49-3.21,27.74-4.38,5.69-.73,11.41.37,17.08-3.69,1.2-.87,2.5,1.85,3.75,1.74,7.1-.63,14.2-1.37,21.28-2.69,4.7-.87,9.45.88,14.09-1.92,5.36-3.23,10.73-1,16.09-2.89,2.88-1,5.89-1.79,8.86-1.29,3.32.57,6.66-2.21,10,.26v2.17c-5.27-.39-10.53-1.36-15.78,2-1.66,1.06-3.36-.5-5.06-.16-7.54,1.48-15.09.8-22.62,2.8-6.2,1.65-12.41.12-18.58,2.38-4.71,1.73-9.4.8-14.1,1.62-8.4,1.47-16.81,1.11-25.2,2.55-10.22,1.76-20.44,2.54-30.65,4.52-6.39,1.24-12.79-.59-19.16,1.76s-12.93.69-19.38,2.22a218.81,218.81,0,0,1-31.1,4.55C12.59,138.33,9.53,139.53,6.47,139.75Z"/><path class="cls-15" d="M217.25,62c-6.11,3.21-12.27.39-18.36,2.67-5,1.88-10-.37-15,1.94-5.9,2.74-11.82-.23-17.69,2.28-6.13,2.62-12.27-.44-18.36,2.1s-12.27-.26-18.36,2.23c-4.86,2-9.73-.29-14.54,2.07-6.51,3.21-13,.79-19.5,1.84.22-5.82,1.18-3,1.78-3.08,4.52-.25,9-.09,13.58-.19.72,0,1.48,1,2.17-1,3.91-2.32,7.84-.4,11.76-1.1.88-.16,1.78,1.12,2.62-1.06,5-2.36,10.09-.36,15.13-1.11.95-.14,1.93,1.17,2.85-1.05,4.81-2.44,9.64-.28,14.46-1.11,1.47-.26,3,1.37,4.42-1.06,4.73-2.37,9.48-.35,14.22-1.1.95-.15,1.94,1.17,2.85-1.06,4.29-2.36,8.59-.35,12.89-1.1.95-.16,1.93,1.17,2.84-1.06,4.59-2.34,9.19-.35,13.78-1.1.95-.15,1.93,1.17,2.85-1.06,1.2-1.69,2.4-1.7,3.6,0Z"/><path class="cls-70" d="M-34.09-6.61c12.64-1.68,25.27-2,37.91-3,4.93-.39,9.87-.24,14.8-.79.74-.08,1.5.79,2.21-.9h83.59c-.08,4.48-.85,5.07-1.47,4.92-2.4-.57-4.82.28-7.13,1.91C89.56-.07,83.27-3.73,77-1,75.76-.47,74.5.36,73.22.27c-13.91-.94-27.8,4.86-41.71,4-6.28-.41-12.52,2.58-18.79,3-8.06.54-16.13.61-24.18,2.06q-14,2.51-28,4.13"/><path class="cls-71" d="M-47,11.93c6.43-2.85,12.86-.11,19.26-2,11-3.18,21.94-3.14,32.91-4.75,5.37-.78,10.78.55,16.11-1.9,6.81-3.1,13.61-.18,20.4-2C53-1.65,64.24-1.8,75.51-3.45c5.37-.79,10.76-.11,16.12-1.72,4.27-1.28,8.53-4,12.79-6.15h3.19q1.55,2.27,3.11,0h34.61c.26,4.13-.71,2.2-.89,4.15h-4c-3.17,2.42-6.35.31-9.52,1.09-.87.21-1.78-1.11-2.62,1.07h-.9A20.35,20.35,0,0,1,113-5c-.9.72-1.74,2.91-2.69,2.16a20.38,20.38,0,0,1-14.39,0c-1.09-.67-2.11.92-3.14,2.16-4.29,2.37-8.59.36-12.88,1.1C78.93.59,78-.74,77,1.48h-.9c-4.74,2.37-9.49.36-14.23,1.1C61,2.73,60,1.42,59.05,3.64H57.7C53.12,6,48.51,4,43.92,4.74,43,4.9,42,3.57,41.08,5.8h-.9a15.84,15.84,0,0,1-12.59,0c-1.54-1.29-3,2.47-4.49,2.16a17.1,17.1,0,0,1-13,0c-1.25-1.07-2.39,2-3.6,2.16-4.29,2.37-8.59.36-12.88,1.1-1,.17-1.93-1.16-2.85,1.06h-1.8c-4.43,2.41-8.89.32-13.33,1.1-.95.17-1.93-1.17-2.85,1.06h-.9a21.84,21.84,0,0,1-14.83,0c-.89.73-1.74,2.91-2.69,2.16"/><path class="cls-51" d="M-30.78,53.1C-18.54,50.91-6.3,49.84,6,48.47c4.88-.54,9.82.22,14.65-2.22C25,44,29.39,47.71,33.73,42.86c1.29-1.44,2.6,2.75,4,1.87,6.74-4.33,13.54-2.49,20.3-3.5,5.7-.84,11.48,1.07,17.23,1.3-.66,3.48-1.53,2.07-2.32,2.1-4,.13-8,.06-12.06.06-1.76,2.93-3.64-.88-5.39,2.16H42.87C41.11,49.78,39.24,46,37.48,49H25.79c-.82,2.72-1.87-.65-2.69,2.16H19.05c-.9,1.65-1.79,1.65-2.69,0C8,50.11-.41,54.94-8.81,53.33c-1.3,2.83-2.75-.78-4,2.16H-24.54c-2.37,3.09-4.83-1-7.19,2.16H-43c-.75,1.63-1.49,1.63-2.24,0h-1.35c-.67,2.56-1.58-.5-2.25,2.16"/><path class="cls-52" d="M37.48,49c1.73-4.5,3.6-1.06,5.39-2.16C41.14,51.35,39.27,47.91,37.48,49Z"/><path class="cls-52" d="M55.46,46.85c1.73-4.5,3.6-1.06,5.39-2.16C59.12,49.19,57.25,45.75,55.46,46.85Z"/><path class="cls-52" d="M16.36,51.17h2.69Q17.7,56.06,16.36,51.17Z"/><path class="cls-52" d="M23.1,51.17c.79-3.88,1.79-1.48,2.69-2.16C25,52.89,24,50.49,23.1,51.17Z"/><path class="cls-69" d="M59.05,3.64c.66-3.49,1.54-2.08,2.32-2.1,4.92-.12,9.84-.06,14.76-.06-.66,3.49-1.54,2.08-2.32,2.1C68.89,3.7,64,3.64,59.05,3.64Z"/><path class="cls-69" d="M41.08,5.8c.66-3.49,1.53-2.08,2.32-2.1,4.77-.12,9.53-.06,14.3-.06-.66,3.49-1.53,2.08-2.32,2.1C50.61,5.86,45.84,5.8,41.08,5.8Z"/><path class="cls-69" d="M-9.26,12.28c.66-3.48,1.54-2.07,2.32-2.1,4.47-.12,8.94-.06,13.41-.06-.66,3.49-1.54,2.08-2.32,2.1C-.32,12.35-4.79,12.28-9.26,12.28Z"/><path class="cls-69" d="M77,1.48C77.69-2,78.56-.6,79.35-.62c4.47-.13,8.94-.06,13.41-.06-.66,3.49-1.54,2.08-2.32,2.1C86,1.55,81.5,1.48,77,1.48Z"/><path class="cls-69" d="M10.07,8h13c-1.81,4.62-3.76,2-5.63,1.92C15,9.72,12.48,12.61,10.07,8Z"/><path class="cls-69" d="M27.59,5.8H40.18c-2,4.52-4.06,2-6.07,1.91C31.94,7.65,29.71,10.42,27.59,5.8Z"/><path class="cls-72" d="M127.81,64.13c-1,4.16-2.31,4.45-3.59,4.33-9.48-.89-18.94,2.83-28.43,2.57-4.87-.13-9.75,1.9-14.63,1.69-.79,0-1.67,1.39-2.33-2.1,2.19-2.69,4.44-1.93,6.67-2.22,7.11-.93,14.23-.67,21.32-4.19a.65.65,0,0,1,.67,0c4.5,2.92,9-1.23,13.42-1.46C123.18,62.58,125.51,63.93,127.81,64.13Z"/><path class="cls-72" d="M181.74,57.65c-.84,3.37-1.85,4.47-2.91,4.29-9-1.56-18,3.22-27.06,2.21-1-.11-2,.46-2.83-2.18.58-3.26,1.38-2,2.1-2.12,7.58-.78,15.17-.57,22.73-2.69C176.46,56.41,179.09,58.76,181.74,57.65Z"/><path class="cls-72" d="M197.47,55.49c-.7,3-1.57,4.18-2.45,4.22-4,.18-7.9.12-11.85,0-.33,0-.65-1.33-1-2,2.69-5,5.59-2.85,8.31-3.11C192.76,54.32,195.17,52.62,197.47,55.49Z"/><path class="cls-72" d="M145.79,62c-.84,3.36-1.85,4.31-2.9,4.31q-4.69,0-9.38,0c-.59,0-1.21.51-1.65-2.15,1.69-4.07,3.5-1.83,5.25-2.06A68,68,0,0,1,145.79,62Z"/><path class="cls-15" d="M-47.17,94.5c1-.13,1.91-1.38,2.86-2.28,5-2.38,9.93-.33,14.9-1.11,1.17-.18,2.37,1.26,3.52-1,4-2.34,8-.35,12-1.1,1-.18,1.93,1.17,2.84-1.06,4.89-2.36,9.79-.36,14.68-1.1,1-.15,1.93,1.17,2.85-1.06,5-2.38,9.94-.33,14.91-1.11,1.17-.18,2.37,1.25,3.52-1,5-2.36,10.08-.36,15.12-1.1.95-.15,1.93,1.16,2.85-1.06,4.44-2.41,8.89-.32,13.33-1.1.95-.17,1.93,1.17,2.85-1.06,4.89-2.36,9.79-.37,14.68-1.11,1-.14,1.93,1.17,2.85-1.05H77c4.89-2.36,9.79-.37,14.68-1.11,1-.14,1.93,1.17,2.85-1,.44-.72.57.1.45,2.16-.45,2.67-1.08,2.22-1.66,2.13C83,77.77,72.57,81.37,62.19,82c-5.82.34-11.67-.37-17.46,2.06-5.39,2.26-10.76-.11-16.12,1.89-6.72,2.52-13.46.09-20.15,2.45-5.69,2-11.37-.3-17,1.92-7.59,3-15.21.91-22.79,4.38-1.1.5-2.23-.28-3.34-.29"/><path class="cls-15" d="M95,77.1l-.45-2.16c.66-3.49,1.53-2.09,2.32-2.1,5.37-.12,10.73-.06,16.1-.06-.66,3.47-1.53,2.07-2.31,2.1-4.3.12-8.6,0-12.91.12-.78,0-1.65-1.38-2.31,2.1Z"/><path class="cls-15" d="M164.22,66.29c-.67,3.49-1.54,2.09-2.33,2.1-5.51.12-11,.07-16.55.07.66-3.49,1.54-2.09,2.32-2.1C153.18,66.24,158.7,66.29,164.22,66.29Z"/><path class="cls-15" d="M24.9,83.58c-.67,3.49-1.54,2.08-2.33,2.1-5.36.11-10.73.06-16.1.06.66-3.49,1.54-2.08,2.32-2.1C14.16,83.52,19.53,83.58,24.9,83.58Z"/><path class="cls-15" d="M42.87,81.42c-.66,3.49-1.53,2.08-2.32,2.1-5.22.12-10.44.06-15.65.06.66-3.49,1.53-2.08,2.32-2.1C32.44,81.36,37.65,81.42,42.87,81.42Z"/><path class="cls-15" d="M145.34,68.46c-.66,3.48-1.54,2.08-2.32,2.09-5.22.12-10.44.07-15.66.07.67-3.49,1.54-2.09,2.33-2.1C134.9,68.4,140.12,68.46,145.34,68.46Z"/><path class="cls-15" d="M6.47,85.74c-.66,3.49-1.54,2.08-2.32,2.1C-.92,88-6,87.9-11.06,87.9c.66-3.49,1.54-2.08,2.32-2.1C-3.67,85.68,1.4,85.74,6.47,85.74Z"/><path class="cls-15" d="M94.56,74.94C93.89,78.42,93,77,92.23,77c-5.06.12-10.13.06-15.2.06.66-3.49,1.54-2.08,2.32-2.1C84.42,74.88,89.49,74.94,94.56,74.94Z"/><path class="cls-15" d="M76.58,77.1c-.66,3.48-1.54,2.08-2.32,2.1-5.07.12-10.14.06-15.21.06.66-3.49,1.54-2.08,2.32-2.1C66.44,77,71.51,77.1,76.58,77.1Z"/><path class="cls-15" d="M181.29,64.13c-.66,3.49-1.53,2.08-2.32,2.1-4.92.13-9.84.06-14.75.06.66-3.48,1.53-2.07,2.32-2.09C171.46,64.07,176.37,64.13,181.29,64.13Z"/><path class="cls-15" d="M59.05,79.26c-.66,3.48-1.53,2.07-2.32,2.1-4.62.12-9.24.06-13.86.06.66-3.49,1.54-2.08,2.32-2.1C49.81,79.19,54.43,79.26,59.05,79.26Z"/><path class="cls-15" d="M197,62c-.66,3.49-1.53,2.08-2.32,2.1-4.47.13-8.94.06-13.41.06.67-3.48,1.54-2.07,2.32-2.09C188.08,61.91,192.55,62,197,62Z"/><path class="cls-15" d="M127.36,70.62c-.66,3.48-1.53,2.07-2.32,2.09-4,.14-8,.07-12.06.07.66-3.49,1.54-2.08,2.32-2.1C119.32,70.54,123.34,70.62,127.36,70.62Z"/></g><path class="cls-73" d="M168.78,153.88h.29l-.68.9c-16.86,22-42.87,36-72,36a90,90,0,0,1-63.2-26.06,93.26,93.26,0,0,1-8.84-10Q23.66,154,23,153.1l-.69-.94-.61-.86-.11-.16c-.42-.61-.84-1.23-1.25-1.86-.2-.29-.39-.58-.58-.88-.71-1.1-1.39-2.2-2.05-3.33-.17-.28-.34-.56-.5-.84l-.48-.86-.48-.85-.57-1.07c-.39-.72-.76-1.45-1.13-2.18l-.54-1.11h0c-.54-1.1-1-2.22-1.54-3.35s-1-2.28-1.43-3.44c-.15-.38-.3-.77-.44-1.16-.3-.77-.58-1.55-.86-2.34-.13-.39-.27-.78-.4-1.18L9,125.49c-.25-.79-.5-1.59-.73-2.39l-.09-.31-1.33-4.87,20.58.7v23.73h7.93v9.31H46.67v5.51h5.66v-21.4h3.5V133H68.45v2.73h5.17V125.2h6.55v-3.56L87,121v-4.89l8.56.91v3.19l10-.92v5.91h6.54v9.06h8.11v22.91h10v-8.32h15.14v-6.42l.88.1,2.74.29v-3.57l8.57.91v3.57l3.61.38v4.74h7.57Z"/><path class="cls-74" d="M173.57,136V95.1h-3v-12H167V73.68h-1.54V68.84l-3.09-3.14H162V55.83h-.65V47.15h-1.13v8.68h-.65V65.7h-.4L156,68.84v4.84h-1.52V83.1H151v12h-3v55.55h-1.13v-2.26H136.47v2.26h-4.22v-8.77h-5.36v-3l-4.71-.43-.91-.09v-4.07l-7,.76v2.65l-8.19-.77v4.91h-5.35v7.52H94.09v19h-8.2v-6.91H73.5v-5.33l-3,.32v-3l-7,.76v3l-3,.31v3.94H54.37v4.18H36.05a90.37,90.37,0,0,0,133.74-9.62l.67-.86a92.12,92.12,0,0,0,10.18-16.63c.37-.77.73-1.55,1.07-2.34l.3-.69.32-.75Z"/><path class="cls-3" d="M122.86,150.42v4.87h-3.48v33a90.74,90.74,0,0,1-41,.45v-33.4H74.87v-4.87h5V145.9h4.77c.34-2.4.63-4.66.63-5.35,0-1.63,1.26-10.23,1.18-10.68s-1.18-1.33-1.18-1.55,1.33-8.9,1.33-9.72S85,113.86,85,113s1.55-6.16,1.18-7-1.7-2.37-1.85-3.56,2.15-8.6,2.07-9.35-1.11-2.29-1.25-3.11-.23-6.45-.23-6.45-1.33-1.11-1.41-1.49a9.81,9.81,0,0,1,.08-1.63S82.35,79.22,82.2,79a35.39,35.39,0,0,1,.74-5.56,19.81,19.81,0,0,1,1.86-3.93,67.26,67.26,0,0,1-1-8.9,24.49,24.49,0,0,0-.37-4.82s-.59-2.82-.67-3.48-.45-2.3-.45-2.3l.15-.9L82,48.37l.22-.59-.3-.89.3-.74-.37-1-.59-.88L79.83,43v-3a7,7,0,0,1,2.59-1.19s-.44-1.18-.59-1.55a7,7,0,0,1,.52-2.75c.22-.3,4.08-1.48,4.38-1.85l.88-1.11a14.58,14.58,0,0,1,.52,2.89,6.65,6.65,0,0,1-.29,1.92l.59-.74.15,2.3-.74,1.56,1.63.89v3A14.85,14.85,0,0,1,86.73,45l-.23,2.15s1.11,2.9,1.11,3.19-.22,5.34-.22,5.34L88,60.31l1.64,4.38v2l4.22-.22,1-1-3.48-4L96,64.69a13.53,13.53,0,0,1,2.38-.45l.3-5.78,1.18,5.78,1.63.52,5.12-4-3.49,4.74.6.82,6.67-1.19-6.23,2.45.37.89,6.23.89-6.37.45-.45,1a4.76,4.76,0,0,1,.52,1.63c-.07.45-.67.45-.67.45s.74,2.89.82,3.41a1.33,1.33,0,0,1-.37,1s.81,3.41,1,3.85a13.68,13.68,0,0,0,1.86,1.78s1.19.67,2.15,3.93a17.42,17.42,0,0,0,2.67,5.64,6.08,6.08,0,0,0,1.18,1.11l1.56-2.6,6.9,3.49.52,1-.52,1a4.19,4.19,0,0,1,.59,1.63c0,.67-.89,1-.89,1l-.22,1-.59.44a11.16,11.16,0,0,1-1,2.38,7.75,7.75,0,0,1-2.3,1.11s-1.18,6.15-1.71,7.34-2.22,1-2.22,1l-.37,1.27s1.48,13.57,1.48,14.38l-.81.82.07,3-.89,1.85a66.27,66.27,0,0,1,.22,7,3.86,3.86,0,0,1-1.26,1.49l.43,3.64h5.75v4.52Z"/></svg>
