<svg width="53" height="53" id="Layer_1" data-name="Layer 1" xmlns="http://www.w3.org/2000/svg" viewBox="0 0 121.49 91.49"><defs><style>.cls-1,.cls-2{fill:none;stroke-miterlimit:10;stroke-width:3px;}.cls-1{stroke:#908f93;}.cls-2{stroke:#6648d1;}</style></defs><title>Client-Centric</title><path class="cls-1" d="M75.44,81.51c-.75-1.73,0-10.57-5-15.41C66.79,62.54,61,61,58.21,60.35A1.94,1.94,0,0,0,56,61.55L50.28,76.34,42.75,70l3.45-6.8h-10L39.7,70l-7.47,6.1-5.35-13.8a2.9,2.9,0,0,0-3.38-1.79c-3,.72-8.06,2.33-11.38,5.55-5,4.84-4.23,13.68-5,15.41"/><path class="cls-1" d="M26,44.59a39.89,39.89,0,0,0,2.35,3.52c2.31,3.1,4.5,5.65,8.19,6.8a15.58,15.58,0,0,0,4,.64h.29A15.24,15.24,0,0,0,45,54.86c3.6-1.17,5.76-3.7,8-6.75a38.84,38.84,0,0,0,2.5-3.76c3.28-2.34,4.52-7.72,4.72-9.9A6,6,0,0,0,59.09,30a30.71,30.71,0,0,0-.24-3.95A18.31,18.31,0,0,0,48.31,11.34a14.7,14.7,0,0,0-7.63-1.6,14.66,14.66,0,0,0-7.63,1.6A18.32,18.32,0,0,0,22.5,26.09a32.94,32.94,0,0,0-.23,3.7,5.91,5.91,0,0,0-1.34,4.66C21.15,36.8,22.47,42.42,26,44.59ZM21.91,30.37c1.87-.56,3.66-1.15,5.35-1.79a78.32,78.32,0,0,0,18.05-9.51l.79-.58c.26.46.55,1,.89,1.46a27,27,0,0,0,4.87,5.61,28.26,28.26,0,0,0,6.23,4.16"/><path class="cls-2" d="M115,72.94c-.69-1.6,0-9.72-4.58-14.17-1.76-1.7-4.9-2.75-8.11-3.4a.57.57,0,0,1-.18-1,8.58,8.58,0,0,0,2.57-2.49l1.26-2-2.38-.15a1.47,1.47,0,0,1-1.11-.46c-1-1.16-.67-4.53-.36-7.79l0-.21c.06-.6,1.36-14.62-3.7-20.19a6.93,6.93,0,0,0-5.63-2.37C91.37,17.2,87.13,13.45,82,13.45c-3.81,0-7.22,2-10.12,5.93-5.95,8.08-4.91,14.12-4.08,19,.18,1,.34,1.94.42,2.82l0,.22c.31,3.26.62,6.63-.37,7.79a1.42,1.42,0,0,1-1.1.46l-2.38.15,1.26,2a7.91,7.91,0,0,0,1.3,1.51,1.32,1.32,0,0,1-.6,2.26c-.67.15-1.33.33-2,.52m30.07-18.6A14.54,14.54,0,0,1,92,44.25c-.29.45-.59.9-.91,1.35-.07.09-.13.18-.2.26-.28.38-.55.73-.81,1.06s-.31.38-.47.56a9,9,0,0,1-.92.93,6.43,6.43,0,0,1-1,.71,6.6,6.6,0,0,1-6.15,0,6.49,6.49,0,0,1-1.28-1,14.16,14.16,0,0,1-1.3-1.49l-.3-.39-.3-.4-.44-.6-.67-1a14.54,14.54,0,0,1-2.42-6.73c0-.52-.07-1-.08-1.56a9.36,9.36,0,0,0,1.77-.3A13.65,13.65,0,0,0,78.37,35c.4-.17.8-.35,1.2-.55.64-.32,1.28-.68,1.9-1.06l1-.67a47.39,47.39,0,0,0,6.76-5.65l1.25-1.29a10,10,0,0,1,3.85,6.91A24,24,0,0,1,94.42,37.52Z"/><polyline class="cls-2" points="75.79 62.12 76.95 60.01 77.86 58.36 77.88 58.34 78.12 58.68 82.82 65.19 83.66 66.35 84.5 67.52 85.17 67.52 86.02 66.35 86.86 65.19 91.56 58.68 91.8 58.34 91.81 58.36 92.72 60.01 93.89 62.12 97.63 68.89"/></svg>
