<svg width="53" height="53" id="Layer_1" data-name="Layer 1" xmlns="http://www.w3.org/2000/svg" viewBox="0 0 121.49 111.49"><defs><style>.cls-1{fill:#7b5edd;}.cls-2{fill:#898a89;}</style></defs><title>Forever Students</title><path class="cls-1" d="M112.3,13.61h-4.93V8.54a1.7,1.7,0,0,0-1.7-1.7H67.58A9.47,9.47,0,0,0,61.1,9.41a9.49,9.49,0,0,0-6.49-2.57H16.52a1.7,1.7,0,0,0-1.69,1.7v5.07H9.89a1.7,1.7,0,0,0-1.69,1.7V74.74a8.48,8.48,0,0,0,8.47,8.47H49.25V96.05H41.91a1.7,1.7,0,0,0,0,3.39H80.28a1.7,1.7,0,0,0,0-3.39H73V88.29a1.7,1.7,0,1,0-3.39,0v7.76H52.63V83.21h52.9A8.47,8.47,0,0,0,114,74.74V15.31A1.69,1.69,0,0,0,112.3,13.61ZM110.61,17V65.1h-3.24V17ZM18.22,10.23H54.61A6.1,6.1,0,0,1,59.69,13a1.69,1.69,0,0,0,2.82,0,6.08,6.08,0,0,1,5.07-2.72H104V65.11H18.22ZM14.83,17V65.1H11.59V17Zm90.7,62.82H16.67a5.09,5.09,0,0,1-5.08-5.08V68.49h99v6.25A5.09,5.09,0,0,1,105.53,79.82Z"/><path class="cls-2" d="M61.1,61.72A1.69,1.69,0,0,0,62.79,60V18.79a1.69,1.69,0,0,0-3.38,0V60A1.69,1.69,0,0,0,61.1,61.72Z"/><path class="cls-2" d="M25.69,27.3h26a1.7,1.7,0,0,0,0-3.39H25.69a1.7,1.7,0,0,0,0,3.39Z"/><path class="cls-2" d="M25.69,35.34h13a1.7,1.7,0,0,0,0-3.39h-13a1.7,1.7,0,0,0,0,3.39Z"/><path class="cls-2" d="M25.69,43.38h26a1.69,1.69,0,0,0,0-3.38H25.69a1.69,1.69,0,1,0,0,3.38Z"/><path class="cls-2" d="M25.69,51.42h26a1.69,1.69,0,0,0,0-3.38H25.69a1.69,1.69,0,1,0,0,3.38Z"/><path class="cls-2" d="M70.56,19.26H96.5a1.7,1.7,0,1,0,0-3.39H70.56a1.7,1.7,0,1,0,0,3.39Z"/><path class="cls-2" d="M70.56,27.3H96.5a1.7,1.7,0,1,0,0-3.39H70.56a1.7,1.7,0,1,0,0,3.39Z"/><path class="cls-2" d="M70.56,35.34h13a1.7,1.7,0,0,0,0-3.39h-13a1.7,1.7,0,1,0,0,3.39Z"/><path class="cls-2" d="M70.56,43.38H96.5a1.69,1.69,0,1,0,0-3.38H70.56a1.69,1.69,0,1,0,0,3.38Z"/><path class="cls-2" d="M70.56,59.46h13a1.69,1.69,0,0,0,0-3.38h-13a1.69,1.69,0,1,0,0,3.38Z"/></svg>
