<svg width="53" height="53" id="Layer_1" data-name="Layer 1" xmlns="http://www.w3.org/2000/svg" viewBox="0 0 116.76 116.76"><defs><style>.cls-1{fill:#898a89;}.cls-2{fill:#7b5edd;}</style></defs><title>Forward Thinkers</title><path id="Shape" class="cls-1" d="M8,71.69a12.38,12.38,0,0,0,1.76,1c.74.38,2,1,2.06,1.45a2.9,2.9,0,0,1-.2,1.72c-.25.55-.52,1-.75,1.42-.62,1.1-1.66,2.94-.09,4.22.36.34,1,.83,1.58,1.28a4.27,4.27,0,0,0-.56,2.45,2.47,2.47,0,0,0,1,1.67,12.25,12.25,0,0,0,1.19.73c1,.57,1.39.84,1.53,1.36a4.63,4.63,0,0,1-.19,2.06c-.1.45-.19.89-.26,1.34A10.06,10.06,0,0,0,15.62,97a6.38,6.38,0,0,0,6,4.64,6.5,6.5,0,0,0,1.39-.15,127.55,127.55,0,0,0,14.33-4.29c3.83,2.25,6.25,9.08,6.88,11.65a1.7,1.7,0,0,0,1.65,1.29L88.56,110a1.7,1.7,0,0,0,1.62-2.21,13.19,13.19,0,0,0-1.72-3.23,16.34,16.34,0,0,1-1.11-1.84,32.07,32.07,0,0,1-1.92-4.84,57.34,57.34,0,0,1-2-10,28.85,28.85,0,0,1,2.24-14.93,37.75,37.75,0,0,1,4.61-7.3c1-1.37,2.08-2.8,3-4.3A26.1,26.1,0,0,0,96.8,53a1.7,1.7,0,0,0-3.31-.76,22.79,22.79,0,0,1-3.06,7.22c-.88,1.4-1.9,2.77-2.89,4.1a41.3,41.3,0,0,0-5,8,32.18,32.18,0,0,0-2.49,16.69,60.39,60.39,0,0,0,2.14,10.67,35.91,35.91,0,0,0,2.11,5.32,18.17,18.17,0,0,0,1.32,2.21l.11.17-38.55.12a27.13,27.13,0,0,0-6-10.86l1.53-.53,2.45-.85c7.28-2.32,10.92-5.64,10.82-9.86A1.67,1.67,0,0,0,54.26,83a1.69,1.69,0,0,0-1.66,1.74c0,1.74-1.4,4.28-8.46,6.53-.46.15-1.36.46-2.54.88s-2.86,1-4.63,1.6h0a132.81,132.81,0,0,1-14.61,4.42,3,3,0,0,1-3.5-2.26,6.75,6.75,0,0,1-.42-3c.05-.34.13-.69.21-1a7.45,7.45,0,0,0,.17-3.66,5.65,5.65,0,0,0-3.14-3.47l-.37-.21a7.13,7.13,0,0,1,.66-1,1.73,1.73,0,0,0,.35-1.28A1.68,1.68,0,0,0,15.63,81c-.41-.3-1.36-1-2.07-1.59l.25-.46c.27-.47.58-1,.87-1.64a6.29,6.29,0,0,0,.45-3.8c-.4-2.08-2.39-3.1-3.84-3.84a9.27,9.27,0,0,1-1.4-.81,6.73,6.73,0,0,1-1-.83c0-.25.28-.88,1.57-2.45A68.93,68.93,0,0,0,18.22,53a5,5,0,0,0,.65-2.3,5.91,5.91,0,0,0-2.49-4.25c-.69-.63-1.34-1.23-1.41-1.73a3.33,3.33,0,0,1,.27-1.21c.28-.73.6-1.44.92-2.16a24.44,24.44,0,0,0,1.7-4.6,45.44,45.44,0,0,1,1.53-5.63,29.24,29.24,0,0,1,6.1-10c3.25-3.44,8.37-5.88,15.23-7.24a111.64,111.64,0,0,1,16-2.3,37.71,37.71,0,0,1,5.42.12A1.72,1.72,0,0,0,63.63,11a1.68,1.68,0,0,0,.16-1.7,1.71,1.71,0,0,0-1.39-1,41.63,41.63,0,0,0-5.91-.11,112.64,112.64,0,0,0-16.44,2.36c-7.66,1.53-13.23,4.21-17,8.23A32.56,32.56,0,0,0,16.2,29.9a50.37,50.37,0,0,0-1.68,6.15,21.52,21.52,0,0,1-1.46,3.87c-.34.78-.69,1.55-1,2.35a5.84,5.84,0,0,0-.46,2.86,6.5,6.5,0,0,0,2.48,3.78c.84.77,1.38,1.3,1.39,1.77a2.78,2.78,0,0,1-.29.74A65.25,65.25,0,0,1,7.75,63.51c-1.23,1.5-2.52,3.25-2.25,5A5.16,5.16,0,0,0,8,71.69Z"/><path id="Shape-2" data-name="Shape" class="cls-1" d="M25.76,33.44a22.5,22.5,0,0,1,4.67-7.65c2.26-2.39,6.18-4.16,11.64-5.25a1.7,1.7,0,1,0-.66-3.33C35.24,18.44,30.72,20.54,28,23.45a25.71,25.71,0,0,0-5.39,8.82,42.24,42.24,0,0,0-1.39,5.19l3.32.74A39.24,39.24,0,0,1,25.76,33.44Z"/><path id="Shape-3" data-name="Shape" class="cls-2" d="M61.33,17.65l-1,5.09a19.49,19.49,0,0,0-2.87,1.19L53.13,21a3.4,3.4,0,0,0-4.27.44L46,24.3a3.4,3.4,0,0,0-.44,4.31l2.87,4.3a21,21,0,0,0-1.19,2.86l-5.08,1a3.41,3.41,0,0,0-2.72,3.34v4a3.39,3.39,0,0,0,2.72,3.33l5.08,1a21,21,0,0,0,1.19,2.86l-2.89,4.32A3.39,3.39,0,0,0,46,59.94l2.82,2.82a3.41,3.41,0,0,0,4.31.45l4.29-2.88a19.83,19.83,0,0,0,2.86,1.19l1,5.08a3.41,3.41,0,0,0,3.34,2.73h4A3.4,3.4,0,0,0,72,66.61l1-5.09a20,20,0,0,0,2.87-1.19l4.31,2.89a3.39,3.39,0,0,0,4.27-.44L87.29,60a3.4,3.4,0,0,0,.45-4.31l-2.88-4.29a20,20,0,0,0,1.19-2.87l5.08-1a3.36,3.36,0,0,0,2.34-1.77L96,47.42A3.06,3.06,0,0,0,99.86,47l2.26-2.26a3.07,3.07,0,0,0,.39-3.86l-2.19-3.28a15.57,15.57,0,0,0,.82-2l3.85-.77a3,3,0,0,0,2.47-3V28.64a3.06,3.06,0,0,0-2.45-3l-3.87-.77a16.06,16.06,0,0,0-.82-2l2.23-3.32a3.07,3.07,0,0,0-.43-3.82l-2.26-2.26a3.07,3.07,0,0,0-3.86-.4l-3.28,2.19a17.18,17.18,0,0,0-2-.82L90,10.6a3.07,3.07,0,0,0-3-2.47H83.77a3.08,3.08,0,0,0-3,2.46L80,14.45a16.12,16.12,0,0,0-2,.83l-3.32-2.23a3.07,3.07,0,0,0-3.82.43L69.34,15a3.83,3.83,0,0,0-.67-.08h-4A3.4,3.4,0,0,0,61.33,17.65Zm26,6.67-.79-.8a6.76,6.76,0,0,1,2.11,12.76l-2.58-.51a19.83,19.83,0,0,0-1.19-2.86l2.89-4.31a3.41,3.41,0,0,0-.44-4.28ZM73.08,16.06,77,18.67a1.69,1.69,0,0,0,1.82,0,12.49,12.49,0,0,1,3.11-1.3,1.7,1.7,0,0,0,1.22-1.31L84,11.53h2.66l.92,4.59a1.69,1.69,0,0,0,1.22,1.31,12.49,12.49,0,0,1,3.11,1.3,1.69,1.69,0,0,0,1.82-.06l3.88-2.6L99.53,18l-2.61,3.89a1.73,1.73,0,0,0,0,1.82,12.13,12.13,0,0,1,1.3,3.11A1.72,1.72,0,0,0,99.48,28l4.59.91v2.66l-4.58.92a1.7,1.7,0,0,0-1.31,1.22,12.49,12.49,0,0,1-1.3,3.11,1.73,1.73,0,0,0,.05,1.82l2.61,3.88L97.65,44.4l-3.79-2.54V40.13a3.39,3.39,0,0,0-1.19-2.59A10.18,10.18,0,0,0,85.58,20a10.06,10.06,0,0,0-3,.5,3.49,3.49,0,0,0-2.38.52l-4.29,2.88A19.83,19.83,0,0,0,73,22.74l-1-5.08a2.64,2.64,0,0,0-.12-.4Zm-9.65,8.35,1.23-6.08h4l1.22,6.09a1.69,1.69,0,0,0,1.22,1.3,16.66,16.66,0,0,1,4,1.67,1.7,1.7,0,0,0,1.8-.06l5.14-3.44,2.85,2.84-3.45,5.15a1.7,1.7,0,0,0-.06,1.79,16.66,16.66,0,0,1,1.67,4,1.7,1.7,0,0,0,1.3,1.22l6.08,1.21v4l-6.08,1.22a1.72,1.72,0,0,0-1.31,1.22,17,17,0,0,1-1.66,4,1.68,1.68,0,0,0,0,1.79l3.44,5.15-2.83,2.85-5.15-3.45a1.7,1.7,0,0,0-1.8-.06,16.33,16.33,0,0,1-4,1.66,1.7,1.7,0,0,0-1.22,1.31l-1.22,6.08h-4l-1.22-6.09a1.7,1.7,0,0,0-1.23-1.3,16.76,16.76,0,0,1-4-1.67,1.72,1.72,0,0,0-1.8.06l-5.14,3.44-2.85-2.83,3.45-5.15a1.72,1.72,0,0,0,.06-1.8,16.76,16.76,0,0,1-1.67-4A1.69,1.69,0,0,0,49,45.36l-6.08-1.22v-4L49,38.9a1.7,1.7,0,0,0,1.31-1.22,17.14,17.14,0,0,1,1.66-4,1.7,1.7,0,0,0-.05-1.8l-3.45-5.14,2.84-2.85,5.15,3.45a1.72,1.72,0,0,0,1.8.06,16.59,16.59,0,0,1,4-1.67A1.69,1.69,0,0,0,63.43,24.41Z"/><path id="Shape-4" data-name="Shape" class="cls-2" d="M66.66,54a11.9,11.9,0,1,0-11.89-11.9A11.9,11.9,0,0,0,66.66,54Zm0-20.4a8.5,8.5,0,1,1-8.5,8.5A8.5,8.5,0,0,1,66.66,33.63Z"/><circle id="Oval" class="cls-2" cx="66.66" cy="42.13" r="1.7"/></svg>
