<svg width="53" height="53" id="Layer_1" data-name="Layer 1" xmlns="http://www.w3.org/2000/svg" viewBox="0 0 121.49 89.49"><defs><style>.cls-1,.cls-2,.cls-3{fill:none;stroke-miterlimit:10;stroke-width:2.86px;}.cls-1{stroke:#00b294;}.cls-2{stroke:#6648d1;}.cls-3{stroke:#898a89;}</style></defs><title>Integrity</title><path class="cls-1" d="M67.66,71.8c-3.35,5.34-12.29.9-12.29.9L25.57,52.55l-2.06,5.93L8.12,58.25,13.46,18,28.83,20.2l18.51-.86"/><path class="cls-2" d="M67.66,71.8c-3.35,5.34-12.29.9-12.29.9L25.57,52.55l-2.06,5.93L8.12,58.25,13.46,18,28.83,20.2l18.51-.86"/><path class="cls-2" d="M25.57,52.55S31.1,27.13,28.83,20.2"/><path class="cls-2" d="M56.71,62.64l6.81,5.42s9.57,7.83,14.5,1.08"/><path class="cls-2" d="M63.5,55.92l6.81,5.42s10.46,10.25,17.17,1"/><path class="cls-2" d="M71.72,49.56c4.36,4.57,10.6,9.23,16.78,10.7a4.53,4.53,0,0,0,5.21-5.43c-.89-3.25-3.93-5.72-6.53-7.56C79.79,42,61.49,30.61,61.49,30.61l-6.3,1.21c-13.85,19.92-20.08-2.17-7.85-12.48S94.47,23,94.47,23"/><path class="cls-3" d="M99,50.68s-4.84,7.19-6.54,8.38"/><path class="cls-3" d="M101.14,54.4S95.6,29,97.88,22.05l15.37-2.21,5.33,40.26-15.39.23Z"/></svg>
