<svg width="53" height="53" id="Layer_1" data-name="Layer 1" xmlns="http://www.w3.org/2000/svg" viewBox="0 0 121.49 121.49"><defs><style>.cls-1{fill:#7b5edd;}.cls-2{fill:#898a89;}</style></defs><title>Resolute</title><path class="cls-1" d="M107.6,59.81H95A1.92,1.92,0,0,0,93.22,61a1.9,1.9,0,0,0,.43,2.08,9,9,0,0,1,2.71,6.42,9.55,9.55,0,0,1-19.08,0A9,9,0,0,1,80,63.08a1.91,1.91,0,0,0-1.34-3.27h-14a5.64,5.64,0,0,0-2.52.61,5.64,5.64,0,0,0,.61-2.52V46.75a13.64,13.64,0,0,0,6.59,1.7,13.21,13.21,0,0,0,13.36-13,13.21,13.21,0,0,0-13.36-13,13.54,13.54,0,0,0-6.59,1.71V16.54a7.1,7.1,0,0,0-7.09-7.09H14.12A7.1,7.1,0,0,0,7,16.54v40a7.09,7.09,0,0,0,2.25,5.18A7.1,7.1,0,0,0,7,66.9v40A7.1,7.1,0,0,0,14.12,114H55.68a7,7,0,0,0,5.18-2.28A7,7,0,0,0,66,114H107.6a7.1,7.1,0,0,0,7.09-7.09v-40A7.1,7.1,0,0,0,107.6,59.81ZM10.85,16.54a3.27,3.27,0,0,1,3.27-3.26H55.68A3.27,3.27,0,0,1,59,16.54V28a1.91,1.91,0,0,0,3.31,1.3,9.73,9.73,0,0,1,7.1-3.08,9.39,9.39,0,0,1,9.54,9.2,9.39,9.39,0,0,1-9.54,9.2,9.7,9.7,0,0,1-7.1-3.08A1.91,1.91,0,0,0,59,42.86v15A1.92,1.92,0,0,1,57,59.81H46.42a12.71,12.71,0,0,0,1.85-6.6,13.37,13.37,0,0,0-26.73,0,12.7,12.7,0,0,0,1.84,6.6H14.12a3.28,3.28,0,0,1-3.27-3.27Zm44.83,93.63H14.12a3.28,3.28,0,0,1-3.27-3.27v-40a3.28,3.28,0,0,1,3.27-3.27H27.55a1.91,1.91,0,0,0,1.21-3.39,9.06,9.06,0,0,1-3.4-7,9.55,9.55,0,0,1,19.08,0,9.06,9.06,0,0,1-3.4,7,1.91,1.91,0,0,0,1.21,3.39H57a5.82,5.82,0,0,0,2.53-.6A5.61,5.61,0,0,0,59,65.55V76.21a13.57,13.57,0,0,0-7.63-2.33,13,13,0,1,0,0,26A13.57,13.57,0,0,0,59,97.59v9.31A3.28,3.28,0,0,1,55.68,110.17Zm55.19-3.27a3.28,3.28,0,0,1-3.27,3.27H66a3.28,3.28,0,0,1-3.27-3.27V93a1.92,1.92,0,0,0-1.35-1.83,1.77,1.77,0,0,0-.56-.08,1.91,1.91,0,0,0-1.58.83,9.61,9.61,0,0,1-8,4.14,9.2,9.2,0,1,1,0-18.39,9.59,9.59,0,0,1,8,4.14,1.92,1.92,0,0,0,3.49-1.08V65.55a1.92,1.92,0,0,1,1.91-1.92h10.2a12.76,12.76,0,0,0-1.43,5.87,13.37,13.37,0,0,0,26.73,0,12.63,12.63,0,0,0-1.43-5.87h8.85a3.28,3.28,0,0,1,3.27,3.27Z"/><path class="cls-2" d="M67.23,13.28H73a1.92,1.92,0,0,0,0-3.83H67.23a1.92,1.92,0,0,0,0,3.83Z"/><path class="cls-2" d="M107.6,9.45h-1.81a1.92,1.92,0,0,0,0,3.83h1.81a3.27,3.27,0,0,1,3.27,3.26v.24a1.91,1.91,0,0,0,3.82,0v-.24A7.1,7.1,0,0,0,107.6,9.45Z"/><path class="cls-2" d="M112.78,26.18a1.91,1.91,0,0,0-1.91,1.91V38.28a1.91,1.91,0,0,0,3.82,0V28.09A1.92,1.92,0,0,0,112.78,26.18Z"/><path class="cls-2" d="M84.29,13.28H94.47a1.92,1.92,0,0,0,0-3.83H84.29a1.92,1.92,0,1,0,0,3.83Z"/><path class="cls-2" d="M112.78,47.7a1.9,1.9,0,0,0-1.91,1.91v5.74a1.91,1.91,0,0,0,3.82,0V49.61A1.91,1.91,0,0,0,112.78,47.7Z"/><path class="cls-2" d="M105,84.83A1.91,1.91,0,0,0,103,86.74v14.31a1,1,0,0,1-1,1H92.13a1.92,1.92,0,0,0,0,3.83h9.92a4.82,4.82,0,0,0,4.81-4.82V86.74A1.92,1.92,0,0,0,105,84.83Z"/><path class="cls-2" d="M81.93,102h-3a1.92,1.92,0,0,0,0,3.83h3a1.92,1.92,0,0,0,0-3.83Z"/><path class="cls-1" d="M17.07,38.61A1.91,1.91,0,0,0,19,36.7V22.39a1,1,0,0,1,1-1h9.92a1.91,1.91,0,0,0,0-3.82H20a4.82,4.82,0,0,0-4.81,4.81V36.7A1.9,1.9,0,0,0,17.07,38.61Z"/><path class="cls-1" d="M40.09,21.4h3a1.91,1.91,0,1,0,0-3.82h-3a1.91,1.91,0,1,0,0,3.82Z"/><path class="cls-1" d="M34.39,102H20.09a1,1,0,0,1-1-1V91.09a1.92,1.92,0,0,0-3.83,0V101a4.82,4.82,0,0,0,4.82,4.81h14.3a1.91,1.91,0,1,0,0-3.82Z"/><path class="cls-1" d="M17.18,82.8a1.91,1.91,0,0,0,1.92-1.91v-3a1.92,1.92,0,0,0-3.83,0v3A1.91,1.91,0,0,0,17.18,82.8Z"/></svg>
