<svg width="53" height="53" id="Layer_1" data-name="Layer 1" xmlns="http://www.w3.org/2000/svg" viewBox="0 0 121.49 121.49"><defs><style>.cls-1,.cls-2,.cls-3{fill:none;stroke-miterlimit:10;}.cls-1{stroke:#93929d;}.cls-1,.cls-2{stroke-width:3.12px;}.cls-2{stroke:#898a89;}.cls-3{stroke:#b160f0;stroke-width:2.08px;}</style></defs><title>Team Oriented</title><path class="cls-1" d="M26.09,91.39A6.08,6.08,0,1,0,20,85.32,6.08,6.08,0,0,0,26.09,91.39Z"/><path class="cls-1" d="M40.6,105.07V103h0V98.25a4.41,4.41,0,0,0-4.4-4.4H15.92a4.41,4.41,0,0,0-4.4,4.4v7.5a18.38,18.38,0,0,0,7.77,4.82V103h0v7.6c2.28,1,4.13.92,6.75.92,2.88,0,4.41-.08,6.86-1.21V103H33v7.31A18.78,18.78,0,0,0,40.6,105.07Z"/><path class="cls-1" d="M98,91.39a6.08,6.08,0,1,0-6.07-6.07A6.07,6.07,0,0,0,98,91.39Z"/><path class="cls-1" d="M112.48,105.07V103h0V98.25a4.41,4.41,0,0,0-4.4-4.4H87.8a4.41,4.41,0,0,0-4.4,4.4v7.5a18.32,18.32,0,0,0,7.77,4.82V103h0v7.6c2.28,1,4.13.92,6.76.92,2.88,0,4.4-.08,6.86-1.21V103h.1v7.31A18.78,18.78,0,0,0,112.48,105.07Z"/><path class="cls-1" d="M62,91.39A6.08,6.08,0,1,0,56,85.32,6.08,6.08,0,0,0,62,91.39Z"/><path class="cls-1" d="M76.54,105.07V103h0V98.25a4.41,4.41,0,0,0-4.4-4.4H51.86a4.41,4.41,0,0,0-4.4,4.4v7.5a18.32,18.32,0,0,0,7.77,4.82V103h0v7.6c2.28,1,4.14.92,6.76.92,2.88,0,4.41-.08,6.86-1.21V103h.1v7.31A18.78,18.78,0,0,0,76.54,105.07Z"/><path class="cls-2" d="M98.67,15H26.09A8.79,8.79,0,0,0,17.3,23.8V50.11a8.79,8.79,0,0,0,8.79,8.79h1.09L26.1,69.42,35.39,58.9H55.62l6.72,10.52L63,58.9H89.77L97.5,69.42l-2-10.52h3.12a8.79,8.79,0,0,0,8.79-8.79V23.8A8.79,8.79,0,0,0,98.67,15Z"/><path class="cls-3" d="M52,40.15h0l2.37-.29V35.74l-2.37-.28H52A9.44,9.44,0,0,0,51,33l0,0,0-.05,1.47-1.88L49.6,28.15l-1.88,1.48,0,0,0,0a9.15,9.15,0,0,0-2.41-1v-.12l-.29-2.37H40.81l-.29,2.37v.12a9.15,9.15,0,0,0-2.41,1l-.05,0,0,0-1.88-1.48-2.91,2.91,1.47,1.88,0,.05,0,0a9.44,9.44,0,0,0-1,2.41h-.11l-2.37.28v4.12l2.37.29h.11a9.44,9.44,0,0,0,1,2.41l0,0,0,0-1.47,1.88,2.91,2.91L38,46l0,0,.05,0a9.15,9.15,0,0,0,2.41,1V47l.29,2.37h4.11L45.21,47V46.9a9.15,9.15,0,0,0,2.41-1l0,0,0,0,1.88,1.48,2.91-2.91L51,42.66l0,0,0,0a9.44,9.44,0,0,0,1-2.41ZM46.3,37.8a3.44,3.44,0,1,1-3.44-3.43A3.44,3.44,0,0,1,46.3,37.8Z"/><path class="cls-3" d="M75.28,34.22h0L77,34V31.19L75.32,31h-.08a6.33,6.33,0,0,0-.69-1.65l0,0,0,0,1-1.29-2-2-1.29,1,0,0,0,0a6.37,6.37,0,0,0-1.66-.68v-.08l-.19-1.63H67.57l-.2,1.63v.08a6.31,6.31,0,0,0-1.65.68l0,0,0,0-1.3-1-2,2,1,1.29,0,0,0,0A6.31,6.31,0,0,0,62.73,31h-.08l-1.63.2V34l1.63.19h.08a6.37,6.37,0,0,0,.68,1.66l0,0,0,0-1,1.29,2,2,1.3-1,0,0,0,0a6.33,6.33,0,0,0,1.65.69v.08l.2,1.63H70.4l.19-1.63v-.08a6.4,6.4,0,0,0,1.66-.69l0,0,0,0,1.29,1,2-2-1-1.29,0,0,0,0a6.4,6.4,0,0,0,.69-1.66ZM71.34,32.6A2.36,2.36,0,1,1,69,30.24,2.36,2.36,0,0,1,71.34,32.6Z"/><path class="cls-3" d="M95.56,47.18h0l1.63-.2V44.15L95.6,44h-.08a6.37,6.37,0,0,0-.68-1.66l0,0,0,0,1-1.29-2-2-1.29,1,0,0,0,0a6.69,6.69,0,0,0-1.65-.69v-.07l-.2-1.63H87.85l-.19,1.63v.07A6.76,6.76,0,0,0,86,40l0,0,0,0-1.29-1-2,2,1,1.29,0,0,0,0A6.76,6.76,0,0,0,83,44h-.08l-1.62.19V47l1.62.2H83a6.69,6.69,0,0,0,.69,1.65l0,0,0,0-1,1.29,2,2,1.29-1,0,0,0,0a6.37,6.37,0,0,0,1.66.68v.08l.19,1.63h2.83l.2-1.63v-.08a6.31,6.31,0,0,0,1.65-.68l0,0,0,0,1.29,1,2-2-1-1.29,0,0,0,0a6.31,6.31,0,0,0,.68-1.65Zm-3.93-1.61a2.36,2.36,0,1,1-2.36-2.36A2.36,2.36,0,0,1,91.63,45.57Z"/></svg>
