<svg xmlns="http://www.w3.org/2000/svg" width="79" height="70" viewBox="0 0 79 70"><defs><linearGradient id="a" x1="0%" x2="82.88%" y1="0%" y2="106.373%"><stop offset="0%" stop-color="#D7C6FF"/><stop offset="100%" stop-color="#8962F2"/></linearGradient><linearGradient id="b" x1="50%" x2="50%" y1="0%" y2="91.846%"><stop offset="0%" stop-color="#F0EAFF"/><stop offset="100%" stop-color="#CCBBFB"/></linearGradient><linearGradient id="c" x1="4.077%" x2="95.923%" y1="45.923%" y2="45.923%"><stop offset="0%" stop-color="#F0EAFF"/><stop offset="100%" stop-color="#CCBBFB"/></linearGradient></defs><g fill="none" fill-rule="evenodd"><rect width="74.5" height="53.833" x="2.25" y="2.25" fill="url(#a)" stroke="#FFF" stroke-opacity=".408" stroke-width="4.5" rx="1.8"/><path fill-rule="nonzero" stroke="#7142EB" stroke-linecap="round" stroke-width="2.7" d="M11.67 17.949h24.688M11.67 27.372h37.256M11.67 39.038h13.018"/><path fill="#E9E0FF" d="M69.016 46.369a3.293 3.293 0 0 1 0 4.659v.001a3.297 3.297 0 0 1-4.662 0l-6.371-6.37L62.645 40l6.37 6.37z" opacity=".599"/><path fill="#E9E0FF" d="M62.645 40l-4.662 4.66-5.089-5.087-.196-.031a15.15 15.15 0 0 0 4.73-4.672l.128.042L62.645 40z" opacity=".599"/><path fill="url(#b)" fill-rule="nonzero" d="M15.098 0c8.33 0 15.081 6.75 15.081 15.077 0 8.326-6.752 15.076-15.081 15.076-8.33 0-15.082-6.75-15.082-15.076C.016 6.75 6.77 0 15.098 0z" opacity=".826" transform="translate(29.625 11.667)"/><rect width="50.273" height="7.179" x="12.568" y="62.821" fill="url(#c)" fill-rule="nonzero" rx="1.8"/></g></svg>