<svg version="1" xmlns="http://www.w3.org/2000/svg" width="400" height="400" viewBox="0 0 300.000000 300.000000"><path d="M43.6 71.8c-.3.5-1.6.9-2.9.9-1.3 0-6 2.2-10.5 4.9s-9.9 5.9-11.9 7.1c-6.1 3.6-6.3 4.1-6.3 21.1 0 19.7.9 21.6 8.4 17.1 2.3-1.3 3.6-1.7 3.6-.9 0 .6.6 1 1.3.7.6-.2 1.1-.9 1-1.5-.2-.6.4-.9 1.2-.6.8.4 1.5.1 1.5-.6 0-.6.4-.9.9-.6.5.3 1.2-.1 1.5-1 .3-.8 1-1.3 1.5-.9.6.3 1.4-.3 2-1.2.7-1.3 1 14.2 1.1 50.9 0 44.8.2 52.9 1.5 54.1 1.1 1.2 4.8 1.4 19.2 1.3 16.9-.1 17.8-.2 18.8-2.2.6-1.2 1-9.3 1-19.2 0-9.4.2-16.8.6-16.4.3.4 2.6 3.6 5.1 7.2 10.9 15.5 25.3 25.3 44.8 30.6 10.8 2.8 29 2.7 39.5-.2 5.5-1.6 15.7-6.1 21-9.4l6.1-3.7 3.4 2.4c5.9 4.2 16 8.6 25 10.9 10.5 2.7 27.9 2.7 38 0 6-1.6 19.1-7 21.5-8.8.6-.5 2.2-1.7 3.8-2.9 1.5-1.1 2.7-2.4 2.7-2.8 0-1.8-12.1-20.9-13.6-21.5-.9-.4-3.8.7-7.1 2.5-16.6 9.5-34.6 10.3-49.5 2.2-2.7-1.5-4.8-2.9-4.8-3.4 0-.4 1.6-4.1 3.6-8.2 1.9-4.1 4.4-11.5 5.4-16.4 1-4.8 2-8.8 2.1-8.8.1 0 .2-2.4.3-5.3.1-3-.3-5.2-.9-5.2-.5 0-.4-.4.3-.9 1.7-1.1 1.7-2.1 0-3.2-1.1-.8-1.1-1 .1-1.8.8-.5.9-1 .2-1.2-.6-.2-1.2-1.8-1.5-3.4-.2-1.7-.7-3.9-1.1-5-.5-1.1-1.7-4.3-2.7-7-1.1-2.8-3-6.9-4.3-9.3l-2.4-4.2 3.7-2.4c7.6-4.7 13.1-6.1 24.2-6.1 11.9 0 17.4 1.4 26.7 6.9 5.1 3 6.1 3.3 7.8 2.2 2.4-1.6 12.5-18.4 12.5-20.8 0-2.3-3.8-5.1-12.6-9.3-12.1-5.9-19.8-7.4-35.4-7.1-17.4.4-26.7 3.1-41.3 12-4 2.5-5.2 2.8-6.5 1.8-.9-.6-3.5-2.1-5.7-3.3-2.2-1.2-4.2-2.4-4.5-2.8-.3-.3-.9-.7-1.5-.8-.5-.1-3.5-1.2-6.5-2.3-6.1-2.4-7.7-2.8-10.3-2.9-1.2-.1-1.6-.5-1.1-1.4.5-.8.2-.8-.9.2-1 .7-1.7.9-1.7.3 0-1.7-27.2-.6-32.5 1.2-20.8 7.4-33.3 15.7-42.3 28.1-2 2.7-3.9 5.2-4.3 5.5-.3.3-1.1 1.4-1.7 2.5-.9 1.7-1 1.5-.8-1.6.2-2 .6-4.1 1-4.8.4-.6.2-1.1-.4-1.1-.6 0-.9-.4-.6-.9 1.1-1.8 1.5-8.1.5-8.7-.6-.4-.6-1.1.2-2 .9-1.1.9-1.4-.1-1.4-.9 0-.9-.4.1-1.7 1.1-1.3 1.1-1.7.1-2.1-1-.3-1-.7-.1-1.9 1-1.2 1-1.6-.1-2.3-1.1-.7-1.1-1.1-.1-2.4 1-1.2 1-1.6.2-1.6-.7 0-.9-.5-.6-1 .3-.6.1-1-.5-1s-.8-.5-.5-1c.4-.6-.5-1-2-1-1.4 0-2.4-.4-2.1-.8.5-.9-9.3-.6-10.2.3-.3.2-1.1 0-1.9-.6-1-.9-1.3-.8-1.3.1s-.4.9-1.7-.1c-1.5-1.2-1.6-1.2-.8.1s.7 1.3-.8.1c-1.2-.9-1.7-1-1.7-.2s-.6.9-1.7.3c-1-.5-2.7-.6-3.8-.2-1.1.4-2.5.3-3.2-.2-.7-.5-1.3-.5-1.7 0z"/></svg>