<svg xmlns="http://www.w3.org/2000/svg" xmlns:xlink="http://www.w3.org/1999/xlink" width="120" height="37" viewBox="0 0 120 37"><defs><path id="a" d="M12.33.098H.1V15.69h12.23V.098z"/><path id="c" d="M.18 12.368h9.042V.133H.18z"/><path id="e" d="M7.428 14.995V.127H.041v14.868h7.387z"/></defs><g fill="none" fill-rule="evenodd"><path fill="#606061" d="M55.402.818l.083 3.257-.756.042c-.063-1.997-.483-2.27-3.51-2.27h-.65v11.495c0 1.576.399 1.996 1.954 2.038l.041.546c-1.47-.02-2.584-.02-3.32-.02-.756 0-1.912 0-3.425.02l.042-.546c1.555-.042 1.955-.462 1.955-2.038V1.847h-.757c-3.11 0-3.53.273-3.573 2.27l-.777-.042.084-3.257c2.858.02 4.98.041 6.41.041 1.365 0 3.446-.02 6.199-.041"/><g transform="translate(55.822 .236)"><mask id="b" fill="#fff"><use xlink:href="#a"/></mask><path fill="#606061" d="M.142 15.186c1.408 0 1.597-.273 1.618-2.249V3.334C1.74 1.359 1.55 1.085.142 1.085L.1.582C2.012.476 2.454.413 4.177.098v6.514c1.114-1.24 2.06-1.723 3.299-1.723 2.06 0 3.194 1.303 3.194 3.699v4.349c.021 1.976.21 2.249 1.618 2.249l.042.504c-1.218-.042-2.143-.084-2.752-.084-.59 0-1.45.042-2.606.084l.042-.504c1.114-.168 1.219-.379 1.24-2.249V9.743c0-2.648-.463-3.53-1.85-3.53-.777 0-1.576.484-1.912 1.219-.126.252-.21.525-.294.798-.02.105-.02.19-.02.231v4.476c0 1.87.125 2.08 1.239 2.249l.042.504c-1.177-.042-2.039-.084-2.627-.084-.61 0-1.534.042-2.732.084l.042-.504z" mask="url(#b)"/></g><path fill="#606061" d="M78.741 13.867c-1.303 1.618-2.584 2.29-4.266 2.29-2.92 0-4.896-2.143-4.896-5.316 0-3.383 2.038-5.716 4.98-5.716 1.618 0 2.753.589 3.53 1.87.526.883.673 1.493.694 3.006H72.1c.083 3.193 1.24 5 3.173 5 1.155 0 2.122-.525 3.152-1.723l.315.59zm-6.704-4.665c1.934-.042 2.522-.084 4.477-.294-.253-2.039-1.03-3.047-2.354-3.047-1.26 0-1.912 1.05-2.123 3.341zM.07 36.143c1.7-.047 2.144-.513 2.144-2.26V22.86c0-1.748-.443-2.214-2.144-2.26L0 19.993l3.612.046 5.686-.07 1.492.024.093 3.425-.932.07c-.163-2.12-.56-2.354-3.915-2.354h-.513l-.233.023v6.34c.443 0 .792.022 1.002.022.373.023.722.047 1.072.047 1.864 0 2.284-.396 2.307-2.167h.792c-.07 1.421-.07 2.143-.07 2.843 0 .56 0 1.352.024 2.4H9.67c-.093-1.678-.466-2.004-2.26-2.028l-1.259-.023-.885.047v4.917c0 1.981.116 2.074 2.074 2.074 2.633 0 3.402-.583 3.635-2.843l.932.047-.536 3.915-1.794.023-5.71-.047L0 36.75l.07-.606z"/><g transform="translate(14.708 24.637)"><mask id="d" fill="#fff"><use xlink:href="#c"/></mask><path fill="#606061" d="M9.222 10.457c-1.329 1.375-2.424 1.91-3.962 1.91-3.076 0-5.08-2.4-5.08-6.058C.18 2.533 2.3.133 5.656.133c.885 0 1.795.164 3.193.536l.046 2.797-1.048.07C7.427 1.438 7.007.949 5.656.949 3.908.949 3 2.51 3 5.516c0 3.542 1.095 5.523 3.076 5.523 1.025 0 1.887-.442 2.796-1.421l.35.839z" mask="url(#d)"/></g><path fill="#606061" d="M26.42 31.342v-.35c0-3.938 2.12-6.221 5.756-6.221 3.379 0 5.756 2.516 5.756 6.128 0 3.66-2.307 6.106-5.826 6.106-3.333 0-5.57-2.237-5.686-5.663m2.89-.256c.232 3.332 1.327 5.127 3.122 5.127 1.678 0 2.68-1.748 2.68-4.684 0-3.45-1.375-5.873-3.286-5.873-1.701 0-2.563 1.468-2.563 4.382 0 .349 0 .698.046 1.048m11.462 5.104c1.562 0 1.795-.303 1.795-2.494v-5.407c0-2.167-.233-2.47-1.795-2.493l-.047-.536c2.075-.117 2.54-.186 4.312-.56l.116 2.098c1.329-1.492 2.354-2.027 3.776-2.027 2.26 0 3.542 1.467 3.542 4.101v4.824c-.024.186-.024.373-.024.56 0 1.49.396 1.933 1.818 1.933l.047.56c-1.352-.047-2.377-.093-3.053-.093-.652 0-1.631.046-2.913.093l.046-.56c1.236-.186 1.376-.419 1.376-2.493l.023-1.468v-2.074c0-2.937-.536-3.916-2.051-3.916-.909 0-1.678.49-2.144 1.352-.186.35-.35.91-.35 1.142v4.964c.024 2.074.14 2.307 1.376 2.493l.07.56c-1.306-.047-2.284-.093-2.937-.093-.676 0-1.678.046-3.03.093l.047-.56zm15.592-4.848v-.35c0-3.938 2.12-6.221 5.756-6.221 3.379 0 5.756 2.516 5.756 6.128 0 3.66-2.307 6.106-5.826 6.106-3.333 0-5.57-2.237-5.686-5.663m2.89-.256c.232 3.332 1.328 5.127 3.122 5.127 1.677 0 2.68-1.748 2.68-4.684 0-3.45-1.375-5.873-3.286-5.873-1.701 0-2.564 1.468-2.564 4.382 0 .349 0 .698.047 1.048m11.462 5.104c1.562 0 1.795-.303 1.795-2.494v-5.407c0-2.167-.233-2.47-1.795-2.493l-.046-.536c2.074-.117 2.54-.186 4.31-.56l.117 2.098c1.328-1.468 2.354-2.027 3.729-2.027 1.585 0 2.517.652 3.216 2.213 1.422-1.631 2.47-2.213 3.891-2.213 2.214 0 3.473 1.491 3.473 4.101v4.824c0 .186-.023.373-.023.56 0 1.49.42 1.933 1.817 1.933l.047.56c-1.352-.047-2.377-.093-3.053-.093-.652 0-1.608.046-2.89.093l.047-.56c1.235-.186 1.352-.419 1.375-2.493v-3.542c0-2.89-.512-3.916-1.957-3.916-.863 0-1.748.56-2.121 1.352-.117.28-.233.56-.303.886-.023.116-.047.21-.047.256v4.964c0 2.074.14 2.307 1.375 2.493l.047.56c-1.235-.047-2.167-.093-2.796-.093-.607 0-1.515.046-2.727.093l.047-.56c1.235-.186 1.35-.419 1.375-2.493v-3.542c0-2.89-.513-3.916-1.959-3.916-.885 0-1.677.514-2.12 1.352-.186.374-.35.91-.35 1.142v4.964c.024 2.074.14 2.307 1.376 2.493l.046.56c-1.281-.047-2.26-.093-2.913-.093-.676 0-1.678.046-3.03.093l.047-.56zM98 24.7v7.528l.023 1.468c0 2.19.21 2.493 1.795 2.493l.046.56c-1.444-.047-2.493-.093-3.215-.093-.7 0-1.748.046-3.17.093l.046-.56c1.562 0 1.795-.302 1.795-2.493l.024-1.468v-2.447l-.024-1.492c0-2.167-.233-2.47-1.795-2.493l-.046-.536c2.144-.14 2.634-.21 4.521-.56m-3.006-3.891c0-.885.7-1.585 1.561-1.585.862 0 1.562.723 1.562 1.585 0 .886-.676 1.585-1.562 1.585s-1.561-.677-1.561-1.585m7.734 15.521l-.094-2.377 1.189-.047c.536 1.794.885 2.143 2.12 2.143 1.072 0 1.772-.559 1.772-1.398 0-.792-.49-1.398-1.958-2.4-.745-.512-1.258-.862-1.538-1.072-.606-.466-1.049-1.025-1.282-1.654-.14-.35-.21-.77-.21-1.259 0-2.12 1.445-3.495 3.636-3.495.816 0 1.282.07 3.17.512l.046 2.354-1.189.046c-.28-1.56-.769-2.097-1.864-2.097-1.048 0-1.794.606-1.794 1.468 0 .816.372 1.305 1.585 2.074 1.095.723 1.957 1.375 2.54 1.888.652.63 1.025 1.421 1.025 2.33 0 2.074-1.748 3.659-3.985 3.659-.862 0-1.678-.186-3.17-.676"/><g transform="translate(112.312 21.963)"><mask id="f" fill="#fff"><use xlink:href="#e"/></mask><path fill="#606061" d="M.04 3.483c1.842-.14 2.564-.932 3.1-3.356h1.049v3.146h2.936l-.326 1.282h-2.61v5.733c0 2.866.373 3.542 1.957 3.542.373 0 .723-.047 1.282-.21v.676c-.793.443-1.888.699-3.006.699-1.026 0-2.004-.582-2.424-1.445-.35-.722-.466-1.444-.466-3.03V4.556H.041V3.483z" mask="url(#f)"/></g></g></svg>