<svg xmlns="http://www.w3.org/2000/svg" xmlns:xlink="http://www.w3.org/1999/xlink" width="110" height="16" viewBox="0 0 110 16"><defs><path id="a" d="M6.557 9.65V.267H.355V9.65z"/><path id="c" d="M0 15.439h109.48V0H0z"/></defs><g fill="none" fill-rule="evenodd"><path fill="#FFF" d="M41.153 6.032v6.834h-2.497V6.032h-2.522V3.857h7.54v2.175zM46.44 7.68c-.527 0-.823.36-.9 1.029h1.93c-.116-.682-.348-1.03-1.03-1.03zm3.063 2.47H45.54c.077.746.514 1.08 1.145 1.08.591 0 1.081-.128 1.75-.475l.887 1.48c-.836.488-1.698.772-2.753.772-2.034 0-3.153-1.442-3.153-3.514 0-2.328 1.312-3.525 3.089-3.525 1.852 0 3.01 1.223 3.01 3.731 0 .194 0 .335-.012.451zm4.309 2.857c-1.981 0-3.165-1.261-3.165-3.539 0-2.072 1.055-3.5 3.217-3.5 1.274 0 2.007.592 2.599 1.544l-1.595 1.21c-.322-.592-.541-.876-1.042-.876-.593 0-.889.592-.889 1.66 0 1.07.322 1.622.952 1.622.438 0 .746-.245 1.171-.875l1.467 1.145c-.784 1.159-1.518 1.609-2.715 1.609m7.9-.142V9.03c0-.875-.296-1.106-.772-1.106-.49 0-.786.231-.786 1.08v3.861H57.84V4.411l2.315-.926v3.074c.425-.321.9-.591 1.7-.591 1.48 0 2.187.99 2.187 2.766v4.131h-2.33zm7.873.142c-2.676 0-4.105-1.982-4.105-4.646 0-2.895 1.699-4.645 4.118-4.645 2.214 0 3.089.952 3.706 2.65l-2.264.889c-.322-.837-.631-1.365-1.455-1.365-1.042 0-1.492 1.043-1.492 2.471 0 1.377.437 2.47 1.518 2.47.785 0 1.12-.424 1.608-1.273l2.111 1.12c-.605 1.184-1.609 2.329-3.745 2.329m9.443-4.35c-.296-.321-.63-.566-1.08-.566-.568 0-.915.27-.915 1.094v3.68h-2.316V6.11h2.316v.49c.4-.387.85-.631 1.442-.631.489 0 .824.115 1.094.283l-.541 2.406zm5.507 4.208v-.45c-.413.321-.9.592-1.686.592-1.48 0-2.187-.99-2.187-2.767V6.11h2.329v3.834c0 .875.296 1.107.772 1.107.476 0 .772-.232.772-1.082V6.11h2.329v6.756h-2.33zm7.874 0V9.03c0-.875-.296-1.106-.772-1.106-.49 0-.786.231-.786 1.08v3.861h-2.316V6.11h2.316v.45c.425-.321.9-.591 1.7-.591 1.48 0 2.187.99 2.187 2.766v4.131h-2.33zm6.843.142c-1.981 0-3.165-1.261-3.165-3.539 0-2.072 1.055-3.5 3.217-3.5 1.274 0 2.007.592 2.6 1.544l-1.596 1.21c-.322-.592-.541-.876-1.042-.876-.593 0-.889.592-.889 1.66 0 1.07.322 1.622.952 1.622.438 0 .747-.245 1.171-.875l1.467 1.145c-.784 1.159-1.518 1.609-2.715 1.609"/><g transform="translate(102.924 3.216)"><mask id="b" fill="#fff"><use xlink:href="#a"/></mask><path fill="#FFF" d="M4.228 9.65V5.813c0-.875-.296-1.107-.772-1.107-.49 0-.786.232-.786 1.081V9.65H.355V1.195L2.67.268v3.075c.425-.322.901-.592 1.7-.592 1.48 0 2.187.99 2.187 2.767v4.131h-2.33z" mask="url(#b)"/></g><path fill="#FFF" d="M0 0v5.146h5.146V15.44h5.146V5.146h5.147V0zm20.585 10.292V5.146h-5.146V15.44h15.438v-5.147z"/><mask id="d" fill="#fff"><use xlink:href="#c"/></mask><path fill="#FFF" d="M20.585 5.146h10.292V0H20.585z" mask="url(#d)"/></g></svg>