<svg xmlns="http://www.w3.org/2000/svg" xmlns:xlink="http://www.w3.org/1999/xlink" width="205" height="29" viewBox="0 0 205 29"><defs><path id="a" d="M12.22 18.092V.503H.66v17.59z"/><path id="c" d="M0 28.947h204.033V0H0z"/></defs><g fill="none" fill-rule="evenodd" opacity=".6"><path fill="#3D3B48" d="M76.317 11.104V24h-4.634V11.104H67V7h14v4.104zM86.548 14.399c-.983 0-1.535.675-1.679 1.93h3.598c-.217-1.279-.649-1.93-1.92-1.93zm5.707 4.633H84.87c.144 1.399.958 2.026 2.134 2.026 1.103 0 2.015-.241 3.262-.893l1.653 2.776c-1.557.915-3.165 1.447-5.13 1.447-3.79 0-5.876-2.703-5.876-6.588 0-4.366 2.446-6.61 5.756-6.61 3.452 0 5.611 2.292 5.611 6.996 0 .363 0 .629-.024.846zm8.031 5.356c-3.692 0-5.9-2.364-5.9-6.635 0-3.885 1.968-6.563 5.996-6.563 2.375 0 3.742 1.11 4.844 2.895l-2.973 2.267c-.599-1.11-1.008-1.64-1.942-1.64-1.104 0-1.655 1.11-1.655 3.113 0 2.004.6 3.04 1.774 3.04.815 0 1.39-.459 2.182-1.64l2.734 2.146c-1.462 2.172-2.83 3.017-5.06 3.017m14.722-.265v-7.191c0-1.64-.551-2.075-1.438-2.075-.913 0-1.464.434-1.464 2.027v7.239h-4.316V8.27l4.316-1.737v5.765c.791-.603 1.678-1.11 3.166-1.11 2.758 0 4.077 1.858 4.077 5.188v7.746h-4.34zm14.674.265c-4.988 0-7.65-3.716-7.65-8.71 0-5.43 3.165-8.71 7.674-8.71 4.125 0 5.756 1.785 6.906 4.97l-4.22 1.664c-.6-1.567-1.175-2.558-2.71-2.558-1.942 0-2.781 1.955-2.781 4.633 0 2.582.814 4.633 2.829 4.633 1.463 0 2.086-.796 2.997-2.388l3.933 2.098c-1.126 2.22-2.998 4.368-6.978 4.368m17.598-8.156c-.552-.603-1.174-1.061-2.015-1.061-1.056 0-1.703.506-1.703 2.05v6.902h-4.316V11.455h4.316v.916c.744-.723 1.583-1.182 2.688-1.182.91 0 1.534.217 2.038.531l-1.009 4.512zm10.262 7.891v-.846c-.768.603-1.678 1.111-3.14 1.111-2.76 0-4.078-1.857-4.078-5.189v-7.744h4.34v7.19c0 1.64.552 2.075 1.44 2.075.887 0 1.438-.435 1.438-2.027v-7.238h4.341v12.668h-4.341zm14.674 0v-7.191c0-1.64-.552-2.075-1.439-2.075-.912 0-1.463.434-1.463 2.027v7.239h-4.316V11.455h4.316v.844c.79-.603 1.678-1.11 3.166-1.11 2.758 0 4.077 1.858 4.077 5.188v7.746h-4.341zm12.754.265c-3.692 0-5.9-2.364-5.9-6.635 0-3.885 1.968-6.563 5.996-6.563 2.375 0 3.741 1.11 4.844 2.895l-2.973 2.267c-.6-1.11-1.008-1.64-1.942-1.64-1.104 0-1.655 1.11-1.655 3.113 0 2.004.599 3.04 1.774 3.04.815 0 1.39-.459 2.182-1.64l2.734 2.146c-1.462 2.172-2.83 3.017-5.06 3.017"/><g transform="translate(191.813 6.03)"><mask id="b" fill="#fff"><use xlink:href="#a"/></mask><path fill="#3D3B48" d="M7.88 18.092v-7.19c0-1.641-.552-2.075-1.44-2.075-.912 0-1.463.434-1.463 2.026v7.24H.66V2.24L4.977.503v5.765c.79-.603 1.678-1.11 3.166-1.11 2.758 0 4.077 1.858 4.077 5.188v7.746H7.88z" mask="url(#b)"/></g><path fill="#3D3B48" d="M0 0v9.65h9.59v19.297h9.591V9.65h9.59V0zm38.363 19.298V9.65h-9.591v19.298h28.772v-9.649z"/><mask id="d" fill="#fff"><use xlink:href="#c"/></mask><path fill="#3D3B48" d="M38.363 9.65h19.18V0h-19.18z" mask="url(#d)"/></g></svg>