<svg xmlns="http://www.w3.org/2000/svg" xmlns:xlink="http://www.w3.org/1999/xlink" width="80" height="25" viewBox="0 0 80 25"><defs><path id="a" d="M8.22.065H.067V10.46H8.22V.065z"/><path id="c" d="M.12 8.245h6.028V.09H.12z"/><path id="e" d="M4.952 9.997V.085H.027v9.912h4.925z"/></defs><g fill="none" fill-rule="evenodd"><path fill="#FEFEFE" d="M36.934.545l.056 2.172-.504.028c-.042-1.331-.322-1.514-2.34-1.514h-.434v7.664c0 1.05.266 1.33 1.303 1.358l.028.365c-.98-.014-1.723-.014-2.213-.014-.505 0-1.275 0-2.284.014l.028-.365c1.037-.028 1.303-.308 1.303-1.358V1.23h-.504c-2.074 0-2.354.183-2.382 1.514l-.518-.028.056-2.172c1.905.014 3.32.028 4.273.028.91 0 2.297-.014 4.132-.028"/><g transform="translate(37.214 .158)"><mask id="b" fill="#fff"><use xlink:href="#a"/></mask><path fill="#FEFEFE" d="M.095 10.124c.938 0 1.064-.182 1.078-1.5v-6.4C1.16.906 1.033.723.095.723L.067.388C1.34.318 1.636.276 2.785.065v4.343c.742-.826 1.373-1.149 2.199-1.149 1.373 0 2.13.87 2.13 2.466v2.9c.014 1.317.14 1.499 1.078 1.499l.028.336c-.812-.028-1.429-.056-1.835-.056-.392 0-.967.028-1.737.056l.028-.336c.742-.112.813-.252.826-1.5V6.497c0-1.766-.308-2.354-1.232-2.354a1.44 1.44 0 0 0-1.275.813c-.085.168-.14.35-.196.532-.014.07-.014.126-.014.154v2.984c0 1.247.084 1.387.826 1.499l.028.336c-.784-.028-1.359-.056-1.751-.056-.406 0-1.023.028-1.821.056l.028-.336z" mask="url(#b)"/></g><path fill="#FEFEFE" d="M52.494 9.245c-.869 1.078-1.723 1.527-2.844 1.527-1.947 0-3.264-1.43-3.264-3.545 0-2.255 1.359-3.81 3.32-3.81 1.079 0 1.835.392 2.354 1.247.35.588.448.994.462 2.003h-4.455c.056 2.13.827 3.334 2.115 3.334.77 0 1.416-.35 2.102-1.149l.21.393zm-4.47-3.11c1.29-.028 1.682-.056 2.985-.196-.168-1.36-.686-2.032-1.569-2.032-.84 0-1.275.7-1.415 2.228zM.047 24.095c1.134-.03 1.429-.341 1.429-1.507V15.24c0-1.166-.295-1.476-1.43-1.507L0 13.329l2.408.03 3.79-.046.995.016.062 2.284-.621.046c-.109-1.413-.373-1.569-2.61-1.569h-.342l-.155.016v4.226c.295 0 .528.015.668.015.248.015.481.031.714.031 1.243 0 1.523-.264 1.538-1.445h.529c-.047.948-.047 1.43-.047 1.896 0 .373 0 .9.015 1.6h-.497c-.062-1.119-.31-1.336-1.507-1.352l-.839-.015-.59.03v3.279c0 1.32.078 1.383 1.383 1.383 1.755 0 2.268-.39 2.423-1.896l.622.031-.357 2.61-1.197.016-3.806-.031L0 24.499l.047-.404z"/><g transform="translate(9.805 16.425)"><mask id="d" fill="#fff"><use xlink:href="#c"/></mask><path fill="#FEFEFE" d="M6.148 6.971c-.886.917-1.616 1.274-2.641 1.274-2.051 0-3.387-1.6-3.387-4.04C.12 1.69 1.534.09 3.77.09c.591 0 1.197.109 2.13.357l.03 1.864-.699.047C4.951.959 4.671.633 3.771.633 2.605.633 2 1.673 2 3.678c0 2.36.73 3.682 2.05 3.682.684 0 1.259-.295 1.865-.948l.233.56z" mask="url(#d)"/></g><path fill="#FEFEFE" d="M17.613 20.895v-.233c0-2.626 1.414-4.148 3.837-4.148 2.253 0 3.838 1.678 3.838 4.086 0 2.439-1.538 4.07-3.884 4.07-2.222 0-3.713-1.491-3.79-3.775m1.925-.171c.156 2.221.886 3.418 2.082 3.418 1.119 0 1.787-1.165 1.787-3.123 0-2.3-.917-3.915-2.19-3.915-1.135 0-1.71.979-1.71 2.921 0 .233 0 .466.031.699m7.641 3.402c1.042 0 1.197-.202 1.197-1.662V18.86c0-1.445-.155-1.647-1.196-1.663l-.031-.357c1.383-.078 1.693-.124 2.874-.373l.078 1.398c.885-.994 1.569-1.351 2.516-1.351 1.507 0 2.362.978 2.362 2.734v3.216c-.016.124-.016.249-.016.373 0 .994.264 1.289 1.212 1.289l.031.373c-.9-.03-1.584-.062-2.035-.062-.435 0-1.088.031-1.942.062l.031-.373c.823-.124.917-.28.917-1.662l.015-.979v-1.383c0-1.957-.357-2.61-1.367-2.61-.606 0-1.118.327-1.43.901-.123.234-.232.607-.232.762v3.309c.015 1.383.093 1.538.916 1.662l.047.373c-.87-.03-1.523-.062-1.958-.062-.45 0-1.118.031-2.02.062l.032-.373zm10.395-3.231v-.233c0-2.626 1.414-4.148 3.837-4.148 2.253 0 3.838 1.678 3.838 4.086 0 2.439-1.538 4.07-3.884 4.07-2.222 0-3.713-1.491-3.79-3.775m1.926-.171c.155 2.221.885 3.418 2.081 3.418 1.119 0 1.787-1.165 1.787-3.123 0-2.3-.917-3.915-2.19-3.915-1.135 0-1.71.979-1.71 2.921 0 .233 0 .466.032.699m7.641 3.402c1.04 0 1.196-.202 1.196-1.662V18.86c0-1.445-.155-1.647-1.196-1.663l-.031-.357c1.383-.078 1.693-.124 2.874-.373l.078 1.398c.885-.978 1.569-1.351 2.485-1.351 1.057 0 1.678.435 2.144 1.476.948-1.088 1.647-1.476 2.595-1.476 1.475 0 2.315.994 2.315 2.734v3.216c0 .124-.016.249-.016.373 0 .994.28 1.289 1.212 1.289l.031.373c-.901-.03-1.584-.062-2.036-.062-.434 0-1.071.031-1.926.062l.031-.373c.824-.124.901-.28.917-1.662v-2.362c0-1.926-.342-2.61-1.305-2.61-.575 0-1.165.373-1.414.901-.077.187-.155.373-.202.591-.015.078-.03.14-.03.17v3.31c0 1.383.092 1.538.916 1.662l.03.373c-.823-.03-1.444-.062-1.863-.062-.404 0-1.01.031-1.818.062l.031-.373c.823-.124.9-.28.917-1.662v-2.362c0-1.926-.342-2.61-1.306-2.61-.59 0-1.118.342-1.413.901-.125.25-.233.607-.233.762v3.309c.015 1.383.093 1.538.916 1.662l.031.373c-.854-.03-1.507-.062-1.942-.062-.45 0-1.118.031-2.02.062l.032-.373zm18.191-7.659v5.018l.015.979c0 1.46.14 1.662 1.196 1.662l.031.373c-.963-.03-1.662-.062-2.144-.062-.466 0-1.165.031-2.112.062l.03-.373c1.041 0 1.197-.202 1.197-1.662l.015-.979v-1.631l-.015-.994c0-1.445-.156-1.647-1.197-1.663l-.03-.357c1.429-.093 1.755-.14 3.014-.373m-2.005-2.595c0-.59.466-1.056 1.041-1.056s1.041.482 1.041 1.056c0 .591-.45 1.057-1.04 1.057-.591 0-1.042-.45-1.042-1.057m5.156 10.348l-.062-1.585.792-.031c.358 1.196.59 1.429 1.414 1.429.715 0 1.18-.373 1.18-.932 0-.528-.326-.932-1.304-1.6-.497-.342-.84-.575-1.026-.715-.404-.31-.699-.684-.854-1.103a2.258 2.258 0 0 1-.14-.839c0-1.414.963-2.33 2.424-2.33.543 0 .854.046 2.112.341l.032 1.57-.793.03c-.186-1.04-.512-1.397-1.243-1.397-.699 0-1.196.404-1.196.978 0 .544.249.87 1.057 1.383.73.482 1.305.917 1.693 1.258.435.42.684.948.684 1.554 0 1.383-1.166 2.439-2.657 2.439-.575 0-1.119-.124-2.113-.45"/><g transform="translate(74.875 14.642)"><mask id="f" fill="#fff"><use xlink:href="#e"/></mask><path fill="#FEFEFE" d="M.027 2.322c1.228-.093 1.71-.621 2.066-2.237h.7v2.097H4.75l-.217.855h-1.74v3.821c0 1.911.248 2.362 1.305 2.362.248 0 .481-.031.854-.14v.45c-.528.296-1.258.467-2.004.467-.684 0-1.336-.389-1.616-.963-.233-.482-.31-.964-.31-2.02V3.037H.027v-.715z" mask="url(#f)"/></g></g></svg>