<svg width="45" height="57" viewBox="0 0 45 57" xmlns="http://www.w3.org/2000/svg"><title>Legia_Warszawa</title><g fill-rule="nonzero" fill="none" opacity=".813"><path d="M21.739 56.157c-2.084-2.69-4.473-4.5-9.988-7.57-3.269-1.818-4.227-2.4-5.462-3.313-2.371-1.755-4.157-3.815-5.155-5.946-.414-.885-.942-2.642-.943-3.138 0-.149-.05-.32-.11-.381-.073-.072-.097-.76-.07-1.959.07-3.124.441-4.622 2.724-10.974 1.631-4.538 1.984-6.99 1.427-9.929-.31-1.628-1.164-3.73-2.298-5.649-.233-.393-.4-.776-.372-.849.028-.073 1.16-1.49 2.514-3.15C5.361 1.639 6.493.219 6.523.14 6.568.025 9.345 0 22.45 0c15.59 0 15.874.004 16 .206.07.113 1.228 1.552 2.571 3.198 1.344 1.646 2.443 3.051 2.443 3.122 0 .071-.287.626-.638 1.233-2.076 3.596-2.694 6.803-2.008 10.424.298 1.573.58 2.462 2.324 7.331 1.051 2.934 1.57 5.02 1.813 7.285.1.934.027 2.945-.112 3.131-.044.059-.114.345-.157.637-.207 1.434-1.16 3.595-2.199 4.989-.807 1.082-2.418 2.659-3.657 3.58-1.418 1.055-2.472 1.7-5.748 3.522-3.248 1.807-4.355 2.485-5.719 3.506-1.75 1.31-3.258 2.778-4.396 4.279-.232.306-.456.557-.498.557-.042 0-.37-.38-.73-.843zm12.227-9.322c.406-.23.825-.403.88-.49.074-.118-3.359-5.812-13.587-22.489C13.755 11.621 7.511 1.393 7.474 1.297c-.037-.095-.144-.03-.239-.011-.26.05-3.115 3.582-3.06 3.786.038.14 25.54 41.69 26.416 43.044l.262.404 1.188-.633c.653-.348 1.52-.822 1.925-1.052zm5.112-3.407c1.943-1.554 3.59-3.933 4.214-6.09.9-3.106.553-6.404-1.175-11.173-2.024-5.586-2.474-7.158-2.683-9.381-.284-3.015.457-6.1 2.27-9.451.258-.477.34-.732.275-.85-.213-.383-4.175-5.162-4.335-5.228-.228-.095-24.83-.094-25.069 0-.161.064-.166.106-.042.346.387.747 25.877 42.237 25.949 42.237.045 0 .314-.185.596-.41zm-9.19-27.04c-2.51-.67-4.491-2.712-5.044-5.2-.235-1.057-.167-2.775.15-3.758.656-2.041 2.415-3.804 4.47-4.477.948-.312 2.88-.387 3.826-.15 4.097 1.026 6.387 5.36 4.909 9.292-.772 2.053-2.742 3.81-4.824 4.3-.86.204-2.715.2-3.488-.006zm3.17-.842c1.605-.378 3.191-1.614 3.96-3.085 1.26-2.41.832-5.24-1.084-7.154-1.863-1.861-4.558-2.304-6.992-1.148-.973.462-2.29 1.784-2.756 2.767-1.035 2.182-.792 4.486.678 6.43.811 1.072 2.26 1.975 3.607 2.245.698.14 1.865.116 2.587-.055zm-3.913-5.993v-4.14h1.482l.028 3.424.028 3.423 1.909.053 1.909.053.031.663.032.664h-5.42v-4.14z" fill="#605F69"/><path d="M21.739 56.157c-2.084-2.69-4.473-4.5-9.988-7.57-3.269-1.818-4.227-2.4-5.462-3.313-2.371-1.755-4.157-3.815-5.155-5.946-.414-.885-.942-2.642-.943-3.138 0-.149-.05-.32-.11-.381-.073-.072-.097-.76-.07-1.959.07-3.124.441-4.622 2.724-10.974 1.631-4.538 1.984-6.99 1.427-9.929-.31-1.628-1.164-3.73-2.298-5.649-.233-.393-.4-.776-.372-.849.028-.073 1.16-1.49 2.514-3.15C5.361 1.639 6.493.219 6.523.14 6.568.025 9.345 0 22.45 0c15.59 0 15.874.004 16 .206.07.113 1.228 1.552 2.571 3.198 1.344 1.646 2.443 3.051 2.443 3.122 0 .071-.287.626-.638 1.233-2.076 3.596-2.694 6.803-2.008 10.424.298 1.573.58 2.462 2.324 7.331 1.051 2.934 1.57 5.02 1.813 7.285.1.934.027 2.945-.112 3.131-.044.059-.114.345-.157.637-.207 1.434-1.16 3.595-2.199 4.989-.807 1.082-2.418 2.659-3.657 3.58-1.418 1.055-2.472 1.7-5.748 3.522-3.248 1.807-4.355 2.485-5.719 3.506-1.75 1.31-3.258 2.778-4.396 4.279-.232.306-.456.557-.498.557-.042 0-.37-.38-.73-.843zm11.277-8.792c.7-.381 1.464-.829 1.697-.996.233-.167 1.33-.903 2.44-1.635 2.846-1.882 4.323-3.404 5.414-5.579 1.74-3.465 1.606-7.317-.45-12.99-2.024-5.586-2.474-7.158-2.683-9.381-.284-3.015.457-6.1 2.27-9.451.258-.477.34-.732.275-.85-.252-.451-4.19-5.167-4.375-5.237-.194-.074-21.582-.023-27.815.067l-2.651.038-1.467 1.78c-.908 1.103-1.492 1.76-1.464 1.866.038.139 25.503 41.758 26.38 43.114l.26.4.448-.227c.246-.125 1.021-.539 1.721-.92zm-3.129-30.976c-2.51-.67-4.49-2.713-5.043-5.202-.235-1.056-.167-2.774.15-3.757.656-2.041 2.415-3.804 4.47-4.477.948-.312 2.88-.387 3.826-.15 4.097 1.026 6.387 5.36 4.909 9.292-.772 2.053-2.742 3.81-4.824 4.3-.86.204-2.715.2-3.488-.006zm3.171-.843c1.605-.378 3.191-1.614 3.96-3.085 1.26-2.41.832-5.24-1.084-7.154-1.863-1.861-4.558-2.304-6.992-1.148-.973.462-2.29 1.784-2.756 2.767-1.035 2.182-.792 4.486.678 6.43.811 1.072 2.26 1.975 3.607 2.245.698.14 1.865.116 2.587-.055zm-3.913-5.993v-4.14h1.482l.028 3.424.028 3.423 1.909.053 1.909.053.031.663.032.664h-5.42v-4.14z" fill="#85848D"/><path d="M21.739 56.158c-2.084-2.69-4.473-4.5-9.988-7.566-3.269-1.819-4.227-2.4-5.462-3.313-2.371-1.754-4.157-3.812-5.155-5.943-.414-.884-.942-2.64-.943-3.136 0-.149-.05-.32-.11-.382-.073-.072-.097-.76-.07-1.957.07-3.122.441-4.62 2.724-10.97 1.631-4.535 1.984-6.986 1.427-9.923-.31-1.628-1.164-3.729-2.298-5.646-.233-.394-.4-.776-.372-.85.028-.073 1.16-1.49 2.514-3.148C5.361 1.666 6.493.245 6.523.168 6.568.05 9.345.027 22.45.027c15.59 0 15.853-.104 15.979.098.07.113 1.249 1.66 2.592 3.304 1.344 1.646 2.443 3.05 2.443 3.12 0 .072-.287.626-.638 1.233-2.076 3.594-2.694 6.8-2.008 10.42.298 1.572.58 2.46 2.324 7.327 1.051 2.932 1.57 5.017 1.813 7.281.1.934.027 2.944-.112 3.13-.044.058-.114.345-.157.637-.207 1.433-1.16 3.593-2.199 4.986-.807 1.082-2.418 2.658-3.657 3.58-1.418 1.053-2.472 1.699-5.748 3.52-3.248 1.805-4.355 2.483-5.719 3.504-1.75 1.309-3.258 2.776-4.396 4.276-.232.306-.456.557-.498.557-.042 0-.37-.38-.73-.842zm2.201-2.692c2.064-2.023 4.64-3.89 6.796-4.92 1.328-.636 3.445-1.792 3.977-2.172.233-.167 1.33-.902 2.44-1.635 2.846-1.88 4.323-3.401 5.414-5.576 1.74-3.463 1.606-7.313-.45-12.984-2.024-5.583-2.474-7.154-2.683-9.377-.284-3.013.457-6.097 2.27-9.446.258-.477.34-.731.275-.849-.252-.451-4.233-5.154-4.417-5.224-.195-.074-21.601-.033-27.773.056l-2.651.039L5.78 3.01c-.747.897-1.433 1.775-1.526 1.95-.093.175-.402.597-.685.938-.283.34-.515.669-.515.73 0 .06.332.784.738 1.608 1.417 2.878 1.846 4.58 1.846 7.334 0 2.786-.33 4.1-2.636 10.45-1.232 3.395-1.67 5.43-1.676 7.798-.01 3.544 1.064 6.091 3.65 8.654 1.624 1.609 3.263 2.718 7.403 5.007 2.988 1.653 4.67 2.686 5.982 3.673 1.2.902 2.63 2.184 3.418 3.063.327.365.623.663.658.663.035 0 .71-.635 1.502-1.412zm5.947-37.058c-2.51-.67-4.49-2.712-5.043-5.2-.235-1.055-.167-2.772.15-3.755.656-2.04 2.415-3.802 4.47-4.475.948-.311 2.88-.387 3.826-.15 4.097 1.026 6.387 5.358 4.909 9.288-.772 2.052-2.742 3.808-4.824 4.299-.86.203-2.715.2-3.488-.007zm3.171-.842c1.605-.379 3.191-1.614 3.96-3.084 1.26-2.409.832-5.237-1.084-7.15-1.863-1.861-4.558-2.304-6.992-1.149-.973.462-2.29 1.784-2.756 2.767-1.035 2.18-.792 4.483.678 6.426.811 1.072 2.26 1.974 3.607 2.244.698.14 1.865.116 2.587-.054zm-3.913-5.99V5.437h1.482l.028 3.421.028 3.422 1.909.053 1.909.053.031.663.032.663h-5.42V9.575z" fill="#302F38"/></g></svg>