<svg xmlns="http://www.w3.org/2000/svg" xmlns:xlink="http://www.w3.org/1999/xlink" width="129" height="19" viewBox="0 0 129 19"><defs><path id="a" d="M5.826.012v9.7H.016v-9.7h5.81z"/><path id="c" d="M.139 17.115h10.216V.055H.14z"/></defs><g fill="none" fill-rule="evenodd"><path fill="#FFF" d="M100.248 3.325l1.538-1.41 1.25 1.388-1.545 1.403zM3.683 10.228V5.366l-1.46.654s-.373.833-.308 2.045c.051.947.58 2.079.986 2.552l.782-.39zM7.959.218c.36.032.926.21 1.352.586.453.438.555 1.106.397 1.712-.141.542-.3.822-.85 1.196-.557.378-1.231.346-1.231.346v2.341l1.139.924-1.14.92.001 3.192s1.14-.656 1.848-2.12c0 0 .03-.08.096-.233.063.394.027 1.19-.417 2.21-.334.767-.942 1.508-1.705 1.93-1.351.748-2.365.82-3.452.595a4.896 4.896 0 0 1-3.216-2.226c-.554-.878-.802-1.9-.78-3.002.045-2.16 1.65-4.021 3.503-4.718.226-.085.315-.14.635-.168-.147.1-.318.229-.527.367-.596.394-1.108 1.175-1.326 1.777l3.597-1.606v5.034l-2.9 1.453c.33.461 1.334 1.155 2.193 1.251 1.46.163 2.318-.476 2.318-.476v-3.26l-1.132-.92 1.132-.92V4.058c-.617-.072-1.368-.277-1.806-.385-.645-.16-2.796-.763-3.133-.813-.338-.05-.755-.036-1.008.19-.252.228-.408.628-.3.988.06.205.2.326.307.44 0 0-.124-.01-.35-.145-.406-.242-.714-.722-.752-1.31-.047-.77.27-1.465.905-1.933C1.91.737 2.534.508 3.26.612c1.059.15 2.483.75 3.751 1.056.492.117.872.157 1.218-.043.16-.116.444-.417.212-.815-.27-.465-.787-.454-1.226-.54.378-.077.46-.077.744-.052zm13.996 8.743L20.32 10.16V6.174l1.634 2.787zm-.047-3.83s-1.103.668-1.843 1.11c-.741.44-1.735.927-1.735.927v4.639l-.663.531.088.104.647-.524 2.026 1.835 3.523-2.792-.084-.103-1.946 1.53-1.6-1.5v-.559l3.213-2.366-1.626-2.833zm-9.233 10.366c.463.114 1.278.178 2.262-.315 1.09-.546 1.637-1.705 1.63-2.892l.046-1.682V6.931l.696-.532-.08-.105-.686.519-1.582-1.76-2.028 1.742V.867L10.398 2.83c.113.073.472.138.483.645v8.303l-1.073.796.073.11.518-.386 1.443 1.345 2.273-1.812-.082-.103-.535.424-.565-.561.005-4.625.662-.566.988 1.23s-.002 2.992 0 3.987c-.007 1.06-.01 2.383-.567 3.023-.556.64-.779.69-1.346.857m15.77-.417c-.907-.105-1.288-.655-1.278-1.09.006-.28.259-.824.81-.9.553-.075 1.117.184 1.593.744l2.096-2.32-.1-.09-.564.63a3.669 3.669 0 0 0-2.192-1.181V3.806l5.446 9.933s.052.112.276.113c.193 0 .146-.158.146-.158V3.7c.442-.018 1.118-.263 1.446-.6 1.048-1.078.62-2.254.505-2.37-.064.516-.46 1.033-1.118 1.035-.866.002-1.393-.636-1.393-.636l-2.095 2.39.1.09.6-.685c.733.675 1.269.74 1.822.776v5.8l-4.04-7.35c-.366-.606-.923-1.14-1.796-1.145-1.003-.008-1.722.878-1.807 1.641-.098.863.01 1.062.01 1.062s.147-.961.74-.952c.533.008.81.498 1.024.866V5.75c-.55.039-1.98.1-2.067 1.59-.006.554.338 1.135.638 1.333.387.253.69.247.69.247s-.464-.245-.325-.734c.124-.437 1.032-.508 1.065-.327v3.004c-.437-.004-1.837.042-2.468 1.245-.38.724-.358 1.536.049 2.11.33.466 1.014 1.062 2.187.86m11.55-6.117l-1.634 1.198V6.174l1.634 2.787zm-.047-3.83s-1.102.668-1.843 1.11c-.74.44-1.735.927-1.735.927v4.639l-.663.531.089.104.646-.524 2.027 1.835 3.522-2.792-.083-.103-1.947 1.53-1.6-1.5v-.559l3.214-2.366-1.627-2.833zm4.923 8.657l-1.726-1.435-.759.55-.077-.109.772-.564V8.213c.037-1.653-1.513-1.242-1.43-2.997.038-.771.784-1.355 1.16-1.547.403-.206.839-.205.839-.205s-.708.443-.536 1.08c.265.98 1.94 1.067 1.972 2.373v4.558l1.236.992.325-.256V7.277l-.667-.662 1.717-1.52 1.569 1.392-.599.649v4.37l1.469 1.213.261-.165V7.291l-.668-.626 1.72-1.573 1.609 1.33.642-.568.087.1-1.446 1.27v4.29l-3.7 2.284-1.892-1.5-1.878 1.49zm75.731-4.827l-1.634 1.198V6.174l1.634 2.787zm-.047-3.83s-1.102.668-1.843 1.11c-.741.44-1.735.927-1.735.927v4.639l-.663.531.088.104.647-.524 2.026 1.835 3.523-2.792-.084-.103-1.946 1.53-1.6-1.5v-.559l3.214-2.366-1.627-2.833zm-16.536 1.941l.086.1.663-.571.985 1.113v3.836l-.478.435 1.534 1.738 1.574-1.555-.647-.669V6.861l.392-.313 1.089 1.274v3.821l-.41.41 1.445 1.627 1.545-1.548-.567-.597-.015-4.656.417-.338 1.136 1.252v3.8l-.374.374 1.595 1.741 2.143-1.979-.091-.098-.52.48-.799-.885v-4.34l.77-.586-.08-.106-.77.586-1.458-1.635-2.084 1.648-1.459-1.59-2.012 1.576-1.474-1.57z"/><path fill="#FFF" d="M99.658 6.951l.087.1.56-.483.876 1.038v4.382l-.617.54.086.102.649-.555 1.413 1.633 2.044-1.826-.086-.1-.602.53-.845-.975V7.052l.713-.617-.086-.102-.677.584-1.488-1.736z"/><path fill="#FFF" d="M93.903 10.228V5.366l-1.46.654s-.373.833-.308 2.045c.05.947.58 2.079.986 2.552l.782-.39zM98.179.218c.36.032.926.21 1.352.586.452.438.555 1.106.397 1.712-.141.542-.3.822-.85 1.196-.558.378-1.231.346-1.231.346v2.341l1.139.924-1.14.92.001 3.192s1.14-.656 1.848-2.12c0 0 .03-.08.096-.233.063.394.026 1.19-.417 2.21-.334.767-.943 1.508-1.705 1.93-1.351.748-2.365.82-3.451.595A4.895 4.895 0 0 1 91 11.591c-.553-.878-.802-1.9-.779-3.002.045-2.16 1.65-4.021 3.503-4.718.226-.085.315-.14.635-.168-.147.1-.318.229-.527.367-.596.394-1.108 1.175-1.326 1.777l3.596-1.606v5.034l-2.9 1.453c.33.461 1.334 1.155 2.193 1.251 1.461.163 2.32-.476 2.32-.476v-3.26l-1.134-.92 1.133-.92V4.058c-.618-.072-1.368-.277-1.806-.385-.645-.16-2.796-.763-3.134-.813-.338-.05-.754-.036-1.007.19-.252.228-.408.628-.3.988.06.205.2.326.306.44 0 0-.124-.01-.349-.145-.406-.242-.715-.722-.752-1.31-.047-.77.27-1.465.905-1.933.552-.353 1.176-.582 1.903-.478 1.059.15 2.483.75 3.752 1.056.491.117.871.157 1.216-.043.16-.116.445-.417.213-.815-.27-.465-.787-.454-1.226-.539.378-.077.46-.077.744-.052z"/><g transform="translate(122.921 4.652)"><mask id="b" fill="#fff"><use xlink:href="#a"/></mask><path fill="#FFF" d="M2.218 1.375v2.303l.765.67s1.664-1.336 2.268-2.57c0 0-.748 1.015-1.754.706-.843-.26-1.279-1.109-1.279-1.109M.36 7.481s.728-1.206 1.98-.946c1.2.25 1.617 1.518 1.617 1.518V5.132l-.837-.73C2.2 5.325.563 6.665.36 7.48M1.553 9.7C1.32 9.77.305 9.523.06 8.471c-.237-1.026.475-1.72 1.55-2.814L.34 4.498V2.282s.933-.466 1.664-.924C2.735.901 3.483.404 3.483.404s.544.689 1.16.635c.965-.085.92-.847.893-1.027.164.295.605 1.17-1.09 3.126l1.38 1.116v2.878s-1.603.835-3.12 1.943c0 0-.846-1.06-1.58-.554-.497.341-.27.92.427 1.18" mask="url(#b)"/></g><path fill="#FFF" d="M69.002 11.078l1.783 1.616v-4.94l-1.783-1.652v4.976zm3.676-4.034l.62-.573.09.1-.605.564v4.577s-1.15.611-1.952 1.064a54.3 54.3 0 0 0-1.659.985l-2.11-1.778-.557.486-.09-.103.586-.51V6.935h.008s.995-.45 1.834-.925c.75-.424 1.59-.915 1.59-.915l2.245 1.95zm4.146-.462l1.34-1.371s.185.16.357.246c.098.049.504.257.876.052.201-.11.23-.14.452-.35.044 1.067-.466 1.818-1.104 2.128-.261.126-1.022.37-1.82-.603v4.927l.848.75.707-.587.083.102-2.218 1.853-1.686-1.537-.607.574-.1-.106.925-.835.007-4.254-.709-.94-.61.54-.087-.1 2.147-1.933 1.2 1.444zm5.65 2.052l2.477-3.61s.326.39.895.539c.774.202 1.45-.546 1.45-.546-.13.964-.618 2.06-1.627 2.228-.888.147-1.715-.544-1.715-.544l-.16.248 3.438 5.2.688-.603.089.1-2.36 2.064-3.175-5.076z"/><path fill="#FFF" d="M80.427 3.815c0-.777-.318-1.26-.735-1.223l2.702-1.9v10.755l.714.753.54-.469.085.1-2.177 1.904-1.475-1.385-.59.518-.094-.1 1.03-.9V3.816z"/><g transform="translate(55.762 1.188)"><mask id="d" fill="#fff"><use xlink:href="#c"/></mask><path fill="#FFF" d="M7.315 5.651s-.298.34-.768.34c-.47 0-.778-.341-.778-.341v1.473s.308-.342.778-.342c.47 0 .768.324.768.324V5.65zm0-3.157l-1.042-.917-.504.4V5.43s.31.393.78.393c.47 0 .766-.379.766-.379v-2.95zM5.769 12.28s.631.168 1.09-.21c.51-.422.456-1.012.456-1.012V7.331s-.296-.382-.766-.382c-.47 0-.78.395-.78.395v4.935zM2.076 2.45c0-.725-.295-1.132-.773-1.142-.687-.016-.85.954-.85.954S.33 1.516.954.837C1.305.456 1.96-.075 2.985.172c1.059.255 1.359 1.077 1.359 1.804v10.007s.4.048.675.107c.318.068.62.153.62.153V.177h.13v1.626L7.94.055l1.59 1.414.74-.642.085.101-.774.67V10.9c-.039.608-.136 1.224-.71 1.58-1.276.758-2.817-.115-4.19-.316-1.017-.15-2.616-.344-3.018.592a.868.868 0 0 0 .34 1.092c.927.62 5.056-1.042 6.472-.381 1.291.602 1.287 1.553 1.087 2.206-.335 1.227-1.883 1.442-1.883 1.442s.757-.438.541-1.167c-.11-.37-.359-.472-1.169-.381-1.77.2-3.885 1.059-5.307.463-.732-.306-1.25-1.222-1.2-2.123C.58 12.612 2.076 12.1 2.076 12.1V7.303c-.044-.19-.842-.139-1.016.212-.265.534.33.778.33.778s-.493.073-.907-.404c-.2-.232-.621-1.049-.075-1.805.45-.622.988-.73 1.668-.806V2.45z" mask="url(#d)"/></g></g></svg>