<svg xmlns="http://www.w3.org/2000/svg" xmlns:xlink="http://www.w3.org/1999/xlink" width="143" height="30" viewBox="0 0 143 30"><defs><path id="a" d="M0 29.274h28.49V.262H0v29.012z"/><path id="c" d="M77.93 29.535h28.489V.523h-28.49z"/><path id="e" d="M-7.28 29.535h-28.49V.523h28.49z"/></defs><g fill="none" fill-rule="evenodd" opacity=".5" transform="translate(36)"><g transform="translate(21.21 .261)"><mask id="b" fill="#fff"><use xlink:href="#a"/></mask><path fill="#3D3B48" d="M6.534 4.879h11.327s4.879-.261 4.879 5.053c0 5.315-2.962 5.577-2.962 5.577s2.962.173 2.962 4.268v4.531h-3.921v-4.27s0-3.31-2.265-3.31-6.186.087-6.186.087v7.58H6.534V4.88zM0 29.274h28.49V.262H0v29.012z" mask="url(#b)"/></g><path fill="#3D3B48" d="M.431 8.408h4.792v13.069H.431v3.31h13.766v-3.31H8.97V8.407h5.227v-3.31H.431zM40.03 10.89c0-2.787-2.962-2.352-2.962-2.352h-5.49v5.402s2.963-.087 5.402-.087c2.44 0 3.05-.523 3.05-2.962m14.898-2.527h2.701V21.52h-2.7v3.224h16.64v-6.36h-3.31v3.136H61.2v-5.315h5.228v-3.223H61.2V8.364h6.796v3.137h3.572V5.14H54.93zm39.294.087h-5.925v13.07h6.186c2.962 0 3.05-3.835 3.05-3.835v-5.053c0-4.443-3.311-4.182-3.311-4.182"/><mask id="d" fill="#fff"><use xlink:href="#c"/></mask><path fill="#3D3B48" d="M94.657 24.918c-7.144 0-10.368.087-10.368.087V5.228h8.452s8.712-.959 8.712 6.883V17.6s.348 7.318-6.796 7.318zM77.93 29.536h28.49V.523H77.93v29.013z" mask="url(#d)"/><mask id="f" fill="#fff"><use xlink:href="#e"/></mask><path fill="#3D3B48" d="M-29.409 5.228l2.701 14.898 3.485-14.898 4.27.087 3.484 15.072 2.614-15.16h3.746l-4.007 19.517h-4.88l-3.136-14.202-3.398 14.289h-4.792L-33.33 5.228h3.921zm-6.36 24.308h28.49V.523h-28.49v29.013z" mask="url(#f)"/></g></svg>