<svg id="Layer_1" xmlns="http://www.w3.org/2000/svg" viewBox="0 0 124.9 47"><style>.st0,.st1,.st2,.st3,.st4{fill-rule:evenodd;clip-rule:evenodd;fill:#20ce5e}.st1,.st2,.st3,.st4{fill:#ffeb00}.st2,.st3,.st4{fill:#157de5}.st3,.st4{fill:#ef5047}.st4{fill:#fff}</style><path class="st0" d="M21.8 27.2v11.9c0 2.2-1.8 4-4 4s-4-1.8-4-4V27.2c-1-.5-1.9-1.1-2.6-1.8v13.7c0 3.6 2.9 6.6 6.6 6.6 3.6 0 6.6-2.9 6.6-6.6V25.4c-.8.7-1.6 1.4-2.6 1.8"/><path class="st1" d="M17.8 12c-3.7 0-6.6 2.9-6.6 6.6 0 3.6 3 6.6 6.6 6.6 3.6 0 6.6-2.9 6.6-6.6 0-3.6-2.9-6.6-6.6-6.6m0 2.5c2.3 0 4.1 1.8 4.1 4.1 0 2.2-1.9 4.1-4.1 4.1-2.3 0-4.1-1.8-4.1-4.1s1.9-4.1 4.1-4.1"/><path class="st2" d="M23.2 10.6l10-6.3c1.8-1.2 4.3-.6 5.5 1.2 1.2 1.8.6 4.3-1.2 5.5l-10 6.3c.2 1.1.1 2.2-.1 3.2L39 13.2c3.1-2 4-6 2-9.1-2-3.1-6-4-9.1-2L20.2 9.3c1 .3 2 .7 3 1.3"/><path class="st3" d="M8.3 18.7c0-.4 0-.9.1-1.3l-2.8-1.7c-1.9-1.1-2.5-3.6-1.4-5.4.6-.9 1.5-1.6 2.4-1.8 1-.2 2-.1 3 .4l2.9 1.7c.9-.6 1.9-1.1 3-1.3L11 6.6c-3.1-1.9-7.2-.8-9 2.3C.1 12 1.2 16.1 4.3 18l4.3 2.5c-.2-.6-.3-1.2-.3-1.8"/><path class="st4" d="M46.7 18.9l1.5.3v-2.3c0-.7.5-1.3 1.3-1.3.7 0 1.3.5 1.3 1.3v2.3l1.5-.3c.7 0 1.1.4 1.1 1.1s-.5 1-1.2 1l-1.5.3v9.3c0 .7-.6 1.3-1.3 1.3-.8 0-1.3-.5-1.3-1.3v-9.3l-1.4-.3c-.6 0-1-.4-1-1.1 0-.6.4-1 1-1M57.5 20.2v10.4c0 .7-.6 1.3-1.3 1.3-.7 0-1.3-.5-1.3-1.3V20.2c0-.7.6-1.3 1.3-1.3.8.1 1.3.6 1.3 1.3M56.2 14c.9 0 1.5.7 1.5 1.5 0 .9-.7 1.5-1.5 1.5-.9 0-1.5-.7-1.5-1.5s.7-1.5 1.5-1.5M62.4 20.5c.7-1 1.8-1.6 3.3-1.6 1.8 0 3 .8 3.7 2.1.6-1.3 1.9-2.1 3.6-2.1 2.8 0 4.2 1.9 4.2 4.7v7.1c0 .7-.5 1.3-1.3 1.3-.7 0-1.3-.5-1.3-1.3v-7c0-1.4-.8-2.5-2.3-2.5-1.5 0-2.4 1.1-2.4 2.5v7.1c0 .7-.6 1.3-1.3 1.3-.7 0-1.3-.5-1.3-1.3v-7c0-1.4-.8-2.5-2.3-2.5s-2.4 1.1-2.4 2.6v7c0 .7-.6 1.3-1.3 1.3-.8 0-1.3-.5-1.3-1.3V20.2c0-.7.4-1.2 1.2-1.2.5 0 1 .2 1.1.8l.1.7zM81.5 24h4.8v-.5c0-1.5-.9-2.6-2.4-2.6s-2.4 1.1-2.4 2.6v.5zm7.1 4.8c-.4 2-2.2 3.2-4.6 3.2-3 0-5-1.9-5-4.9v-3.3c0-3.1 2-5 5-5 2.9 0 4.9 2 4.9 5v.7c0 .8-.5 1.3-1.3 1.3h-6v1.5c0 1.5.9 2.5 2.5 2.5 1.5 0 2.1-.8 2.5-1.8.2-.6.5-.8 1.1-.8.6.1 1.1.7.9 1.6zM101 26.5c0 1.9 1.1 3.2 3.1 3.2s3.1-1.3 3.1-3.2v-6.4c0-1.9-1.1-3.2-3.1-3.2s-3.1 1.3-3.1 3.2v6.4zm9 0c0 3.4-2.4 5.6-5.8 5.6s-5.8-2.1-5.8-5.6v-6.4c0-3.4 2.1-5.6 5.8-5.6 3.5 0 5.8 2.1 5.8 5.6v6.4zM123.9 30.6c0 .8-.5 1.3-1.3 1.3-.6 0-1-.3-1.3-.8L115 20v10.8c0 .7-.5 1.2-1.2 1.2s-1.2-.5-1.2-1.2V15.9c0-.8.6-1.3 1.4-1.3.7 0 1 .2 1.4.9l6.1 10.8V15.8c0-.7.5-1.2 1.2-1.2s1.2.5 1.2 1.2v14.8zM95.4 29.3h-.2v-12h.2c.8 0 1.3-.6 1.3-1.4s-.5-1.3-1.3-1.3h-3.1c-.8 0-1.3.5-1.3 1.3s.5 1.4 1.3 1.4h.2v12h-.2c-.8 0-1.3.5-1.3 1.3s.5 1.4 1.3 1.4h3.1c.8 0 1.3-.6 1.3-1.4 0-.8-.5-1.3-1.3-1.3"/></svg>