<svg width="216" height="41" viewBox="0 0 216 41" xmlns="http://www.w3.org/2000/svg" xmlns:xlink="http://www.w3.org/1999/xlink"><title>Logo_header</title><defs><path id="a" d="M16.14 20.558V.356H.483v20.202z"/></defs><g fill="none" fill-rule="evenodd"><path fill="#FFF" d="M55.791 25.244h2.424V10.918h-3.821v3.024h-3.166v-5.99h17.739v5.99H65.8v-3.024h-3.85v14.326h2.453v2.768H55.79zM71.334 25.328h2.11v-8.42c0-.424-.2-.622-.627-.622H71.19v-2.683h3.793c1.283 0 1.94.593 1.94 1.752v.847c0 .254 0 .452-.03.65-.028.084-.028.17-.028.254h.057c.684-2.063 2.367-3.701 4.62-3.701.2 0 .342 0 .456.028.086.028.143.028.2.028v3.532c-.086 0-.171 0-.257-.028-.2-.029-.37-.029-.627-.029-2.937 0-4.25 2.544-4.25 5.256v3.136h2.083v2.684h-7.814v-2.684zM85.877 16.286h-2.252v-2.683h5.874v8.646c0 1.723.457 2.91 2.282 2.91 2.51 0 4.02-2.543 4.02-5.143v-3.73h-2.224v-2.683h5.847v11.132c0 .424.2.622.627.622h1.398v2.655h-3.593c-1.284 0-1.883-.593-1.883-1.61v-.537c0-.198.029-.367.029-.48v-.197h-.057c-.172.48-1.683 3.164-5.305 3.164-2.88 0-4.763-1.554-4.763-5.482v-6.584zM103.586 23.21h3.08v.847c0 .989 1.341 1.497 2.852 1.497 1.455 0 2.482-.48 2.482-1.469 0-1.186-1.369-1.554-3.308-2.232-2.11-.763-4.592-1.695-4.592-4.464 0-3.052 3.108-4.126 5.732-4.126 2.11 0 5.247.82 5.247 2.996v1.835h-3.108v-.818c0-.763-.856-1.187-2.14-1.187-1.14 0-2.11.395-2.11 1.3 0 1.186 1.426 1.695 3.052 2.147 2.224.678 4.848 1.61 4.848 4.436 0 2.94-2.795 4.38-6.131 4.38-2.624 0-5.904-1.131-5.904-3.476V23.21zM119.728 16.286h-2.224v-2.683h2.337V9.675h3.508v3.928h3.309v2.683h-3.309v6.076c0 2.486 1.883 2.797 2.91 2.797.2 0 .37-.028.485-.028h.17v2.938l-.313.056c-.2.029-.457.029-.8.029-2.052 0-6.073-.594-6.073-5.425v-6.443zM131.677 22.475v1.44c0 1.696 2.082 2.629 4.392 2.629 2.623 0 4.477-1.272 4.477-3.589 0-2.628-2.424-3.475-5.019-4.465-2.624-.988-5.361-2.034-5.361-5.51 0-3.475 2.822-5.17 6.103-5.17 2.851 0 5.789 1.074 5.789 3.108v2.119h-1.911v-1.469c0-1.271-2.081-1.95-3.878-1.95-2.282 0-4.05 1.103-4.05 3.222 0 2.373 2.168 3.193 4.591 4.097 2.88 1.045 5.79 2.203 5.79 5.82 0 3.504-2.795 5.595-6.53 5.595-2.853 0-6.304-1.272-6.304-3.984v-1.893h1.911zM147.475 15.383h-2.566V13.8h2.595V9.873h1.91V13.8h3.622v1.583h-3.621v7.29c0 3.305 2.139 3.786 3.25 3.786.257 0 .4 0 .486-.029.085-.028.142-.028.17-.028v1.667c-.085 0-.142 0-.228.028-.085.028-.285.028-.598.028-1.655 0-5.02-.537-5.02-5.283v-7.46zM160.508 26.77c2.88 0 4.506-2.855 4.506-5.34v-.679h-.827c-1.17 0-6.759-.113-6.759 3.164 0 1.47 1.084 2.855 3.08 2.855m3.565-7.46h.94v-.594c0-2.655-1.453-3.588-3.45-3.588-1.226 0-2.224.34-2.994.678a6.807 6.807 0 0 0-1.17.706l-.912-1.44c.4-.311.855-.594 1.369-.82.884-.423 2.196-.79 3.821-.79 3.508 0 5.276 1.807 5.276 5.34v7.006c0 .425.2.623.628.623h1.568v1.581h-2.339c-1.226 0-1.71-.537-1.71-1.553v-.255c0-.339.028-.621.056-.82.029-.112.029-.197.029-.281h-.057a5.565 5.565 0 0 1-1.083 1.61c-.77.819-1.968 1.638-3.822 1.638-2.367 0-4.792-1.327-4.792-4.238 0-4.605 6.217-4.803 8.642-4.803M171.516 26.43h2.424V16.005c0-.423-.2-.621-.628-.621h-1.939V13.8h2.738c1.17 0 1.74.538 1.74 1.583v.82c0 .31-.03.507-.057.705l-.057.311h.057c.741-1.921 3.022-3.758 5.332-3.758 2.624 0 3.936 1.215 4.364 3.617h.057c.827-1.865 2.852-3.617 5.305-3.617 3.45 0 4.733 1.978 4.733 5.51v7.46h2.425v1.581h-4.364v-8.56c0-2.317-.485-4.239-3.08-4.239-2.909 0-4.82 3.051-4.82 5.99v5.228h2.424v1.581h-4.362v-8.56c0-2.176-.286-4.239-3.024-4.239-2.937 0-4.905 3.08-4.905 6.047v5.17h2.424v1.582h-6.787v-1.581z"/><g transform="translate(199.151 13.105)"><mask id="b" fill="#fff"><use xlink:href="#a"/></mask><path d="M9.495 13.523c2.537 0 4.648-2.091 4.648-5.708 0-3.475-1.91-5.707-4.562-5.707-2.396 0-4.62 1.695-4.62 5.736 0 2.853 1.596 5.679 4.534 5.679zM3.05 18.976V2.899c0-.424-.2-.622-.628-.622H.484V.695h2.708c1.226 0 1.711.509 1.711 1.497v.114c0 .31 0 .508-.029.706l-.056.282h.056c.258-.537.6-1.045 1.056-1.47C6.7 1.063 7.955.357 9.894.357c3.879 0 6.246 3.05 6.246 7.46 0 4.52-2.709 7.43-6.445 7.43-1.712 0-2.881-.706-3.65-1.412-.429-.424-.8-.877-1.085-1.414h-.057l.057.34c.029.226.029.537.029.904v5.312h2.424v1.582H.626v-1.582H3.05z" fill="#FFF" mask="url(#b)"/></g><g fill="#00AD68"><path d="M.853 19.97a.789.789 0 0 1-.792-.851 19.94 19.94 0 0 1 1.167-5.242A20.087 20.087 0 0 1 3.67 9.246a.799.799 0 0 1 1.105-.193c.359.249.446.74.194 1.095a18.383 18.383 0 0 0-3.327 9.102.79.79 0 0 1-.79.72M6.513 7.722a.795.795 0 0 1-.568-.237.78.78 0 0 1 .014-1.11 20.329 20.329 0 0 1 6.418-4.205A20.43 20.43 0 0 1 20.196.63c2.069 0 4.11.307 6.068.91.418.13.652.57.522.985a.794.794 0 0 1-.994.517 18.948 18.948 0 0 0-5.596-.84A18.83 18.83 0 0 0 7.067 7.5a.795.795 0 0 1-.554.223M9.14 37.63a.795.795 0 0 1-.448-.137 20.484 20.484 0 0 1-3.197-2.685 20.3 20.3 0 0 1-2.58-3.276 19.951 19.951 0 0 1-2.908-7.927.788.788 0 0 1 .678-.887.792.792 0 0 1 .894.672 18.409 18.409 0 0 0 2.68 7.307 18.761 18.761 0 0 0 5.33 5.5.781.781 0 0 1 .206 1.092.797.797 0 0 1-.656.341M38.65 14.623a.793.793 0 0 1-.74-.503 18.743 18.743 0 0 0-8.436-9.59.782.782 0 0 1-.309-1.07.797.797 0 0 1 1.079-.305c4.18 2.298 7.428 5.99 9.145 10.399a.784.784 0 0 1-.454 1.016.8.8 0 0 1-.286.053M34.211 34.993c-.2 0-.4-.074-.554-.224a.78.78 0 0 1-.013-1.11 18.552 18.552 0 0 0 3.914-5.865 18.36 18.36 0 0 0 1.432-7.143c0-.858-.06-1.722-.177-2.567a.787.787 0 0 1 .677-.886.792.792 0 0 1 .894.672c.128.916.192 1.852.192 2.78 0 2.684-.522 5.29-1.554 7.747a20.11 20.11 0 0 1-4.243 6.36.795.795 0 0 1-.568.236M20.37 40.843c-2.529 0-4.997-.454-7.337-1.348a.783.783 0 0 1-.454-1.017.795.795 0 0 1 1.025-.45 18.877 18.877 0 0 0 6.766 1.244c1.62 0 3.228-.205 4.78-.608 1.506-.391 2.96-.97 4.324-1.72a.796.796 0 0 1 1.078.306.782.782 0 0 1-.309 1.069 20.387 20.387 0 0 1-4.69 1.865 20.636 20.636 0 0 1-5.183.66M17.498 36.385a.843.843 0 0 1-.162-.016 16.04 16.04 0 0 1-5.876-2.502 16.03 16.03 0 0 1-4.38-4.486.783.783 0 0 1 .237-1.086.798.798 0 0 1 1.096.234 14.456 14.456 0 0 0 3.95 4.046 14.45 14.45 0 0 0 5.295 2.255.786.786 0 0 1 .616.93.792.792 0 0 1-.776.625M21.5 36.656a.79.79 0 0 1-.789-.725.788.788 0 0 1 .729-.845 14.583 14.583 0 0 0 6.985-2.426 14.53 14.53 0 0 0 4.803-5.38.797.797 0 0 1 1.067-.343c.39.198.544.671.345 1.057a16.11 16.11 0 0 1-8.97 7.795 16.202 16.202 0 0 1-4.17.867M35.526 24.283a.786.786 0 0 1-.78-.928 14.407 14.407 0 0 0-.173-6.037 14.25 14.25 0 0 0-1.172-3.123.783.783 0 0 1 .346-1.058.797.797 0 0 1 1.067.342 15.793 15.793 0 0 1 1.758 7.258c0 .974-.09 1.95-.266 2.902a.792.792 0 0 1-.78.644M30.972 10.482a.796.796 0 0 1-.544-.214 14.498 14.498 0 0 0-7.494-3.717.787.787 0 0 1-.647-.907.792.792 0 0 1 .916-.642 16.088 16.088 0 0 1 8.314 4.123.78.78 0 0 1 .032 1.111.795.795 0 0 1-.577.246"/><path d="M13.32 7.998a.795.795 0 0 1-.708-.428.783.783 0 0 1 .346-1.058 16.08 16.08 0 0 1 5.861-1.676c.436-.04.821.28.86.712a.788.788 0 0 1-.718.853c-1.852.166-3.63.674-5.282 1.51a.792.792 0 0 1-.36.087M5.588 25.836a.793.793 0 0 1-.76-.563 15.85 15.85 0 0 1-.66-4.536A15.82 15.82 0 0 1 8.563 9.779a.798.798 0 0 1 1.121-.032.78.78 0 0 1 .033 1.11 14.265 14.265 0 0 0-3.963 9.88c0 1.392.2 2.768.595 4.09a.784.784 0 0 1-.76 1.009M20.283 32.563c-1.759 0-3.453-.37-5.036-1.101a.782.782 0 0 1-.384-1.044.796.796 0 0 1 1.054-.381c1.372.633 2.84.954 4.366.954 1.82 0 3.609-.474 5.174-1.371a.798.798 0 0 1 1.084.286.782.782 0 0 1-.29 1.074 12.016 12.016 0 0 1-5.968 1.583M29.858 27.171a.8.8 0 0 1-.406-.11.782.782 0 0 1-.274-1.078 10.17 10.17 0 0 0 1.374-6.53.787.787 0 0 1 .69-.876.792.792 0 0 1 .884.683 11.734 11.734 0 0 1-1.586 7.528.795.795 0 0 1-.682.383M29.34 15.77a10.353 10.353 0 0 0-9.057-5.287c-.432 0-.868.026-1.295.08a.79.79 0 0 1-.885-.683.787.787 0 0 1 .69-.877 12 12 0 0 1 7.636 1.594 11.93 11.93 0 0 1 4.298 4.41.782.782 0 0 1-.308 1.07.794.794 0 0 1-1.078-.306zM10.63 16.003a.792.792 0 0 1-.396-.106.782.782 0 0 1-.29-1.074 11.947 11.947 0 0 1 4.37-4.33.797.797 0 0 1 1.084.287c.22.376.09.857-.29 1.074-1.57.9-2.881 2.2-3.79 3.756a.794.794 0 0 1-.688.393M12.1 29.016a.797.797 0 0 1-.583-.252 11.73 11.73 0 0 1-3.053-9.69.792.792 0 0 1 .896-.668c.434.06.736.458.675.888a10.17 10.17 0 0 0 2.647 8.403.781.781 0 0 1-.044 1.11.796.796 0 0 1-.538.21M14.811 17.549a.8.8 0 0 1-.702-.1.782.782 0 0 1-.2-1.094 7.687 7.687 0 0 1 3.929-2.912 7.904 7.904 0 0 1 1.52-.339.792.792 0 0 1 .883.686.787.787 0 0 1-.693.874c-.409.05-.816.14-1.21.27a6.112 6.112 0 0 0-3.125 2.316.79.79 0 0 1-.402.299M27.45 20.66a.792.792 0 0 1-1.038-.651 6.091 6.091 0 0 0-.273-1.2 6.065 6.065 0 0 0-2.338-3.096.782.782 0 0 1-.2-1.094.798.798 0 0 1 1.103-.198 7.63 7.63 0 0 1 2.941 3.893c.164.49.28.998.341 1.506a.786.786 0 0 1-.536.84M22.728 28.03a7.904 7.904 0 0 1-1.52.34.792.792 0 0 1-.883-.686.787.787 0 0 1 .692-.875c.41-.049.817-.14 1.211-.27a6.11 6.11 0 0 0 3.125-2.316.798.798 0 0 1 1.104-.199c.36.247.45.737.2 1.094a7.685 7.685 0 0 1-3.929 2.913M16.563 27.152a.8.8 0 0 1-.702-.1 7.634 7.634 0 0 1-2.94-3.892 7.709 7.709 0 0 1-.342-1.507.788.788 0 0 1 .692-.874.79.79 0 0 1 .883.686 6.12 6.12 0 0 0 2.61 4.295.782.782 0 0 1-.2 1.392M20.283 17.977c-1.539 0-2.786 1.235-2.786 2.76 0 1.524 1.247 2.76 2.786 2.76 1.538 0 2.785-1.236 2.785-2.76 0-1.525-1.247-2.76-2.785-2.76m0 1.571c.66 0 1.2.534 1.2 1.189s-.54 1.188-1.2 1.188c-.661 0-1.2-.533-1.2-1.188 0-.655.539-1.189 1.2-1.189"/></g></g></svg>