<svg xmlns="http://www.w3.org/2000/svg" width="168" height="36" viewBox="0 0 168 36"><g fill="#3D3B48" fill-rule="evenodd" opacity=".6"><path d="M128.878 14.048c-1.38 0-1.538 1.318-1.538 1.789v2.29h3.109v-2.29c0-1.068-.536-1.79-1.57-1.79m-56.367.001c-1.382 0-1.538 1.318-1.538 1.789v2.29h3.108v-2.29c0-1.068-.536-1.79-1.57-1.79m-56.869-1.192v-.753c0-1.946-1.003-2.418-2.227-2.418H11.75v5.776h1.79c1.662 0 2.102-1.035 2.102-2.605m-2.259 5.712h-1.632v7.03h1.569c1.696 0 2.48-.47 2.606-2.197.031-.376.031-1.003.031-1.38 0-.378 0-.847-.03-1.225-.095-1.538-.817-2.228-2.544-2.228"/><path d="M158.72 28.736h-2.568l-3.327-8.757v8.757h-3.892V6.106h3.892v11.865l3.262-6.497h4.301l-1.668 3.07-2.255 4.15 2.255 5.425 1.919 4.617h-1.92zm-11.858-7.785h-6.938v3.045c0 .753.097 2.197 1.57 2.197 1.1 0 1.538-.877 1.538-1.976v-1.664h3.83v1.82c0 3.735-2.794 4.708-5.273 4.708-1.568 0-2.668-.313-3.641-.973-1.254-.849-1.853-2.26-1.853-4.269v-7.5c0-2.166.755-3.39 1.853-4.144 1.069-.752 2.385-1.035 3.58-1.035 1.567 0 3.104.44 4.14 1.476.943.941 1.194 2.448 1.194 3.39v4.925zm-12.585 0h-6.937v3.045c0 .753.095 2.197 1.57 2.197 1.097 0 1.538-.877 1.538-1.976v-1.664h3.829v1.82c0 3.735-2.794 4.708-5.273 4.708-1.57 0-2.668-.313-3.64-.973-1.255-.849-1.853-2.26-1.853-4.269v-7.5c0-2.166.754-3.39 1.853-4.144 1.068-.752 2.385-1.035 3.578-1.035 1.566 0 3.106.44 4.143 1.476.941.941 1.192 2.448 1.192 3.39v4.925zm-14.658 7.785h-4.394l-2.196-15.034-2.415 15.034h-4.396l-3.797-22.157h4.112l2.101 16.445 2.449-16.445h3.735l2.447 16.445 2.103-16.445h4.049l-3.798 22.157zm-17.291-4.268c0 2.76-2.133 4.613-5.555 4.613-2.67 0-5.212-.817-5.212-4.552v-1.976h3.83v1.82c0 1.005.438 1.82 1.537 1.82s1.507-.91 1.507-1.57c0-.627-.094-1.505-1.098-2.133l-3.42-2.071c-1.349-.816-2.324-2.229-2.324-3.954v-.786c0-2.573 2.01-4.52 5.524-4.52 2.668 0 5.118 1.068 5.118 4.583v1.884h-3.83v-1.79c0-.942-.347-1.789-1.445-1.789-1.13 0-1.505.943-1.505 1.6 0 .66.123 1.476 1.097 2.073l3.326 2.04c1.38.879 2.45 2.103 2.45 3.954v.754zm-12.02 0c0 2.76-2.135 4.613-5.557 4.613-2.668 0-5.209-.817-5.209-4.552v-1.976h3.827v1.82c0 1.005.441 1.82 1.54 1.82 1.097 0 1.506-.91 1.506-1.57 0-.627-.093-1.505-1.099-2.133l-3.422-2.071c-1.348-.816-2.321-2.229-2.321-3.954v-.786c0-2.573 2.007-4.52 5.523-4.52 2.669 0 5.117 1.068 5.117 4.583v1.884h-3.829v-1.79c0-.942-.345-1.789-1.442-1.789-1.132 0-1.508.943-1.508 1.6 0 .66.126 1.476 1.098 2.073l3.327 2.04c1.38.879 2.448 2.103 2.448 3.954v.754zm-12.4-3.518h-6.935v3.045c0 .753.093 2.197 1.568 2.197 1.099 0 1.54-.877 1.54-1.976v-1.664h3.827v1.82c0 3.735-2.793 4.708-5.272 4.708-1.57 0-2.667-.313-3.64-.973-1.256-.849-1.853-2.26-1.853-4.269v-7.5c0-2.166.754-3.39 1.853-4.144 1.067-.752 2.384-1.035 3.578-1.035 1.569 0 3.107.44 4.143 1.476.94.941 1.191 2.448 1.191 3.39v4.925zm-12.9 7.785h-3.952V16.84c0-.941-.096-2.198-1.445-2.198-1.695 0-1.695 1.664-1.695 2.449v11.644h-3.922V11.474h3.955v1.475c.815-.785 1.756-1.757 3.514-1.757 2.48 0 3.546 1.631 3.546 4.018v13.526zM47.56 9.873h3.924V6.108H47.56v3.766zm0 18.863h3.924V11.474H47.56v17.262zm-1.787-4.268c0 2.76-2.134 4.613-5.556 4.613-2.668 0-5.21-.817-5.21-4.552v-1.976h3.83v1.82c0 1.005.44 1.82 1.538 1.82 1.097 0 1.506-.91 1.506-1.57 0-.627-.095-1.505-1.1-2.133l-3.42-2.071c-1.349-.816-2.322-2.229-2.322-3.954v-.786c0-2.573 2.009-4.52 5.523-4.52 2.668 0 5.117 1.068 5.117 4.583v1.884h-3.83v-1.79c0-.942-.344-1.789-1.443-1.789-1.13 0-1.506.943-1.506 1.6 0 .66.125 1.476 1.097 2.073l3.328 2.04c1.38.879 2.448 2.103 2.448 3.954v.754zm-12.68 4.268H29.14v-1.477c-.817.787-1.758 1.76-3.516 1.76-2.48 0-3.546-1.634-3.546-4.018V11.474h3.955v11.895c0 .942.094 2.197 1.444 2.197 1.694 0 1.694-1.663 1.694-2.448V11.474h3.923v17.262zm-13.088-4.93c-.156 2.418-.972 4.93-5.554 4.93H7.765V6.579h6.686c4.08 0 5.336 2.165 5.336 5.145v.723c0 3.232-1.665 4.018-3.171 4.425 2.543.503 3.296 2.134 3.39 4.174.032.408.032.973.032 1.287 0 .346 0 1.036-.033 1.474zM158.72 0H0v35.186h167.142V0h-8.422z"/><path d="M141.463 14.048c-1.382 0-1.538 1.318-1.538 1.789v2.29h3.107v-2.29c0-1.068-.532-1.79-1.569-1.79"/></g></svg>