<svg xmlns="http://www.w3.org/2000/svg" xmlns:xlink="http://www.w3.org/1999/xlink" width="142" height="77" viewBox="0 0 142 77"><defs><linearGradient id="a" x1="100%" x2="0%" y1="0%" y2="100%"><stop offset="0%" stop-color="#FFEAC9"/><stop offset="100%" stop-color="#FDD198"/></linearGradient><path id="b" d="M70.867.653c.283 0 .513.23.513.514a5.111 5.111 0 0 0 5.106 5.104.515.515 0 0 1 0 1.028 5.111 5.111 0 0 0-5.106 5.105c0 4.143 3.371 7.512 7.515 7.512 4.143 0 7.514-3.37 7.514-7.512a.515.515 0 0 1 1.028 0c0 4.143 3.371 7.512 7.514 7.512a.515.515 0 0 1 0 1.029c-4.132 0-7.502 3.36-7.513 7.491l-.002.038.002 12.505H54.296V28.435c-.011-4.13-3.383-7.49-7.515-7.49a.515.515 0 0 1 0-1.029c4.144 0 7.515-3.37 7.515-7.512a.515.515 0 0 1 1.028 0c0 4.143 3.37 7.512 7.515 7.512 4.142 0 7.513-3.37 7.513-7.512A5.11 5.11 0 0 0 65.247 7.3a.514.514 0 0 1 0-1.028 5.11 5.11 0 0 0 5.105-5.104c0-.283.23-.514.515-.514zm.513 27.82c.025 4.146 3.383 7.492 7.508 7.496 4.153-.004 7.521-3.373 7.521-7.512v-.022c-.011-4.13-3.382-7.49-7.514-7.49s-7.503 3.36-7.514 7.491l-.001.037zm-16.056-.011c.002 4.136 3.369 7.503 7.506 7.507 4.155-.004 7.522-3.373 7.522-7.512v-.022c-.011-4.13-3.382-7.49-7.513-7.49-4.133 0-7.504 3.36-7.515 7.491v.026z"/></defs><g fill="none" fill-rule="evenodd"><path fill="#FFF" d="M87.54 58.176l3.65 10.408h-7.667l4.018-10.408zm-.21-1.776c-.038.112-7.864 20.032-7.864 20.032h1.028l2.553-6.612h8.579l2.319 6.612h2.554L89.454 56.4H87.33zM34.783 76.031c-4.547 0-8.232-3.53-8.232-9.622 0-5.979 3.685-9.623 8.232-9.623 4.547 0 8.232 3.57 8.232 9.623 0 6.24-3.685 9.622-8.232 9.622m-.016-20.07c-6.092 0-11.03 3.956-11.03 10.446 0 6.615 4.938 10.447 11.03 10.447 6.093 0 11.03-3.671 11.03-10.447 0-6.57-4.937-10.446-11.03-10.446m29.684 11.524s-5.286-9.77-5.912-11.084h-2.643l6.53 11.92v8.112h2.652l.028-8.362 6.558-11.67h-1.111L64.45 67.485zm46.408-11.083h-2.707v20.031h10.627V75.6h-7.947zM4.458 65.93H2.624v-8.75h2.501c.796 0 1.435.009 1.918.083.481.074.981.26 1.5.556 1.26.722 1.89 1.936 1.89 3.64 0 2.185-1.167 3.592-3.501 4.222-.612.167-1.436.25-2.474.25m6.897-1.072c1.153-.91 1.73-2.155 1.73-3.734 0-.74-.14-1.421-.417-2.043-.278-.62-.593-1.078-.945-1.375-.649-.536-1.297-.889-1.945-1.055-.649-.167-1.64-.25-2.974-.25H0v20.03h2.624v-9.75l2.827-.005 5.413 9.756h2.898L8.184 66.385c1.222-.315 2.28-.822 3.171-1.526m127.467 1.455l-3.14-1.696c-1.051-.538-1.827-1.077-2.325-1.615-.444-.48-.689-1.131-.737-1.95-.097-1.3.438-2.303 1.338-3.01.898-.705 2.004-1.058 3.32-1.058 1.038 0 2.177.231 3.419.694l.083-.666c-1.39-.649-2.752-.973-4.086-.973-1.796 0-3.274.514-4.432 1.543-1.158 1.027-1.721 2.292-1.737 3.791-.012 1.092.181 1.94.533 2.671.352.732.87 1.32 1.556 1.765.68.496 5.53 3.298 5.53 3.298.444.265.746.52.903.76.156.237.688.927.699 2.085-.03.874-.3 1.614-.814 2.216-.547.64-1.182 1.084-1.904 1.334a6.85 6.85 0 0 1-2.251.374c-1.334 0-2.696-.389-4.085-1.167v.806c1.445.853 2.835 1.278 4.169 1.278 1.555 0 2.892-.266 3.974-.861 2.393-1.318 3.085-3.254 3.057-4.945-.035-2.01-1.024-3.568-3.07-4.674"/><use fill="url(#a)" xlink:href="#b"/></g></svg>