<svg xmlns="http://www.w3.org/2000/svg" xmlns:xlink="http://www.w3.org/1999/xlink" width="246" height="35" viewBox="0 0 246 35"><defs><path id="a" d="M11.116.023V18.53H.03V.023h11.086z"/><path id="c" d="M.264 32.656h19.494V.105H.264z"/></defs><g fill="none" fill-rule="evenodd" opacity=".6"><path fill="#3D3B48" d="M191.27 6.343l2.935-2.69 2.386 2.65-2.95 2.676zM7.027 19.514V10.24L4.24 11.486s-.71 1.59-.586 3.902c.097 1.807 1.107 3.966 1.88 4.87l1.493-.744zM15.186.417c.687.06 1.766.4 2.58 1.117.863.836 1.059 2.11.757 3.267-.27 1.034-.571 1.569-1.623 2.282-1.063.72-2.348.66-2.348.66v4.467l2.173 1.762-2.173 1.754v6.093s2.177-1.254 3.527-4.047c0 0 .055-.152.182-.443.12.752.052 2.268-.795 4.215-.637 1.464-1.798 2.878-3.253 3.684-2.579 1.426-4.512 1.564-6.586 1.135C5.2 25.862 2.995 24.5 1.49 22.115.432 20.44-.04 18.491.003 16.388c.085-4.122 3.148-7.673 6.683-9.002.43-.162.6-.27 1.212-.32-.282.189-.607.436-1.006.699-1.138.751-2.114 2.242-2.53 3.391l6.862-3.064v9.604L5.69 20.469c.63.88 2.546 2.204 4.185 2.387 2.788.311 4.424-.91 4.424-.91v-6.22l-2.161-1.754 2.161-1.755V7.742c-1.179-.137-2.61-.529-3.446-.734-1.231-.304-5.335-1.456-5.979-1.551-.645-.097-1.44-.07-1.922.364-.48.433-.779 1.196-.574 1.884.117.39.384.62.586.84 0 0-.236-.02-.666-.277C1.523 7.805.934 6.89.863 5.768.773 4.3 1.377 2.973 2.59 2.08c1.054-.674 2.244-1.11 3.63-.913 2.02.287 4.737 1.433 7.158 2.015.937.225 1.663.3 2.322-.082.306-.222.847-.795.406-1.555-.515-.888-1.503-.867-2.34-1.027.72-.149.878-.149 1.42-.1zm26.703 16.681l-3.118 2.285V11.78l3.118 5.319zm-.09-7.31s-2.103 1.277-3.516 2.119c-1.413.84-3.31 1.769-3.31 1.769v8.851l-1.264 1.014.168.199 1.233-1 3.867 3.5 6.72-5.327-.159-.196-3.714 2.92-3.053-2.864v-1.065l6.132-4.516L41.8 9.788zM24.184 29.569c.883.216 2.439.339 4.316-.603 2.078-1.041 3.123-3.252 3.109-5.516l.087-3.21.002-7.017 1.328-1.014-.155-.201-1.308.99-3.017-3.359-3.87 3.325V1.655L19.839 5.4c.215.138.9.262.921 1.23v15.841l-2.047 1.52.139.21.99-.737 2.753 2.566 4.335-3.456-.156-.198-1.02.81-1.078-1.071.01-8.824 1.263-1.08 1.884 2.345s-.004 5.711.001 7.609c-.014 2.022-.02 4.547-1.082 5.768-1.062 1.22-1.487 1.316-2.568 1.636m30.089-.797c-1.73-.2-2.459-1.25-2.44-2.079.013-.534.495-1.573 1.548-1.717 1.053-.143 2.129.35 3.038 1.42l4-4.426-.193-.174L59.151 23c-1.09-1.243-2.64-2.026-4.183-2.254V7.261l10.391 18.952s.1.215.527.216c.368.002.28-.301.28-.301l-.002-19.07c.844-.033 2.133-.5 2.76-1.143 2-2.057 1.182-4.3.963-4.522-.122.984-.876 1.97-2.134 1.974-1.65.005-2.656-1.214-2.656-1.214L61.1 6.714l.19.173 1.145-1.307c1.399 1.286 2.42 1.41 3.476 1.479v11.065l-7.709-14.02c-.697-1.157-1.76-2.176-3.426-2.187-1.914-.014-3.285 1.676-3.449 3.132-.185 1.646.02 2.025.02 2.025s.282-1.833 1.414-1.816c1.015.015 1.545.951 1.952 1.652v4.062c-1.048.075-3.777.192-3.943 3.035-.012 1.056.643 2.165 1.217 2.542.739.484 1.315.473 1.315.473s-.885-.47-.62-1.402c.238-.833 1.97-.97 2.033-.623v5.732c-.834-.008-3.505.08-4.709 2.374-.725 1.382-.683 2.932.093 4.025.632.89 1.934 2.028 4.174 1.644M76.31 17.098l-3.118 2.285V11.78l3.118 5.319zm-.09-7.31s-2.103 1.277-3.516 2.119c-1.414.84-3.31 1.769-3.31 1.769v8.851l-1.265 1.014.168.199 1.234-1 3.867 3.5 6.72-5.327-.16-.196-3.713 2.92-3.053-2.864v-1.065l6.132-4.516-3.104-5.404zm9.394 16.518l-3.295-2.737-1.447 1.049-.147-.207 1.472-1.076v-7.664c.07-3.154-2.887-2.371-2.727-5.72.071-1.47 1.494-2.583 2.212-2.95.769-.394 1.6-.392 1.6-.392s-1.349.845-1.02 2.06c.504 1.871 3.699 2.036 3.76 4.529v8.695l2.36 1.893.62-.488v-9.413l-1.273-1.265 3.276-2.9 2.993 2.657-1.142 1.238v8.34l2.802 2.313.498-.315V13.912l-1.274-1.195 3.282-3.002 3.069 2.537 1.225-1.084.166.192-2.759 2.424v8.183l-7.059 4.36-3.61-2.863-3.582 2.842zm144.491-9.208l-3.116 2.285V11.78l3.116 5.319zm-.088-7.31s-2.104 1.277-3.517 2.119c-1.414.84-3.31 1.769-3.31 1.769v8.851l-1.266 1.014.169.199 1.234-1 3.866 3.5 6.722-5.327-.16-.196-3.715 2.92-3.051-2.864v-1.065l6.13-4.516-3.102-5.404zm-31.552 3.705l.165.191 1.266-1.09 1.878 2.124v7.319l-.91.83 2.926 3.316 3.003-2.966-1.235-1.277v-8.849l.748-.597 2.078 2.43v7.29l-.781.783 2.755 3.103 2.949-2.952-1.083-1.14-.028-8.882.796-.645 2.166 2.388v7.25l-.713.713 3.044 3.323 4.087-3.776-.173-.187-.993.915-1.522-1.689V13.14l1.47-1.12-.154-.2-1.47 1.118-2.78-3.12-3.978 3.144-2.783-3.034-3.84 3.006-2.81-2.993z"/><path fill="#3D3B48" d="M190.146 13.263l.164.191 1.07-.922 1.672 1.98v8.362l-1.18 1.03.166.195 1.238-1.06 2.697 3.116 3.899-3.484-.164-.19-1.148 1.011-1.612-1.86v-8.176l1.359-1.178-.164-.194-1.292 1.113-2.838-3.311z"/><path fill="#3D3B48" d="M179.164 19.514V10.24l-2.786 1.247s-.71 1.59-.587 3.902c.098 1.807 1.107 3.966 1.882 4.87l1.49-.744zm8.16-19.097c.686.06 1.766.4 2.579 1.117.863.836 1.06 2.11.757 3.267-.269 1.034-.571 1.569-1.623 2.282-1.062.72-2.348.66-2.348.66v4.467l2.173 1.762-2.173 1.754.001 6.093s2.176-1.254 3.527-4.047c0 0 .054-.152.181-.443.12.752.051 2.268-.795 4.215-.637 1.464-1.798 2.878-3.253 3.684-2.578 1.426-4.512 1.564-6.585 1.135-2.428-.501-4.633-1.864-6.138-4.248-1.057-1.675-1.53-3.624-1.487-5.727.085-4.122 3.148-7.673 6.683-9.002.43-.162.601-.27 1.213-.32-.282.189-.608.436-1.007.699-1.138.751-2.114 2.242-2.53 3.391l6.862-3.064v9.604l-5.534 2.773c.631.88 2.546 2.204 4.185 2.387 2.788.311 4.424-.91 4.424-.91v-6.22l-2.161-1.754 2.161-1.755V7.742c-1.178-.137-2.61-.529-3.446-.734-1.23-.304-5.335-1.456-5.979-1.551-.645-.097-1.44-.07-1.921.364-.48.433-.78 1.196-.575 1.884.117.39.384.62.586.84 0 0-.236-.02-.666-.277-.775-.463-1.364-1.378-1.435-2.5-.09-1.468.515-2.795 1.727-3.688 1.054-.674 2.245-1.11 3.63-.913 2.021.287 4.738 1.433 7.159 2.015.937.225 1.663.3 2.321-.082.307-.222.848-.795.407-1.555-.516-.888-1.503-.867-2.34-1.027.72-.149.877-.149 1.42-.1z"/><g transform="translate(234.531 8.876)"><mask id="b" fill="#fff"><use xlink:href="#a"/></mask><path fill="#3D3B48" d="M4.232 2.624v4.394l1.46 1.277s3.175-2.548 4.326-4.902c0 0-1.426 1.936-3.345 1.346-1.609-.495-2.441-2.115-2.441-2.115M.686 14.274s1.39-2.301 3.778-1.806c2.291.476 3.086 2.897 3.086 2.897V9.79L5.952 8.398c-1.754 1.764-4.878 4.321-5.266 5.876m2.277 4.236c-.445.13-2.381-.34-2.846-2.348-.452-1.957.905-3.282 2.956-5.369l-2.42-2.21V4.354s1.778-.89 3.172-1.763c1.394-.873 2.82-1.82 2.82-1.82s1.04 1.314 2.214 1.211C10.7 1.821 10.615.366 10.563.022c.312.563 1.154 2.233-2.08 5.966l2.633 2.128v5.492S8.058 15.2 5.164 17.315c0 0-1.615-2.024-3.017-1.057-.946.651-.514 1.757.816 2.252" mask="url(#b)"/></g><path fill="#3D3B48" d="M131.655 21.137l3.401 3.083v-9.426l-3.401-3.152v9.495zm7.012-7.697l1.185-1.093.172.192-1.156 1.074v8.732s-2.194 1.167-3.724 2.032c-1.53.865-3.165 1.878-3.165 1.878l-4.026-3.391-1.063.926-.172-.196 1.119-.971v-9.394h.015s1.899-.858 3.5-1.763c1.431-.81 3.034-1.747 3.034-1.747l4.281 3.72zm7.913-.881l2.556-2.617s.353.307.68.47c.188.093.961.49 1.672.1.384-.212.438-.267.861-.669.086 2.035-.888 3.469-2.105 4.06-.498.241-1.95.708-3.473-1.15v9.4l1.618 1.43 1.35-1.119.157.195-4.232 3.535-3.217-2.931-1.158 1.094-.19-.202 1.764-1.594.015-8.115-1.353-1.794-1.163 1.028-.168-.189 4.097-3.687 2.288 2.755zm10.779 3.914l4.726-6.888s.622.743 1.708 1.028c1.476.387 2.765-1.042 2.765-1.042-.246 1.84-1.178 3.933-3.103 4.252-1.696.28-3.273-1.038-3.273-1.038l-.307.473 6.562 9.922 1.313-1.15.169.191-4.502 3.938-6.058-9.686z"/><path fill="#3D3B48" d="M153.453 7.28c0-1.483-.607-2.403-1.403-2.334l5.156-3.625v20.52l1.362 1.437 1.03-.896.163.191-4.153 3.633-2.816-2.643-1.126.988-.178-.191 1.965-1.714V7.279z"/><g transform="translate(106.393 2.268)"><mask id="d" fill="#fff"><use xlink:href="#c"/></mask><path fill="#3D3B48" d="M13.956 10.782s-.568.65-1.465.65c-.896 0-1.483-.653-1.483-.653v2.81s.587-.652 1.483-.652c.897 0 1.465.618 1.465.618v-2.773zm0-6.023l-1.988-1.75-.96.762v6.59s.592.749 1.488.749c.897 0 1.46-.722 1.46-.722v-5.63zm-2.948 18.669s1.203.32 2.078-.402c.974-.803.87-1.93.87-1.93v-7.108s-.563-.729-1.46-.729c-.896 0-1.488.753-1.488.753v9.416zM3.96 4.675c0-1.384-.563-2.16-1.474-2.18-1.31-.029-1.62 1.821-1.62 1.821s-.238-1.424.953-2.718C2.489.869 3.74-.142 5.695.328c2.02.486 2.593 2.056 2.593 3.443v19.092s.764.092 1.288.204c.606.13 1.182.292 1.182.292V.338h.25V3.44L15.15.105l3.032 2.698 1.414-1.225.162.193-1.478 1.277v17.75c-.074 1.16-.26 2.335-1.353 3.012-2.435 1.447-5.375-.219-7.994-.602-1.942-.285-4.993-.656-5.76 1.131-.25.586-.233 1.493.649 2.083 1.77 1.183 9.647-1.988 12.348-.728 2.464 1.149 2.455 2.964 2.074 4.21-.64 2.341-3.592 2.752-3.592 2.752s1.444-.836 1.032-2.228c-.209-.704-.685-.901-2.23-.727-3.378.38-7.413 2.02-10.126.885C1.93 30 .942 28.253 1.038 26.535c.07-2.472 2.922-3.45 2.922-3.45v-9.151c-.083-.36-1.605-.264-1.937.405-.506 1.019.63 1.484.63 1.484s-.942.14-1.732-.772c-.383-.441-1.185-2-.142-3.444.858-1.186 1.885-1.393 3.181-1.537V4.675z" mask="url(#d)"/></g></g></svg>