<svg width="129" height="43" viewBox="0 0 129 43" xmlns="http://www.w3.org/2000/svg"><title>Group 4@1x</title><g fill="#63626F" fill-rule="evenodd"><path d="M36.074 18.92c-.584.203-1.194.386-1.803.513-.714.15-1.454.23-2.206.23-2.43 0-4.331-.828-4.643-2.801h10.365c.077-.379.213-1.296.213-2.261C38 10.117 35.823 6 30.269 6 24.873 6 22 10.336 22 15.195 22 20.796 25.821 24 31.156 24c1.359 0 2.352-.125 3.171-.295a12.627 12.627 0 0 0 2.582-.83l-.835-3.956zm-5.9-8.897c2.054 0 2.675 1.923 2.675 2.98h-5.537c0-1.497 1.014-2.98 2.862-2.98zM118.073 18.92c-.584.203-1.193.386-1.802.513-.715.15-1.454.23-2.206.23-2.43 0-4.331-.828-4.642-2.801h10.364c.077-.379.213-1.296.213-2.261C120 10.117 117.822 6 112.269 6 106.872 6 104 10.336 104 15.195c0 5.601 3.82 8.805 9.156 8.805 1.358 0 2.351-.125 3.172-.295a12.63 12.63 0 0 0 2.58-.83l-.835-3.956zm-5.899-8.897c2.054 0 2.675 1.923 2.675 2.98h-5.537c0-1.497 1.014-2.98 2.862-2.98zM41 23h6V0h-6zM57.925 24C62.435 24 67 21.165 67 14.834 67 11.064 64.763 6 58.208 6 51.461 6 49 10.907 49 15.12 49 20.41 52.679 24 57.925 24zm.078-4.279c-1.878 0-3.11-1.852-3.11-4.718 0-2.282.826-4.719 3.13-4.719 2.223 0 3.012 2.526 3.012 4.694 0 2.879-1.2 4.743-3.032 4.743zM70 23h6V6h-6zM70 4h6V0h-6zM80.193 1.638v4.705H78v4.287h2.193v7.087c0 3.898 1.759 6.283 5.773 6.283.752 0 1.602-.078 2.385-.197.725-.11 1.367-.244 1.649-.337.004-.004-.042-4.519-.042-4.535-.184.064-1.478.284-1.951.284-.46 0-1.141-.058-1.629-.564-.348-.36-.597-.947-.597-1.901v-6.12h3.69V6.343h-3.69V1l-5.588.638M93.193 1.638v4.705H91v4.287h2.193v7.087c0 3.898 1.759 6.283 5.773 6.283.753 0 1.602-.078 2.384-.197.725-.11 1.368-.244 1.65-.337.004-.004-.042-4.519-.042-4.535-.184.064-1.477.284-1.951.284-.46 0-1.14-.058-1.628-.564-.348-.36-.597-.947-.597-1.901v-6.12h3.688V6.343h-3.688V1l-5.589.638M123 21a3 3 0 1 1 6 0 3 3 0 0 1-6 0M8.111 18.497c-.232.02-.583.028-.807.028H5.525c.003-.002 0-13.892 0-13.892a24.496 24.496 0 0 1 1.919-.09c3.26 0 6.733 2.103 6.733 6.963 0 5.07-3.264 6.76-6.066 6.991zM0 23h6.346c.429 0 .949-.01 1.356-.031C16.386 22.523 20 17.409 20 11.506 20 4.13 15 0 6.37 0A73.51 73.51 0 0 0 0 .258V23zM2.496 40v-7.164H.084v-.996h5.904v.996H3.576V40h-1.08zm6.633.144c-1.74 0-2.688-.924-2.688-2.628v-1.224c0-1.704.924-2.628 2.616-2.628 1.692 0 2.616.924 2.616 2.628v.9H7.497v.276c0 1.212.504 1.764 1.608 1.764.936 0 1.428-.408 1.5-1.08h1.02c-.084 1.32-1.008 1.992-2.496 1.992zm-1.632-3.828h3.156c0-1.188-.492-1.74-1.572-1.74-1.092 0-1.584.552-1.584 1.74zm8.54 3.828c-1.68 0-2.58-.912-2.58-2.628v-1.224c0-1.716.9-2.628 2.58-2.628 1.56 0 2.424.792 2.472 2.292h-1.02c-.072-.996-.576-1.368-1.44-1.368-1.044 0-1.536.54-1.536 1.728v1.176c0 1.188.492 1.728 1.536 1.728.864 0 1.368-.372 1.44-1.368h1.02c-.048 1.5-.912 2.292-2.472 2.292zM20.402 40v-8.76h1.056v3.384c.516-.66 1.14-.96 1.944-.96 1.296 0 1.944.78 1.944 2.268V40H24.29v-3.972c0-.972-.36-1.392-1.08-1.392-.744 0-1.308.432-1.752 1.344V40h-1.056zm7.268 0v-6.192h.9l.036.972c.54-.768 1.2-1.116 2.064-1.116 1.296 0 1.944.78 1.944 2.268V40h-1.056v-3.972c0-.972-.36-1.392-1.092-1.392-.732 0-1.296.432-1.74 1.344V40H27.67zm9.633.144c-1.752 0-2.676-.936-2.676-2.736V36.4c0-1.8.924-2.736 2.676-2.736 1.752 0 2.676.936 2.676 2.736v1.008c0 1.8-.924 2.736-2.676 2.736zm0-.924c1.092 0 1.62-.6 1.62-1.848v-.948c0-1.248-.528-1.836-1.62-1.836s-1.62.588-1.62 1.836v.948c0 1.248.528 1.848 1.62 1.848zm4.784.78v-8.76h1.056V40h-1.056zm5.841.144c-1.752 0-2.676-.936-2.676-2.736V36.4c0-1.8.924-2.736 2.676-2.736 1.752 0 2.676.936 2.676 2.736v1.008c0 1.8-.924 2.736-2.676 2.736zm0-.924c1.092 0 1.62-.6 1.62-1.848v-.948c0-1.248-.528-1.836-1.62-1.836s-1.62.588-1.62 1.836v.948c0 1.248.528 1.848 1.62 1.848zm7.125 3.108c-1.572 0-2.436-.648-2.52-1.92h.984c.06.72.648 1.008 1.512 1.008 1.104 0 1.608-.468 1.608-1.548v-1.02c-.504.648-1.128.948-1.956.948-1.44 0-2.28-.888-2.28-2.58v-.972c0-1.692.84-2.58 2.28-2.58.888 0 1.548.348 2.064 1.104l.048-.96h.9v6.06c0 1.644-.876 2.46-2.64 2.46zm-.24-3.456c.78 0 1.416-.504 1.824-1.38v-1.524c-.408-.876-1.044-1.38-1.824-1.38-.852 0-1.356.588-1.356 1.692v.9c0 1.104.504 1.692 1.356 1.692zm5 3.312v-.912h.528c.48 0 .684-.144.852-.648l.288-.864-2.232-5.952h1.128l1.644 4.572 1.524-4.572h1.08l-2.424 6.936c-.384 1.092-.816 1.44-1.764 1.44h-.624zM69.886 40v-8.16h5.232v.984h-4.152v2.508h3.552v.984h-3.552V40h-1.08zm8.385.144c-1.272 0-2.064-.684-2.064-1.896 0-1.236.816-1.932 2.556-1.932h1.488v-.336c0-.96-.444-1.404-1.404-1.404-.876 0-1.392.36-1.428 1.116h-1.032c.108-1.344.948-2.028 2.496-2.028 1.632 0 2.424.756 2.424 2.292V40h-.9l-.036-.84c-.504.636-1.2.984-2.1.984zm.156-.912c.828 0 1.452-.408 1.824-1.164v-.876h-1.452c-1.08 0-1.536.336-1.536 1.032 0 .648.384 1.008 1.164 1.008zm7.172.912c-1.704 0-2.544-.66-2.544-1.968h1.008c0 .708.504 1.068 1.536 1.068.96 0 1.44-.324 1.44-.912 0-.612-.42-.876-1.62-1.02-1.62-.192-2.22-.672-2.22-1.776 0-1.2.852-1.872 2.388-1.872s2.352.66 2.352 1.908h-1.032c0-.66-.444-1.008-1.332-1.008-.864 0-1.344.324-1.344.888 0 .564.42.792 1.56.912 1.656.18 2.28.708 2.28 1.884 0 1.248-.84 1.896-2.472 1.896zM91.884 40c-1.188 0-1.692-.576-1.692-1.932v-3.396h-1.068v-.864h1.092l.084-1.632h.948v1.632h1.524v.864h-1.524v3.408c0 .804.18 1.008.888 1.008h.708V40h-.96zm5.229.144c-1.812 0-2.808-.852-2.832-2.256h1.032c.036.816.696 1.296 1.788 1.296 1.212 0 1.884-.588 1.884-1.776 0-1.164-.648-1.776-1.8-1.776-.66 0-1.188.204-1.668.624h-.972l.276-4.416h4.848v.996h-3.9l-.156 2.412c.48-.384 1.08-.576 1.812-.576 1.656 0 2.616.96 2.616 2.712 0 1.848-1.056 2.76-2.928 2.76zm7.64 0c-1.824 0-2.808-.948-2.808-2.712v-3.024c0-1.764.984-2.712 2.808-2.712 1.824 0 2.808.948 2.808 2.712v3.024c0 1.764-.984 2.712-2.808 2.712zm0-.96c1.176 0 1.752-.6 1.752-1.824v-2.88c0-1.224-.576-1.824-1.752-1.824-1.176 0-1.752.6-1.752 1.824v2.88c0 1.224.576 1.824 1.752 1.824z"/></g></svg>