<svg id="Layer_1" xmlns="http://www.w3.org/2000/svg" viewBox="0 0 378 122.5" enable-background="new 0 0 378 122.5"><style>.st0,.st1,.st2,.st3,.st4,.st5,.st6{fill:#fff}</style><defs><filter id="Adobe_OpacityMaskFilter" filterUnits="userSpaceOnUse" x="29.1" y="66.8" width="34.8" height="53.5"><feFlood result="back" flood-color="#fff" flood-opacity="1"/><feBlend in="SourceGraphic" in2="back"/></filter></defs><path class="st1 st2" d="M56.9 71.7v31.2c0 5.8-4.7 10.4-10.4 10.4s-10.4-4.7-10.4-10.4V71.7c-2.6-1.2-4.9-2.8-7-4.8v36c0 9.6 7.8 17.4 17.4 17.4 9.6 0 17.4-7.8 17.4-17.4V66.8c-2 2-4.4 3.7-7 4.9z"/><path class="st3" d="M46.5 38.2c6 0 10.8 4.9 10.8 10.8 0 6-4.9 10.8-10.8 10.8S35.7 55 35.7 49c0-5.9 4.8-10.8 10.8-10.8m0-6.5c-9.6 0-17.4 7.8-17.4 17.4 0 9.6 7.8 17.4 17.4 17.4S63.9 58.6 63.9 49s-7.8-17.3-17.4-17.3z"/><path class="st4" d="M60.5 28l26.4-16.7c4.9-3.1 11.3-1.6 14.4 3.2 3.1 4.9 1.6 11.3-3.2 14.4L71.7 45.6c.4 2.8.2 5.7-.4 8.5l30.4-19.3c8.1-5.1 10.5-15.9 5.4-24S91.2.3 83.1 5.4L52.7 24.7c2.7.6 5.4 1.7 7.8 3.3z"/><path class="st5" d="M21.3 49.2c0-1.2 0-2.3.2-3.5l-7.4-4.4C9.2 38.4 7.6 32 10.5 27c1.5-2.5 3.8-4.1 6.4-4.8 2.6-.7 5.4-.3 7.9 1.2l7.7 4.6c2.4-1.6 5-2.7 7.9-3.4l-11.9-7.1c-8.2-4.9-18.9-2.2-23.8 6-4.9 8.2-2.2 18.9 6 23.8L21.9 54c-.3-1.5-.5-3.1-.6-4.8z"/><path class="st6" d="M135.9 21.1l4.6 1v-7.3c0-2.3 1.5-3.9 3.9-3.9 2.3 0 4 1.6 4 3.9v7.3l4.6-1c2 0 3.3 1.3 3.3 3.3s-1.3 3.4-3.3 3.4l-4.6 1v28.9c0 2.3-1.7 3.9-4 3.9-2.4 0-3.9-1.6-3.9-3.9V28.8l-4.6-1c-1.9 0-3.2-1.3-3.2-3.3-.1-2 1.2-3.4 3.2-3.4zm29.6-15c2.7 0 4.8 2.1 4.8 4.8 0 2.7-2.1 4.8-4.8 4.8-2.7 0-4.8-2-4.8-4.8.1-2.7 2.2-4.8 4.8-4.8zm4.1 19.2v32.3c0 2.3-1.7 3.9-4 3.9s-4-1.6-4-3.9V25.3c0-2.3 1.7-3.9 4-3.9s4 1.6 4 3.9zm15 .7c2.2-3.1 5.6-5 10.2-5 5.6 0 9.4 2.5 11.4 6.7 1.9-4 5.9-6.7 11.1-6.7 8.5 0 13.1 5.9 13.1 14.5v22.2c0 2.3-1.6 3.9-4 3.9-2.3 0-3.9-1.6-3.9-3.9V35.8c0-4.4-2.4-7.8-7.1-7.8-4.5 0-7.5 3.4-7.5 7.7v21.9c0 2.3-1.7 3.9-4 3.9s-4-1.6-4-3.9V35.8c0-4.4-2.4-7.8-7-7.8s-7.5 3.5-7.5 8v21.7c0 2.3-1.7 3.9-4 3.9-2.4 0-4-1.6-4-3.9V25.2c0-2.3 1.3-3.8 3.6-3.8 1.5 0 3.1.6 3.5 2.6l.1 2zm81.5 26c-1.1 6-6.9 10-14.3 10-9.4 0-15.6-5.9-15.6-15.2V36.6c0-9.6 6.3-15.6 15.5-15.6 8.9 0 15.2 6 15.2 15.6v2.3c0 2.5-1.6 3.9-4 3.9H244v4.8c0 4.5 2.8 7.9 7.8 7.9 4.6 0 6.7-2.5 7.7-5.6.6-1.7 1.5-2.6 3.3-2.6 2.3 0 3.9 1.9 3.3 4.7zM244 37.1h15.1v-1.5c0-4.7-2.7-8.2-7.5-8.2s-7.6 3.5-7.6 8.2v1.5zm86.6 7.6c0 10.6-7.3 17.3-18.1 17.3-10.7 0-18.1-6.7-18.1-17.3V24.8c0-10.6 6.7-17.3 18.1-17.3 10.8 0 18.1 6.7 18.1 17.3v19.9zm-27.9 0c0 5.8 3.5 9.8 9.8 9.8 6.2 0 9.8-4 9.8-9.8V24.8c0-5.8-3.5-9.8-9.8-9.8-6.2 0-9.8 4-9.8 9.8v19.9zm71 12.9c0 2.4-1.5 4-4 4-1.9 0-3.2-1-4-2.6l-19.4-34.6v33.4c0 2.2-1.6 3.7-3.8 3.7-2.3 0-3.8-1.5-3.8-3.7v-46c0-2.4 1.7-4 4.2-4 2 0 3.2.7 4.4 2.8L366 44.3V11.6c0-2.2 1.6-3.7 3.8-3.7 2.2 0 3.9 1.5 3.9 3.7v46zm-87.4-4.1h-.7V16.2h.7c2.4 0 4-1.7 4-4.2s-1.6-4.1-4-4.1h-9.7c-2.4 0-4 1.6-4 4.1 0 2.4 1.6 4.2 4 4.2h.7v37.3h-.7c-2.4 0-4 1.6-4 4.1 0 2.4 1.6 4.2 4 4.2h9.7c2.4 0 4-1.7 4-4.2s-1.6-4.1-4-4.1z"/></svg>