<svg xmlns="http://www.w3.org/2000/svg" xmlns:xlink="http://www.w3.org/1999/xlink" width="211" height="22" viewBox="0 0 211 22">
    <defs>
        <path id="a" d="M.422 14.6h18.086V.148H.422z"/>
        <path id="c" d="M16.841 20.55H.231V.228h16.61z"/>
        <path id="e" d="M0 20.89h210.828V.57H0z"/>
        <path id="g" d="M0 20.89h210.828V.57H0z"/>
    </defs>
    <g fill="none" fill-rule="evenodd">
        <path fill="#1AA969" fill-rule="nonzero" d="M26.725 20.163h2.167v-2.33a13.005 13.005 0 0 0-2.167 2.33zm-14.832-6.302l-1.608-1.201a57.936 57.936 0 0 0-2.645 7.503h1.965a52.114 52.114 0 0 1 2.288-6.302zm.73 6.302a45.419 45.419 0 0 1 1.694-4.49l-1.604-1.2a51.134 51.134 0 0 0-2.068 5.69h1.978zm1.047 0h2.01a36.782 36.782 0 0 1 3.195-6.808l-3.52 2.634a.5.5 0 0 1-.121.062 44.453 44.453 0 0 0-1.564 4.112zM28.892 7.886V5.86l-7.69 5.753a.447.447 0 0 1-.038.067c-1.806 2.499-3.29 5.352-4.427 8.483h2.06c2.282-5.623 5.936-10.066 10.095-12.277zm0 5.475c-2.235 1.497-4.245 3.865-5.76 6.802h2.39c.977-1.455 2.133-2.675 3.37-3.556v-3.246zm0-1.147V8.985c-3.674 2.138-6.907 6.144-9.02 11.178h2.154c1.733-3.522 4.154-6.325 6.866-7.95zm.993-7.402a.47.47 0 0 1 .005.05l.002.017v15.763a.49.49 0 0 1-.5.478H6.99a.49.49 0 0 1-.5-.478c0-.041.007-.08.016-.118a58.864 58.864 0 0 1 2.96-8.475l-1.606-1.2a64.634 64.634 0 0 0-3.359 9.904.497.497 0 0 1-.485.367.564.564 0 0 1-.118-.013.478.478 0 0 1-.368-.577A65.384 65.384 0 0 1 7.19 9.897l.007-.01a.452.452 0 0 1 .025-.044c.008-.014.017-.03.027-.043l.007-.01.02-.02.04-.04c.011-.01.023-.017.034-.026l.044-.029a.514.514 0 0 1 .088-.04l.04-.01a.518.518 0 0 1 .093-.015c.019-.002.037-.003.056-.002.014 0 .028.002.043.004a.325.325 0 0 1 .051.009c.017.003.033.009.049.014l.032.01c.005.001.008.004.013.006a.36.36 0 0 1 .043.024c.016.008.03.016.044.026l.012.006 7.088 5.298L29.084 4.502c.004-.004.01-.005.014-.009.015-.01.03-.019.046-.027a.459.459 0 0 1 .086-.037c.015-.006.03-.01.046-.015a.432.432 0 0 1 .046-.007.404.404 0 0 1 .053-.005l.017-.002c.01 0 .019.002.028.003a.542.542 0 0 1 .1.015c.014.004.03.008.045.014a.621.621 0 0 1 .127.067.352.352 0 0 1 .073.065l.02.02.01.014a.33.33 0 0 1 .027.043c.008.013.016.025.023.039a.495.495 0 0 1 .032.088l.008.044zM1.08 2.588a.242.242 0 0 0 .145.052c.13 0 .255-.12.314-.324.061-.215.123-.43.186-.643.081-.278.008-.609-.165-.74-.172-.13-.378-.012-.46.266l-.19.652c-.079.278-.003.609.17.737M.343 4.4c.134 0 .26-.122.316-.326a69.3 69.3 0 0 1 .19-.682c.078-.271-.001-.587-.175-.706-.174-.12-.376.003-.453.274-.09.316-.106.375-.193.694-.075.272.006.587.18.703.045.03.09.043.135.043M.828 11.119a82.44 82.44 0 0 1 1.776-5.18c.091-.24-.01-.518-.225-.621-.217-.103-.466.01-.558.25a83.603 83.603 0 0 0-1.798 5.244c-.076.248.043.517.265.602a.37.37 0 0 0 .137.026.432.432 0 0 0 .403-.321M3.746 4.353a.326.326 0 0 0 .168.047c.15 0 .293-.108.36-.292.308-.84.63-1.679.957-2.493.1-.248.023-.553-.173-.68-.195-.126-.434-.028-.535.22a88.911 88.911 0 0 0-.97 2.526c-.092.253-.006.554.193.672"/>
        <path fill="#1AA969" fill-rule="nonzero" d="M12.716 1.816h2.572a48.646 48.646 0 0 0-4.029 6.466l-1.602-1.19a54.744 54.744 0 0 1 3.06-5.276zm13.091 0h2.163l-8.292 6.161c1.843-2.476 3.928-4.577 6.129-6.161zm-10.543 9.442l-.813-.604c1.772-3.366 3.87-6.338 6.242-8.838h3.534c-2.567 2.053-4.946 4.771-6.94 7.94l-2.023 1.502zM12.05 8.871A47.524 47.524 0 0 1 16.5 1.816h2.883c-2.155 2.384-4.075 5.153-5.723 8.25l-1.609-1.195zm-5.895-3.4c0 .012 0 .026.002.04.002.016.007.03.01.044a.27.27 0 0 0 .013.044c.004.013.011.026.017.04.007.014.013.029.022.043l.026.036c.01.013.018.026.029.037.012.013.026.025.04.036l.027.025 2.4 1.783 6.219 4.621a.508.508 0 0 0 .607 0L29.702 1.716l.02-.018a.544.544 0 0 0 .067-.068.57.57 0 0 0 .05-.078.38.38 0 0 0 .034-.085l.01-.043a.471.471 0 0 0 .005-.05c0-.008.003-.017.003-.026l-.002-.016c0-.016-.003-.033-.005-.05-.003-.014-.004-.028-.008-.043-.003-.013-.009-.027-.014-.042a.383.383 0 0 0-.068-.125l-.008-.013-.018-.017a.476.476 0 0 0-.114-.092.748.748 0 0 0-.131-.053.376.376 0 0 0-.099-.015L29.4.88H12.433a.494.494 0 0 0-.455.289 55.624 55.624 0 0 0-3.113 5.334L7.26 5.31a61.89 61.89 0 0 1 2.036-3.734A.456.456 0 0 0 9.11.94a.507.507 0 0 0-.67.179 63.03 63.03 0 0 0-2.24 4.13l-.013.037c-.006.015-.013.03-.017.046-.004.015-.006.031-.009.047l-.006.042c0 .016 0 .033.002.05zM5.844 7.078a.525.525 0 0 0-.669.25A69.93 69.93 0 0 0 .892 19.66c-.063.255.108.51.383.568a.572.572 0 0 0 .114.012.504.504 0 0 0 .497-.368A69.019 69.019 0 0 1 6.113 7.7c.11-.241-.01-.52-.269-.622"/>
        <path fill="#FFF" fill-rule="nonzero" d="M44.965 18.326h2.402V3.874H43.58v3.05h-3.137V.88h17.583v6.043h-3.138v-3.05h-3.816v14.453h2.432v2.794h-8.538zM60.81 17.653h2.191V9.537c0-.381-.236-.599-.65-.599h-1.688V6.351H64.6c1.331 0 2.013.517 2.013 1.688v.817c0 .518-.06.872-.06.872h.06c.68-1.988 2.487-3.568 4.796-3.568.356 0 .682.055.682.055v3.404s-.386-.055-.92-.055c-3.048 0-4.41 2.45-4.41 5.066v3.023h2.16v2.587h-8.111v-2.587z"/>
        <g transform="translate(72.092 6.16)">
            <mask id="b" fill="#fff">
                <use xlink:href="#a"/>
            </mask>
            <path fill="#FFF" fill-rule="nonzero" d="M2.708 2.778H.422V.148h5.962V8.62c0 1.69.463 2.852 2.315 2.852 2.546 0 4.08-2.492 4.08-5.04V2.779h-2.257V.148h5.932v10.909c0 .387.231.609.636.609h1.418v2.602h-3.646c-1.302 0-1.91-.58-1.91-1.578v-.526c0-.36.03-.665.03-.665h-.059c-.173.471-1.678 3.102-5.382 3.102-2.951 0-4.833-1.523-4.833-5.372v-6.45z" mask="url(#b)"/>
        </g>
        <path fill="#FFF" fill-rule="nonzero" d="M92.313 16.021h3.15v.84c0 .981 1.37 1.486 2.916 1.486 1.488 0 2.538-.505 2.538-1.457 0-1.205-1.4-1.513-3.384-2.213-2.188-.729-4.696-1.71-4.696-4.427 0-3.026 3.15-4.09 5.863-4.09 2.158 0 5.367.812 5.367 2.97v1.821h-3.18v-.813c0-.728-.874-1.177-2.187-1.177-1.167 0-2.159.393-2.159 1.289 0 1.177 1.46 1.653 3.12 2.129 2.277.701 4.96 1.597 4.96 4.399 0 2.885-2.859 4.342-6.27 4.342-2.714 0-6.038-1.12-6.038-3.446V16.02zM107.787 9.252H105.5V6.567h2.404V2.64h3.604v3.927h3.399v2.685h-3.399v6.075c0 2.459 1.934 2.797 2.99 2.797.409 0 .673-.028.673-.028v2.94s-.47.084-1.143.084c-2.11 0-6.241-.593-6.241-5.425V9.252zM127.204 12.043c-.058-1.96-1.303-3.137-2.865-3.137-1.882 0-3.213 1.26-3.56 3.137h6.425zm-2.778-5.883c4.255 0 6.57 2.998 6.57 6.78 0 .42-.087 1.204-.087 1.204h-10.217c.231 2.634 2.2 3.979 4.428 3.979 2.402 0 4.284-1.513 4.284-1.513l1.418 2.521s-2.258 1.989-5.963 1.989c-4.891 0-7.93-3.418-7.93-7.48 0-4.398 3.068-7.48 7.497-7.48z"/>
        <g transform="translate(132.754 .88)">
            <mask id="d" fill="#fff">
                <use xlink:href="#c"/>
            </mask>
            <path fill="#FFF" fill-rule="nonzero" d="M7.581 17.538c1.94 0 3.733-1.35 3.733-4.419 0-2.336-1.186-4.53-3.617-4.53-2.085 0-3.762 1.603-3.762 4.446 0 2.73 1.504 4.503 3.646 4.503M6.973 5.52c3.155 0 4.255 2.027 4.255 2.027h.058s-.058-.423-.058-1.014v-3.63H8.94V.229h5.932v16.69c0 .422.232.62.637.62h1.331v2.673H13.37c-1.332 0-1.881-.704-1.881-1.52v-.17c0-.393.086-.646.086-.646h-.057s-1.158 2.673-4.833 2.673C2.748 20.55.23 17.481.23 13.035c0-4.56 2.749-7.515 6.742-7.515" mask="url(#d)"/>
        </g>
        <path fill="#FFF" fill-rule="nonzero" d="M152.975 18.643h2.702l1.381-16.166h-2.732V.88h4.964l5.992 12.668c.264.634.411 1.129.411 1.129h.059s.147-.495.44-1.13L172.186.88h4.934v1.597h-2.702l1.352 16.166h2.702v1.597h-7.373v-1.597h2.644l-1.117-13.357c-.029-.496.06-1.376.06-1.376h-.06s-.234.825-.44 1.293l-5.493 11.347h-1.909l-5.522-11.347c-.206-.468-.411-1.293-.411-1.293h-.089s.089.88.06 1.376l-1.118 13.357h2.644v1.597h-7.372v-1.597zM185.434 19.53c2.954 0 4.622-2.866 4.622-5.365v-.681h-.85c-1.198 0-6.93-.113-6.93 3.18 0 1.476 1.111 2.866 3.158 2.866m3.656-7.494h.966v-.596c0-2.668-1.492-3.605-3.54-3.605-2.485 0-4.269 1.391-4.269 1.391l-.936-1.448s1.988-1.618 5.323-1.618c3.567 0 5.41 1.845 5.41 5.365v7.04c0 .426.234.625.643.625h1.609v1.59h-2.398c-1.258 0-1.755-.54-1.755-1.562v-.255c0-.681.088-1.107.088-1.107h-.059s-1.258 3.264-5.03 3.264c-2.398 0-4.913-1.335-4.913-4.258 0-4.627 6.376-4.826 8.86-4.826"/>
        <g>
            <mask id="f" fill="#fff">
                <use xlink:href="#e"/>
            </mask>
            <path fill="#FFF" fill-rule="nonzero" d="M198.608 3.16h2.219V.768h-2.219V3.16zm-2.334 15.817h2.45V7.973h-2.594V6.396h4.553v12.58h2.45v1.578h-6.86v-1.577z" mask="url(#f)"/>
        </g>
        <g>
            <mask id="h" fill="#fff">
                <use xlink:href="#g"/>
            </mask>
            <path fill="#FFF" fill-rule="nonzero" d="M206.418 2.344h-2.565V.768h4.525v16.099c0 1.154.317 2.11 1.642 2.11.52 0 .807-.056.807-.056v1.632s-.547.085-1.124.085c-1.902 0-3.285-.929-3.285-3.631V2.344z" mask="url(#h)"/>
        </g>
    </g>
</svg>
