<svg width="148" height="41" viewBox="0 0 148 41" xmlns="http://www.w3.org/2000/svg"><title>Group 17</title><g fill-rule="nonzero" fill="none"><path fill="#63626F" d="M40.983 40.405H.638V.285h40.345v40.12zM57.546 21.428c0 1.138.305 1.264 1.593 1.317v.405h-5.126v-.405c1.064-.053 1.369-.18 1.369-1.317V13.99c0-1.143-.305-1.27-1.341-1.317v-.416h9.05l.061 2.402h-.445c-.382-1.217-.795-1.601-2.914-1.601H58.15c-.493 0-.605.11-.605.563v3.445h1.85c1.688 0 2.054-.306 2.26-1.443h.415v3.85h-.415c-.222-1.285-.86-1.607-2.26-1.607h-1.85v3.56zm10.673 0c0 1.138.3 1.264 1.593 1.317v.405h-5.354v-.405c1.294-.053 1.593-.18 1.593-1.317V13.99c0-1.143-.299-1.27-1.593-1.317v-.416h5.354v.416c-1.292.048-1.593.174-1.593 1.317v7.437zm12.758-7.132c0-1.058-.288-1.49-1.467-1.622v-.416h3.822v.416c-1.177.132-1.464.564-1.464 1.622v9.123h-.541l-7.389-8.596v6.3c0 1.058.284 1.49 1.464 1.622v.405h-3.825v-.405c1.18-.132 1.466-.564 1.466-1.623v-7.336c-.366-.648-.797-.954-1.466-1.112v-.416h2.948l6.452 7.506v-5.468zm5.78 4.951l1.625-4.313 1.61 4.313h-3.235zm7.757 3.903v-.405c-.812.015-1.018-.337-1.433-1.365L89.273 12h-.523l-3.967 9.718c-.272.674-.638.88-1.322 1.027v.405h3.44v-.405c-.749 0-1.114-.164-1.114-.69 0-.448.495-1.654.619-2.007h3.92c.127.353.652 1.559.652 2.007 0 .526-.397.69-1.146.69v.405h4.682zm10.497-8.854c0-1.058-.286-1.49-1.463-1.622v-.416h3.822v.416c-1.18.132-1.468.564-1.468 1.622v9.123h-.54l-7.39-8.596v6.3c0 1.058.286 1.49 1.465 1.622v.405h-3.824v-.405c1.18-.132 1.467-.564 1.467-1.623v-7.336c-.367-.648-.798-.954-1.467-1.112v-.416h2.947l6.45 7.506.001-5.468zm13.676 6.294c-1.133 1.944-2.615 2.829-4.86 2.829-3.52 0-5.607-2.328-5.607-5.81 0-2.48 1.944-5.609 5.719-5.609 1.13 0 2.736.643 2.977.643.317 0 .413-.174.671-.643h.54l.224 3.64h-.478c-.64-1.686-1.768-2.903-3.664-2.903-2.55 0-3.663 2.776-3.663 4.872 0 2.94 1.257 4.91 3.95 4.91 2.102 0 3.265-1.57 3.76-2.26l.43.331zm5.244.838c0 1.138.305 1.264 1.594 1.317v.405h-5.353v-.405c1.292-.053 1.595-.18 1.595-1.317V13.99c0-1.143-.303-1.27-1.595-1.317v-.416h5.353v.416c-1.29.048-1.594.174-1.594 1.317v7.437zm6.03-2.18l1.624-4.314 1.61 4.313h-3.234zm7.758 3.902v-.405c-.814.015-1.02-.337-1.433-1.365L132.478 12h-.524l-3.968 9.718c-.272.674-.637.88-1.322 1.027v.405h3.44v-.405c-.748 0-1.114-.164-1.114-.69 0-.448.494-1.654.621-2.007h3.918c.127.353.652 1.559.652 2.007 0 .526-.398.69-1.146.69v.405h4.684zm.947 0v-.405c1.036-.048 1.338-.18 1.338-1.317V13.99c0-1.143-.302-1.27-1.338-1.317v-.416h5v.416c-1.193.048-1.497.174-1.497 1.317v7.648c0 .658.192.88 1.402.88 1.944 0 3.09-.354 4.014-2.276H148l-.732 2.907h-8.602zM56.388 40.331c1.23-.053 1.53-.179 1.53-1.317v-8.369h-1.336c-1.26 0-1.754.511-2.104 1.986H54l.255-2.786h9.492l.256 2.786h-.48c-.348-1.475-.843-1.986-2.1-1.986h-1.338v8.37c0 1.137.302 1.263 1.526 1.316v.406h-5.223v-.406zm12.487-1.317c0 1.138.305 1.264 1.595 1.312v.41h-5.353v-.41c1.294-.048 1.594-.174 1.594-1.312v-7.442c0-1.138-.3-1.264-1.594-1.311v-.422h5.353v.422c-1.29.047-1.595.173-1.595 1.311v7.442zm12.965-9.17h3.728v.417c-1.036.047-1.337.173-1.337 1.311v7.442c0 1.138.3 1.264 1.337 1.317v.406h-4.875v-.406c1.067-.053 1.372-.179 1.372-1.317v-7.663h-.033l-3.616 9.523h-.494l-3.534-9.523h-.033v7.358c0 1.059.286 1.49 1.465 1.622v.406H72v-.406c1.177-.132 1.463-.563 1.463-1.622v-7.406c0-.753-.317-1.042-1.463-1.042v-.416h3.934l2.882 7.563 3.025-7.563zm5.265 10.893v-.406c1.034-.053 1.336-.179 1.336-1.317v-7.442c0-1.138-.302-1.264-1.336-1.311v-.416h9.045l.064 2.401h-.444c-.384-1.216-.799-1.6-2.916-1.6h-1.64c-.496 0-.604.11-.604.557v3.45h1.845c1.689 0 2.054-.305 2.263-1.443h.414v3.845h-.414c-.225-1.28-.86-1.601-2.263-1.601H90.61v3.771c0 .653.19.88 2.101.88 1.942 0 3.09-.353 4.014-2.281h.413l-.732 2.913h-9.301zm11.441-3.424h.417c.46 1.443 1.832 2.95 3.426 2.95 1.367 0 1.862-.959 1.862-1.812 0-2.502-5.607-2.966-5.607-6.073 0-1.506 1.45-2.792 3.105-2.792 1.625 0 2.197.575 2.917.575.302 0 .493-.237.572-.575h.415v3.46h-.415c-.446-1.569-1.56-2.722-3.027-2.722-1.208 0-1.658.785-1.658 1.527 0 2.223 5.61 2.291 5.61 6.12-.001 1.712-1.401 3.029-3.347 3.029-1.911 0-2.404-.669-3.154-.669-.284 0-.478.19-.54.543h-.576v-3.56z"/><path d="M11.011 21.227c0 1.905.506 2.117 2.665 2.199v.696H5.095v-.696c1.785-.082 2.291-.294 2.291-2.199V8.795c0-1.905-.506-2.12-2.238-2.198V5.9h15.136l.108 4.018h-.747c-.639-2.036-1.333-2.678-4.877-2.678h-2.746c-.824 0-1.01.187-1.01.938v5.762h1.352c2.825 0 3.438-.511 3.784-2.414h.693v6.432h-.693c-.372-2.144-1.439-2.678-3.784-2.678H11.01v5.947zM37.424 5.9H21.541l-.369 4.02h.911c.582-1.968 1.436-2.68 3.348-2.68h2.24v13.987c0 1.905-.507 2.117-2.558 2.199v.696h8.74v-.696c-2.052-.082-2.558-.294-2.558-2.199V7.24h2.238c1.913 0 2.769.712 3.35 2.68h.91l-.369-4.02z" fill="#060210"/></g></svg>