<svg xmlns="http://www.w3.org/2000/svg" xmlns:xlink="http://www.w3.org/1999/xlink" width="110" height="28" viewBox="0 0 110 28"><defs><path id="a" d="M88.843.074v24.498H.032V.074z"/><path id="c" d="M0 .043h21.409v27.59H0z"/></defs><g fill="none" fill-rule="evenodd" opacity=".5"><path fill="#3D3B48" d="M25.098 9.901c1.186 0 2.324-.985 2.522-2.2.234-1.183-.57-2.168-1.756-2.168-1.185 0-2.323.985-2.524 2.168-.231 1.215.54 2.2 1.758 2.2"/><g transform="translate(20.465 .133)"><mask id="b" fill="#fff"><use xlink:href="#a"/></mask><path fill="#3D3B48" d="M36.658 13.165c1.157 0 1.56.702 1.56 1.539 0 1.414-1.1 2.277-2.821 2.277a7.36 7.36 0 0 1-1.985-.314c.213-1.302 1.05-3.502 3.246-3.502m24.88 0c1.057 0 1.56.702 1.56 1.539 0 1.414-1.1 2.277-2.82 2.277a7.36 7.36 0 0 1-1.986-.314c.214-1.302 1.158-3.502 3.246-3.502m23.583.12h2.653c.364 0 .576-.148.659-.486.117-.488.33-1.338.391-1.57.079-.305-.099-.536-.438-.536h-2.618c.189-.749.923-3.179.923-4.763 0-3.165-2.693-5.856-6.514-5.856-4.316 0-7.124 2.89-7.124 6.955 0 1.186.443 2.569.993 3.426a12.56 12.56 0 0 0-.71-.02c-3.28 0-5.345 1.775-5.345 4.357 0 2.424 1.915 3.366 3.718 3.992 1.602.557 3.076.816 3.076 2.064 0 .842-.811 1.336-2.4 1.336-1.884 0-2.92-.886-3.183-1.221.179-.14.444-.473.444-1.028 0-.777-.546-1.41-1.562-1.41-.86 0-1.586.698-1.768 1.618-1.38 1.127-2.886 1.856-5.022 1.856-2.103 0-3.195-1.091-3.195-3.413.493.149 1.777.33 2.626.33 3.56 0 5.988-1.615 5.988-4.848 0-1.738-1.53-3.564-4.556-3.564h-.007c-3.98 0-6.21 2.515-7.183 5.282-.273-.065-.546-.13-.82-.19a6.308 6.308 0 0 0 .374-2.114c0-1.367-.848-2.978-3.118-2.978-1.581 0-3.08 1.033-4.12 2.581l.441-1.727c.067-.265-.043-.559-.455-.559h-2.33c-.332 0-.567.117-.661.494l-1.643 6.436c-.491 1.902-3.03 4.27-6.221 4.27-2.104 0-3.195-1.163-3.195-3.486.55.219 1.777.402 2.625.402 3.706 0 5.989-1.614 5.989-4.847 0-1.738-1.53-3.564-4.556-3.564h-.007c-4.482 0-7.228 3.473-7.693 7.41-.194 1.638-1.579 3.886-3.08 3.886-.731 0-1.14-.458-1.14-1.237 0-.672.475-2.315.994-4.374.175-.689.44-1.74.732-2.904h2.437c.362 0 .575-.148.658-.486.117-.488.33-1.338.391-1.57.079-.305-.098-.536-.438-.536h-2.396s1.103-4.392 1.13-4.504c.105-.447-.269-.705-.66-.622 0 0-1.853.361-2.196.433-.346.07-.614.259-.738.755-.017.064-.981 3.938-.981 3.938h-1.924c-.363 0-.576.148-.658.485-.117.487-.332 1.338-.39 1.571-.08.305.097.536.436.536h1.888c-.014.053-.682 2.59-1.222 4.86-.255 1.092-1.107 3.646-2.502 3.646-.833 0-1.185-.419-1.185-1.319 0-1.416 1.397-4.963 1.397-6.572 0-2.15-1.155-3.395-3.523-3.395-1.493 0-3.041.962-3.697 1.806 0 0 .199-.69.267-.957.073-.28-.078-.556-.447-.556h-2.316c-.492 0-.629.263-.7.552l-1.665 6.522c-.548 2.149-1.879 3.944-3.302 3.944-.732 0-1.058-.458-1.058-1.237 0-.672.436-2.33.955-4.39.632-2.507 1.19-4.571 1.25-4.812.077-.31-.061-.579-.46-.579h-2.33c-.421 0-.572.221-.661.528 0 0-.656 2.476-1.35 5.232-.504 2-1.061 4.038-1.061 4.995 0 1.708.77 2.996 2.883 2.996 1.631 0 2.922-.825 3.908-1.876l-.247.966c-.085.325.018.613.403.613h2.383c.415 0 .575-.167.661-.528.083-.344 1.864-7.33 1.864-7.33.47-1.877 1.634-3.12 3.272-3.12.776 0 1.448.514 1.37 1.51-.086 1.097-1.412 5.036-1.412 6.765 0 1.308.486 3.001 2.956 3.001 1.683 0 2.922-.805 3.823-1.843.33 1.102 1.204 1.843 2.807 1.843 2.664 0 4.27-1.576 5.214-3.16.783 1.84 2.617 3.16 5.305 3.16 2.741 0 4.862-1.153 6.365-2.72l-.469 1.834c-.085.33.06.59.448.59h2.36c.322 0 .552-.164.636-.503l.864-3.347c.92-3.573 2.4-7.28 4.624-7.28.784 0 1.106.437 1.106 1.126 0 .324-.095.605-.176.756-1.078-.214-1.946.317-1.946 1.465 0 .748.79 1.428 1.854 1.428.814 0 1.487-.199 2.023-.56.501.104 1.04.22 1.58.344a10.342 10.342 0 0 0-.123 1.566c0 2.868 2.053 5.3 5.733 5.3 2.883 0 4.861-1.052 6.57-2.4.821 1.34 2.894 2.423 5.614 2.423 3.728 0 5.842-1.934 5.842-4.49 0-2.314-1.903-3.166-3.867-3.874-1.595-.575-2.927-.888-2.927-2.013 0-.923.728-1.345 1.975-1.345.81 0 1.417.174 1.742.265.322.804.987 1.693 2.124 1.693.962 0 1.394-.759 1.394-1.458 0-1.99-3.322-2.198-3.322-6.465 0-2.653 1.505-4.842 4.622-4.842 2.165 0 3.58 1.37 3.58 3.581 0 1.823-1.109 5.069-1.109 5.069h-1.884c-.362 0-.575.148-.657.485-.117.487-.332 1.338-.392 1.571-.08.305.098.536.438.536h1.84s-1.902 6.996-1.902 8.268c0 1.708.965 2.996 3.08 2.996 2.99 0 4.86-1.94 5.672-4.759.063-.218-.06-.396-.282-.396h-1.141c-.228 0-.36.13-.418.352-.257 1-.896 2.054-2.154 2.054-.731 0-1.14-.458-1.14-1.237 0-.672.447-2.245.996-4.374a391.1 391.1 0 0 0 .726-2.904" mask="url(#b)"/></g><g transform="translate(0 .133)"><mask id="d" fill="#fff"><use xlink:href="#c"/></mask><path fill="#3D3B48" d="M11.352.043C3.805.043 0 5.442 0 9.943c0 2.726 1.034 5.15 3.253 6.054.364.149.69.005.795-.396.073-.278.247-.98.324-1.272.107-.398.066-.537-.228-.883-.64-.753-1.048-1.728-1.048-3.108 0-4.005 3.003-7.59 7.82-7.59 4.266 0 6.61 2.6 6.61 6.073 0 4.57-2.027 8.426-5.036 8.426-1.662 0-2.906-1.371-2.507-3.053.477-2.008 1.402-4.174 1.402-5.623 0-1.297-.698-2.38-2.142-2.38-1.7 0-3.064 1.754-3.064 4.103 0 1.495.507 2.507.507 2.507l-2.043 8.635c-.607 2.563-.091 5.705-.048 6.023.026.188.268.232.378.09.156-.204 2.18-2.696 2.867-5.186.195-.705 1.118-4.356 1.118-4.356.552 1.05 2.165 1.976 3.88 1.976 5.106 0 8.57-4.645 8.57-10.861 0-4.7-3.99-9.079-10.056-9.079" mask="url(#d)"/></g></g></svg>