<svg id="ikony" xmlns="http://www.w3.org/2000/svg" viewBox="0 0 44.17 43.81"><defs><style>.cls-1,.cls-2,.cls-3{fill:none}.cls-1{stroke:#1bfec0;stroke-width:6px}.cls-1,.cls-3{stroke-linecap:round;stroke-linejoin:round}.cls-2,.cls-3{stroke:#1d1d1b}.cls-2{stroke-miterlimit:10;stroke-width:1.5px}</style></defs><title>animal_icon</title><path class="cls-1" d="M22.08 4.83a18.07 18.07 0 0 1 7.06 34.74"/><path class="cls-2" d="M29.84 30.07c0 4.27-3.47 1.65-7.76 1.65s-7.76 2.62-7.76-1.65a7.76 7.76 0 0 1 15.51 0zM24.79 14.94a2.71 2.71 0 0 1-5.42 0c0-1.49 1.21-3.75 2.71-3.75s2.71 2.26 2.71 3.75zM17.61 18.81a2.71 2.71 0 0 1-5.42 0c0-1.49 1.64-4.48 3.14-4.48s2.28 2.99 2.28 4.48zM29.27 21.51a2.71 2.71 0 0 1-2.71-2.7c0-1.49.78-4.48 2.28-4.48s3.14 3 3.14 4.48a2.71 2.71 0 0 1-2.71 2.7z"/><ellipse class="cls-2" cx="22.08" cy="22.91" rx="18.15" ry="18.08"/><path class="cls-3" d="M43.08 22.91a20.88 20.88 0 0 1-9.26 17.35M12.18 4.45A21 21 0 0 1 22.08 2M1.08 22.91a20.82 20.82 0 0 1 6.15-14.8"/></svg>