<svg id="Warstwa_1" data-name="Warstwa 1" xmlns="http://www.w3.org/2000/svg" viewBox="0 0 96 60"><defs><style>.cls-1{fill:#202020}.cls-2{fill:#5f38fa}.cls-3{fill:#19fedf}</style></defs><title>Obszar roboczy 19</title><path class="cls-1" d="M0 0h2v60H0zM94 0h2v60h-2z"/><path class="cls-1" d="M0 0h96v2H0zM0 58h96v2H0z"/><path class="cls-1" d="M16 0h2v60h-2z"/><path class="cls-2" transform="rotate(90 48.5 10)" d="M47.5-4.5h2v29h-2z"/><path class="cls-2" transform="rotate(90 52 20)" d="M51 2h2v36h-2z"/><path class="cls-2" transform="rotate(90 82.5 20)" d="M81.5 15.5h2v9h-2z"/><path class="cls-2" transform="rotate(90 51.5 30)" d="M50.5 12.5h2v35h-2z"/><path class="cls-2" transform="rotate(90 42 40)" d="M41 32h2v16h-2z"/><path class="cls-2" transform="rotate(90 66 40)" d="M65 32h2v16h-2z"/><path class="cls-2" transform="rotate(90 39 50)" d="M38 45h2v10h-2z"/><path class="cls-2" transform="rotate(90 57 50)" d="M56 45h2v10h-2z"/><path class="cls-2" transform="rotate(90 9 50)" d="M8 46h2v8H8z"/><path class="cls-2" transform="rotate(90 9 40)" d="M8 36h2v8H8z"/><path class="cls-2" transform="rotate(90 9 30)" d="M8 26h2v8H8z"/><path class="cls-2" transform="rotate(90 9 20)" d="M8 16h2v8H8z"/><path class="cls-2" transform="rotate(90 9 10)" d="M8 6h2v8H8z"/><path class="cls-3" d="M21 8h2v4h-2zM21 18h2v4h-2zM21 28h2v4h-2zM21 38h2v4h-2zM21 48h2v4h-2zM25 8h2v4h-2zM25 18h2v4h-2zM25 28h2v4h-2zM25 38h2v4h-2zM25 48h2v4h-2zM29 8h2v4h-2zM29 18h2v4h-2zM29 28h2v4h-2zM29 38h2v4h-2zM29 48h2v4h-2zM47 48h2v4h-2zM53 38h2v4h-2zM73 18h2v4h-2z"/></svg>