<svg id="ikony" xmlns="http://www.w3.org/2000/svg" viewBox="0 0 32.92 45"><defs><style>.cls-1,.cls-2,.cls-3{fill:none;stroke-linecap:round;stroke-linejoin:round}.cls-1{stroke:#1bfec0;stroke-width:6px}.cls-2,.cls-3{stroke:#1d1d1b}.cls-2{stroke-width:1.5px}.cls-4{fill:#1d1d1b}</style></defs><title>budget_icon</title><path class="cls-1" d="M7.38 40.56a45.3 45.3 0 0 0 7.78.3c7.43 0 13.46.78 13.46-8.71 0-7.2-3.47-15.83-8.4-19.57"/><path class="cls-2" d="M4 39.06c2.42 2.1 6.52 1.8 11.17 1.8 7.43 0 13.46.78 13.46-8.71 0-7.2-3.47-15.83-8.4-19.57a1.43 1.43 0 0 1-.44-1.64 1.49 1.49 0 0 0 .07-.59A1.63 1.63 0 0 0 18.18 9a21.31 21.31 0 0 1 3.53-4.72 1.39 1.39 0 0 0-1-2.36 19.21 19.21 0 0 1-11 0 1.39 1.39 0 0 0-1 2.36A21.31 21.31 0 0 1 12.16 9a1.63 1.63 0 0 0-1.67 1.39 1.49 1.49 0 0 0 .07.59 1.43 1.43 0 0 1-.44 1.64c-3.85 2.93-6.82 8.86-7.93 14.75"/><path class="cls-3" d="M27.43 16.56a32.63 32.63 0 0 1 4.26 15.59M24.4 12.31c.48.53.94 1.1 1.38 1.7M1.77 30.22c-.05.65-.08 1.29-.08 1.92a14 14 0 0 0 .47 3.91"/><path class="cls-4" d="M20.83 28c0-2.84-2.45-3.64-4.67-4.2v-3.5a5.74 5.74 0 0 1 2.14.82 1.17 1.17 0 0 0 .67.21 1.22 1.22 0 0 0 1.22-1.14 1 1 0 0 0-.25-.66 6.37 6.37 0 0 0-3.78-1.46V16.3a.77.77 0 0 0-1.54 0v1.75c-2.73.22-4.5 1.88-4.5 4 0 2.73 2.33 3.49 4.5 4v3.94a6.12 6.12 0 0 1-2.79-1.17 1.12 1.12 0 0 0-.67-.21A1.22 1.22 0 0 0 10 29.87a1.06 1.06 0 0 0 .25.69 6.83 6.83 0 0 0 4.41 1.74V34a.77.77 0 0 0 1.54 0v-1.73c3.19-.27 4.63-2.09 4.63-4.27zm-8.14-6.1c0-.92.74-1.56 1.93-1.68v3.2c-1.11-.32-1.93-.72-1.93-1.52zm3.47 8.21v-3.58c1.21.35 2.12.79 2.12 1.74 0 .79-.62 1.64-2.12 1.83z"/></svg>