<svg width="48" height="47" viewBox="0 0 48 47" xmlns="http://www.w3.org/2000/svg"><title>Group</title><g stroke-width="2" fill="none" fill-rule="evenodd"><path d="M35.11 46c-6.484 0-11.74-5.256-11.74-11.74 0-6.483 5.256-11.738 11.74-11.738 6.482 0 11.74 5.255 11.74 11.739C46.85 40.744 41.591 46 35.11 46z" stroke="#7142EB"/><path stroke="#7142EB" stroke-linecap="round" d="M39.023 34.26H35.11v-6.847"/><path d="M39.023 8.826c0 4.322-8.323 7.826-18.587 7.826S1.849 13.148 1.849 8.826C1.85 4.504 10.172 1 20.436 1s18.587 3.504 18.587 7.826z" stroke="#8F8F9B" stroke-linecap="round"/><path d="M7.36 9.743c0-2.293 6.472-4.151 14.454-4.151" stroke="#7142EB" stroke-linecap="round"/><path d="M20.436 24.478c-10.264 0-18.587-3.504-18.587-7.826M17.501 33.186c-8.87-.593-15.652-3.828-15.652-7.73" stroke="#8F8F9B" stroke-linecap="round"/><path d="M18.479 42.044c-9.344-.412-16.63-3.74-16.63-7.783V8.826M39.023 8.826v8.804" stroke="#8F8F9B" stroke-linecap="round"/></g></svg>