<svg id="ikony" xmlns="http://www.w3.org/2000/svg" viewBox="0 0 28.5 47.84"><defs><style>.cls-1,.cls-2,.cls-3{fill:none}.cls-1{stroke:#1bfec0;stroke-width:6px}.cls-1,.cls-3{stroke-linecap:round;stroke-linejoin:round}.cls-2,.cls-3{stroke:#1d1d1b}.cls-2{stroke-miterlimit:10;stroke-width:2px}</style></defs><title>food_icon</title><path class="cls-1" d="M18.51 40.69a9.07 9.07 0 0 0 5.23-8.37A10.41 10.41 0 0 0 22 26.54c-1.33-2-1.85-2.6-1.32-5a7.79 7.79 0 0 0 0-3.21 7.54 7.54 0 0 0-2.08-3.88"/><path class="cls-2" d="M14.7 4.4a5.71 5.71 0 0 0-1.58 5.05 5.72 5.72 0 0 0 6.64-6.64A5.71 5.71 0 0 0 14.7 4.4z"/><path class="cls-3" d="M3.14 17a10.55 10.55 0 0 1 5.19-6.38M26.6 32.32a11.9 11.9 0 0 1-4.05 9.1 14.07 14.07 0 0 1-9.31 3.31"/><path class="cls-2" d="M20.68 21.59a7.79 7.79 0 0 0 0-3.21 7.64 7.64 0 0 0-15 2.88c.46 2.57 0 3.27-1.38 5.48a10.4 10.4 0 0 0-1.59 5 9.79 9.79 0 0 0 9 10c6.45.69 12-3.18 12-9.47A10.41 10.41 0 0 0 22 26.54c-1.33-2-1.85-2.59-1.32-4.95z"/><path class="cls-3" d="M13.23 38a10.08 10.08 0 0 1-1.06 0 6 6 0 0 1-5.6-6 6.62 6.62 0 0 1 1-3.17c1.68-2.67 2.6-4.36 1.9-8.19a3.92 3.92 0 0 1-.06-.68 3.82 3.82 0 0 1 3.82-3.82"/></svg>