<svg id="ikony" xmlns="http://www.w3.org/2000/svg" viewBox="0 0 46 43.4"><defs><style>.cls-1,.cls-2,.cls-3{fill:none}.cls-1{stroke:#1bfec0;stroke-width:6px}.cls-1,.cls-3{stroke-linecap:round;stroke-linejoin:round}.cls-2,.cls-3,.cls-4{stroke:#1d1d1b}.cls-2,.cls-4{stroke-miterlimit:10;stroke-width:1.5px}.cls-4{fill:#fff}</style></defs><title>global_icon</title><path class="cls-1" d="M31.85 3.95A18.86 18.86 0 0 1 23 39.37a18.63 18.63 0 0 1-5-.68"/><ellipse class="cls-2" cx="22.97" cy="20.54" rx="18.72" ry="18.84"/><path class="cls-3" d="M38.85 6.32a21.38 21.38 0 0 1 4.86 9.52M6.95 6.48a21.35 21.35 0 0 1 6.57-5.11M1.71 20.54A21.39 21.39 0 0 1 4.87 9.32"/><path class="cls-2" d="M23 2.77a18.89 18.89 0 0 1 0 35.53M23 38.3a18.89 18.89 0 0 1 0-35.53M6.43 29.51h33.19M4.35 20.99h37.34M6.16 12.46h33.73"/><ellipse class="cls-4" cx="33.5" cy="12.46" rx="1.62" ry="1.63"/><ellipse class="cls-4" cx="10.94" cy="20.99" rx="2.67" ry="2.69"/><ellipse class="cls-4" cx="32.78" cy="29.51" rx="1.71" ry="1.72"/><path class="cls-2" d="M22.97 1.7v37.67"/></svg>