<svg width="53" height="53" viewBox="0 0 53 53" xmlns="http://www.w3.org/2000/svg"><title>Group</title><g stroke-width="2" fill="none" fill-rule="evenodd" stroke-linejoin="round"><path d="M5.435 32.043a4.435 4.435 0 0 1 0-8.87" stroke="#8F8F9B" stroke-linecap="round"/><path d="M32.043 48.674h4.435a7.76 7.76 0 0 0 7.761-7.761v-2.217M32.043 48.674a3.327 3.327 0 0 1-6.652 0 3.327 3.327 0 0 1 6.652 0z" stroke="#7142EB" stroke-linecap="round"/><path d="M14.304 38.696H9.87a4.435 4.435 0 0 1-4.435-4.435V20.957a4.435 4.435 0 0 1 4.435-4.435h4.434v22.174zM47.565 32.043a4.435 4.435 0 0 0 0-8.87" stroke="#8F8F9B" stroke-linecap="round"/><path d="M43.13 38.696a4.435 4.435 0 0 0 4.435-4.435V20.957a4.435 4.435 0 0 0-4.435-4.435h-4.434v22.174h4.434z" stroke="#8F8F9B" stroke-linecap="round"/><path d="M10.978 16.522C10.978 7.95 17.928 1 26.5 1c8.571 0 15.522 6.95 15.522 15.522" stroke="#7142EB"/></g></svg>