<svg id="ikony" xmlns="http://www.w3.org/2000/svg" viewBox="0 0 45.42 43.9"><defs><style>.cls-1,.cls-2,.cls-3,.cls-4,.cls-5{fill:none}.cls-1{stroke:#1bfec0;stroke-width:6px}.cls-1,.cls-2,.cls-3,.cls-4{stroke-linecap:round;stroke-linejoin:round}.cls-2{stroke:#8e8e9a;stroke-width:1.5px}.cls-3,.cls-4,.cls-5{stroke:#1d1d1b}.cls-4,.cls-5{stroke-width:1.4px}.cls-5{stroke-miterlimit:10}</style></defs><title>kitchen_icon</title><g id="KITCHEN_GOODIES" data-name="KITCHEN GOODIES"><path class="cls-1" d="M35.22 37A19.83 19.83 0 0 0 41 27.26a1 1 0 0 0-.93-1.21M35.76 26.06a5.54 5.54 0 0 0 .25-2.4 5.61 5.61 0 0 0-4.71-4.84M38.51 21.17l-2.88 1.06"/><path class="cls-1" d="M33.73 19.83l3.74-1.39a1.47 1.47 0 0 1 1.89.85"/></g><g id="KITCHEN_GOODIES-2" data-name="KITCHEN GOODIES"><path class="cls-2" d="M10.86 42.25h21.17"/><path class="cls-3" d="M40.86 34.72a22.54 22.54 0 0 1-3.32 4M42.83 31a22.64 22.64 0 0 1-1 2.09"/><path class="cls-4" d="M1.86 27.26a19.85 19.85 0 0 0 8.84 12 1 1 0 0 0 .52.15h20.45a1 1 0 0 0 .52-.15 19.85 19.85 0 0 0 8.84-12 1 1 0 0 0-.93-1.21H2.8a1 1 0 0 0-.94 1.21z"/><path class="cls-4" d="M12.07 35.58A15.94 15.94 0 0 1 7 29.87h4.37"/><path class="cls-5" d="M35.76 26.06a5.54 5.54 0 0 0 .25-2.4 5.62 5.62 0 0 0-8.42-4.14 1 1 0 0 1-1.36-.33 5.64 5.64 0 0 0-9.57 0 1 1 0 0 1-1.36.33 5.62 5.62 0 0 0-8.42 4.14 5.54 5.54 0 0 0 .24 2.39"/><path class="cls-3" d="M7.28 10.63a4.84 4.84 0 0 1 3-.32"/><path class="cls-4" d="M9.33 19.71l-1.81-4a1.9 1.9 0 0 1 1-2.52 1.93 1.93 0 0 1 2.55 1l2.11 4.61M33.73 19.83l3.74-1.39a1.47 1.47 0 0 1 1.89.85 1.45 1.45 0 0 1-.86 1.87l-2.88 1.07"/><ellipse class="cls-4" cx="21.93" cy="12.73" rx="2.89" ry="2.86"/><path class="cls-3" d="M22 3.55a7.71 7.71 0 0 1 4.3-1.3"/><path class="cls-4" d="M21.45 9.87a4.79 4.79 0 0 1 4.81-4.76"/></g></svg>