<svg id="ikony" xmlns="http://www.w3.org/2000/svg" viewBox="0 0 48 36.33"><defs><style>.cls-1,.cls-2,.cls-3,.cls-4{fill:none;stroke-linecap:round;stroke-linejoin:round}.cls-1{stroke:#1bfec0;stroke-width:6px}.cls-2,.cls-4{stroke:#1d1d1b}.cls-2,.cls-3{stroke-width:1.5px}.cls-3{stroke:#8e8e9a}</style></defs><title>leraning_icon</title><path class="cls-1" d="M33.19 30.56a51.4 51.4 0 0 1 6.25-.37c1.52 0 3 .06 4.38.18V3.68a50.47 50.47 0 0 0-4.38-.18 44.56 44.56 0 0 0-10.1 1"/><path class="cls-2" d="M24 7.81C24 5.43 17.08 3.5 8.55 3.5c-1.52 0-3 .06-4.37.17v26.7c1.39-.11 2.85-.17 4.37-.17C17.08 30.19 24 32.12 24 34.5M24 34.5c0-2.38 6.91-4.31 15.44-4.31 1.52 0 3 .06 4.38.18V3.68a50.47 50.47 0 0 0-4.38-.18C30.91 3.5 24 5.43 24 7.81M24 34.16V6.69"/><path class="cls-2" d="M27.86 10.11A40.82 40.82 0 0 1 39.4 8.67h1.33"/><path class="cls-3" d="M27.86 15.28a39.7 39.7 0 0 1 10.72-1.44"/><path class="cls-2" d="M27.86 20.44A40.82 40.82 0 0 1 39.4 19h1.33"/><path class="cls-3" d="M34.62 24.38c1.5-.14 3.11-.21 4.77-.21h1.33"/><path class="cls-2" d="M27.86 25.61a25.88 25.88 0 0 1 3-.72"/><path class="cls-3" d="M17.14 9.38a47.8 47.8 0 0 0-8.54-.71H7.27"/><path class="cls-2" d="M10 13.85H7.27M20.14 15.28a32.79 32.79 0 0 0-6.43-1.2M20.14 20.44A40.81 40.81 0 0 0 8.6 19H7.27"/><path class="cls-3" d="M14.09 24.45a52.37 52.37 0 0 0-5.48-.28H7.28"/><path class="cls-4" d="M1.5 24.17V11.42M1.5 9.03V6.69M46.5 9.53v10.19"/></svg>