<svg width="18" height="18" viewBox="0 0 18 18" xmlns="http://www.w3.org/2000/svg"><path d="M0 0h18v18H0V0zm4.295 6.02v5.345a.615.615 0 0 1-.163.53l-1.27 1.54v.204h3.601v-.203l-1.27-1.541a.638.638 0 0 1-.175-.53V6.742L8.18 13.64h.367l2.716-6.897v5.497c0 .147 0 .175-.096.271l-.977.948v.204h4.742v-.204l-.943-.925a.282.282 0 0 1-.107-.271v-6.8a.282.282 0 0 1 .107-.272l.966-.925v-.203h-3.342l-2.383 5.942-2.71-5.942H3.015v.203l1.129 1.36c.11.1.167.246.152.395z" fill="#fff" fill-rule="evenodd"/></svg>