<svg width="56" height="74" viewBox="0 0 56 74" xmlns="http://www.w3.org/2000/svg" xmlns:xlink="http://www.w3.org/1999/xlink"><title>Page 1</title><defs><path id="a" d="M0 .316h55.694v27.608H0z"/><path id="c" d="M0 .303h55.694v27.61H0z"/><path id="e" d="M.317.037H12.47v12.448H.317z"/><path id="g" d="M.132.037h12.153v12.448H.132z"/></defs><g fill="none" fill-rule="evenodd"><g transform="translate(0 46.075)"><mask id="b" fill="#fff"><use xlink:href="#a"/></mask><path d="M55.695.316c0 15.247-12.468 27.608-27.848 27.608C12.467 27.924 0 15.564 0 .316h55.695z" fill="#37118A" mask="url(#b)"/></g><g transform="translate(0 18.15)"><mask id="d" fill="#fff"><use xlink:href="#c"/></mask><path d="M55.695.303c0 15.248-12.468 27.61-27.848 27.61C12.467 27.912 0 15.55 0 .302h55.695z" fill="#5E20E4" mask="url(#d)"/></g><g transform="translate(7)"><mask id="f" fill="#fff"><use xlink:href="#e"/></mask><path d="M12.47 6.26c0 3.438-2.72 6.225-6.077 6.225-3.356 0-6.076-2.787-6.076-6.224 0-3.438 2.72-6.224 6.076-6.224 3.356 0 6.077 2.786 6.077 6.224" fill="#37118A" mask="url(#f)"/></g><g transform="translate(36.4)"><mask id="h" fill="#fff"><use xlink:href="#g"/></mask><path d="M12.285 6.26c0 3.438-2.72 6.225-6.076 6.225-3.356 0-6.077-2.787-6.077-6.224C.132 2.823 2.853.037 6.21.037s6.076 2.786 6.076 6.224" fill="#5E20E4" mask="url(#h)"/></g></g></svg>