<svg id="Warstwa_1" data-name="Warstwa 1" xmlns="http://www.w3.org/2000/svg" viewBox="0 0 96 60"><defs><style>.cls-1{fill:#5f38fa}.cls-2{fill:#19fedf}.cls-3{fill:#fff}</style></defs><title>Obszar roboczy 28</title><path class="cls-1" transform="rotate(90 49 52.5)" d="M45.5 51.5h7v2h-7z"/><path class="cls-1" transform="rotate(180 52.5 13)" d="M43 12h19v2H43z"/><path class="cls-1" transform="rotate(180 60.5 26)" d="M52 25h17v2H52z"/><path class="cls-1" transform="rotate(-90 61 10.5)" d="M57.5 9.5h7v2h-7z"/><path class="cls-1" d="M4 34h18v2H4zM18 16h4v2h-4z"/><circle class="cls-2" cx="17" cy="17" r="2"/><path class="cls-1" transform="rotate(90 40 11.5)" d="M37.5 10.5h5v2h-5z"/><circle class="cls-2" cx="40" cy="4" r="2"/><circle class="cls-2" cx="2" cy="35" r="2"/><circle class="cls-2" cx="49" cy="57" r="2"/><circle class="cls-2" cx="49" cy="48" r="2"/><circle class="cls-2" cx="74" cy="26" r="2"/><path class="cls-1" d="M12 22h10v2H12z"/><circle class="cls-2" cx="10" cy="23" r="2"/><path class="cls-1" transform="rotate(180 54.5 34)" d="M52 33h5v2h-5z"/><circle class="cls-2" cx="62" cy="34" r="2"/><path class="cls-1" transform="rotate(180 69.5 18)" d="M52 17h35v2H52z"/><circle class="cls-2" cx="92.5" cy="18" r="2.5"/><circle class="cls-2" cx="61" cy="2" r="2"/><path class="cls-1" transform="rotate(-90 25 48.5)" d="M20.5 47.5h9v2h-9z"/><path class="cls-1" transform="rotate(-180 21 52)" d="M16 51h10v2H16z"/><circle class="cls-2" cx="15" cy="52" r="2"/><path class="cls-1" d="M29 21h2v16h-2zM43 21h2v16h-2z"/><path class="cls-1" transform="rotate(90 37 22)" d="M36 14h2v16h-2z"/><path class="cls-1" transform="rotate(90 37 36)" d="M36 28h2v16h-2z"/><path class="cls-2" transform="rotate(-90 39.5 31.5)" d="M38 30h3v3h-3z"/><path class="cls-2" transform="rotate(-90 39.5 26.5)" d="M38 25h3v3h-3z"/><path class="cls-2" transform="rotate(-90 34.5 31.5)" d="M33 30h3v3h-3z"/><path class="cls-2" transform="rotate(-90 34.5 26.5)" d="M33 25h3v3h-3z"/><path class="cls-3" d="M24 16v26h21v-2H26V18h22v24h2V16H24z"/></svg>