<svg id="Warstwa_1" data-name="Warstwa 1" xmlns="http://www.w3.org/2000/svg" viewBox="0 0 96 60"><defs><style>.cls-1{fill:#fff}.cls-2{fill:#5f38fa}.cls-3{fill:#19fedf}</style></defs><title>Obszar roboczy 7</title><path class="cls-1" d="M2 30h2v21H2zM69 30h2v21h-2zM71 12h2v11h-2zM0 12h2v11H0zM0 10h73v2H0zM23 0h2v6h-2zM49 0h2v6h-2z"/><path class="cls-1" d="M23 0h28v2H23z"/><path class="cls-2" d="M47 6h6v2h-6zM21 6h6v2h-6z"/><path class="cls-3" d="M19 29h4v2h-4zM51 29h4v2h-4z"/><path class="cls-2" d="M2.14 26H15v2H2.14zM27 26h20v2H27zM6 49h61v2H6zM20 14h2v7h-2zM52 14h2v7h-2z"/><path class="cls-1" d="M27 22h20v2H27zM0 22h15v2H0z"/><path class="cls-2" d="M59 26h12v2H59z"/><path class="cls-1" d="M59 22h14v2H59zM0 53h73v2H0z"/><path class="cls-2" d="M18 20h2v8h-2zM22 20h2v8h-2z"/><path class="cls-2" d="M18 20h5v2h-5zM18 27h6v2h-6zM50 20h2v8h-2zM54 20h2v8h-2z"/><path class="cls-1" d="M71 53h2v7h-2zM0 53h2v7H0z"/><path class="cls-2" d="M50 20h6v2h-6zM50 27h6v2h-6z"/><path class="cls-1" d="M0 58h68v2H0z"/><path class="cls-3" d="M4 14h2v6H4z"/><path class="cls-3" transform="rotate(90 10.5 15)" d="M9.5 8.5h2v13h-2z"/><path class="cls-3" transform="rotate(90 37 15)" d="M36 3h2v24h-2z"/><path class="cls-3" transform="rotate(90 63 15)" d="M62 9h2v12h-2z"/></svg>