<svg id="Warstwa_1" data-name="Warstwa 1" xmlns="http://www.w3.org/2000/svg" viewBox="0 0 96 60"><defs><style>.cls-1{fill:#fff}.cls-2{fill:#5f38fa}.cls-3{fill:#19fedf}.cls-4{fill:none;stroke:#19fedf;stroke-miterlimit:10;stroke-width:2px}</style></defs><title>Obszar roboczy 24</title><path class="cls-1" d="M5 0v60h86V0zm84 58H7V2h82z"/><path class="cls-2" d="M13 7h2v46h-2z"/><path class="cls-2" transform="rotate(90 38 8)" d="M37-17h2v50h-2z"/><path class="cls-2" d="M68 7l-11 4V7h11z"/><path class="cls-2" transform="rotate(180 82 30)" d="M81 7h2v46h-2z"/><path class="cls-2" transform="rotate(-90 58 52)" d="M57 27h2v50h-2z"/><path class="cls-2" d="M28 53l11-4v4H28z"/><path class="cls-3" d="M49 19.5a5 5 0 1 1-5 5 5 5 0 0 1 5-5m0-2a7 7 0 1 0 7 7 7 7 0 0 0-7-7zM65 23.5a3 3 0 1 1-3 3 3 3 0 0 1 3-3m0-2a5 5 0 1 0 5 5 5 5 0 0 0-5-5zM33 23.5a3 3 0 1 1-3 3 3 3 0 0 1 3-3m0-2a5 5 0 1 0 5 5 5 5 0 0 0-5-5z"/><path class="cls-4" d="M27 37.5a5 5 0 0 0-5 5M75 42.5a5 5 0 0 0-5-5M42 35.5a7 7 0 0 0-7 7M63 42.5a7 7 0 0 0-7-7"/></svg>