<svg id="Warstwa_1" data-name="Warstwa 1" xmlns="http://www.w3.org/2000/svg" viewBox="0 0 96 60"><defs><style>.cls-1{fill:#5f38fa}.cls-2{fill:#19fedf}.cls-3{fill:#fff}</style></defs><title>Obszar roboczy 25</title><path class="cls-1" d="M49 15h2v7h-2z"/><path class="cls-1" transform="rotate(90 27.5 29)" d="M26.5 22.5h2v13h-2z"/><path class="cls-1" transform="rotate(90 73.5 8)" d="M72.5.5h2v15h-2z"/><path class="cls-1" transform="rotate(90 43 41)" d="M42 9h2v64h-2z"/><path class="cls-1" transform="rotate(180 8 22)" d="M7 20h2v4H7z"/><path class="cls-1" transform="rotate(180 74 44.5)" d="M73 41h2v7h-2z"/><path class="cls-1" transform="rotate(180 80 28)" d="M79 8h2v40h-2z"/><path class="cls-1" transform="rotate(180 12 37.5)" d="M11 33h2v9h-2z"/><path class="cls-2" transform="rotate(90 13 29)" d="M12 24h2v10h-2z"/><path class="cls-2" d="M38 6h24v2H38zM38 10h24v2H38zM56 50h9v2h-9z"/><path class="cls-1" d="M38 26h10v2H38zM38 30h10v2H38z"/><path class="cls-1" transform="rotate(90 47 28.5)" d="M44.5 27.5h5v2h-5z"/><path class="cls-1" transform="rotate(90 39 28.5)" d="M36.5 27.5h5v2h-5z"/><path class="cls-2" d="M51 30h8v2h-8zM51 26h8v2h-8zM67 50h22v2H67zM56 54h9v2h-9zM67 54h22v2H67z"/><path class="cls-3" d="M30 2v14h36V2zm34 12H32V4h32zM34 22v14h30V22zm28 12H36V24h26zM0 24v10h23V24zm21 8H2v-6h19zM51 46v14h43V46zm41 12H53V48h39z"/><path class="cls-1" d="M34 6h2v2h-2zM34 10h2v2h-2zM4 28h2v2H4z"/><path class="cls-3" d="M0 6v14h23V6zm21 12H2V8h19z"/><path class="cls-1" d="M4 14h2v2H4z"/><path class="cls-2" transform="rotate(90 13.5 11)" d="M12.5 5.5h2v11h-2z"/><path class="cls-2" transform="rotate(90 13.5 15)" d="M12.5 9.5h2v11h-2z"/><path class="cls-1" d="M4 10h2v2H4z"/></svg>