<svg id="Warstwa_1" data-name="Warstwa 1" xmlns="http://www.w3.org/2000/svg" viewBox="0 0 96 60"><defs><style>.cls-1{fill:#fff}.cls-2{fill:#5f38fa}.cls-3{fill:#19fedf}</style></defs><title>Obszar roboczy 20</title><path class="cls-1" d="M0 0h2v60H0zM94 0h2v60h-2z"/><path class="cls-1" d="M0 0h96v2H0zM0 58h96v2H0z"/><path class="cls-2" d="M30 6h2v29h-2z"/><path class="cls-3" d="M34 17h2v12h-2z"/><path class="cls-3" transform="rotate(90 37 17)" d="M36 14h2v6h-2z"/><path class="cls-2" d="M25 12h2v23h-2zM6 6h2v29H6z"/><path class="cls-3" d="M10 16h2v13h-2z"/><path class="cls-3" transform="rotate(90 13 17)" d="M12 14h2v6h-2z"/><path class="cls-3" transform="rotate(180 11 46)" d="M10 42h2v8h-2z"/><path class="cls-2" transform="rotate(90 60 7)" d="M59-23h2v60h-2z"/><path class="cls-2" transform="rotate(90 16.5 7)" d="M15.5-3.5h2v21h-2z"/><path class="cls-2" transform="rotate(90 16.5 13)" d="M15.5 2.5h2v21h-2z"/><path class="cls-2" transform="rotate(90 13.5 34)" d="M12.5 26.5h2v15h-2z"/><path class="cls-2" d="M88 38h2v16h-2zM6 38h2v16H6z"/><path class="cls-2" transform="rotate(90 48 39)" d="M47-3h2v84h-2z"/><path class="cls-3" transform="rotate(90 48 43)" d="M47 7h2v72h-2z"/><path class="cls-2" transform="rotate(90 45 53)" d="M44 14h2v78h-2z"/><path class="cls-2" transform="rotate(90 60 13)" d="M59-17h2v60h-2z"/><path class="cls-2" transform="rotate(90 57 34)" d="M56 7h2v54h-2z"/><path class="cls-2" d="M88 12h2v23h-2zM10 9h2v2h-2zM14 9h2v2h-2zM34 9h2v2h-2zM38 9h2v2h-2z"/></svg>