<svg id="Warstwa_1" data-name="Warstwa 1" xmlns="http://www.w3.org/2000/svg" viewBox="0 0 96 60"><defs><style>.cls-1{fill:#fff}.cls-2{fill:#5f38fa}.cls-3{fill:#19fedf}</style></defs><title>Obszar roboczy 29 kopia</title><path class="cls-1" d="M21 2v56h64V2zm62 54H23V4h60z"/><path class="cls-2" d="M29 42h3v11h-3zM38 36h3v17h-3zM47 29h3v24h-3zM56 21h3v32h-3zM65 15h3v38h-3zM74 9h3v44h-3z"/><path class="cls-3" d="M28 40h4v2h-4zM37 34h4v2h-4zM46 27h4v2h-4zM55 19h4v2h-4zM65 13h3v2h-3zM74 8h3v2h-3z"/><path class="cls-3" d="M28 41h2v12h-2zM37 35h2v18h-2zM46 28h2v25h-2zM55 20h2v33h-2zM64 13h2v40h-2zM73 8h2v45h-2z"/></svg>