<svg id="Warstwa_1" data-name="Warstwa 1" xmlns="http://www.w3.org/2000/svg" viewBox="0 0 96 60"><defs><style>.cls-1{fill:#fff}.cls-2{fill:#19fedf}.cls-3{fill:#5f38fa}.cls-4,.cls-5{fill:none;stroke:#19fedf;stroke-miterlimit:10;stroke-width:2px}.cls-5{stroke-dasharray:4.52 4.52 4.52 4.52}</style></defs><title>Obszar roboczy 4</title><path class="cls-1" d="M0 0h2v60H0zM12 12h2v48h-2z"/><path class="cls-1" d="M0 0h60v2H0zM12 12h43v2H12z"/><path class="cls-1" transform="rotate(90 59 7)" d="M52 6h14v2H52z"/><path class="cls-1" transform="rotate(180 4.5 59)" d="M0 58h9v2H0z"/><path class="cls-2" d="M4 10h4v2H4zM4 16h4v2H4zM4 22h4v2H4zM4 28h4v2H4zM4 34h4v2H4zM4 40h4v2H4zM4 46h4v2H4zM4 52h4v2H4z"/><path class="cls-2" transform="rotate(90 53 6)" d="M51 5h4v2h-4z"/><path class="cls-2" transform="rotate(90 47 6)" d="M45 5h4v2h-4z"/><path class="cls-2" transform="rotate(90 41 6)" d="M39 5h4v2h-4z"/><path class="cls-2" transform="rotate(90 35 6)" d="M33 5h4v2h-4z"/><path class="cls-2" transform="rotate(90 29 6)" d="M27 5h4v2h-4z"/><path class="cls-2" transform="rotate(90 23 6)" d="M21 5h4v2h-4z"/><path class="cls-2" transform="rotate(90 17 6)" d="M15 5h4v2h-4z"/><path class="cls-2" transform="rotate(90 11 6)" d="M9 5h4v2H9z"/><path class="cls-3" d="M18 18h2v40h-2zM56 18h2v40h-2z"/><path class="cls-3" transform="rotate(90 35.5 57)" d="M34.5 39.5h2v35h-2z"/><path class="cls-3" transform="rotate(90 38 19)" d="M37-1h2v40h-2z"/><path class="cls-4" d="M52 49.31V52h-2.69"/><path class="cls-5" d="M44.78 52H28.95"/><path class="cls-4" d="M26.69 52H24v-2.69"/><path class="cls-5" d="M24 44.78V28.95"/><path class="cls-4" d="M24 26.69V24h2.69"/><path class="cls-5" d="M31.22 24h15.83"/><path class="cls-4" d="M49.31 24H52v2.69"/><path class="cls-5" d="M52 31.22v15.83"/><path class="cls-2" d="M4 4h2v2H4z"/></svg>