<svg id="Warstwa_1" data-name="Warstwa 1" xmlns="http://www.w3.org/2000/svg" viewBox="0 0 96 60"><defs><style>.cls-1{fill:#5f38fa}.cls-2{fill:#fff}.cls-3{fill:#19fedf}</style></defs><title>Obszar roboczy 5</title><path class="cls-1" transform="rotate(90 31 31)" d="M10 5h42v52H10z"/><path class="cls-2" d="M0 0h2v52H0zM60 0h2v53h-2z"/><path class="cls-2" d="M2 0h60v2H2z"/><path class="cls-3" d="M25 5h8v2h-8z"/><path class="cls-3" transform="rotate(-90 28.5 44)" d="M27.5 24.5h2v39h-2z"/><path class="cls-3" transform="rotate(-90 31 38)" d="M30 16h2v44h-2z"/><path class="cls-3" transform="rotate(-90 24.5 34)" d="M23.5 18.5h2v31h-2z"/><path class="cls-3" transform="rotate(-90 27 17)" d="M26-1h2v36h-2z"/><path class="cls-3" transform="rotate(-90 27 25)" d="M26 7h2v36h-2z"/><path class="cls-3" d="M43 16h2v19h-2zM47 16h2v19h-2zM51 16h2v19h-2zM9 16h2v19H9zM51 37h2v8h-2zM9 37h2v8H9z"/><circle class="cls-3" cx="38" cy="6" r="2"/><path class="cls-3" d="M13 20h2v2h-2zM17 20h2v2h-2z"/></svg>