<svg id="Warstwa_1" data-name="Warstwa 1" xmlns="http://www.w3.org/2000/svg" viewBox="0 0 96 60"><defs><style>.cls-1{fill:#fff}.cls-2{fill:#5f38fa}.cls-3{fill:#19fedf}</style></defs><title>Obszar roboczy 27</title><path class="cls-1" d="M1 0h2v60H1zM37 0h2v60h-2z"/><path class="cls-1" transform="rotate(90 20 1)" d="M19-18h2v38h-2z"/><path class="cls-1" transform="rotate(90 56 5)" d="M55-8h2v26h-2z"/><path class="cls-1" transform="rotate(90 56 19)" d="M55 6h2v26h-2z"/><path class="cls-1" transform="rotate(180 68 12)" d="M67 4h2v16h-2z"/><path class="cls-1" transform="rotate(180 44 12)" d="M43 4h2v16h-2z"/><path class="cls-1" transform="rotate(90 56 24)" d="M55 11h2v26h-2z"/><path class="cls-1" transform="rotate(90 56 38)" d="M55 25h2v26h-2z"/><path class="cls-2" d="M73.5 10a1.5 1.5 0 0 1 1.5 1.5V39h-3V11.5a1.5 1.5 0 0 1 1.5-1.5z" transform="rotate(180 73.5 24.5)"/><path class="cls-2" d="M79.5 10a1.5 1.5 0 0 1 1.5 1.5V39h-3V11.5a1.5 1.5 0 0 1 1.5-1.5z" transform="rotate(180 79.5 24.5)"/><path class="cls-1" transform="rotate(180 68 31)" d="M67 23h2v16h-2z"/><path class="cls-1" transform="rotate(180 44 31)" d="M43 23h2v16h-2z"/><path class="cls-1" transform="rotate(90 62 43)" d="M61 24h2v38h-2z"/><path class="cls-1" transform="rotate(90 20 59)" d="M19 40h2v38h-2z"/><path class="cls-1" transform="rotate(180 80 51)" d="M79 42h2v18h-2z"/><path class="cls-1" transform="rotate(180 44 51)" d="M43 42h2v18h-2z"/><path class="cls-1" transform="rotate(90 62 59)" d="M61 40h2v38h-2z"/><path class="cls-3" d="M72 7h3v2h-3zM78 7h3v2h-3zM72 4h3v2h-3zM78 4h3v2h-3zM6 54h15v2H6zM6 50h15v2H6z"/><path class="cls-2" d="M6 46h15v2H6z"/><path class="cls-3" d="M61 54h15v2H61z"/><path class="cls-2" d="M61 50h15v2H61zM48 14h15v2H48z"/><path class="cls-3" d="M48 8h2v2h-2zM6 4h3v3H6zM54 29h4v4h-4z"/></svg>