<svg id="Warstwa_1" data-name="Warstwa 1" xmlns="http://www.w3.org/2000/svg" viewBox="0 0 96 60"><defs><style>.cls-1{fill:#fff}.cls-2{fill:#5f38fa}.cls-3{fill:#19fedf}</style></defs><title>Obszar roboczy 26</title><path class="cls-1" d="M0 11h36.45v2H0zM41 25h49v2H41zM41 46h45v2H41zM0 45h33v2H0z"/><path class="cls-1" transform="rotate(90 36 29)" d="M18 28h36v2H18z"/><path class="cls-1" transform="rotate(90 1 28.23)" d="M-16 27.23h34v2h-34z"/><path class="cls-2" transform="rotate(90 32 29)" d="M18.09 28h27.82v2H18.09z"/><path class="cls-2" transform="rotate(90 5 29)" d="M-8.91 28h27.82v2H-8.91z"/><path class="cls-2" transform="rotate(180 18.5 16)" d="M4 15h29v2H4z"/><path class="cls-2" transform="rotate(180 18.5 42)" d="M4 41h29v2H4z"/><path class="cls-3" d="M17 23h2v7h-2z"/><path class="cls-3" transform="rotate(90 20.5 29)" d="M19.5 25.5h2v7h-2z"/><path class="cls-3" d="M17 19h2v2h-2zM8 28h2v2H8zM17 37h2v2h-2zM27 28h2v2h-2z"/><path class="cls-1" d="M41 25h2v23h-2zM88 25h2v23h-2z"/><path class="cls-3" d="M44 50h49v2H44z"/><path class="cls-3" d="M92 28h2v24h-2zM45 29h2v4h-2zM48 29h2v4h-2z"/><path class="cls-2" d="M52 29h2v15h-2zM77 29h2v15h-2z"/><path class="cls-2" transform="rotate(90 65.5 30)" d="M64.5 16.5h2v27h-2z"/><path class="cls-2" transform="rotate(90 65.5 43)" d="M64.5 29.5h2v27h-2z"/><path class="cls-3" d="M81 40h2v4h-2zM84 40h2v4h-2zM65.5 35a1.5 1.5 0 1 1-1.5 1.5 1.5 1.5 0 0 1 1.5-1.5m0-2a3.5 3.5 0 1 0 3.5 3.5 3.5 3.5 0 0 0-3.5-3.5z"/><path class="cls-2" d="M84 29h2v3h-2zM45 41h2v3h-2z"/><path class="cls-3" d="M50 21H40v-2h11l-1 2zM52 17H40v-2h13l-1 2zM54 13H40v-2h15l-1 2z"/></svg>