<svg width="50" height="48" viewBox="0 0 50 48" xmlns="http://www.w3.org/2000/svg"><title>Group</title><g fill="none" fill-rule="evenodd"><path d="M1 9.178h40.889" stroke="#8F8F9B" stroke-width="2" stroke-linecap="round" stroke-linejoin="round"/><path d="M7.133 4.067a1.021 1.021 0 1 0 0 2.044 1.021 1.021 0 1 0 0-2.044M11.222 4.067a1.021 1.021 0 1 0 0 2.044 1.021 1.021 0 1 0 0-2.044M15.311 4.067a1.021 1.021 0 1 0 0 2.044 1.021 1.021 0 1 0 0-2.044" fill="#7142EB"/><path d="M17.356 33.711H5.089A4.09 4.09 0 0 1 1 29.622V5.09A4.09 4.09 0 0 1 5.089 1H37.8c2.26 0 4.089 1.83 4.089 4.089v12.267" stroke="#8F8F9B" stroke-width="2" stroke-linecap="round"/><path d="M48.022 34.733C48.022 41.51 42.53 47 35.756 47c-6.777 0-12.267-5.491-12.267-12.267 0-6.774 5.49-12.266 12.267-12.266 6.774 0 12.266 5.492 12.266 12.266z" stroke="#7142EB" stroke-width="2"/><path stroke="#7142EB" stroke-width="2" stroke-linecap="round" d="M41.889 31.667l-7.156 7.843-5.11-5.11"/></g></svg>