<svg id="ikony" xmlns="http://www.w3.org/2000/svg" viewBox="0 0 45.17 44.53"><defs><style>.cls-1,.cls-2,.cls-3,.cls-5{fill:none;stroke-linecap:round;stroke-linejoin:round}.cls-1{stroke:#1bfec0;stroke-width:6px}.cls-2,.cls-3,.cls-5{stroke:#1d1d1b}.cls-2{stroke-width:1.5px}.cls-4{fill:#1d1d1b}.cls-5{stroke-width:2px}</style></defs><title>time_icon</title><path class="cls-1" d="M34.83 9.35A17.76 17.76 0 0 1 22.4 39.79"/><circle class="cls-2" cx="22.4" cy="22.03" r="17.76"/><path class="cls-3" d="M19.58 1.73a20.68 20.68 0 0 1 2.82-.19M1.9 22A20.51 20.51 0 0 1 16 2.57M35.63 37.7a20.55 20.55 0 0 1-3.37 2.3M42.9 22a20.42 20.42 0 0 1-4.68 13"/><circle class="cls-4" cx="9.87" cy="22.03" r="1.67"/><circle class="cls-4" cx="34.93" cy="22.03" r="1.67"/><circle class="cls-4" cx="22.4" cy="34.56" r="1.67"/><circle class="cls-4" cx="22.4" cy="9.5" r="1.67"/><path class="cls-5" d="M22.4 14.91v7.12l5.92 5.92"/></svg>