<svg id="Warstwa_1" data-name="Warstwa 1" xmlns="http://www.w3.org/2000/svg" viewBox="0 0 96 60"><defs><style>.cls-1{fill:#202020}.cls-2{fill:#5f38fa}.cls-3{fill:#19fedf}</style></defs><title>icons others</title><path class="cls-1" d="M0 0h2v44H0z"/><path class="cls-1" transform="rotate(90 36 1)" d="M35-35h2v72h-2z"/><path class="cls-1" transform="rotate(90 34 43)" d="M33 9h2v68h-2z"/><path class="cls-1" d="M71 0h2v10h-2zm0 33h2v11h-2zM44 46h2v6h-2z"/><path class="cls-1" transform="rotate(90 36.5 53)" d="M35.5 34.5h2v37h-2z"/><path class="cls-1" transform="rotate(90 34 57)" d="M33 41h2v32h-2z"/><path class="cls-1" d="M27 46h2v6h-2zm6 0h2v4h-2zm-15 7h2v4h-2zm35 0h2v5h-2zm-15-7h2v4h-2z"/><path class="cls-1" transform="rotate(90 36.5 49)" d="M35.5 46.5h2v5h-2z"/><path class="cls-2" d="M5 4h63v36H5z"/><path class="cls-3" transform="rotate(-90 12 7)" d="M11 2h2v10h-2z"/><path class="cls-3" transform="rotate(-90 56.5 14)" d="M55.5-5.5h2v39h-2z"/><path class="cls-3" transform="rotate(-90 55 19)" d="M54 1h2v36h-2z"/><path class="cls-3" transform="rotate(-90 56.5 24)" d="M55.5 4.5h2v39h-2z"/><path class="cls-3" transform="rotate(-90 55 29)" d="M54 11h2v36h-2z"/><path class="cls-3" transform="rotate(180 8 11)" d="M7 6h2v10H7z"/><path class="cls-3" d="M76 23h2v7h-2zm0-10h2v7h-2z"/></svg>