<?xml version="1.0" encoding="utf-8"?>
<!-- Generator: Adobe Illustrator 22.1.0, SVG Export Plug-In . SVG Version: 6.00 Build 0)  -->
<svg version="1.1" id="Layer_1" xmlns="http://www.w3.org/2000/svg" xmlns:xlink="http://www.w3.org/1999/xlink" x="0px" y="0px"
	 viewBox="0 0 176 176" style="enable-background:new 0 0 176 176;" xml:space="preserve">
<style type="text/css">
	.st0{fill:none;}
	.st1{fill:#757575;}
</style>
<rect class="st0" width="176" height="176"/>
<g>
	<circle class="st1" cx="84.7" cy="112.7" r="14"/>
	<circle class="st1" cx="97.3" cy="78" r="10.7"/>
	<path class="st1" d="M60,112.7c0-12.5,9.4-22.9,21.3-24.5c-1.9-2.9-3-6.4-3-10.2c0-10.5,8.5-18.9,18.9-18.9c0.7,0,1.4,0,2,0.1
		c-5.5-4.9-11.4-10.4-16.8-16.5l0,0c0,0,2.4,12.3-7.1,18.1c-8.8,5.2-28.4,12-28.4,35.6c0,14.5,8.3,26.4,19.5,32.8
		C62.5,124.9,60,119.1,60,112.7z"/>
	<path class="st1" d="M115.9,74.5c0.2,1.1,0.3,2.3,0.3,3.4c0,8.5-5.5,15.7-13.3,18c4,4.4,6.4,10.2,6.4,16.6
		c0,8.4-4.1,15.7-10.5,20.1c15.6-4.7,28.2-18.1,28.2-35.7C127.1,88.6,122.5,81.6,115.9,74.5z"/>
</g>
</svg>
