<?xml version="1.0" encoding="utf-8"?>
<!-- Generator: Adobe Illustrator 22.1.0, SVG Export Plug-In . SVG Version: 6.00 Build 0)  -->
<svg version="1.1" id="Layer_1" xmlns="http://www.w3.org/2000/svg" xmlns:xlink="http://www.w3.org/1999/xlink" x="0px" y="0px"
	 viewBox="0 0 156 156" style="enable-background:new 0 0 156 156;" xml:space="preserve">
<style type="text/css">
	.st0{fill:none;}
	.st1{fill:#34b57c;}
	.st2{fill:#E0E0E0;}
	.st3{fill:#9E9E9E;}
	.st4{fill:#FFFFFF;}
</style>
<g>
	<rect class="st0" width="156" height="156"/>
	<g>
		<path class="st1" d="M117.9,129.2C108.8,136,97.6,140,85.4,140c-27.9,0-50.9-21-54.2-47.9h-3c3.3,28.6,27.7,50.9,57.2,50.9
			c13,0,25-4.3,34.7-11.6L117.9,129.2z"/>
	</g>
	<g>
		<path class="st2" d="M140,85.4c0,13.3-4.8,25.5-12.7,34.9l2.1,2.1c8.4-10,13.5-22.9,13.5-37.1c0-25.3-16.3-46.8-39-54.5V34
			C125,41.6,140,61.8,140,85.4z"/>
	</g>
	<g>
		<circle class="st3" cx="76.5" cy="76.5" r="32.5"/>
	</g>
	<path class="st2" d="M101.8,27.8c0-2.4-2-4.4-4.4-4.4H26.2c-2.4,0-4.4,2-4.4,4.4v57.8c0,2.4,2,4.4,4.4,4.4h12.6l-1.3,16.9l18-16.9
		h41.8c2.4,0,4.4-2,4.4-4.4V27.8z"/>
	<g>
		<g>
			<g>
				<g>
					<g>
						<path class="st1" d="M37.6,47.5V29.7c0-8.8,6.6-15.2,15.7-15.7v9.5c-2.7,0.4-5.9,2.6-5.9,6.1v2h5.9v15.8H37.6z"/>
						<path class="st4" d="M52.4,15.1v7.6c-3.1,0.8-5.9,3.4-5.9,6.9v1v2h2h3.9v13.8H38.6V29.7C38.6,21.8,44.3,15.9,52.4,15.1
							 M54.4,13c-10.2,0-17.7,7.1-17.7,16.7v18.8h17.7V30.7h-5.9v-1c0-3.3,3.5-5.2,5.9-5.2V13L54.4,13z"/>
					</g>
				</g>
			</g>
		</g>
		<g>
			<g>
				<g>
					<g>
						<path class="st1" d="M14,47.5V29.7c0-8.8,6.6-15.2,15.7-15.7v9.5c-2.7,0.4-5.9,2.6-5.9,6.1v2h5.9v15.8H14z"/>
						<path class="st4" d="M28.7,15.1v7.6c-3.1,0.8-5.9,3.4-5.9,6.9v1v2h2h3.9v13.8H15V29.7C15,21.8,20.7,15.9,28.7,15.1 M30.7,13
							C20.6,13,13,20.1,13,29.7v18.8h17.7V30.7h-5.9v-1c0-3.3,3.5-5.2,5.9-5.2V13L30.7,13z"/>
					</g>
				</g>
			</g>
		</g>
	</g>
	<path class="st4" d="M97.4,89.9c2.4,0,4.4-2,4.4-4.4V56.1C95.9,48.7,86.7,44,76.5,44C58.6,44,44,58.6,44,76.5
		c0,7,2.2,13.4,5.9,18.7l5.7-5.3H97.4z"/>
	<g>
		<path class="st4" d="M97.4,89.9c2.4,0,4.4-2,4.4-4.4V56.1C95.9,48.7,86.7,44,76.5,44C58.6,44,44,58.6,44,76.5
			c0,7,2.2,13.4,5.9,18.7l5.7-5.3H97.4z"/>
	</g>
	<g>
		<path class="st1" d="M109.8,125.8H83.7c-2.2,0-4-1.8-4-4V85.4c0-2.2,1.8-4,4-4h45c2.2,0,4,1.8,4,4v36.5c0,2.2-1.8,4-4,4h-6.9
			l1.7,12.4L109.8,125.8z"/>
		<g>
			<path class="st4" d="M128.8,82.4c1.6,0,3,1.3,3,3v36.5c0,1.6-1.3,3-3,3h-8l1.5,10.8l-12-10.8H83.7c-1.6,0-3-1.3-3-3V85.4
				c0-1.6,1.3-3,3-3H128.8 M128.8,80.4h-45c-2.7,0-5,2.2-5,5v36.5c0,2.7,2.2,5,5,5h25.7l11.4,10.3l4.1,3.6l-0.7-5.4l-1.2-8.5h5.7
				c2.7,0,5-2.2,5-5V85.4C133.7,82.7,131.5,80.4,128.8,80.4L128.8,80.4z"/>
		</g>
	</g>
</g>
</svg>
