<?xml version="1.0" encoding="utf-8"?>
<!-- Generator: Adobe Illustrator 22.1.0, SVG Export Plug-In . SVG Version: 6.00 Build 0)  -->
<svg version="1.1" id="Layer_1" xmlns="http://www.w3.org/2000/svg" xmlns:xlink="http://www.w3.org/1999/xlink" x="0px" y="0px"
	 viewBox="0 0 176 176" style="enable-background:new 0 0 176 176;" xml:space="preserve">
<style type="text/css">
	.st0{fill:none;}
	.st1{fill:#757575;}
</style>
<rect class="st0" width="176" height="176"/>
<path class="st1" d="M108.5,89.8H133c0-0.6,0-1.2,0-1.9C133,63.1,112.9,43,88,43S43,63.1,43,88s20.1,45,45,45
	c13.2,0,25-5.7,33.2-14.7h-12.7V92.2V89.8z M82.1,54.8l12,3.5L82,62.5l-12.1-4.1L82.1,54.8z M95.3,59.9v16.8L83,82V64.3L95.3,59.9z
	 M68.6,59.9l12.3,4.4V82l-12.3-5.3V59.9z M106.1,110.2h-8.4c0,0-1.4,1.2-4,1.2s-21.5,0-21.5,0l-3.4-3.5h2.7v-1.2h-3.9l-4.4-4.5h8.3
	V101H62L49.2,88c0,0,2.7-6.3,7.7-1.4c1.7,1.7,7.6,7.6,7.6,7.6H89v-1.6h-8c0,0-3.1,0.2-4.7-1.6c-1.6-1.8-1.6-4.7-1.6-4.7h20.4
	l6.6,7.9h4.4C106.1,94.2,106.1,110.2,106.1,110.2z"/>
</svg>
