<?xml version="1.0" encoding="utf-8"?>
<!-- Generator: Adobe Illustrator 22.1.0, SVG Export Plug-In . SVG Version: 6.00 Build 0)  -->
<svg version="1.1" id="Layer_1" xmlns="http://www.w3.org/2000/svg" xmlns:xlink="http://www.w3.org/1999/xlink" x="0px" y="0px"
	 viewBox="0 0 176 176" style="enable-background:new 0 0 176 176;" xml:space="preserve">
<style type="text/css">
	.st0{fill:none;}
	.st1{fill:#757575;}
</style>
<rect class="st0" width="176" height="176"/>
<g>
	<path class="st1" d="M63.5,67.6c10.9,0,18.7,8.9,18.7,19.8s-7.8,19.8-18.7,19.8s-18.7-8.9-18.7-19.8S52.7,67.6,63.5,67.6
		 M33.3,87.5c0,16.3,12.1,29.4,30.1,29.4s30.1-13.2,30.1-29.4S81.1,58,63.5,58S33.3,71.2,33.3,87.5z"/>
	<path class="st1" d="M130.9,117.6h11.8l-23.3-56.7H110l-23.3,56.7h11.8l4.7-12.3H126L130.9,117.6z M106.6,96.7l8.1-20.6l8.1,20.6
		H106.6z"/>
	<polygon class="st1" points="84.6,118 60.8,94.2 72,93.2 95.8,117.6 	"/>
</g>
</svg>
