<?xml version="1.0" encoding="utf-8"?>
<!-- Generator: Adobe Illustrator 22.1.0, SVG Export Plug-In . SVG Version: 6.00 Build 0)  -->
<svg version="1.1" id="Layer_1" xmlns="http://www.w3.org/2000/svg" xmlns:xlink="http://www.w3.org/1999/xlink" x="0px" y="0px"
	 viewBox="0 0 176 176" style="enable-background:new 0 0 176 176;" xml:space="preserve">
<style type="text/css">
	.st0{fill:none;}
	.st1{fill:#24272A;}
</style>
<rect class="st0" width="176" height="176"/>
<g>
	<polygon class="st1" points="131.5,135 131.5,131.2 111,131.2 124.7,119.4 131.5,119.4 131.5,115.6 140.7,125.4 	"/>
	<path class="st1" d="M70.5,113.4c-7.9-5.6-12.9-14.9-12.9-25.4c0-15.4,11.2-28.2,25.9-30.8l-5.6-5.3l5.3-6.6
		c-21.2,2.9-37.4,21-37.4,42.8c0,9.5,3.1,18.2,8.2,25.4L70.5,113.4C70.5,113.5,70.5,113.4,70.5,113.4z"/>
	<path class="st1" d="M92.3,45.2V41l-8.7,9.9l8.7,9.8v-3.4c15,2.2,26.7,15.3,26.7,30.9c0,17.3-14,31.3-31.3,31.3
		c-1.6,0-50.3,0-50.3,0v11.9h51.9l0,0c22.9-0.7,41.5-19.7,41.5-43C130.8,65.9,113.9,47.6,92.3,45.2z"/>
	<g>
		<path class="st1" d="M66.2,91.1c0.7,0,1.2-0.1,1.5-0.4c0.4-0.2,0.5-0.6,0.5-1.1c0-0.2,0-0.5-0.1-0.7s-0.2-0.4-0.5-0.5
			c-0.2-0.1-0.5-0.2-0.7-0.5c-0.2-0.1-0.6-0.2-0.9-0.4c-0.4-0.1-0.7-0.2-1.1-0.5c-0.4-0.1-0.7-0.4-0.9-0.6c-0.2-0.2-0.5-0.5-0.6-0.8
			s-0.2-0.7-0.2-1.2c0-0.9,0.4-1.8,1.1-2.2c0.7-0.6,1.6-0.8,2.7-0.8c0.7,0,1.3,0.1,1.8,0.2s0.9,0.4,1.3,0.5l-0.6,1.5
			c-0.4-0.2-0.7-0.4-1.2-0.5S67.5,83,67,83s-0.9,0.1-1.3,0.4s-0.5,0.5-0.5,0.9c0,0.2,0,0.5,0.1,0.6s0.2,0.4,0.5,0.5s0.4,0.2,0.6,0.4
			c0.2,0.1,0.5,0.2,0.8,0.4c0.5,0.2,0.9,0.4,1.4,0.6c0.4,0.2,0.7,0.5,1.1,0.7c0.2,0.2,0.5,0.6,0.6,0.9c0.1,0.4,0.2,0.8,0.2,1.3
			c0,0.9-0.4,1.8-1.1,2.2c-0.7,0.6-1.6,0.8-3.1,0.8c-0.5,0-0.8,0-1.2-0.1c-0.4,0-0.7-0.1-0.9-0.2c-0.2-0.1-0.6-0.1-0.7-0.2
			c-0.2-0.1-0.4-0.1-0.5-0.2l0.6-1.6c0.2,0.1,0.7,0.4,1.2,0.5C65,90.9,65.6,91.1,66.2,91.1z"/>
		<path class="st1" d="M76.8,92.7c-0.8,0-1.5-0.1-2.2-0.4c-0.6-0.2-1.2-0.6-1.6-1.1s-0.8-1.1-1.1-1.8c-0.2-0.7-0.4-1.5-0.4-2.3
			c0-0.9,0.1-1.6,0.5-2.3c0.2-0.7,0.7-1.3,1.2-1.8s1.1-0.8,1.6-1.1c0.6-0.2,1.3-0.4,2.1-0.4c0.5,0,0.8,0,1.2,0.1
			c0.4,0.1,0.7,0.1,0.9,0.2c0.2,0.1,0.5,0.1,0.7,0.2c0.1,0.1,0.4,0.1,0.4,0.2l-0.6,1.6c-0.2-0.1-0.6-0.4-1.1-0.5s-0.9-0.2-1.5-0.2
			c-0.5,0-0.9,0.1-1.3,0.2s-0.7,0.4-1.1,0.7s-0.5,0.7-0.7,1.2c-0.1,0.4-0.1,0.9-0.1,1.5s0.1,1.1,0.2,1.5s0.4,0.9,0.6,1.3
			s0.6,0.6,1.1,0.8s0.9,0.2,1.5,0.2c0.7,0,1.3-0.1,1.6-0.2c0.5-0.1,0.8-0.2,1.1-0.4l0.5,1.6c-0.1,0.1-0.2,0.1-0.5,0.2
			s-0.5,0.1-0.7,0.2s-0.6,0.1-0.9,0.2C77.6,92.7,77.2,92.7,76.8,92.7z"/>
		<path class="st1" d="M84.9,81.7c1.5,0,2.7,0.2,3.5,0.8s1.3,1.4,1.3,2.6c0,1.4-0.7,2.5-2.1,2.9c0.2,0.2,0.5,0.5,0.7,0.8
			c0.2,0.4,0.5,0.7,0.7,1.1s0.5,0.8,0.7,1.2c0.2,0.5,0.5,0.8,0.6,1.3h-2.2c-0.2-0.4-0.4-0.7-0.6-1.2c-0.2-0.4-0.5-0.7-0.7-1.1
			s-0.5-0.7-0.7-1.1s-0.5-0.6-0.6-0.8c-0.1,0-0.2,0-0.4,0s-0.2,0-0.4,0h-0.9v4.1h-1.9V81.8c0.5-0.1,0.9-0.1,1.5-0.2
			C84.1,81.7,84.5,81.7,84.9,81.7z M85,83.3c-0.5,0-0.8,0-1.2,0v3.5h0.8c0.5,0,0.9,0,1.3-0.1c0.4,0,0.7-0.1,0.9-0.2s0.5-0.4,0.6-0.6
			s0.2-0.5,0.2-0.8s-0.1-0.6-0.2-0.8s-0.4-0.4-0.6-0.6c-0.2-0.1-0.5-0.2-0.8-0.2C85.8,83.3,85.5,83.3,85,83.3z"/>
		<path class="st1" d="M96,92.7c-0.7,0-1.4-0.1-1.9-0.4c-0.5-0.2-0.9-0.5-1.3-0.9s-0.6-0.8-0.8-1.3c-0.1-0.5-0.2-1.1-0.2-1.8v-6.7h2
			v6.6c0,0.5,0,0.9,0.1,1.3s0.2,0.6,0.5,0.8s0.5,0.4,0.7,0.5s0.6,0.1,0.9,0.1c0.4,0,0.7,0,0.9-0.1c0.2-0.1,0.5-0.2,0.7-0.5
			s0.4-0.5,0.5-0.8c0.1-0.4,0.1-0.7,0.1-1.3v-6.6h2v6.7c0,0.6-0.1,1.2-0.2,1.8c-0.1,0.5-0.5,0.9-0.8,1.3s-0.8,0.7-1.3,0.9
			C97.5,92.6,96.7,92.7,96,92.7z"/>
		<path class="st1" d="M105.1,81.8c0.2,0.4,0.5,0.8,0.7,1.4s0.6,1.2,0.8,1.8s0.6,1.3,0.8,1.9c0.2,0.7,0.6,1.3,0.8,1.8
			c0.2-0.6,0.5-1.2,0.8-1.8c0.2-0.7,0.6-1.3,0.8-1.9c0.2-0.6,0.6-1.2,0.8-1.8c0.2-0.6,0.6-1.1,0.7-1.4h1.8c0.1,0.8,0.2,1.6,0.2,2.5
			c0.1,0.9,0.1,1.8,0.2,2.7c0.1,0.9,0.1,1.9,0.2,2.8c0,0.9,0.1,1.9,0.1,2.7h-1.9c0-1.3-0.1-2.6-0.1-3.9s-0.1-2.6-0.2-3.9
			c-0.1,0.2-0.2,0.5-0.4,0.8c-0.1,0.4-0.4,0.7-0.5,1.1s-0.4,0.8-0.6,1.2c-0.2,0.5-0.4,0.8-0.5,1.2s-0.4,0.7-0.5,1.1
			s-0.2,0.6-0.4,0.8h-1.4c-0.1-0.2-0.2-0.5-0.4-0.8s-0.4-0.7-0.5-1.1s-0.4-0.8-0.5-1.2c-0.2-0.5-0.4-0.8-0.6-1.2
			c-0.1-0.4-0.4-0.7-0.5-1.1s-0.2-0.6-0.4-0.8c-0.1,1.3-0.2,2.6-0.2,3.9s-0.1,2.6-0.1,3.9h-1.9c0-0.9,0.1-1.8,0.1-2.8
			c0-0.9,0.1-1.9,0.2-2.8s0.1-1.9,0.2-2.7s0.1-1.6,0.2-2.5h1.5v0.1H105.1z"/>
	</g>
</g>
</svg>
