<?xml version="1.0" encoding="utf-8"?>
<!-- Generator: Adobe Illustrator 22.1.0, SVG Export Plug-In . SVG Version: 6.00 Build 0)  -->
<svg version="1.1" id="Layer_1" xmlns="http://www.w3.org/2000/svg" xmlns:xlink="http://www.w3.org/1999/xlink" x="0px" y="0px"
	 viewBox="0 0 176 176" style="enable-background:new 0 0 176 176;" xml:space="preserve">
<style type="text/css">
	.st0{fill:none;}
	.st1{fill:#24272A;}
</style>
<rect class="st0" width="176" height="176"/>
<g>
	<g>
		<path class="st1" d="M129.1,62.1L69,43.3c-2.9-0.9-6,0.7-6.9,3.6L43.3,107c-0.9,2.9,0.7,6,3.6,7l60.1,18.8c2.9,0.9,6-0.7,6.9-3.6
			l18.8-60.1C133.7,66.1,132,63,129.1,62.1L129.1,62.1L129.1,62.1z M71.5,106.8c0,2.5-2.1,4.6-4.7,4.6l0,0c-2.6,0-4.7-2.1-4.7-4.6
			V83c0-2.5,2.1-4.6,4.7-4.6l0,0c2.6,0,4.7,2.1,4.7,4.6V106.8L71.5,106.8z M66.8,73.7c-2.6,0-4.7-2.1-4.7-4.7s2.1-4.7,4.7-4.7
			s4.7,2.1,4.7,4.7S69.4,73.7,66.8,73.7L66.8,73.7L66.8,73.7z M96.5,111.6c-11.7,0-21.1-9.7-21.1-21.4S84.9,69,96.6,69
			c6,0,11.5,2.5,15.3,6.6l2.3-4c2.3,6.2,3.8,13.6,3.8,18.5C118,101.8,108.2,111.6,96.5,111.6L96.5,111.6L96.5,111.6z"/>
		<path class="st1" d="M88.6,104.7c2.3-0.7,4.7-1.5,6.7-2.1c8-2.6,14.9-9.1,16.7-17.2c-1.4,3.8-7.4,11.4-16.6,14.3
			c-3,0.9-6,1.5-9.1,2.2c-0.4,0.1-0.9,0-1.3-0.2c-1.9-1.2-3-3.4-3.2-5.5c-0.4-5.8,3.5-10.7,9.5-11.9c2.5-0.5,5.1-0.4,7.6-0.7
			c6.7-0.7,13.1-5.5,15-9.6c0,0,0.3,0.8,0.4,1c1.4,4.5,2.6,9.1,2.7,13.9c0.1,2.6-0.2,5.1-1.1,7.6c-1.8,4.9-5.6,7.4-10.6,8
			c-2.9,0.3-5.9,0.3-8.9,0.3C94,104.8,91.3,104.7,88.6,104.7"/>
		<path class="st1" d="M85.6,104.9c0,1-0.8,1.8-1.8,1.8s-1.8-0.8-1.8-1.8s0.8-1.8,1.8-1.8C84.8,103.1,85.6,103.9,85.6,104.9"/>
	</g>
</g>
</svg>
