<?xml version="1.0" encoding="utf-8"?>
<!-- Generator: Adobe Illustrator 22.1.0, SVG Export Plug-In . SVG Version: 6.00 Build 0)  -->
<svg version="1.1" id="Layer_1" xmlns="http://www.w3.org/2000/svg" xmlns:xlink="http://www.w3.org/1999/xlink" x="0px" y="0px"
	 viewBox="0 0 176 176" style="enable-background:new 0 0 176 176;" xml:space="preserve">
<style type="text/css">
	.st0{fill:none;}
	.st1{fill:#24272A;}
</style>
<rect class="st0" width="176" height="176"/>
<g>
	<g>
		<ellipse class="st1" cx="74.5" cy="85.4" rx="3.2" ry="4.5"/>
		<path class="st1" d="M74.4,41C57.1,41,43,46.7,43,53.7c0,4.7,0,52.7,0,57.4c0,6.4,11.6,11.7,26.6,12.6c-0.1-0.7-0.2-1.6-0.2-2.4
			c0-8.5,6.9-15.5,15.6-15.5c0.7,0,1.5,0.1,2.2,0.2c3.5-7.2,10.6-11.8,18.7-12c0-15.9,0-37.3,0-40.4C105.8,46.7,91.8,41,74.4,41z
			 M64.8,89.4c-0.3,1.8-2.2,6.3-12,3.9V89c0,0,2.7,1.4,4.4,1.5s2.2-0.8,2.2-1.5c0-0.6-0.7-1.1-3.4-2.3c-4-1.7-5.8-8.3,1.8-9.7
			c2.4-0.5,6,0.7,6,0.7v3.8c0,0-1.7-0.8-3.4-1s-2.5,0.1-2.6,0.9s0.3,1.6,3.4,2.8C64.3,85.4,65.2,87.6,64.8,89.4z M77.7,98l-3.4-4
			c-4.5-0.1-8.1-3.9-8.1-8.6s3.7-8.6,8.3-8.6c4.6,0,8.3,3.9,8.3,8.6c0,3.3-1.9,6.3-4.6,7.6l5.4,4.9L77.7,98L77.7,98L77.7,98z
			 M95.9,94H85.6V76.8h4.7v13H96L95.9,94L95.9,94z M74.4,59c-12.3,0-22.3-2.9-22.3-6.6s10-6.6,22.3-6.6s22.3,2.9,22.3,6.6
			S86.7,59,74.4,59z"/>
	</g>
	<path class="st1" d="M106.4,98.2c9.6,0,17.5,7.7,17.5,17.3c0,1-0.1,2.1-0.3,3.1l-0.4,2.3l2.3,0.2c3,0.2,5.4,2.8,5.4,5.8
		c0,3.2-2.6,5.8-5.9,5.8H85c-6.3,0-11.5-5.1-11.5-11.4s5.2-11.4,11.5-11.4c0.9,0,1.9,0.1,2.8,0.3l1.8,0.4l0.7-1.8
		C92.9,102.6,99.3,98.2,106.4,98.2 M106.4,96.1c-8.3,0-15.4,5.1-18.2,12.3c-1.1-0.3-2.2-0.4-3.4-0.4c-7.5,0-13.6,6.1-13.6,13.5
		c0.1,7.4,6.2,13.5,13.7,13.5c3.8,0,37.1,0,40.1,0c4.4,0,8-3.6,8-7.9c0-4.2-3.3-7.6-7.4-7.9c0.2-1.1,0.3-2.3,0.3-3.6
		C126,104.8,117.2,96.1,106.4,96.1L106.4,96.1z"/>
</g>
</svg>
