<?xml version="1.0" encoding="utf-8"?>
<!-- Generator: Adobe Illustrator 22.1.0, SVG Export Plug-In . SVG Version: 6.00 Build 0)  -->
<svg version="1.1" id="Layer_1" xmlns="http://www.w3.org/2000/svg" xmlns:xlink="http://www.w3.org/1999/xlink" x="0px" y="0px"
	 viewBox="0 0 176 176" style="enable-background:new 0 0 176 176;" xml:space="preserve">
<style type="text/css">
	.st0{fill:none;}
	.st1{fill:#757575;}
</style>
<rect class="st0" width="176" height="176"/>
<path class="st1" d="M88,44c-24.3,0-44,19.7-44,44s19.7,44,44,44s44-19.7,44-44S112.3,44,88,44z M111.7,69.4c-2.1,0.1-3.4-1.2-3.5-3
	c0-0.7,0.2-1.3,0.6-2c0.5-0.9,0.6-1,0.6-1.4c0-1.2-1.8-1.2-2.2-1.2c-6.6,0.2-8.3,9.1-9.8,16.3L96.7,82c3.8,0.6,6.5-0.1,8-1.1
	c2.2-1.4-0.6-2.7-0.3-4.3c0.4-1.6,1.8-2.3,2.9-2.3c1.6,0,2.7,1.7,2.7,3.3c-0.1,2.8-3.8,6.6-11.2,6.6c-0.9,0-1.8-0.1-2.5-0.2
	l-1.4,7.5c-1.3,5.9-2.9,13.9-8.9,20.9c-5.2,6.1-10.4,7-12.7,7.1c-4.4,0.2-7.2-2.2-7.3-5.3c-0.1-3,2.5-4.7,4.3-4.7
	c2.3-0.1,3.9,1.6,4,3.5c0.1,1.7-0.8,2.2-1.4,2.4c-0.4,0.3-1,0.6-1,1.3c0,0.3,0.3,1,1.3,0.9c1.9-0.1,3-1,3.9-1.6
	c4.3-3.5,5.9-9.7,8-20.9l0.5-2.7c0.7-3.6,1.6-7.7,2.7-11.8c-3-2.2-4.8-5.1-8.8-6.2c-2.7-0.8-4.5-0.1-5.7,1.4c-1.4,1.8-1,4.1,0.4,5.5
	l2.2,2.4c2.7,3.1,4.2,5.7,3.7,9c-0.9,5.3-7.2,9.4-14.7,7c-6.4-2-7.5-6.5-6.8-9c0.7-2.2,2.4-2.6,4.1-2.1c1.9,0.6,2.5,2.7,2.1,4.5
	c-0.1,0.2-0.2,0.5-0.4,0.9c-0.2,0.5-0.6,0.9-0.8,1.5c-0.4,1.4,1.5,2.2,2.7,2.6c2.8,0.9,5.7-0.6,6.4-2.9c0.7-2.2-0.7-3.6-1.3-4.2
	l-2.7-2.9c-1.3-1.4-3.9-5.2-2.6-9.5c0.5-1.7,1.6-3.4,3.1-4.6c3.3-2.4,6.8-2.8,10.3-1.9c4.4,1.3,6.6,4.2,9.3,6.5
	c1.6-4.5,3.7-8.9,6.8-12.7c2.9-3.4,6.8-5.9,11.2-6.1c4.5-0.1,7.8,1.9,7.9,5.1C115.2,66.7,114.4,69.3,111.7,69.4z"/>
</svg>
