<?xml version="1.0" encoding="utf-8"?>
<!-- Generator: Adobe Illustrator 22.1.0, SVG Export Plug-In . SVG Version: 6.00 Build 0)  -->
<svg version="1.1" id="Layer_1" xmlns="http://www.w3.org/2000/svg" xmlns:xlink="http://www.w3.org/1999/xlink" x="0px" y="0px"
	 viewBox="0 0 176 176" style="enable-background:new 0 0 176 176;" xml:space="preserve">
<style type="text/css">
	.st0{fill:none;}
	.st1{fill:#24272A;}
</style>
<rect class="st0" width="176" height="176"/>
<g>
	<path class="st1" d="M68.1,46.1c-2.5,0-5,1.5-6.3,3.7L41.9,84.4c-1.3,2.2-1.3,5.1,0,7.3l19.9,34.7c1.3,2.2,3.8,3.7,6.3,3.7h39.8
		c2.5,0,5-1.5,6.3-3.7l19.9-34.7c1.3-2.2,1.3-5.1,0-7.3l-19.9-34.7c-1.3-2.3-3.7-3.7-6.3-3.7L68.1,46.1L68.1,46.1z M68.4,66.3
		c0.1,0,0.1,0,0.2,0h6.8c0.3,0,0.6,0.2,0.7,0.4l11.6,20.7c0.1,0.1,0.1,0.2,0.1,0.3c0-0.1,0-0.2,0.1-0.3l11.6-20.7
		c0.1-0.3,0.4-0.4,0.7-0.4h6.9c0.6,0,1,0.7,0.7,1.4L96.8,88l11.4,20.3c0.3,0.5-0.1,1.4-0.7,1.4h-6.9c-0.3,0-0.6-0.2-0.7-0.5
		L88.1,88.4C88,88.3,88,88.2,88,88.1c0,0.1,0,0.2-0.1,0.3l-11.6,20.7c-0.1,0.3-0.4,0.4-0.7,0.5h-6.9c-0.6,0-1-0.8-0.7-1.4L79.2,88
		L67.8,67.7C67.6,67.2,67.9,66.4,68.4,66.3L68.4,66.3L68.4,66.3z"/>
</g>
</svg>
