<?xml version="1.0" encoding="utf-8"?>
<!-- Generator: Adobe Illustrator 22.1.0, SVG Export Plug-In . SVG Version: 6.00 Build 0)  -->
<svg version="1.1" id="Layer_1" xmlns="http://www.w3.org/2000/svg" xmlns:xlink="http://www.w3.org/1999/xlink" x="0px" y="0px"
	 viewBox="0 0 176 176" style="enable-background:new 0 0 176 176;" xml:space="preserve">
<style type="text/css">
	.st0{fill:none;}
	.st1{fill:#757575;}
</style>
<rect class="st0" width="176" height="176"/>
<g>
	<path class="st1" d="M84.3,75.4c0,0,0-16.5,16.5-16.5h49.7c0,0,0,16.5-16.5,16.5H84.3"/>
	<path class="st1" d="M84.3,96.6c0,0,0-16.5,16.5-16.5h24.9c0,0,0,16.5-16.5,16.5H84.3"/>
	<path class="st1" d="M84.3,117.7c0,0,0-16.5,16.5-16.5h8.3c0,0,0,16.5-16.5,16.5H84.3"/>
	<path class="st1" d="M78.7,104.8V118H25.5l34.3-46.8H30.4V58H86l-34.2,46.8H78.7"/>
</g>
</svg>
