<?xml version="1.0" encoding="utf-8"?>
<!-- Generator: Adobe Illustrator 22.1.0, SVG Export Plug-In . SVG Version: 6.00 Build 0)  -->
<svg version="1.1" id="Layer_1" xmlns="http://www.w3.org/2000/svg" xmlns:xlink="http://www.w3.org/1999/xlink" x="0px" y="0px"
	 viewBox="0 0 176 176" style="enable-background:new 0 0 176 176;" xml:space="preserve">
<style type="text/css">
	.st0{fill:none;}
	.st1{fill:#24272A;}
</style>
<rect x="-1" y="-1" class="st0" width="176" height="176"/>
<g>
	<path class="st1" d="M99.1,97.3c-3.2,5.5-9.1,9.2-16.1,9.2c-10.3,0-18.6-8.3-18.6-18.5S72.7,69.5,83,69.5c6.9,0,12.9,3.7,16.1,9.3
		l16.1-9.2C108.8,58.4,96.9,51,83.1,51C62.6,51,46,67.5,46,88s16.6,37,37.1,37c13.7,0,25.7-7.4,32.1-18.4L99.1,97.3z"/>
	<g>
		<polygon class="st1" points="113.9,97.9 118.3,77.1 121.9,77.1 117.4,97.9 		"/>
		<polygon class="st1" points="120.8,97.9 125.2,77.1 128.8,77.1 124.4,97.9 		"/>
	</g>
	<g>
		<rect x="112.6" y="89.1" class="st1" width="17.4" height="3.5"/>
		<rect x="112.6" y="82.2" class="st1" width="17.4" height="3.5"/>
	</g>
</g>
</svg>
