<svg xmlns="http://www.w3.org/2000/svg" width="88" height="88" viewBox="0 0 88 88"><defs><linearGradient id="a" x1="7.632%" x2="107.89%" y1="79.376%" y2="22.233%"><stop offset="0%" stop-color="#896BEB"/><stop offset="100%" stop-color="#2E097C"/></linearGradient><linearGradient id="b" x1="4.077%" x2="95.923%" y1="45.923%" y2="45.923%"><stop offset="0%" stop-color="#F0EAFF"/><stop offset="100%" stop-color="#CCBBFB"/></linearGradient><linearGradient id="c" x1="57.225%" x2="57.225%" y1="124.371%" y2="29.782%"><stop offset="0%" stop-color="#AC93FF"/><stop offset="100%" stop-color="#2E097C"/></linearGradient><linearGradient id="d" x1="57.225%" x2="57.225%" y1="128.969%" y2="29.782%"><stop offset="4.636%" stop-color="#AC93FF"/><stop offset="100%" stop-color="#2E097C"/></linearGradient><linearGradient id="e" x1="68.163%" x2="63.617%" y1="-56.59%" y2="76.461%"><stop offset="0%" stop-color="#896BEB"/><stop offset="100%" stop-color="#2E097C"/></linearGradient><linearGradient id="f" x1="16.583%" x2="109.608%" y1="10.882%" y2="90.764%"><stop offset="0%" stop-color="#C9B3FF"/><stop offset="100%" stop-color="#2D098E"/></linearGradient><linearGradient id="g" x1="50%" x2="50%" y1="0%" y2="91.846%"><stop offset="0%" stop-color="#F0EAFF"/><stop offset="100%" stop-color="#CCBBFB"/></linearGradient></defs><g fill="none" fill-rule="evenodd"><path fill="url(#a)" d="M18.197 0H81.89a6.066 6.066 0 0 1 6.066 6.066v47.01a6.066 6.066 0 0 1-6.066 6.066H18.197a6.066 6.066 0 0 1-6.065-6.066V6.066A6.066 6.066 0 0 1 18.197 0z"/><path fill="url(#b)" fill-rule="nonzero" d="M16.681 10.615h66.724v3.033H16.681zm0 6.066h15.165v3.033H16.681zm0 6.066h9.099v3.033h-9.099z" opacity=".207"/><path fill="url(#c)" fill-rule="nonzero" d="M34.879 24.263h6.066v27.296h-6.066z"/><path fill="url(#d)" fill-rule="nonzero" d="M47.01 19.714h6.066V51.56H47.01zm12.132 10.615h6.066v21.23h-6.066zm12.132-10.615h6.066V51.56h-6.066z"/><path fill="url(#e)" fill-rule="nonzero" d="M49.186 79.515a28.718 28.718 0 0 0 8.44-20.373H28.812l20.373 20.373z" opacity=".719"/><path fill="url(#f)" fill-rule="nonzero" d="M28.813 30.33C12.9 30.33 0 43.23 0 59.141s12.9 28.813 28.813 28.813a28.81 28.81 0 0 0 20.373-8.44L28.813 59.142V30.329z" opacity=".826"/><path fill="url(#g)" fill-rule="nonzero" d="M28.813 30.33v28.812h28.812c0-15.912-12.9-28.813-28.812-28.813z" opacity=".557"/></g></svg>