<svg xmlns="http://www.w3.org/2000/svg" width="68" height="85" viewBox="0 0 68 85"><defs><linearGradient id="a" x1="0%" x2="237.471%" y1="50%" y2="50%"><stop offset="0%" stop-color="#BBA1FA"/><stop offset="100%" stop-color="#6536E2"/></linearGradient><linearGradient id="b" x1="7.632%" x2="107.89%" y1="79.376%" y2="22.233%"><stop offset="0%" stop-color="#896BEB"/><stop offset="100%" stop-color="#2E097C"/></linearGradient><linearGradient id="c" x1="7.687%" y1="21.777%" y2="100%"><stop offset="0%" stop-color="#BBA1FA"/><stop offset="100%" stop-color="#6536E2"/></linearGradient><linearGradient id="d" x1="7.632%" x2="104.363%" y1="79.376%" y2="23.212%"><stop offset="0%" stop-color="#896BEB"/><stop offset="100%" stop-color="#2E097C"/></linearGradient></defs><g fill="none" fill-rule="evenodd"><path fill="url(#a)" fill-rule="nonzero" d="M31.316 7.897a12.557 12.557 0 0 0-5.86-4.466c-4.716-1.74-10.32-.236-13.513 3.633A12.448 12.448 0 0 0 9.1 14.076a12.14 12.14 0 0 0 1.719 7.142c1.253 2.07 3.152 3.81 5.375 4.796a12.59 12.59 0 0 0 7.62.873c4.845-.953 8.816-5.056 9.571-9.928a13.42 13.42 0 0 0 .162-2.02v-.014c-.008-2.501-.763-5.008-2.231-7.029zM13.743 9.043c-.043.017-.089.077-.142.148-.01-.007.053-.103.142-.148zm16.276 1.992c-.028-.089-.064-.16-.099-.184.064.042.11.173.1.184zm.836 4.337a.455.455 0 0 1-.028.184.702.702 0 0 0 .028-.184zm-.028.018v-.018.036-.018zm-8.16 8.13c.017.006.07 0 .134-.008.167-.014.007.078-.134.007zm0-18.094c.007 0 .028.007.053.007-.018 0-.036 0-.053-.007zM25.52 23.51zm-8.196.037c.07.035.106.042.113.053-.007 0-.336-.141-.16-.07 0 0 .008 0 .008.006.021.004.032.011.039.011zm2.622-18.094c.078-.007.148-.018.23-.028-.007 0-.018.007-.028.007l-.202.02zm.059 18.057c.064.007.142.028.16.018-.09.046-.33-.025-.16-.018zm-7.313-12.519zm-.879 2.777c-.07-.141.018-.3.018-.134-.018.063-.028.116-.018.134zm-.021 1.635c.07.283.042.247.028.17-.007-.029-.007-.053-.018-.089 0-.028 0-.042-.007-.07 0-.018-.007-.029-.007-.043-.004.014-.004.025.004.032zm.989 2.85a.357.357 0 0 1-.089-.169c.036.081.06.141.089.17z" transform="translate(1.813 28.936)"/><path fill="url(#b)" d="M42.605 39.139c.006-.057.006-.101.006-.158-.014-4.45-1.504-8.76-4.163-11.978a16.643 16.643 0 0 0-2.442-2.376c-.451-.354-1.299-.26-1.654.246a19.951 19.951 0 0 1-2.073 2.535c-.178.18-.361.363-.547.537l-.28.26c-.04.037-.06.056-.076.069.006-.007.014-.016.028-.016-.028.025-.05.038-.028.016-.022.015-.033.031-.054.038-.41.353-.835.685-1.272 1.005-.424.3-.853.584-1.3.847-.232.132-.464.268-.697.388a2.746 2.746 0 0 0-.278.152c-.028.016-.05.025-.06.032.005 0 .013-.007.027-.007-.022.007-.033.016-.05.025 0 0 .006 0 .006-.006-.041.016-.082.032-.123.057a15.54 15.54 0 0 1-2.967 1.027c-.246.057-.487.11-.733.158-.123.025-.246.038-.37.063-.032.007-.049.007-.054.007.005 0 .131-.026.15-.026-.06.032-.191.026-.268.038a15.515 15.515 0 0 1-3.219.089c-.251-.025-.506-.048-.752-.08a4.243 4.243 0 0 1-.186-.025h-.043c-.041-.006-.088-.015-.104-.015-.069-.016-.142-.026-.214-.038a15.39 15.39 0 0 1-3.013-.879c-.233-.095-.46-.19-.684-.29a2.59 2.59 0 0 0-.191-.089.183.183 0 0 0-.082-.025.23.23 0 0 0 .114.038c-.155-.026-.164-.048-.114-.038-.088-.048-.186-.11-.26-.152a17.692 17.692 0 0 1-1.335-.784 18.43 18.43 0 0 1-1.436-1.043c-.17-.132-.388-.278-.56-.442.005.016-.006 0-.069-.08l.069.08a.285.285 0 0 0-.069-.089c-.068-.063-.13-.126-.196-.19-.104-.1-.214-.195-.315-.3a20.046 20.046 0 0 1-2.38-2.844c-.346-.505-1.203-.606-1.654-.246C2.535 27.888.03 33.229.017 38.99c-.006 2.648 0 5.294 0 7.948 0 .955-.041 1.922.005 2.867.137 2.882 1.936 5.505 4.439 6.083 1.271.291 2.652.133 3.938.133h24.416c1.353 0 2.707.025 4.06.016a5.36 5.36 0 0 0 4.41-2.323 7.277 7.277 0 0 0 1.326-4.134c.005-.268 0-.537 0-.815l.002-9.626h-.008z" transform="translate(1.813 28.936)"/><path fill="url(#a)" fill-rule="nonzero" d="M53.756 3.659A8.84 8.84 0 0 0 49.592.496c-3.304-1.211-7.24-.146-9.475 2.562a8.805 8.805 0 0 0-2.01 4.912 8.495 8.495 0 0 0 1.216 5.07c.877 1.44 2.2 2.651 3.74 3.346a8.869 8.869 0 0 0 5.402.624c3.387-.669 6.189-3.549 6.725-6.954.072-.482.117-.96.117-1.446v-.018c.002-1.752-.527-3.513-1.551-4.933z" transform="translate(1.813 28.936)"/><path fill="url(#b)" d="M64.634 23.174c-.703-2.41-1.9-4.626-3.523-6.318a15.536 15.536 0 0 0-1.382-1.263c-.452-.371-1.3-.265-1.656.251a17.24 17.24 0 0 1-2.387 2.804c-.006.007-.022.017-.028.026-.032.033-.068.058-.104.09-.11.097-.219.184-.336.284a16.45 16.45 0 0 1-.685.532c-.487.348-.985.67-1.5.951-.115.065-.232.123-.347.184-.06.032-.124.058-.187.09-.273.129-.552.242-.834.355-.534.2-1.082.37-1.637.5-.252.057-.515.122-.767.16h-.055a1.232 1.232 0 0 0-.191.026c-.164.016-.323.039-.487.049-.644.058-1.293.058-1.938.006a11.349 11.349 0 0 1-.57-.058c-.082-.006-.17-.032-.252-.039-.033 0-.068-.025-.095-.025-.006 0-.006.006-.014.006h-.044a12.903 12.903 0 0 1-3.058-.951 1.157 1.157 0 0 0-.224-.097h-.006c-.569-.219-1.253.22-1.527.832 0 0 .005 0 .005.007a19.931 19.931 0 0 1 2.39 2.472c.15.184.301.38.444.574.397.522.766 1.07 1.116 1.637 1.95 3.153 3.162 6.873 3.504 10.76.06.671.096 1.348.104 2.032.006.058.006.122.006.177l.008 3.256h11.579c.142 0 .287.016.438.016 1.182-.016 2.25-.5 3.161-1.37.816-.774 1.424-1.973 1.62-3.185.088-.548.105-1.07.105-1.628V28.38c.005-1.763-.159-3.53-.646-5.206z" transform="translate(1.813 28.936)"/><g fill-rule="nonzero"><path fill="url(#c)" d="M0 4.005l6.807 5.78v6.75c0 2.854 2.725 5.167 6.085 5.167h19.103c3.36 0 6.085-2.313 6.085-5.167V5.167C38.08 2.313 35.356 0 31.995 0H12.892c-2.89 0-5.307 1.711-5.928 4.005H0z" transform="matrix(1 0 0 -1 29.92 21.702)"/><path stroke="#EDE6FF" stroke-linecap="round" stroke-width="2.317" d="M58.933 14.016h-13.6m13.6-6.33h-13.6"/></g><g fill-rule="nonzero"><path fill="url(#d)" d="M0 3.504l5.835 5.058v5.906c0 2.497 2.335 4.521 5.215 4.521h16.375c2.88 0 5.215-2.024 5.215-4.52V4.52c0-2.496-2.335-4.52-5.215-4.52H11.05C8.574 0 6.502 1.497 5.97 3.504H0z" transform="rotate(180 16.32 13.564)"/><path fill="#D8D8D8" stroke="#F8F5FF" stroke-linecap="round" stroke-width="1.802" d="M7.532 21.114h11.926M7.532 15.418h11.926"/></g></g></svg>