<svg xmlns="http://www.w3.org/2000/svg" width="109" height="79" viewBox="0 0 109 79"><defs><linearGradient id="a" x1="6.669%" x2="93.068%" y1="3.78%" y2="98%"><stop offset="0%" stop-color="#8A6AD8"/><stop offset="100%" stop-color="#BEACEE"/></linearGradient><linearGradient id="b" x1="7.632%" x2="107.89%" y1="79.376%" y2="22.233%"><stop offset="0%" stop-color="#896BEB"/><stop offset="100%" stop-color="#2E097C"/></linearGradient><linearGradient id="c" x1="16.583%" x2="109.608%" y1="10.882%" y2="90.764%"><stop offset="0%" stop-color="#C9B3FF"/><stop offset="100%" stop-color="#2D098E"/></linearGradient><linearGradient id="d" x1="68.163%" x2="63.617%" y1="-56.59%" y2="76.461%"><stop offset="0%" stop-color="#896BEB"/><stop offset="100%" stop-color="#2E097C"/></linearGradient></defs><g fill="none" fill-rule="evenodd"><path fill="url(#a)" d="M48.888 0H3.303C1.486 0 0 1.48 0 3.289V75.64c0 1.808 1.486 3.288 3.303 3.288h45.585c1.817 0 3.304-1.48 3.304-3.288V3.289c0-1.81-1.487-3.289-3.304-3.289z" transform="translate(29.43)"/><path fill="url(#b)" d="M4.217 9.388H48.15v57.388H4.217z" transform="translate(29.43)"/><path d="M59.16 70.872h-8.094c-.99 0-1.816.822-1.816 1.809s.825 1.809 1.816 1.809h8.093a1.83 1.83 0 0 0 1.817-1.81c0-.986-.826-1.808-1.817-1.808zm2.972-66.925H48.92c-.495 0-.825.328-.825.822 0 .493.33.822.825.822h13.213c.496 0 .826-.33.826-.822 0-.494-.33-.822-.826-.822z" fill="#3E09A5"/><path fill="url(#c)" fill-rule="nonzero" d="M40.542.137H6.286C2.83.137 0 2.918 0 6.317v14.728c0 2.45 1.47 4.579 3.585 5.576v6.74l9.529-6.136h27.428c3.458 0 6.287-2.78 6.287-6.18V6.318c0-3.4-2.83-6.18-6.287-6.18z" opacity=".826" transform="translate(62.13 6.493)"/><path d="M98.854 15.506H72.235a.831.831 0 0 1-.838-.824c0-.455.375-.824.838-.824h26.619c.462 0 .838.369.838.824a.831.831 0 0 1-.838.824zm0 5.492H72.235a.83.83 0 0 1-.838-.824c0-.455.375-.824.838-.824h26.619c.462 0 .838.37.838.824a.83.83 0 0 1-.838.824zm0 5.493H72.235a.831.831 0 0 1-.838-.824c0-.455.375-.824.838-.824h26.619c.462 0 .838.37.838.824a.831.831 0 0 1-.838.824z" fill="#FFF"/><g><path fill="url(#d)" fill-rule="nonzero" d="M40.443.086H6.329C2.886.086.069 2.884.069 6.302v14.813c0 3.418 2.817 6.216 6.26 6.216h27.314l9.489 6.171v-6.778c2.107-1.004 3.57-3.145 3.57-5.61V6.303c.001-3.418-2.816-6.216-6.259-6.216z" opacity=".719" transform="translate(0 24.89)"/><path d="M36.64 33.903H10.132a.832.832 0 0 1-.834-.828c0-.458.374-.83.834-.83H36.64c.46 0 .834.372.834.83a.832.832 0 0 1-.834.828zm0 5.525H10.132a.832.832 0 0 1-.834-.83c0-.457.374-.828.834-.828H36.64c.46 0 .834.371.834.829a.832.832 0 0 1-.834.829zm0 5.524H10.132a.832.832 0 0 1-.834-.829c0-.457.374-.828.834-.828H36.64c.46 0 .834.37.834.828a.831.831 0 0 1-.834.829z" fill="#FFF"/></g></g></svg>