<svg xmlns="http://www.w3.org/2000/svg" width="88" height="78" viewBox="0 0 88 78"><defs><linearGradient id="a" x1="0%" x2="82.88%" y1="0%" y2="106.373%"><stop offset="0%" stop-color="#D7C6FF"/><stop offset="100%" stop-color="#8962F2"/></linearGradient><linearGradient id="b" x1="50%" x2="50%" y1="0%" y2="91.846%"><stop offset="0%" stop-color="#F0EAFF"/><stop offset="100%" stop-color="#CCBBFB"/></linearGradient><linearGradient id="c" x1="4.077%" x2="95.923%" y1="45.923%" y2="45.923%"><stop offset="0%" stop-color="#F0EAFF"/><stop offset="100%" stop-color="#CCBBFB"/></linearGradient></defs><g fill="none" fill-rule="evenodd"><rect width="83" height="60" x="2.5" y="2.5" fill="url(#a)" stroke="#FFF" stroke-opacity=".408" stroke-width="5" rx="2"/><path stroke="#7142EB" stroke-linecap="round" stroke-width="3" d="M13 20h27.5M13 30.5h41.5M13 43.5h14.5"/><path fill="#E9E0FF" d="M76.878 51.668a3.67 3.67 0 0 1 0 5.192v.001a3.672 3.672 0 0 1-5.192 0l-7.098-7.098 5.193-5.193 7.097 7.098z" opacity=".599"/><path fill="#E9E0FF" d="M69.781 44.57l-5.193 5.193-5.668-5.668-.219-.034a16.879 16.879 0 0 0 5.27-5.206l.142.047 5.668 5.668z" opacity=".599"/><path fill="url(#b)" fill-rule="nonzero" d="M16.818 0c9.278 0 16.8 7.521 16.8 16.8 0 9.278-7.522 16.8-16.8 16.8S.018 26.077.018 16.8C.018 7.52 7.54 0 16.818 0z" opacity=".826" transform="translate(33 13)"/><rect width="56" height="8" x="14" y="70" fill="url(#c)" fill-rule="nonzero" rx="2"/></g></svg>