<svg xmlns="http://www.w3.org/2000/svg" width="87" height="79" viewBox="0 0 87 79"><defs><linearGradient id="a" x1="83.783%" x2="45.929%" y1="0%" y2="140.794%"><stop offset="0%" stop-color="#DACFFF"/><stop offset="100%" stop-color="#8146FF"/></linearGradient><linearGradient id="b" x1="57.225%" x2="57.225%" y1="124.371%" y2="29.782%"><stop offset="0%" stop-color="#AC93FF"/><stop offset="100%" stop-color="#5F2CCD"/></linearGradient><linearGradient id="c" x1="50%" x2="50%" y1="0%" y2="91.846%"><stop offset="0%" stop-color="#F0EAFF"/><stop offset="100%" stop-color="#CCBBFB"/></linearGradient><linearGradient id="d" x1="0%" x2="82.378%" y1="0%" y2="145.854%"><stop offset="0%" stop-color="#D7C6FF"/><stop offset="100%" stop-color="#6536E2"/></linearGradient></defs><g fill="none" fill-rule="evenodd"><g transform="translate(23)"><rect width="64" height="51" fill="url(#a)" rx="2"/><path fill="url(#b)" fill-rule="nonzero" d="M23 11.385h6.066v31.846H23zM9 7h6.066v31.846H9zm28 10.385h6.066v21.23H37zm14-6h6.066v31.846H51z" opacity=".677"/><path stroke="#EBE4FF" stroke-linecap="square" stroke-width="2" d="M56 43.23H26.066" opacity=".942"/></g><g transform="translate(0 12)"><ellipse cx="33.5" cy="33.452" fill="url(#c)" fill-rule="nonzero" rx="33.5" ry="33.452"/><path d="M43.815 16.551c-.44 1.35-2.022 1.938-3.085 2.676a19.526 19.526 0 0 1-4.505 2.55c-1.605.576-3.454.657-4.898 1.591-1.444.934-1.363 2.284-1.178 3.784.08.373-.014.763-.254 1.06a1.33 1.33 0 0 1-1.456.082c-1.074-.439-2.021-1.154-3.211-.658a2.853 2.853 0 0 0-1.71 2.665c0 2.457 2.126 3.806 3.824 5.179.485.404 2.68 2.745 1.374 3.287a1.375 1.375 0 0 1-.831-.034 904.32 904.32 0 0 0-7.555-1.869c-2.102-.507-4.424-1.176-5.476-3.057-.89-1.592-.635-3.68-1.71-5.133-.947-1.28-2.622-1.707-4.146-2.145-1.525-.439-3.177-1.165-3.743-2.642-.924-2.434 1.721-5.04 1.074-7.567-.612-2.364-3.095-2.56-4.99-1.718a3.474 3.474 0 0 0-1.086.738l-.15-.15A33.4 33.4 0 0 1 19.706.102a7.343 7.343 0 0 0 5.788 3.31c1.94.093 3.87-.68 5.683.462a2.579 2.579 0 0 1 1.225 2.872c-.532 1.488-2.75 2.226-2.611 3.795.115 1.246 1.744 1.777 2.957 1.488 1.213-.288 2.299-1.05 3.547-1.234 1.94-.277 3.742.923 5.336 2.065 1.248.9 2.653 2.238 2.184 3.691zm6.692 41.287a33.308 33.308 0 0 1-21.521 7.844 32.712 32.712 0 0 1-5.245-.415 17.477 17.477 0 0 1-1.594-.992 4.749 4.749 0 0 1-2.23-3.553 5.445 5.445 0 0 1 .786-2.48c.566-1.107.474-2.538 1.329-3.483.727-.796 1.848-1.004 2.691-1.65a7.73 7.73 0 0 0 1.94-2.33 20.09 20.09 0 0 1 2.173-3.945c1.501-1.58 3.985-.934 5.695-.115a18.888 18.888 0 0 1 5.106 3.402 53.382 53.382 0 0 0 4.793 4.488 22.28 22.28 0 0 0 6.077 3.23z" fill="url(#d)" transform="translate(4.58 1.176)"/></g></g></svg>