<svg width="79" height="70" viewBox="0 0 79 70" xmlns="http://www.w3.org/2000/svg"><title>Group 46</title><defs><linearGradient x1="7.632%" y1="79.376%" x2="107.89%" y2="22.233%" id="a"><stop stop-color="#896BEB" offset="0%"/><stop stop-color="#2E097C" offset="100%"/></linearGradient><linearGradient x1="16.583%" y1="10.882%" x2="109.608%" y2="90.764%" id="b"><stop stop-color="#C9B3FF" offset="0%"/><stop stop-color="#2D098E" offset="100%"/></linearGradient><linearGradient x1="7.632%" y1="79.376%" x2="106.818%" y2="79.376%" id="c"><stop stop-color="#896BEB" offset="0%"/><stop stop-color="#2E097C" offset="100%"/></linearGradient></defs><g fill="none" fill-rule="evenodd"><rect stroke-opacity=".231" stroke="#FFF" stroke-width="4.5" fill="url(#a)" x="2.25" y="2.25" width="74.5" height="53.833" rx="1.8"/><path d="M11.67 17.949h24.688M11.67 28.27h37.256M11.67 39.936h13.018" stroke="#180F2B" stroke-width="2.7" stroke-linecap="round" fill-rule="nonzero"/><path d="M57.983 44.66l-5.089-5.087-.196-.031a15.15 15.15 0 0 0 4.73-4.672l.128.042L62.645 40l6.37 6.37a3.293 3.293 0 0 1 0 4.659v.001a3.297 3.297 0 0 1-4.66 0l-6.372-6.37z" fill="#7852CA"/><path d="M15.098 0c8.33 0 15.081 6.75 15.081 15.077 0 8.326-6.752 15.076-15.081 15.076-8.33 0-15.082-6.75-15.082-15.076C.016 6.75 6.77 0 15.098 0z" fill="url(#b)" fill-rule="nonzero" opacity=".826" transform="translate(29.625 11.667)"/><rect fill="url(#c)" fill-rule="nonzero" x="12.568" y="62.821" width="50.273" height="7.179" rx="1.8"/></g></svg>