<svg xmlns="http://www.w3.org/2000/svg" width="75" height="77" viewBox="0 0 75 77"><defs><linearGradient id="a" x1="0%" x2="82.88%" y1="0%" y2="106.373%"><stop offset="0%" stop-color="#D7C6FF"/><stop offset="100%" stop-color="#6536E2"/></linearGradient><linearGradient id="b" x1="16.827%" y1="0%" y2="100%"><stop offset="0%" stop-color="#D7C6FF"/><stop offset="100%" stop-color="#6536E2"/></linearGradient><linearGradient id="c" x1="50%" x2="50%" y1="0%" y2="91.846%"><stop offset="0%" stop-color="#F0EAFF"/><stop offset="100%" stop-color="#CCBBFB"/></linearGradient><linearGradient id="d" x1="26.406%" x2="112.718%" y1="6.283%" y2="100%"><stop offset="0%" stop-color="#F0EAFF"/><stop offset="100%" stop-color="#CCBBFB"/></linearGradient><linearGradient id="e" x1="16.376%" x2="112.283%" y1="20.102%" y2="85.771%"><stop offset="0%" stop-color="#F0EAFF"/><stop offset="100%" stop-color="#CCBBFB"/></linearGradient></defs><g fill="none" fill-rule="evenodd"><path fill="url(#a)" d="M11 50.6h6.676c6.076 0 11 4.925 11 11v14.3H0V61.6c0-6.075 4.925-11 11-11z"/><path fill="url(#b)" d="M57.324 20.9H64c6.075 0 11 4.925 11 11v14.3H46.324V31.9c0-6.075 4.924-11 11-11z"/><ellipse cx="14.89" cy="39.05" fill="url(#c)" fill-rule="nonzero" rx="9.375" ry="9.35"/><ellipse cx="60.11" cy="9.35" fill="url(#c)" fill-rule="nonzero" rx="9.375" ry="9.35"/><path fill="url(#d)" fill-rule="nonzero" d="M35.294 58.109l7.085 6.075v7.093c0 3 2.836 5.43 6.333 5.43h19.884c3.497 0 6.333-2.43 6.333-5.43V59.33c0-2.999-2.836-5.43-6.333-5.43H48.712c-3.007 0-5.523 1.798-6.17 4.209h-7.248z"/><path fill="url(#e)" fill-rule="nonzero" d="M0 5.6l7.085 6.076v7.094c0 2.999 2.836 5.43 6.333 5.43h19.884c3.497 0 6.333-2.431 6.333-5.43V6.823c0-3-2.836-5.43-6.333-5.43H13.418c-3.007 0-5.523 1.797-6.17 4.208H0z" transform="matrix(-1 0 0 1 39.635 0)"/><path fill-rule="nonzero" stroke="#7142EB" stroke-linecap="round" stroke-width="2.2" d="M8.824 9.35h14.89m-14.89 6.6h14.89M51.838 61.6h14.89m-14.89 6.6h14.89"/></g></svg>