<svg xmlns="http://www.w3.org/2000/svg" width="81" height="75" viewBox="0 0 81 75"><defs><linearGradient id="a" x1="0%" y1="50%" y2="50%"><stop offset="0%" stop-color="#D7C6FF"/><stop offset="100%" stop-color="#6536E2"/></linearGradient><linearGradient id="b" x1="50%" x2="50%" y1="0%" y2="91.846%"><stop offset="0%" stop-color="#F0EAFF"/><stop offset="100%" stop-color="#CCBBFB"/></linearGradient></defs><g fill="none" fill-rule="evenodd"><path fill="url(#a)" d="M42 1.117A22.3 22.3 0 0 1 48.97 0c12.316.001 22.3 9.987 22.299 22.304 0 .502-.014.99-.056 1.477A11.15 11.15 0 0 1 81 34.824c.014 6.159-4.967 11.162-11.125 11.176H9.761C4.897 45.974.785 42.399.1 37.596c-.764-5.348 2.966-10.302 8.331-11.064a15.36 15.36 0 0 1 1.107-7.373c3.265-7.851 12.296-11.577 20.17-8.32A22.494 22.494 0 0 1 42 1v.117z"/><rect width="18" height="32" x="17" y="20" fill="url(#b)" fill-rule="nonzero" rx="2"/><rect width="18" height="32" x="45" y="20" fill="url(#b)" fill-rule="nonzero" rx="2"/><path fill-rule="nonzero" stroke="#7142EB" stroke-linecap="round" stroke-width="2" d="M21 28.5h10.5M21 36h10.5M21 43.5h10.5m17.5-15h10.5M49 36h10.5M49 43.5h10.5"/><path fill-rule="nonzero" stroke="#7142EB" stroke-linecap="round" stroke-width="3" d="M3.5 69.5h73.651M26 55v5.7M54 55v5.7"/><circle cx="26.5" cy="69.5" r="5.5" fill="url(#b)" fill-rule="nonzero"/><circle cx="54.5" cy="69.5" r="5.5" fill="url(#b)" fill-rule="nonzero"/></g></svg>