<svg xmlns="http://www.w3.org/2000/svg" width="60" height="63" viewBox="0 0 60 63"><g fill="none"><path fill="#A2A2AF" d="M10.714 4.2h2.143v2.1h-2.143zM15 4.2h2.143v2.1H15zm4.286 0h2.143v2.1h-2.143z"/><path fill="#A2A2AF" d="M55.714 0h-45C8.347 0 6.43 1.88 6.43 4.2v18.9H1.07A1.06 1.06 0 0 0 0 24.15v18.9c0 .58.48 1.05 1.071 1.05H6.43v3.15H1.07A1.06 1.06 0 0 0 0 48.3v8.4c0 .58.48 1.05 1.071 1.05H6.43v1.05c0 2.32 1.918 4.2 4.285 4.2h45C58.081 63 60 61.12 60 58.8V4.2C60 1.88 58.081 0 55.714 0zM6.43 55.65H2.143v-6.3h4.286v6.3zM2.143 42V25.2H30V42H2.143zm6.428 7.35h2.143v6.3H8.571v-6.3zm49.286 9.45c0 1.16-.96 2.1-2.143 2.1h-45c-1.183 0-2.143-.94-2.143-2.1v-1.05H45c.166.002.33-.034.479-.105l8.571-4.2a1.04 1.04 0 0 0 0-1.88l-8.571-4.2a1.078 1.078 0 0 0-.445-.105l-36.463-.008V44.1h22.5a1.06 1.06 0 0 0 1.072-1.05v-18.9c0-.58-.48-1.05-1.072-1.05h-22.5V10.5h49.286v48.3zM43.93 53.55v2.1H12.857v-2.1H43.93zm-31.072-2.1v-2.1H43.93v2.1H12.857zm33.214 3.551V50l5.105 2.501-5.105 2.501zM57.857 8.4H8.571V4.2c0-1.16.96-2.1 2.143-2.1h45c1.184 0 2.143.94 2.143 2.1v4.2z"/><path fill="#7142EB" d="M12.429 31.29l-1.286-1.68-4.286 3.15a1.036 1.036 0 0 0 0 1.68l4.286 3.15 1.286-1.68-3.143-2.31 3.143-2.31zM25.5 32.97a1.04 1.04 0 0 0-.214-.21L21 29.61l-1.286 1.68 3.143 2.31-3.143 2.31L21 37.59l4.286-3.15a1.037 1.037 0 0 0 .214-1.47zm-12.548 5.597l4.287-10.713 1.95.78L14.9 39.347z"/><path fill="#A2A2AF" d="M10.808 15.75h16.071v2.1H10.808z"/><path fill="#7142EB" d="M50.357 30.949c4.428-2.9 5.62-8.768 2.66-13.108-2.958-4.34-8.946-5.507-13.374-2.607-4.428 2.9-5.62 8.768-2.66 13.107a9.55 9.55 0 0 0 2.66 2.608v1.601H37.5v2.1h2.143v3.15c0 .58.48 1.05 1.071 1.05h8.572a1.06 1.06 0 0 0 1.071-1.05v-3.15H52.5v-2.1h-2.143v-1.601zm-2.143 5.801h-6.428v-2.1h6.428v2.1zm.536-7.291a1.046 1.046 0 0 0-.536.908v2.183h-2.143v-5.865l2.9-2.843-1.514-1.484L45 24.765l-2.457-2.407-1.515 1.484 2.9 2.843v5.865h-2.142v-2.183c0-.375-.205-.72-.536-.908-3.584-2.036-4.805-6.533-2.727-10.045 1.34-2.264 3.806-3.66 6.477-3.664 4.142.006 7.495 3.302 7.489 7.361-.005 2.617-1.428 5.035-3.739 6.348z"/></g></svg>