<svg xmlns="http://www.w3.org/2000/svg" width="67" height="67" viewBox="0 0 67 67"><g fill="none"><path fill="#A2A2AF" d="M61.417 25.683v-20.1A5.59 5.59 0 0 0 55.833 0H11.167a5.59 5.59 0 0 0-5.584 5.583v29.034H1.117c-.618 0-1.117.499-1.117 1.116v2.234a5.59 5.59 0 0 0 5.583 5.583H40.2v17.867A5.59 5.59 0 0 0 45.783 67h15.634A5.59 5.59 0 0 0 67 61.417v-30.15a5.59 5.59 0 0 0-5.583-5.584zM40.2 41.317H5.583a3.354 3.354 0 0 1-3.35-3.35V36.85H40.2v4.467zm0-6.7H7.817V5.583a3.354 3.354 0 0 1 3.35-3.35h44.666a3.354 3.354 0 0 1 3.35 3.35v20.1H56.95v-20.1c0-.617-.5-1.116-1.117-1.116H11.167c-.618 0-1.117.499-1.117 1.116v25.684c0 .617.5 1.116 1.117 1.116H40.2v2.234zm.113-4.467h-28.03V6.7h42.434v18.983h-8.934a5.594 5.594 0 0 0-5.47 4.467zm24.454 31.267a3.354 3.354 0 0 1-3.35 3.35H45.783a3.354 3.354 0 0 1-3.35-3.35v-3.35h22.334v3.35zm0-5.584H42.433V33.5h22.334v22.333zM42.433 31.267a3.354 3.354 0 0 1 3.35-3.35h15.634a3.354 3.354 0 0 1 3.35 3.35H42.433z"/><path fill="#7142EB" d="M37.64 58.23l-4.467-4.467-1.58 1.579 2.724 2.725H15.633a3.354 3.354 0 0 1-3.35-3.35v-5.121l2.56 2.56 1.58-1.579-4.467-4.466a1.115 1.115 0 0 0-1.579 0l-4.466 4.466 1.578 1.58 2.561-2.561v5.12a5.59 5.59 0 0 0 5.583 5.584H33.99l-2.396 2.396 1.579 1.58 4.466-4.467a1.115 1.115 0 0 0 0-1.58z"/><path fill="#A2A2AF" d="M50.25 60.3h6.7v2.233h-6.7z"/><path fill="#7142EB" d="M51.367 35.733h-5.584c-.617 0-1.116.5-1.116 1.117v5.583c0 .618.499 1.117 1.116 1.117h5.584c.617 0 1.116-.5 1.116-1.117V36.85c0-.618-.499-1.117-1.116-1.117zm-1.117 5.584H46.9v-3.35h3.35v3.35zm1.117 4.466h-5.584c-.617 0-1.116.5-1.116 1.117v5.583c0 .618.499 1.117 1.116 1.117h5.584c.617 0 1.116-.5 1.116-1.117V46.9c0-.618-.499-1.117-1.116-1.117zm-1.117 5.584H46.9v-3.35h3.35v3.35z"/><path fill="#A2A2AF" d="M54.717 38.2h6.7v2.233h-6.7zm0 10.05h6.7v2.233h-6.7z"/><path fill="#7142EB" d="M21.217 8.933h-5.584c-.617 0-1.116.5-1.116 1.117v5.583c0 .618.499 1.117 1.116 1.117h5.584c.617 0 1.116-.5 1.116-1.117V10.05c0-.618-.499-1.117-1.116-1.117zM20.1 14.517h-3.35v-3.35h3.35v3.35zm1.117 6.466h-5.584c-.617 0-1.116.5-1.116 1.117v5.583c0 .618.499 1.117 1.116 1.117h5.584c.617 0 1.116-.5 1.116-1.117V22.1c0-.618-.499-1.117-1.116-1.117zM20.1 26.567h-3.35v-3.35h3.35v3.35z"/><path fill="#A2A2AF" d="M24.567 11.933h6.7v2.233h-6.7z"/><path fill="#7142EB" d="M42.433 8.933H36.85c-.618 0-1.117.5-1.117 1.117v5.583c0 .618.5 1.117 1.117 1.117h5.583c.618 0 1.117-.5 1.117-1.117V10.05c0-.618-.5-1.117-1.117-1.117zm-1.116 5.584h-3.35v-3.35h3.35v3.35z"/><path fill="#A2A2AF" d="M45.783 11.933h6.7v2.233h-6.7zm-21.216 11.05h12.92v2.233h-12.92z"/></g></svg>