<svg xmlns="http://www.w3.org/2000/svg" width="62" height="62" viewBox="0 0 62 62"><g fill="none"><path fill="#A2A2AF" d="M21.7 18.6H5.167A5.173 5.173 0 0 0 0 23.767v32.842A5.396 5.396 0 0 0 5.39 62h16.087a5.396 5.396 0 0 0 5.39-5.39V23.766A5.173 5.173 0 0 0 21.7 18.6zM5.167 20.667H21.7a3.1 3.1 0 0 1 2.91 2.066H2.257a3.1 3.1 0 0 1 2.91-2.066zM24.8 56.609a3.327 3.327 0 0 1-3.323 3.324H5.39a3.327 3.327 0 0 1-3.323-3.324V55.8H24.8v.81zm0-2.876H2.067V24.8H24.8v28.933zM61.955 4.942A5.38 5.38 0 0 0 56.61 0H40.523a5.38 5.38 0 0 0-5.344 4.942c-.018.075-.046 33.291-.046 33.291A5.173 5.173 0 0 0 40.3 43.4h16.533A5.173 5.173 0 0 0 62 38.233s-.028-33.216-.045-33.29zM40.523 2.067H56.61a3.326 3.326 0 0 1 3.072 2.066h-22.23a3.326 3.326 0 0 1 3.071-2.066zm19.41 36.166a3.1 3.1 0 0 1-3.1 3.1H40.3a3.1 3.1 0 0 1-3.1-3.1V37.2h22.733v1.033zm0-3.1H37.2V6.2h22.733v28.933z"/><path fill="#A2A2AF" d="M11.367 58.9H15.5a1.033 1.033 0 0 0 0-2.067h-4.133a1.033 1.033 0 0 0 0 2.067zM46.5 40.3h4.133a1.033 1.033 0 0 0 0-2.067H46.5a1.033 1.033 0 0 0 0 2.067z"/><path fill="#7142EB" d="M9.3 51.667h2.067V49.6H12.4v2.067h2.067V49.6H15.5a5.151 5.151 0 0 0 3.068-9.3 5.148 5.148 0 0 0 2.099-4.133A5.173 5.173 0 0 0 15.5 31h-1.033v-2.067H12.4V31h-1.033v-2.067H9.3V31H6.2v2.067h2.067v14.466H6.2V49.6h3.1v2.067zm1.033-18.6H15.5a3.1 3.1 0 1 1 0 6.2h-5.167v-6.2zm0 8.266H15.5a3.1 3.1 0 1 1 0 6.2h-5.167v-6.2zM48.567 27.9c-2.28 0-4.134-1.39-4.134-3.1h-2.066c0 2.554 2.239 4.677 5.166 5.09v2.143H49.6V29.89c2.927-.413 5.167-2.535 5.167-5.089 0-2.849-2.781-5.167-6.2-5.167-2.28 0-4.134-1.39-4.134-3.1 0-1.709 1.854-3.1 4.134-3.1 2.28 0 4.133 1.391 4.133 3.1h2.067c0-2.554-2.24-4.677-5.167-5.089V9.3h-2.067v2.144c-2.927.413-5.166 2.535-5.166 5.09 0 2.848 2.78 5.166 6.2 5.166 2.28 0 4.133 1.39 4.133 3.1 0 1.71-1.854 3.1-4.133 3.1zm-5.115 22.253l1.46 1.461 2.621-2.62V52.7a3.1 3.1 0 0 1-3.1 3.1H33.067v2.067h11.366A5.173 5.173 0 0 0 49.6 52.7v-3.706l2.62 2.62 1.462-1.461-5.115-5.114-5.115 5.114zM18.548 12.097l-1.46-1.46-2.621 2.619V9.3a3.1 3.1 0 0 1 3.1-3.1h11.366V4.133H17.567A5.173 5.173 0 0 0 12.4 9.3v3.956l-2.62-2.62-1.462 1.461 5.115 5.114 5.115-5.114z"/></g></svg>