<svg xmlns="http://www.w3.org/2000/svg" width="77" height="62" viewBox="0 0 77 62"><g fill="none"><path fill="#A2A2AF" d="M75.717 51.667h-1.284V6.458C74.43 2.893 71.56.004 68.017 0H8.983C5.441.004 2.571 2.893 2.567 6.458v45.209H1.283c-.708 0-1.283.578-1.283 1.291v2.584C.004 59.107 2.875 61.996 6.417 62h64.166c3.542-.004 6.413-2.893 6.417-6.458v-2.584c0-.713-.575-1.291-1.283-1.291zM8.983 2.583h59.034a3.852 3.852 0 0 1 3.614 2.584H5.369a3.852 3.852 0 0 1 3.614-2.584zM5.133 7.75h66.734V46.5H5.133V7.75zm0 41.333h66.734v2.584H5.133v-2.584zm69.3 6.459c0 2.14-1.723 3.875-3.85 3.875H6.417c-2.127 0-3.85-1.735-3.85-3.875V54.25h71.866v1.292z"/><path fill="#7142EB" d="M25.949 27.125a3.864 3.864 0 0 0 1.001-2.583c0-2.14-1.724-3.875-3.85-3.875h-1.283v-1.292H19.25v1.292H15.4v2.583h1.283V31H15.4v2.583h3.85v1.292h2.567v-1.292H23.1c2.117.01 3.84-1.71 3.85-3.84a3.873 3.873 0 0 0-1.001-2.618zM23.1 31h-3.85v-2.583h3.85c.709 0 1.283.578 1.283 1.291 0 .714-.574 1.292-1.283 1.292zm0-5.167h-3.85V23.25h3.85c.709 0 1.283.578 1.283 1.292 0 .713-.574 1.291-1.283 1.291z"/><path fill="#A2A2AF" d="M64.183 36.388a3.862 3.862 0 0 0-2.347 2.362H33.898l-3.434-3.456a12.961 12.961 0 0 0 1.823-3.002h18a3.843 3.843 0 0 0 4.912 2.361c2.005-.713 3.056-2.927 2.347-4.945a3.843 3.843 0 0 0-4.913-2.361 3.862 3.862 0 0 0-2.347 2.361H33.11a13.01 13.01 0 0 0-.332-6.458h9.81a3.843 3.843 0 0 0 4.914 2.362c2.005-.714 3.055-2.928 2.346-4.945a3.843 3.843 0 0 0-4.913-2.362 3.862 3.862 0 0 0-2.346 2.362H31.63a12.908 12.908 0 0 0-.617-.972l4.168-4.195h26.655a3.843 3.843 0 0 0 4.913 2.362c2.005-.714 3.056-2.928 2.347-4.945a3.843 3.843 0 0 0-4.913-2.362 3.862 3.862 0 0 0-2.347 2.362H34.65c-.34 0-.667.136-.907.378l-4.418 4.446a12.775 12.775 0 0 0-18.141.516c-4.869 5.185-4.64 13.36.512 18.26a12.772 12.772 0 0 0 16.953.599l3.81 3.835c.24.244.567.381.908.382h28.47a3.843 3.843 0 0 0 4.912 2.362c2.005-.714 3.056-2.927 2.347-4.945a3.843 3.843 0 0 0-4.913-2.362zM53.9 29.708c.709 0 1.283.579 1.283 1.292 0 .713-.574 1.292-1.283 1.292A1.288 1.288 0 0 1 52.617 31c0-.713.574-1.292 1.283-1.292zm-7.7-9.041c.709 0 1.283.578 1.283 1.291 0 .714-.574 1.292-1.283 1.292a1.288 1.288 0 0 1-1.283-1.292c0-.713.574-1.291 1.283-1.291zm19.25-7.75c.709 0 1.283.578 1.283 1.291 0 .714-.574 1.292-1.283 1.292a1.288 1.288 0 0 1-1.283-1.292c0-.713.574-1.291 1.283-1.291zm-37.613 21.46c-.018.015-.043.021-.06.04-.016.018-.024.04-.039.059a10.212 10.212 0 0 1-14.508-.084 10.36 10.36 0 0 1-2.963-7.267c-.006-5.707 4.585-10.338 10.255-10.344 5.67-.006 10.272 4.615 10.278 10.322a10.368 10.368 0 0 1-2.963 7.273zm37.613 6.956a1.288 1.288 0 0 1-1.283-1.291c0-.714.574-1.292 1.283-1.292s1.283.578 1.283 1.292c0 .713-.574 1.291-1.283 1.291z"/></g></svg>