<svg xmlns="http://www.w3.org/2000/svg" width="163" height="43" viewBox="0 0 163 43"><g fill="none" fill-rule="evenodd"><path fill="#404137" d="M81.817 0a.648.648 0 0 0-.652.643v16.398a.433.433 0 0 1-.217.386.459.459 0 0 1-.456 0l-2.716-1.544a1.317 1.317 0 0 0-1.303 0l-10.841 6.174c-.405.23-.652.674-.652 1.136v12.346c0 .461.247.884.652 1.115l10.84 6.173c.406.23.9.23 1.304 0l10.841-6.173a1.28 1.28 0 0 0 .652-1.115V4.76c0-.469-.259-.908-.673-1.136L82.143.064A.645.645 0 0 0 81.817 0zM12.08 15.412a1.24 1.24 0 0 0-.586.15L.652 21.735c-.404.23-.652.65-.652 1.115l.022 16.569c0 .23.12.444.326.557a.64.64 0 0 0 .651 0l6.431-3.644c.407-.239.673-.654.673-1.114V27.48c0-.462.247-.886.652-1.115l2.738-1.565c.204-.116.423-.171.651-.171a1.3 1.3 0 0 1 .652.171l2.738 1.565c.405.23.651.653.651 1.115v7.738c0 .46.27.878.674 1.114l6.43 3.644a.64.64 0 0 0 .652 0 .643.643 0 0 0 .326-.557l.022-16.57c0-.464-.245-.884-.652-1.114l-10.84-6.173a1.23 1.23 0 0 0-.587-.15h-.13zm97.416.15a1.31 1.31 0 0 0-.651.171l-10.841 6.174a1.28 1.28 0 0 0-.652 1.114v12.347c0 .464.265.885.673 1.114l10.754 6.045c.398.224.882.24 1.282.021l6.518-3.58a.649.649 0 0 0 .347-.557.632.632 0 0 0-.325-.557l-10.907-6.173a.69.69 0 0 1-.347-.58v-3.857a.66.66 0 0 1 .347-.558l3.39-1.929a.658.658 0 0 1 .651 0l3.39 1.93a.64.64 0 0 1 .325.557v3.043a.64.64 0 0 0 .326.558c.204.115.45.116.652 0l6.496-3.73c.403-.231.652-.655.652-1.115v-2.98c0-.46-.248-.883-.652-1.114l-10.776-6.173a1.305 1.305 0 0 0-.652-.171zm-32.414 9.217c.057 0 .123.013.174.042l3.715 2.122c.1.058.174.164.174.279v4.244a.33.33 0 0 1-.174.279l-3.715 2.122a.332.332 0 0 1-.326 0l-3.715-2.122a.33.33 0 0 1-.174-.279v-4.244c0-.115.073-.22.174-.279l3.715-2.121a.29.29 0 0 1 .152-.043z"/><path fill="#83CD29" d="M142.979 15.23c-.377 0-.743.077-1.066.259l-10.25 5.887a2.145 2.145 0 0 0-1.067 1.861V34.99c0 .763.403 1.48 1.067 1.861l2.676 1.537c1.3.638 1.78.628 2.373.628 1.925 0 3.024-1.162 3.024-3.182V24.233c0-.164-.142-.281-.304-.281h-1.284c-.165 0-.305.117-.305.281v11.601c0 .895-.937 1.796-2.459 1.04l-2.786-1.624c-.098-.054-.174-.148-.174-.26V23.237c0-.111.075-.224.174-.28l10.229-5.866a.303.303 0 0 1 .304 0l10.228 5.865a.345.345 0 0 1 .175.281V34.99a.326.326 0 0 1-.153.281l-10.25 5.866a.317.317 0 0 1-.304 0l-2.634-1.558a.275.275 0 0 0-.26 0c-.728.41-.864.457-1.546.692-.168.058-.423.149.087.433l3.439 2.013c.327.188.692.281 1.066.281.38 0 .739-.093 1.066-.281l10.25-5.866a2.15 2.15 0 0 0 1.067-1.86V23.236c0-.763-.404-1.48-1.067-1.861l-10.25-5.887a2.147 2.147 0 0 0-1.066-.26zm-97.494.237c-.226 0-.45.057-.652.173l-10.86 6.212A1.328 1.328 0 0 0 33.32 23v12.467c0 .466.248.892.653 1.126l10.86 6.233c.406.233.9.233 1.305 0l10.86-6.233c.405-.234.652-.66.652-1.126V23c0-.466-.247-.914-.653-1.147L46.138 15.64a1.305 1.305 0 0 0-.653-.173zm112.706.065v.303h.848v2.23h.348v-2.23h.87v-.303h-2.066zm2.372 0v2.533h.326V16.57c0-.06.003-.155 0-.281-.004-.129 0-.24 0-.303v-.065l.718 2.142h.348l.74-2.142c0 .136-.018.268-.021.39-.002.118 0 .207 0 .259v1.493H163v-2.532h-.479l-.74 2.143-.718-2.143h-.5zm-14.842 8.095c-2.919 0-4.657 1.236-4.657 3.29 0 2.229 1.725 2.841 4.526 3.117 3.352.326 3.613.815 3.613 1.472 0 1.138-.912 1.623-3.069 1.623-2.708 0-3.304-.673-3.503-2.013-.024-.144-.135-.26-.283-.26h-1.328a.31.31 0 0 0-.304.303c0 1.716.938 3.745 5.418 3.745 3.244 0 5.114-1.267 5.114-3.485 0-2.2-1.51-2.79-4.657-3.203-3.179-.419-3.481-.623-3.481-1.364 0-.611.256-1.428 2.611-1.428 2.103 0 2.88.45 3.199 1.861a.297.297 0 0 0 .283.238h1.327c.082 0 .161-.05.218-.108.056-.063.095-.133.087-.217-.205-2.428-1.834-3.57-5.114-3.57zm-35.298 2.965c-.043 0-.091 0-.13.022l-2.09 1.212a.252.252 0 0 0-.13.216v2.381c0 .09.052.172.13.217l2.09 1.19a.229.229 0 0 0 .239 0l2.089-1.19a.254.254 0 0 0 .13-.217v-2.38a.254.254 0 0 0-.13-.217l-2.09-1.212c-.038-.023-.065-.022-.108-.022z"/></g></svg>