<svg xmlns="http://www.w3.org/2000/svg" width="67" height="67" viewBox="0 0 67 67"><g fill="none"><path fill="#7142EB" d="M43.096 22.726c-5.963-5.322-15.121-4.814-20.456 1.137a14.439 14.439 0 0 0 1.14 20.413C29.743 49.6 38.9 49.09 44.235 43.14c5.334-5.95 4.824-15.09-1.14-20.413zM41.609 42.62c-5.046 4.503-12.795 4.072-17.308-.964a12.217 12.217 0 0 1 .965-17.272c5.046-4.504 12.796-4.072 17.309.963 4.512 5.036 4.08 12.77-.966 17.273z"/><path fill="#7142EB" d="M39.99 35.773a4.411 4.411 0 0 0-1.406-2.271 4.406 4.406 0 0 0 .472-6.223 4.423 4.423 0 0 0-2.275-1.404v-2.382h-2.229v2.224h-2.229v-2.224h-2.228v2.224h-2.229v2.225h1.114v11.12h-1.114v2.224h2.229v2.224h2.228v-2.224h2.23v2.224h2.228v-2.382a4.412 4.412 0 0 0 3.21-5.355zm-4.324 3.289H31.21v-4.448h4.457c1.231 0 2.23.995 2.23 2.224a2.226 2.226 0 0 1-2.23 2.224zm0-6.672H31.21v-4.448h4.457c1.231 0 2.23.995 2.23 2.224a2.226 2.226 0 0 1-2.23 2.224z"/><path fill="#A2A2AF" d="M64.64 36.633a3.327 3.327 0 0 0 2.04-4.243 3.337 3.337 0 0 0-6.293 0h-8.062a18.91 18.91 0 0 0-9.973-15.56v-6.68h12.463a3.34 3.34 0 0 0 2.024 2.02v9.1c0 .614.499 1.112 1.114 1.112h8.915v-2.224h-7.8v-7.989a3.327 3.327 0 0 0 2.04-4.243 3.337 3.337 0 0 0-6.293 0H41.238c-.615 0-1.114.498-1.114 1.112v6.799a18.859 18.859 0 0 0-6.686-1.239c-.745.004-1.49.052-2.229.142v-1.46a3.314 3.314 0 0 0 0-6.263V2.365h35.66V.14H30.094c-.616 0-1.115.498-1.115 1.112v5.764a3.34 3.34 0 0 0-2.023 2.02H16.723V6.608a3.327 3.327 0 0 0 2.04-4.243 3.337 3.337 0 0 0-6.293 0H.007v2.224H12.47a3.34 3.34 0 0 0 2.024 2.02v3.54c0 .614.499 1.112 1.114 1.112h11.349a3.34 3.34 0 0 0 2.023 2.02v1.872c-8.078 1.965-13.929 8.954-14.43 17.237H7.809v-4.653a3.314 3.314 0 0 0 0-6.263v-6.877c0-.614-.5-1.112-1.115-1.112H.007v2.224H5.58v5.765a3.314 3.314 0 0 0 0 6.263v5.765c0 .614.5 1.112 1.114 1.112h7.858a18.733 18.733 0 0 0 2.18 7.784h-5.58c-.616 0-1.115.498-1.115 1.112v5.56H.007v2.224h10.03v2.224c0 .614.498 1.112 1.114 1.112h7.8v2.429a3.34 3.34 0 0 0-2.023 2.02H.008v2.223h16.92a3.337 3.337 0 0 0 4.252 2.037 3.327 3.327 0 0 0 0-6.28v-3.54c0-.615-.499-1.113-1.114-1.113h-7.8v-7.784h5.886a18.918 18.918 0 0 0 14.171 7.728v7.84c0 .615.5 1.112 1.115 1.112h8.914v5.56h2.23V60.19c0-.614-.5-1.112-1.115-1.112h-8.915V52.35a18.891 18.891 0 0 0 12.29-5.504h6.654v13.55a3.334 3.334 0 0 0-2.037 4.256 3.345 3.345 0 0 0 4.266 2.034 3.334 3.334 0 0 0 0-6.29V45.733c0-.614-.5-1.112-1.115-1.112h-5.887a18.736 18.736 0 0 0 3.602-10.008h8.062a3.34 3.34 0 0 0 2.024 2.02v14.66c0 .614.499 1.112 1.114 1.112h3.343v-2.224H64.64V36.633zM57.952 7.925a1.113 1.113 0 1 1-1.114 1.112c0-.614.499-1.112 1.114-1.112zM15.608 4.589a1.113 1.113 0 1 1 1.115-1.112c0 .614-.5 1.112-1.115 1.112zM6.693 25.717a1.113 1.113 0 1 1 1.115-1.112c0 .615-.5 1.112-1.115 1.112zm13.373 33.361a1.113 1.113 0 1 1-1.115 1.112c0-.614.5-1.112 1.115-1.112zm34.544 3.337a1.113 1.113 0 1 1-1.114 1.112c0-.615.499-1.112 1.114-1.112zM30.095 9.037a1.113 1.113 0 1 1-1.115 1.112c0-.614.5-1.112 1.115-1.112zm3.343 41.145c-9.232 0-16.715-7.468-16.715-16.68.01-9.208 7.488-16.67 16.715-16.68 9.231 0 16.715 7.467 16.715 16.68 0 9.212-7.484 16.68-16.715 16.68zm30.087-15.568a1.113 1.113 0 1 1 1.114-1.112c0 .614-.499 1.112-1.114 1.112z"/></g></svg>