<svg xmlns="http://www.w3.org/2000/svg" width="67" height="67" viewBox="0 0 67 67"><defs><linearGradient id="a" x1="12.959%" x2="79.639%" y1="11.7%" y2="78.453%"><stop offset="0%" stop-color="#387EB8"/><stop offset="100%" stop-color="#366994"/></linearGradient><linearGradient id="b" x1="19.128%" x2="90.742%" y1="20.316%" y2="88.773%"><stop offset="0%" stop-color="#FFE052"/><stop offset="100%" stop-color="#FFC331"/></linearGradient></defs><g fill="none"><path fill="url(#a)" d="M33.259 0c-17.01 0-15.947 7.443-15.947 7.443l.019 7.712h16.231v2.315H10.884S0 16.224 0 33.543C0 50.86 9.5 50.247 9.5 50.247h5.67v-8.036s-.306-9.587 9.348-9.587h16.098s9.045.148 9.045-8.82V8.973S51.034 0 33.259 0zm-8.95 5.185c1.615 0 2.92 1.318 2.92 2.947 0 1.63-1.305 2.947-2.92 2.947s-2.92-1.317-2.92-2.947c0-1.63 1.305-2.947 2.92-2.947z"/><path fill="url(#b)" d="M33.741 67c17.01 0 15.947-7.443 15.947-7.443l-.019-7.712H33.438V49.53h22.678S67 50.776 67 33.457c0-17.318-9.5-16.704-9.5-16.704h-5.67v8.036s.306 9.587-9.348 9.587H26.384s-9.045-.148-9.045 8.82v14.83S15.966 67 33.741 67zm8.95-5.185c-1.615 0-2.92-1.318-2.92-2.947 0-1.63 1.305-2.947 2.92-2.947s2.92 1.317 2.92 2.947c0 1.63-1.305 2.947-2.92 2.947z"/></g></svg>