<svg xmlns="http://www.w3.org/2000/svg" width="74" height="67" viewBox="0 0 74 67"><g fill="#61DAFB"><path d="M74 33.508c0-4.984-6.139-9.708-15.551-12.637C60.62 11.118 59.656 3.358 55.402.874c-.98-.583-2.127-.859-3.379-.859v3.42c.694 0 1.252.138 1.72.399 2.051 1.196 2.941 5.75 2.247 11.609-.166 1.441-.437 2.96-.769 4.508-2.956-.736-6.184-1.303-9.578-1.671-2.036-2.837-4.148-5.414-6.275-7.668 4.917-4.647 9.533-7.192 12.67-7.192V0C47.89 0 42.46 3.006 36.97 8.22 31.48 3.036 26.05.06 21.9.06v3.42c3.123 0 7.753 2.53 12.67 7.146a72.18 72.18 0 0 0-6.229 7.653c-3.409.368-6.637.935-9.593 1.687a46.965 46.965 0 0 1-.784-4.448c-.71-5.858.165-10.412 2.202-11.624.452-.276 1.04-.399 1.734-.399V.076c-1.267 0-2.413.277-3.409.86-4.238 2.484-5.188 10.228-3.001 19.95C6.109 23.832 0 28.54 0 33.509c0 4.984 6.139 9.707 15.551 12.636-2.172 9.753-1.207 17.513 3.047 19.997.98.583 2.127.859 3.394.859 4.148 0 9.578-3.006 15.068-8.22 5.49 5.184 10.92 8.159 15.069 8.159 1.267 0 2.413-.276 3.409-.86 4.238-2.483 5.188-10.228 3.001-19.95C67.891 43.199 74 38.476 74 33.508zM54.361 23.279a69.861 69.861 0 0 1-2.036 6.057 72.96 72.96 0 0 0-1.976-3.68 83.231 83.231 0 0 0-2.172-3.588c2.142.322 4.208.72 6.184 1.211zm-6.908 16.332a81.908 81.908 0 0 1-3.635 5.858c-2.248.2-4.525.307-6.818.307-2.278 0-4.555-.107-6.788-.291a84.736 84.736 0 0 1-3.65-5.828 80.363 80.363 0 0 1-3.137-6.103 80.463 80.463 0 0 1 3.122-6.12 81.908 81.908 0 0 1 3.635-5.857c2.248-.2 4.525-.307 6.818-.307 2.278 0 4.555.107 6.788.291a84.736 84.736 0 0 1 3.65 5.828 80.363 80.363 0 0 1 3.137 6.103 86.393 86.393 0 0 1-3.122 6.12zm4.872-1.993a66.467 66.467 0 0 1 2.081 6.103c-1.976.49-4.057.905-6.214 1.227a85 85 0 0 0 2.172-3.635 87.588 87.588 0 0 0 1.96-3.695zM37.03 53.98a62.93 62.93 0 0 1-4.193-4.907c1.357.061 2.745.107 4.148.107 1.418 0 2.82-.03 4.193-.107a59.597 59.597 0 0 1-4.148 4.907zm-11.222-9.032a67.067 67.067 0 0 1-6.184-1.212 69.861 69.861 0 0 1 2.036-6.057 72.96 72.96 0 0 0 1.976 3.68 101.879 101.879 0 0 0 2.172 3.589zm11.147-31.913a62.93 62.93 0 0 1 4.193 4.907A91.844 91.844 0 0 0 37 17.835c-1.418 0-2.82.03-4.193.107a59.597 59.597 0 0 1 4.148-4.907zm-11.162 9.033a85.001 85.001 0 0 0-4.133 7.314 66.467 66.467 0 0 1-2.082-6.103 72.181 72.181 0 0 1 6.215-1.211zm-13.65 19.2c-5.34-2.316-8.794-5.353-8.794-7.76 0-2.408 3.454-5.46 8.793-7.76 1.297-.567 2.715-1.073 4.178-1.549.86 3.006 1.991 6.134 3.394 9.34-1.387 3.19-2.504 6.302-3.348 9.293a45.337 45.337 0 0 1-4.224-1.565zm8.114 21.914c-2.051-1.197-2.941-5.751-2.247-11.61.166-1.44.437-2.959.769-4.508 2.956.736 6.184 1.304 9.578 1.672 2.036 2.837 4.148 5.413 6.275 7.667-4.917 4.647-9.533 7.193-12.67 7.193-.68-.016-1.252-.154-1.705-.414zm35.778-11.686c.71 5.858-.165 10.413-2.202 11.624-.452.276-1.04.399-1.734.399-3.123 0-7.753-2.53-12.67-7.146a72.18 72.18 0 0 0 6.229-7.653c3.409-.368 6.637-.935 9.593-1.687.347 1.55.619 3.037.784 4.463zm5.808-10.229c-1.298.568-2.715 1.074-4.179 1.55-.86-3.007-1.99-6.135-3.393-9.34 1.387-3.19 2.504-6.303 3.348-9.293a47.34 47.34 0 0 1 4.239 1.564c5.34 2.316 8.793 5.352 8.793 7.76-.015 2.407-3.469 5.459-8.808 7.76z"/><ellipse cx="37" cy="33.885" rx="6.796" ry="6.931"/></g></svg>