<svg xmlns="http://www.w3.org/2000/svg" width="67" height="67" viewBox="0 0 67 67"><g fill="none"><path fill="#A2A2AF" d="M61.417 0H5.583A5.59 5.59 0 0 0 0 5.583V46.9a5.59 5.59 0 0 0 5.583 5.583h18.382L20.49 60.3H8.933c-.617 0-1.116.5-1.116 1.117A5.59 5.59 0 0 0 13.4 67h40.2a5.59 5.59 0 0 0 5.583-5.583c0-.617-.499-1.117-1.116-1.117H46.509l-3.474-7.817h18.382A5.59 5.59 0 0 0 67 46.9V5.583A5.59 5.59 0 0 0 61.417 0zm-4.658 62.533a3.356 3.356 0 0 1-3.159 2.234H13.4a3.356 3.356 0 0 1-3.16-2.234h46.52zM44.065 60.3h-21.13l3.473-7.817h14.183l3.474 7.817zm20.702-13.4a3.354 3.354 0 0 1-3.35 3.35H5.583a3.354 3.354 0 0 1-3.35-3.35v-2.233h62.534V46.9zm0-4.467H2.233V5.583a3.354 3.354 0 0 1 3.35-3.35h55.834a3.354 3.354 0 0 1 3.35 3.35v36.85z"/><path fill="#7142EB" d="M9.723 5.256l-1.58-1.579-3.35 3.35a1.115 1.115 0 0 0 0 1.58l3.35 3.35 1.58-1.58-2.56-2.56 2.56-2.56zm12.283 1.771l-3.35-3.35-1.579 1.58 2.56 2.56-2.56 2.56 1.58 1.58 3.35-3.35a1.115 1.115 0 0 0 0-1.58zm7.4 21.217l-3.35-3.35-1.579 1.579 2.56 2.56-2.56 2.56 1.58 1.58 3.35-3.35a1.115 1.115 0 0 0 0-1.58zm10.05 6.7l-3.35-3.35-1.579 1.579 2.56 2.56-2.56 2.56 1.58 1.58 3.35-3.35a1.115 1.115 0 0 0 0-1.58z"/><path fill="#A2A2AF" d="M11.167 10.05h4.467v2.233h-4.467zm0 5.583h4.467v2.233h-4.467zm6.7 0h17.45v2.233h-17.45zm-6.7 5.584h4.467v2.233h-4.467zm6.7 0H36.85v2.233H17.867z"/><path fill="#7142EB" d="M7.4 30.15h4.467v2.233H7.4zm6.7 0h8.933v2.233H14.1zm-6.7 5.583h4.467v2.233H7.4zm6.7 0h18.983v2.233H14.1z"/><path fill="#A2A2AF" d="M59.867 6h-16.75C42.499 6 42 6.5 42 7.117v13.4c0 .616.5 1.116 1.117 1.116h16.75c.617 0 1.116-.5 1.116-1.116v-13.4C60.983 6.5 60.484 6 59.867 6zM58.75 19.4H44.233V8.233H58.75V19.4zm.65 5.6H47.117c-.618 0-1.117.5-1.117 1.117V38.4c0 .616.5 1.117 1.117 1.117H59.4c.618 0 1.117-.5 1.117-1.117V26.117c0-.617-.5-1.117-1.117-1.117zm-1.117 12.283h-10.05v-10.05h10.05v10.05z"/></g></svg>