<svg xmlns="http://www.w3.org/2000/svg" width="64" height="64" viewBox="0 0 64 64"><g fill="none"><path fill="#A2A2AF" d="M59.871 24.774c0-6.83-5.557-12.387-12.387-12.387s-12.387 5.557-12.387 12.387 5.556 12.387 12.387 12.387c6.83 0 12.387-5.556 12.387-12.387zm-22.71 0c0-5.692 4.631-10.322 10.323-10.322s10.322 4.63 10.322 10.322c0 5.692-4.63 10.323-10.322 10.323-5.692 0-10.323-4.63-10.323-10.323z"/><path fill="#7142EB" d="M48.516 33.032v-2.117c1.747-.253 3.097-1.745 3.097-3.56A3.617 3.617 0 0 0 48 23.742h-1.032a1.55 1.55 0 0 1-1.549-1.548 1.55 1.55 0 0 1 1.549-1.549H48a1.55 1.55 0 0 1 1.548 1.549v.516h2.065v-.516c0-1.815-1.35-3.308-3.097-3.56v-2.118h-2.064v2.117c-1.747.253-3.097 1.746-3.097 3.56a3.617 3.617 0 0 0 3.613 3.613H48a1.55 1.55 0 0 1 1.548 1.549A1.55 1.55 0 0 1 48 28.903h-1.032a1.55 1.55 0 0 1-1.549-1.548v-.516h-2.064v.516c0 1.815 1.35 3.307 3.097 3.56v2.117h2.064z"/><path fill="#A2A2AF" d="M16.516 43.355a3.1 3.1 0 0 0 3.097-3.097 3.1 3.1 0 0 0-3.097-3.097 3.1 3.1 0 0 0-3.097 3.097 3.1 3.1 0 0 0 3.097 3.097zm0-4.13a1.033 1.033 0 0 1 0 2.065 1.033 1.033 0 0 1 0-2.064z"/><path fill="#A2A2AF" d="M35.097 43.355h26.838v3.097a3.1 3.1 0 0 1-3.096 3.096h-22.71a3.1 3.1 0 0 1-3.097-3.096V32a5.167 5.167 0 0 0-5.161-5.161H5.161A5.167 5.167 0 0 0 0 32v26.839A5.167 5.167 0 0 0 5.161 64H36.13a5.167 5.167 0 0 0 5.161-5.161v-7.226H58.84A5.167 5.167 0 0 0 64 46.452V41.29H35.097v2.065zm-22.71-14.452h8.258V41.29a4.133 4.133 0 0 1-4.129 4.13 4.133 4.133 0 0 1-4.129-4.13V28.903zM5.161 61.935a3.1 3.1 0 0 1-3.096-3.096V32a3.1 3.1 0 0 1 3.096-3.097h5.162V41.29a6.2 6.2 0 0 0 6.193 6.194 6.2 6.2 0 0 0 6.194-6.194V28.903h5.161A3.1 3.1 0 0 1 30.968 32v26.839a5.14 5.14 0 0 0 1.034 3.096H5.162zm34.065-3.096a3.1 3.1 0 0 1-3.097 3.096 3.1 3.1 0 0 1-3.097-3.096v-8.285a5.112 5.112 0 0 0 2.065.954v8.363h2.064v-8.258h2.065v7.226zM58.839 0h-22.71a5.167 5.167 0 0 0-5.161 5.161v20.645h2.064V8.258h28.903v30.968H64V5.16A5.167 5.167 0 0 0 58.839 0zm3.096 6.194H33.032V5.16a3.1 3.1 0 0 1 3.097-3.096h22.71a3.1 3.1 0 0 1 3.096 3.096v1.033z"/><path fill="#7142EB" d="M43.355 45.419h8.258v2.065h-8.258z"/><path fill="#A2A2AF" d="M16.516 24.774c6.83 0 12.387-5.556 12.387-12.387C28.903 5.557 23.347 0 16.516 0 9.686 0 4.13 5.557 4.13 12.387s5.557 12.387 12.387 12.387zm0-22.71c5.692 0 10.323 4.631 10.323 10.323S22.208 22.71 16.516 22.71 6.194 18.079 6.194 12.387s4.63-10.322 10.322-10.322z"/><path fill="#7142EB" d="M15.484 18.528v2.117h2.064v-2.117c1.747-.253 3.097-1.746 3.097-3.56a3.617 3.617 0 0 0-3.613-3.613H16a1.55 1.55 0 0 1-1.548-1.549A1.55 1.55 0 0 1 16 8.258h1.032a1.55 1.55 0 0 1 1.549 1.548v.517h2.064v-.517c0-1.814-1.35-3.307-3.097-3.56V4.13h-2.064v2.117c-1.747.253-3.097 1.746-3.097 3.56A3.617 3.617 0 0 0 16 13.42h1.032a1.55 1.55 0 0 1 1.549 1.549 1.55 1.55 0 0 1-1.549 1.548H16a1.55 1.55 0 0 1-1.548-1.548v-.516h-2.065v.516c0 1.814 1.35 3.307 3.097 3.56z"/></g></svg>