<svg xmlns="http://www.w3.org/2000/svg" width="70" height="67" viewBox="0 0 70 67"><g fill="none"><path fill="#A2A2AF" d="M17.728 14.735A6.823 6.823 0 0 0 12.8 12.65h-.353a6.823 6.823 0 0 0-4.922 2.085 6.333 6.333 0 0 0-1.781 4.69l.134 3.095c.203 3.543 3.162 6.293 6.702 6.23h.087c3.54.063 6.499-2.687 6.702-6.23l.14-3.095a6.333 6.333 0 0 0-1.78-4.69zm-.652 7.69a4.312 4.312 0 0 1-4.409 4.025h-.087a4.312 4.312 0 0 1-4.409-4.025l-.04-.94a10.344 10.344 0 0 0 6-2.256 5.125 5.125 0 0 0 2.992 2.104l-.047 1.092zm-1.439-5.436a1.149 1.149 0 0 0-.918-.98c-.482-.1-.975.123-1.219.552-.014.024-1.439 2.282-5.458 2.627a4.06 4.06 0 0 1 1.139-2.858 4.532 4.532 0 0 1 3.266-1.38h.353a4.532 4.532 0 0 1 3.267 1.38 4.064 4.064 0 0 1 1.12 2.583 2.72 2.72 0 0 1-1.55-1.924zm47.848 25.009c-1.291-1.121-3.07-1.752-4.928-1.748h-.353c-1.856-.003-3.632.628-4.922 1.748-1.214 1.048-1.858 2.471-1.781 3.932l.134 2.596c.203 2.97 3.161 5.276 6.702 5.223h.087c3.54.053 6.499-2.253 6.702-5.223l.14-2.596c.077-1.46-.567-2.884-1.781-3.932zm-.514 3.854l-.138 2.594c-.155 1.936-2.1 3.425-4.409 3.375h-.087c-2.309.05-4.254-1.44-4.41-3.375l-.137-2.599c-.044-.934.37-1.842 1.148-2.511.856-.742 2.035-1.16 3.266-1.158h.353c1.23-.002 2.41.416 3.266 1.158.779.67 1.194 1.58 1.148 2.516z"/><path fill="#A2A2AF" d="M35.452 16.724a3.172 3.172 0 0 0-4.417 0l-12.812 12.84a1.147 1.147 0 0 1-.813.336H5.738A5.75 5.75 0 0 0 0 35.65v16.1a3.446 3.446 0 0 0 4.59 3.253v1.347c0 .635.514 1.15 1.148 1.15h13.771a1.15 1.15 0 0 0 1.148-1.15V37.704c0-.291.11-.571.308-.784l14.562-15.694a3.188 3.188 0 0 0-.075-4.502zm-1.564 2.893a.956.956 0 0 1-.013.012L19.28 35.354a3.454 3.454 0 0 0-.918 2.35V55.2H6.886V37.95a1.149 1.149 0 1 0-2.296 0v13.8a1.149 1.149 0 1 1-2.295 0v-16.1a3.446 3.446 0 0 1 3.443-3.45H17.41a3.414 3.414 0 0 0 2.436-1.01l12.812-12.84a.904.904 0 0 1 1.246 0 .897.897 0 0 1-.016 1.267zm4.344 22.381c-1.29-1.12-3.067-1.751-4.922-1.748h-.354c-1.855-.003-3.632.628-4.922 1.748-1.213 1.048-1.858 2.471-1.78 3.932l.133 2.596c.204 2.97 3.162 5.276 6.702 5.223h.088c3.54.053 6.498-2.253 6.702-5.223l.134-2.596c.077-1.46-.568-2.884-1.781-3.932zm-.509 3.854l-.137 2.594c-.156 1.936-2.1 3.425-4.41 3.375h-.087c-2.308.05-4.253-1.44-4.409-3.375l-.137-2.599c-.045-.934.37-1.842 1.147-2.511.857-.742 2.036-1.16 3.266-1.158h.354c1.23-.002 2.409.416 3.266 1.158.778.67 1.193 1.58 1.147 2.516z"/><path fill="#7142EB" d="M39.063 55.5h-11.86a5.558 5.558 0 0 0-5.546 5.558v4.792a1.149 1.149 0 1 0 2.295 0v-4.792a3.258 3.258 0 0 1 3.251-3.258h11.86a3.258 3.258 0 0 1 3.25 3.258v4.792a1.149 1.149 0 1 0 2.296 0v-4.792a5.558 5.558 0 0 0-5.546-5.558zm25.247 0H52.45a5.558 5.558 0 0 0-5.546 5.558v4.792a1.149 1.149 0 1 0 2.296 0v-4.792a3.258 3.258 0 0 1 3.25-3.258h11.86a3.258 3.258 0 0 1 3.251 3.258v4.792a1.149 1.149 0 1 0 2.296 0v-4.792A5.558 5.558 0 0 0 64.31 55.5z"/><path fill="#A2A2AF" d="M65.471 0H25.19a3.423 3.423 0 0 0-3.385 3.45V20.7a1.149 1.149 0 1 0 2.295 0V6.9h42.46v27.6a1.123 1.123 0 0 1-1.09 1.15H26.31a1.15 1.15 0 0 0 0 2.3h39.16a3.423 3.423 0 0 0 3.386-3.45V3.45A3.423 3.423 0 0 0 65.47 0zm1.09 4.6H24.1V3.45a1.123 1.123 0 0 1 1.09-1.15h40.281a1.123 1.123 0 0 1 1.09 1.15V4.6z"/><path fill="#A2A2AF" d="M63.119 14.662a1.15 1.15 0 0 0-1.148 1.15V32.2a1.149 1.149 0 1 0 2.295 0V15.812c0-.635-.514-1.15-1.147-1.15zm-4.591 7.188A1.15 1.15 0 0 0 57.38 23v9.2a1.149 1.149 0 1 0 2.296 0V23a1.15 1.15 0 0 0-1.148-1.15zm-4.59-2.3a1.15 1.15 0 0 0-1.148 1.15v11.5a1.149 1.149 0 1 0 2.295 0V20.7c0-.635-.514-1.15-1.147-1.15zm-4.591 6.9c-.634 0-1.147.515-1.147 1.15v4.6a1.149 1.149 0 1 0 2.295 0v-4.6a1.15 1.15 0 0 0-1.148-1.15z"/><path fill="#7142EB" d="M63.755 9.393a1.146 1.146 0 0 0-1.591.319L58.246 15.6l-3.62-2.72a1.146 1.146 0 0 0-1.721.406l-4.469 8.957-4.368 3.287a1.152 1.152 0 0 0-.23 1.61c.381.508 1.1.611 1.607.23l4.59-3.45c.145-.107.263-.246.345-.406l3.974-7.967 3.486 2.623a1.146 1.146 0 0 0 1.643-.282l4.59-6.9a1.152 1.152 0 0 0-.318-1.595z"/><path fill="#A2A2AF" d="M41.314 9.2H27.543a1.15 1.15 0 0 0 0 2.3h13.77a1.149 1.149 0 1 0 0-2.3zm6.886 0h-2.296c-.633 0-1.147.515-1.147 1.15 0 .635.514 1.15 1.147 1.15H48.2c.633 0 1.147-.515 1.147-1.15 0-.635-.514-1.15-1.147-1.15z"/></g></svg>